<?xml version="1.0" encoding="utf-8" ?>
<svg xmlns="http://www.w3.org/2000/svg" xmlns:xlink="http://www.w3.org/1999/xlink" width="512" height="256">
	<path fill="#FEFEFE" transform="scale(0.25 0.25)" d="M0 0L2046.25 0C2048.75 3.75313 2047.99 9.76244 2047.99 14.1208L2048.02 767.612L2048.01 954.147C2048.01 967.073 2049.66 1011.74 2047.62 1020.8C2047.36 1021.98 2046.85 1022.96 2046.25 1024L0 1024L0 0Z"/>
	<path fill="#231F20" transform="scale(0.25 0.25)" d="M1286.75 477.493L1290.44 476.897C1292.74 477.743 1293.09 477.778 1294.45 479.781C1293.69 482.052 1293.22 482.297 1291.32 483.813C1289.98 483.967 1288.88 483.748 1287.56 483.544C1286.02 481.113 1286.43 480.251 1286.75 477.493Z"/>
	<path fill="#231F20" transform="scale(0.25 0.25)" d="M222 753.354C225.738 753.369 230.832 752.83 234.312 754.19C236.113 754.894 236.123 756.064 236.837 757.773C232.678 757.637 226.413 758.309 222.725 756.282L222 753.354Z"/>
	<path fill="#231F20" transform="scale(0.25 0.25)" d="M1479.25 378.498C1482.8 377.848 1487.66 377.072 1491.03 378.582L1491.45 380.265L1489.53 382.501C1487.12 382.886 1484.81 382.841 1482.38 382.81C1479.97 381.315 1480.05 381.24 1479.25 378.498Z"/>
	<path fill="#231F20" transform="scale(0.25 0.25)" d="M226.994 469.322C228.881 470.522 229.714 470.948 230.766 472.998C232.344 476.074 231.3 479.746 230.231 482.786C227.785 481.631 227.324 481.219 225.735 479.024C224.866 475.561 226.005 472.631 226.994 469.322Z"/>
	<path fill="#231F20" transform="scale(0.25 0.25)" d="M481.004 736.304C482.838 736.33 483.595 736.527 485.189 737.432C482.868 741.22 476.461 741.994 472.356 742.993C470.68 742.886 469.264 742.969 467.904 741.844C468.131 741.473 468.251 741.257 468.53 740.892C471.165 737.443 476.995 737.019 481.004 736.304Z"/>
	<path fill="#231F20" transform="scale(0.25 0.25)" d="M550.203 517.46C555.747 520.29 551.876 525.34 553.82 530.022C556.998 532.015 561.952 531.154 565.666 531.698C563.638 534.126 557.957 535.234 554.906 536.546C551.935 537.823 553.115 544.883 551.818 548.313C547.198 545.454 550.382 540.47 548.581 536.253C545.712 534.513 542.311 535.248 538.995 534.821C537.007 534.565 536.778 534.677 535.464 532.983L536.215 531.766C539.889 530.139 545.063 530.666 549.049 530.597C548.951 525.997 548.88 521.934 550.203 517.46Z"/>
	<path fill="#231F20" transform="scale(0.25 0.25)" d="M721.337 339.877C720.251 336.973 720.042 331.183 721.352 328.408C721.591 327.902 721.619 327.878 721.878 327.457L723.72 327.142C726.261 331.092 723.335 337.026 726.037 340.122C729.458 340.072 735.11 338.85 737.975 340.59L738.378 342.464C734.808 344.997 729.559 344.59 725.231 344.768C725.33 348.624 725.883 352.774 723.585 356.1L722.142 356.555C720.022 353.478 720.918 349.334 721.506 345.862C718.981 344.675 715.519 345.376 712.753 344.937C710.385 344.561 709.686 344.438 708.296 342.518L709.164 340.661C712.463 339.046 717.674 339.81 721.337 339.877Z"/>
	<path fill="#231F20" transform="scale(0.25 0.25)" d="M1301.5 350.48L1304.77 350.227C1306.25 351.157 1306.44 351.375 1306.98 353.077C1308.05 356.452 1306.93 360.846 1305.32 363.879C1310.26 363.43 1316.55 362.053 1320.83 365.084L1320.19 366.579C1316.02 368.795 1311.33 368.698 1306.73 368.946C1307.27 370.369 1307.33 372.48 1307.24 374.013C1307.07 377.171 1306.86 378.526 1304.48 380.608C1304.36 380.526 1304.23 380.464 1304.13 380.363C1301.81 378.043 1302.71 375.469 1302.6 372.472C1302.33 365.006 1291.69 370.847 1286.94 366.424L1287.46 364.77C1291.19 362.868 1296.59 363.489 1300.71 363.462C1303.11 359.676 1302.17 354.647 1301.5 350.48Z"/>
	<path fill="#231F20" transform="scale(0.25 0.25)" d="M185.799 570.452C184.98 571.578 184.184 572.686 183.091 573.566C181.708 574.679 181.545 574.918 179.796 574.735C179.535 573.951 179.349 573.44 179.389 572.601C179.622 567.786 182.655 559.885 186.099 556.481L187.657 557.245C188.121 559.196 188.314 561.048 189.953 562.378C191.709 562.159 193.132 562.177 194.875 562.484L195.915 564.479C194.733 566.497 194.048 566.822 192.006 568.04C191.959 568.185 191.904 568.328 191.864 568.475C189.346 577.66 202.537 596.9 199.051 605.153L197.73 605.156C190.739 595.638 191.392 580.882 185.799 570.452Z"/>
	<path fill="#231F20" transform="scale(0.25 0.25)" d="M419.814 462.257Q420.374 462.23 420.935 462.224C424.778 462.2 428.332 462.597 431.118 465.511C432.977 467.457 433.843 469.614 433.662 472.322C433.36 476.858 430.295 479.88 426.96 482.553C425.487 482.754 424.001 482.927 422.512 482.867C419.46 482.745 416.7 481.681 414.727 479.273C413.077 477.259 412.562 475.024 412.862 472.478C413.444 467.539 416.092 465.194 419.814 462.257Z"/>
	<path fill="#231F20" transform="scale(0.25 0.25)" d="M210.743 537.577C212.626 537.455 213.488 537.921 215.095 538.862C214.879 541.841 211.675 542.393 211.32 545.259C210.292 553.566 231.615 595.384 229.479 605.21L228.359 605.829L226.444 603.634C218.482 587.881 213.694 566.904 208.2 549.909C205.479 547.745 203.153 549.141 199.872 548.309L199.385 546.537C201.673 542.858 207.182 540.028 210.743 537.577Z"/>
	<path fill="#231F20" transform="scale(0.25 0.25)" d="M1659.11 531.099C1660.7 527.706 1661.79 525.065 1665.48 523.582C1668.29 522.454 1671.72 522.787 1674.42 524.07C1677.23 525.405 1679.91 528.107 1680.8 531.13C1681.25 532.668 1681.08 534.388 1680.94 535.959C1680.24 537.05 1679.63 538.062 1678.73 539.003C1679.05 541.025 1678.82 542.53 1677.47 544.208C1676.2 545.781 1674.38 546.599 1672.39 546.767C1668.81 547.069 1665.08 545.466 1662.53 542.991C1659.06 539.634 1659.13 535.592 1659.11 531.099Z"/>
	<path fill="#FEFEFE" transform="scale(0.25 0.25)" d="M1662.4 536.163C1663.62 533.06 1664.19 530.511 1667.28 528.767C1669.35 527.598 1671.04 527.6 1673.27 528.206C1674.61 529.53 1675.21 530.362 1675.77 532.169C1676.47 535.152 1676.37 536.712 1675.46 539.634C1673.2 541.526 1672.71 541.746 1669.63 541.545C1666.38 541.333 1664.37 538.44 1662.4 536.163Z"/>
	<path fill="#231F20" transform="scale(0.25 0.25)" d="M1851.77 408.499C1855.34 408.193 1858.74 407.702 1862.03 409.429Q1862.57 409.716 1863.07 410.056Q1863.57 410.396 1864.04 410.786Q1864.51 411.175 1864.93 411.61Q1865.36 412.045 1865.74 412.521Q1866.11 412.997 1866.44 413.51Q1866.77 414.022 1867.04 414.564Q1867.32 415.107 1867.53 415.675Q1867.75 416.243 1867.91 416.83C1868.65 419.641 1868.11 422.682 1866.57 425.133C1864.39 428.598 1861.2 430.386 1857.32 431.291C1856.15 431.544 1854.74 431.431 1853.58 431.185C1850.84 430.605 1847.99 428.258 1846.51 425.941C1844.66 423.04 1843.89 418.901 1844.8 415.536C1845.84 411.696 1848.5 410.178 1851.77 408.499Z"/>
	<path fill="#FEFEFE" transform="scale(0.25 0.25)" d="M1852.16 413.499C1853.26 413.367 1854.39 413.209 1855.5 413.223C1858 413.253 1860.41 413.8 1862.1 415.813C1863.87 417.928 1863.64 418.986 1863.34 421.527C1861.84 423.866 1860.59 424.552 1858.01 425.501C1856.17 426.05 1854.28 425.884 1852.61 424.838C1850.62 423.59 1849.19 421.327 1849 418.968C1848.78 416.264 1850.42 415.178 1852.16 413.499Z"/>
	<path fill="#231F20" transform="scale(0.25 0.25)" d="M224.224 513.61C228.332 515.952 235.869 521.539 238.325 525.536C241.042 529.957 236.856 533.114 236.956 537.5C237.008 539.772 238.133 542.369 238.813 544.546C241.511 553.186 258.702 599.197 257.248 604.469L254.919 605.128C249.305 590.647 244.654 575.846 240.01 561.034C237.747 553.817 235.893 546.037 232.995 539.079C232.278 537.359 232.031 536.081 230.254 535.349L227.87 537.106L226.881 536.605C227.233 526.648 219.438 529.101 218.083 521.649C219.757 519.243 221.564 520.96 223.647 519.305C223.386 517.155 223.599 515.677 224.224 513.61Z"/>
	<path fill="#231F20" transform="scale(0.25 0.25)" d="M1652.63 663.499L1657.01 663.349L1655.35 663.362L1658.18 664.105L1657.91 665.797C1652.79 670.041 1643.5 672.212 1637.18 674.258C1589.89 689.555 1543.43 686.773 1494.77 683.249C1492.4 682.83 1492.43 682.736 1490.93 680.834C1492.5 677.918 1503.87 679.65 1507.02 679.909C1548.84 683.34 1589.09 684.118 1629.99 672.284C1636.79 670.314 1646.89 667.526 1652.63 663.499Z"/>
	<path fill="#231F20" transform="scale(0.25 0.25)" d="M418.619 597.882C412.976 598.138 381.251 596.7 377.711 594.376L377.409 592.8C383.898 589.659 415.742 592.747 424.248 593.923C433.822 594.123 443.786 595.21 453.194 597.042C474.268 598.462 551.685 618.449 567.362 630.935L568.204 632.576L567.187 633.839C557.919 632.57 534.728 621.696 523.595 617.949C497.447 609.15 470.788 603.483 443.479 599.774C435.341 599.77 426.745 598.621 418.619 597.882Z"/>
	<path fill="#231F20" transform="scale(0.25 0.25)" d="M641.045 508.374C643.562 508.032 645.338 507.848 647.815 508.71C648.365 509.679 648.711 510.42 648.884 511.536C650.221 520.169 651.551 538.665 646.112 545.936C644.734 547.779 642.836 549.065 640.501 549.233C637.865 549.422 634.426 548.115 632.546 546.243Q632.267 545.96 632.017 545.651Q631.767 545.342 631.549 545.011Q631.33 544.679 631.146 544.327Q630.961 543.975 630.812 543.607Q630.662 543.239 630.55 542.857Q630.438 542.476 630.364 542.086Q630.289 541.696 630.254 541.3Q630.218 540.904 630.222 540.507C630.227 537.856 631.389 534.901 633.323 533.049C637.44 529.107 639.275 531.427 643.815 531.628C644.548 526.953 644.634 522.205 644.834 517.484L629.229 519.382L624.006 520.052C618.511 526.575 625.602 539.777 620.382 547.805C618.779 549.036 617.447 549.88 615.357 549.821C612.123 549.73 608.987 548.972 606.694 546.608C605.589 544.535 604.921 542.804 605.289 540.41C606.512 532.44 613.063 536.267 617.402 533.289C619.131 526.164 618.191 517.402 618.135 510.044C625.725 510.068 633.479 509.031 641.045 508.374Z"/>
	<path fill="#231F20" transform="scale(0.25 0.25)" d="M422.038 536.105C424.709 535.918 427.934 535.866 430.534 536.602C435.842 538.104 438.277 542.844 440.797 547.32C440.7 553.673 439.43 563.835 444.095 568.905C450.675 576.056 460.804 569.913 468.494 569.988L468.915 570.943C468.282 572.018 467.57 572.809 466.54 573.528C462.324 576.473 453.246 578.631 448.192 577.626C433.875 574.779 439.495 553.022 433.083 544.07C431.092 541.292 428.785 540.606 425.633 540.041C412.195 543.724 417.966 566.802 406.315 574.523C403.111 576.646 396.93 577.102 393.232 576.272C381.034 573.537 384.797 557.009 378.969 549.613C377.009 547.126 374.599 547.376 371.75 547.041C371.311 547.497 370.916 547.966 370.489 548.432C364.878 554.559 364.354 563.227 359.03 569.82C357.336 570.672 355.713 571.649 354.005 572.474C349.76 574.524 344.215 574.847 339.772 573.201C335.844 571.747 333.026 568.511 331.443 564.699C329.478 559.964 328.262 555.695 330.203 550.909L331.838 550.782C335.17 554.874 335.042 561.145 337.513 565.769C338.601 567.806 340.332 569.502 342.632 570.026C362.131 574.469 357.501 551.369 368.085 544.662C371.603 542.433 375.625 542.478 379.536 543.396C386.971 548.252 385.821 560.594 390.061 567.911C391.277 570.011 393.082 572.074 395.582 572.528C398.049 572.977 400.56 572.069 402.713 570.932C415.446 564.206 407.443 545.867 422.038 536.105Z"/>
	<path fill="#231F20" transform="scale(0.25 0.25)" d="M1435.19 563.859C1438.39 558.285 1435.91 551.269 1436.63 545.219C1436.93 542.714 1438.2 541.487 1440.09 539.962L1441.32 540.255C1441.63 540.791 1441.85 541.107 1442.06 541.667C1443.83 546.365 1443.66 558.272 1441.52 562.808C1442.44 567.602 1443.68 619.694 1442.92 621.428C1442.87 624.903 1441.51 627.89 1439.02 630.332C1436.04 633.261 1432.02 634.459 1427.9 634.35C1423.44 634.232 1418.49 632.531 1415.44 629.156C1413.69 627.208 1412.46 624.485 1412.61 621.833C1412.93 616.519 1417.47 610.651 1421.52 607.49C1423.92 605.615 1426.02 604.829 1429.12 604.989L1431.82 606.333C1432.96 611.01 1431.74 617.252 1433.87 621.386L1435.53 621.349C1437.22 615.569 1437.24 567.869 1435.19 563.859Z"/>
	<path fill="#231F20" transform="scale(0.25 0.25)" d="M1438.05 364.492C1438.94 364.419 1439.85 364.444 1440.7 364.762C1446.19 366.822 1456.8 376.669 1458.94 382.19C1458.61 383.242 1458.37 383.975 1457.57 384.772C1453.35 388.947 1439.98 402.116 1434.15 401.987C1435.42 393.441 1448.15 390.671 1450.33 383.239C1450.37 383.09 1450.4 382.936 1450.44 382.784C1437.68 380.183 1422.83 382.005 1410.48 385.685C1372.33 397.052 1342.67 425.287 1324.15 459.88C1320.38 466.927 1306.22 496.693 1308.35 503.738C1315.45 500.849 1321.55 495.049 1329.14 493.394L1330.33 494.27C1329.04 499.255 1318.7 502.854 1314.56 505.517C1312.03 507.149 1309.91 509.297 1307.46 511.016C1305.6 512.318 1304.1 513.117 1301.84 512.752C1301.39 511.72 1301.31 511.199 1301.38 510.039C1301.78 503.241 1305.03 495.763 1307.27 489.34C1317.61 459.684 1331.59 433.779 1355.19 412.494C1381.89 388.415 1412.67 376.317 1448.5 378.074C1446.67 371.956 1439.11 371.667 1438.05 364.492Z"/>
	<path fill="#231F20" transform="scale(0.25 0.25)" d="M1721.89 259.499C1723.64 259.326 1724.32 259.379 1725.91 260.142C1729.96 265.485 1741.79 305.454 1742.96 313.275C1743.64 317.777 1743.36 323.542 1740.37 327.246C1738.29 329.835 1735.33 331.173 1732.05 331.397C1727.3 331.721 1722.31 329.776 1718.84 326.565C1716.23 324.146 1714.2 320.853 1714.28 317.19C1714.35 313.95 1716.32 311.088 1718.68 309.01C1724.14 304.212 1727.83 303.157 1734.96 303.509C1733.99 295.398 1731.07 279.476 1724.99 273.717C1713.93 278.151 1695.18 278.89 1686.13 285.594C1684.46 286.831 1684.76 290.406 1684.41 292.498C1688.6 297.824 1695.96 322.23 1697.53 329.573C1698.65 334.865 1698.8 341.342 1695.63 346.009Q1695.31 346.469 1694.96 346.896Q1694.6 347.323 1694.2 347.712Q1693.8 348.102 1693.36 348.449Q1692.92 348.797 1692.45 349.1Q1691.99 349.402 1691.49 349.657Q1690.99 349.912 1690.47 350.116Q1689.95 350.32 1689.42 350.472Q1688.88 350.624 1688.33 350.722C1684.03 351.513 1679.38 350.247 1675.85 347.745C1672.85 345.625 1670.34 342.402 1669.79 338.696C1669.27 335.275 1670.44 331.943 1672.53 329.248C1677.21 323.21 1682.52 323.436 1689.5 322.566C1688.89 315.452 1678.54 278.558 1674.6 274.272C1687.35 271.497 1709.63 264.506 1721.89 259.499Z"/>
	<path fill="#FEFEFE" transform="scale(0.25 0.25)" d="M1716.88 265.499C1718.63 265.193 1720.61 264.715 1722.37 265.102C1724.19 265.502 1724.47 265.786 1725.49 267.288C1722.47 271.944 1694 278.19 1687.19 279.916C1685.05 280.972 1684.96 280.998 1682.64 280.47L1682.01 278.636C1686.12 273.708 1709.46 268.155 1716.88 265.499Z"/>
	<path fill="#231F20" transform="scale(0.25 0.25)" d="M407.479 277.992C414.978 260.839 431.957 245.512 449.305 238.787C469.594 230.921 496.03 228.659 516.332 237.679C536.618 246.693 547.388 262.067 557.003 281.159C558.892 284.908 561.501 288.867 562.947 292.74C563.915 295.333 563.984 296.943 563.231 299.555C561.032 299.114 560.421 298.294 559.26 296.412C554.989 289.485 552.35 281.076 548.602 273.787C540.044 257.145 523.061 243.237 504.961 238.402C484.767 233.007 459.871 236.905 441.892 247.405C429.106 254.872 417.064 266.919 410.737 280.409C406.583 290.727 404.938 300.276 403.593 311.294C404.316 314.793 404.366 318.678 404.841 322.249C407.862 344.966 419.072 366.776 437.587 380.774C459.463 397.314 491.496 405.037 518.491 401.11C539.292 398.084 561.388 388.251 574.15 371.038C588.285 351.975 591.667 329.253 588.205 306.229L585.117 295.805C583.839 299.625 582.753 304.526 580.777 307.995C579.762 309.779 578.574 310.185 576.69 310.56C576.584 304.319 578.732 295.332 581.448 289.711C582.552 287.427 583.32 287.229 585.539 286.394C589.601 289.781 593.253 292.209 598.035 294.529C601.386 295.92 605.821 297.169 607.899 300.282L607.677 301.941C605.641 302.794 603.638 302.841 601.567 302.061C598.738 300.996 595.451 298.849 592.99 297.095L591.589 298.871C596.534 324.847 594.448 349.154 579.293 371.56C566.981 389.762 544.908 400.683 523.751 404.656Q522.346 404.91 520.936 405.13Q519.526 405.35 518.11 405.535Q516.695 405.72 515.276 405.87Q513.856 406.02 512.433 406.135Q511.011 406.25 509.585 406.33Q508.16 406.41 506.734 406.454Q505.307 406.499 503.88 406.509Q502.452 406.519 501.025 406.493Q499.598 406.467 498.172 406.407Q496.746 406.346 495.322 406.25Q493.897 406.155 492.476 406.024Q491.055 405.893 489.637 405.727Q488.219 405.561 486.806 405.361Q485.393 405.16 483.985 404.924Q482.577 404.689 481.176 404.419Q479.774 404.149 478.379 403.844Q476.985 403.54 475.598 403.201Q474.212 402.862 472.834 402.49Q471.456 402.117 470.088 401.71Q468.719 401.303 467.362 400.863Q466.004 400.423 464.657 399.949Q463.311 399.476 461.976 398.969Q460.642 398.463 459.32 397.924Q457.999 397.384 456.691 396.813Q455.383 396.241 454.089 395.637Q452.796 395.033 451.518 394.398Q450.24 393.763 448.978 393.096Q447.715 392.429 446.47 391.732Q445.225 391.034 443.997 390.306Q442.769 389.578 441.56 388.82Q440.35 388.062 439.16 387.274Q437.97 386.487 436.799 385.67C418.722 373.307 405.119 350.721 401.131 329.311C400.318 324.948 399.954 320.643 400.094 316.203C398.799 303.387 401.77 289.463 407.479 277.992Z"/>
	<path fill="#231F20" transform="scale(0.25 0.25)" d="M1225.82 481.497C1227.19 481.236 1228.58 481.006 1229.97 480.993C1233.4 480.962 1236.1 481.801 1238.53 484.352C1242.49 488.515 1245.44 494.929 1245.19 500.737C1245.07 503.525 1244.01 507.069 1241.88 508.952C1237.36 512.937 1195.63 530.787 1187.92 532.826C1185.68 533.42 1183.32 533.317 1181.03 533.126C1174.93 531.049 1168.25 528.653 1164.83 522.714C1162.8 519.166 1163.06 514.641 1164.1 510.822C1170.07 488.715 1208.47 491.741 1225.42 481.745C1225.56 481.666 1225.69 481.58 1225.82 481.497Z"/>
	<path fill="#FEFEFE" transform="scale(0.25 0.25)" d="M1174.53 501.497C1177.53 501.742 1179.75 502.874 1181.96 504.863C1186.09 508.596 1188.95 514.762 1189.1 520.335C1189.19 523.483 1188.6 526.177 1186.26 528.459C1184.77 529.925 1183.81 529.524 1181.8 529.547C1183.11 526.787 1184.2 523.995 1184.66 520.954C1186.24 510.529 1176.56 510.056 1172 504.001L1174.53 501.497Z"/>
	<path fill="#231F20" transform="scale(0.25 0.25)" d="M1798.63 355.498C1800.78 355.522 1801.21 355.492 1802.99 356.637C1802.01 360.43 1791.62 367.443 1788.37 370.738Q1782.59 376.661 1777.66 383.314C1762.38 403.789 1763.95 410.72 1757.66 433.509C1754.54 444.787 1747.16 457.731 1736.72 463.583C1735.71 463.962 1734.69 464.291 1733.64 464.533C1722.44 467.118 1716.21 462.243 1707.15 456.497C1704.97 451.257 1700.12 446.86 1698.06 441.478C1695.63 435.085 1696.21 425.303 1699.17 419.155C1709.41 397.913 1739.4 400.865 1757.84 394.321C1761.53 393.011 1765.24 391.281 1768.17 388.635C1773.94 383.426 1777.38 376.022 1782.68 370.408C1787.1 365.731 1796.03 360.969 1798.63 355.498Z"/>
	<path fill="#FEFEFE" transform="scale(0.25 0.25)" d="M1730.7 409.499C1733.41 408.782 1736.23 408.163 1738.92 409.369C1741.11 410.349 1743.12 412.475 1743.82 414.785Q1743.93 415.142 1744 415.508Q1744.07 415.875 1744.11 416.246Q1744.15 416.618 1744.15 416.991Q1744.14 417.365 1744.11 417.736Q1744.07 418.108 1743.99 418.473Q1743.92 418.839 1743.8 419.196Q1743.69 419.552 1743.55 419.895Q1743.4 420.239 1743.22 420.566C1741.75 423.265 1739.97 424.251 1737.21 425.209C1736.98 425.33 1736.76 425.488 1736.51 425.572C1734.49 426.261 1732.26 425.941 1730.4 425.032C1729.47 424.03 1728.81 423.047 1728.47 421.709C1727.24 416.758 1728.16 413.805 1730.7 409.499Z"/>
	<path fill="#231F20" transform="scale(0.25 0.25)" d="M128.6 446.46C131.095 442.257 133.712 438.82 138.689 437.569Q139.234 437.434 139.79 437.353Q140.346 437.272 140.907 437.246Q141.469 437.221 142.03 437.251Q142.591 437.282 143.146 437.367Q143.701 437.453 144.245 437.593Q144.789 437.733 145.317 437.927Q145.844 438.12 146.35 438.365Q146.856 438.609 147.335 438.903Q147.82 439.201 148.272 439.548Q148.723 439.896 149.135 440.289Q149.547 440.682 149.916 441.116Q150.284 441.55 150.605 442.02Q150.926 442.491 151.195 442.993Q151.465 443.495 151.68 444.022Q151.895 444.549 152.053 445.096Q152.211 445.643 152.311 446.204C152.886 449.566 151.868 452.806 149.828 455.493C145.557 461.121 138.648 461.852 133.183 465.742C130.431 468.415 126.596 470.213 123.275 472.127C104.588 482.901 83.4221 488.264 78.4976 512.251C75.0718 525.618 77.4797 536.291 84.4219 548.009C91.567 560.069 100.177 571.329 107.972 582.98C109.563 585.247 110.964 588.383 113.828 589.094C115.409 589.487 118.506 588.958 119.739 589.756C128.013 595.113 157.957 638.127 166.078 649.079Q171.282 656.137 176.28 663.342C212.774 653.464 249.694 645.246 286.148 635.297Q279.569 600.346 270.664 565.915C266.204 549.132 259.869 531.427 257.129 514.332C256.591 510.975 256.73 508.273 258.343 505.236C260.371 503.219 261.902 503.039 264.594 502.749C270.476 504.915 273.692 511.512 276.225 517.029C288.113 542.916 292.676 573.333 299.154 600.917C302.097 613.45 306.265 625.749 307.654 638.61C308.099 642.735 308.258 647.179 306.807 651.137C305.683 654.203 303.693 656.273 300.732 657.586C295.719 659.809 289.449 660.23 284.145 661.715C266.024 666.789 247.718 670.887 229.435 675.451C215.938 678.821 202.362 682.861 188.722 685.551C184.171 686.448 179.727 686.843 175.085 686.783C166.074 681.603 113.206 611.179 105.785 598.838C107.423 591.618 108.333 591.124 104.087 584.327C94.4039 574.463 75.2146 543.521 73.3125 530.098C71.1453 514.804 79.0697 486.195 88.2494 473.991C101.203 461.695 115.497 457.068 128.6 446.46Z"/>
	<path fill="#FEFEFE" transform="scale(0.25 0.25)" d="M270.067 516.592C271.649 518.104 272.507 518.902 272.891 521.097C271.499 523.549 268.625 524.197 266.118 525.177C264.283 523.408 263.463 522.774 262.731 520.257C264.728 517.92 267.194 517.59 270.067 516.592Z"/>
	<path fill="#FEFEFE" transform="scale(0.25 0.25)" d="M115.537 596.541C118.37 596.934 120.299 597.136 122.489 599.193C123.449 602.292 123.12 603.441 122.459 606.522C119.339 606.05 117.256 605.928 114.978 603.493C114.023 600.731 114.618 599.149 115.537 596.541Z"/>
	<path fill="#FEFEFE" transform="scale(0.25 0.25)" d="M291.838 622.388C294.428 623.424 296.272 624.056 297.828 626.545C298.565 629.846 297.551 631.797 296.189 634.741C295.705 634.651 295.077 634.549 294.583 634.412C291.757 633.627 291 632.493 289.654 630.102C289.609 626.913 290.397 625.147 291.838 622.388Z"/>
	<path fill="#FEFEFE" transform="scale(0.25 0.25)" d="M235.465 652.236C237.081 652.252 238.805 652.234 240.393 652.56C242.835 653.062 245.302 655.29 246.488 657.459C247.634 659.555 247.438 662.083 246.434 664.175C245.139 666.872 242.003 667.863 239.409 668.847C237.52 669.053 235.283 669.405 233.407 669.073C230.98 668.643 229.575 666.914 228.203 665.03C227.688 663.231 227.331 661.671 227.861 659.821C229.049 655.668 231.923 654.095 235.465 652.236Z"/>
	<path fill="#FEFEFE" transform="scale(0.25 0.25)" d="M127.872 452.864C129.015 454.942 132.565 459.139 132.502 461.123C118.184 469.136 94.7258 481.872 82.5716 491.701C92.0738 471.428 108.616 462.656 127.872 452.864Z"/>
	<path fill="#231F20" transform="scale(0.25 0.25)" d="M461.757 257.188Q463.202 256.572 464.677 256.028Q466.152 255.485 467.651 255.016Q469.151 254.548 470.673 254.155Q472.194 253.762 473.734 253.446Q475.273 253.13 476.826 252.891Q478.379 252.653 479.943 252.493Q481.506 252.332 483.075 252.25Q484.644 252.169 486.216 252.165Q487.787 252.162 489.357 252.238Q490.926 252.314 492.49 252.468Q494.054 252.622 495.608 252.855Q497.162 253.087 498.703 253.398Q500.243 253.708 501.766 254.095Q503.289 254.482 504.791 254.944Q506.293 255.407 507.77 255.945Q509.246 256.482 510.694 257.093C526.154 263.466 536.68 275.304 543.018 290.538C546.178 298.132 547.004 305.328 547.874 313.455L546.851 323.293C544.569 339.84 534.72 354.251 521.498 364.189C508.703 373.806 492.54 378.528 476.591 376.221C461.823 374.084 446.128 365.495 437.329 353.33C436.378 352.016 435.33 350.595 434.624 349.131Q433.318 347.163 432.248 345.058C425.006 330.796 425.241 307.999 430.101 292.987C435.278 276.993 446.941 264.728 461.757 257.188Z"/>
	<path fill="#FEFEFE" transform="scale(0.25 0.25)" d="M463.298 261.895C475.274 255.512 490.282 255.509 503.058 259.439C517.388 263.846 529.008 272.628 536.108 286.036C543.119 299.277 545.204 314.537 540.757 328.997C536.001 344.462 524.352 358.878 509.955 366.283Q508.787 366.892 507.591 367.441Q506.395 367.991 505.172 368.481Q503.95 368.97 502.705 369.399Q501.46 369.827 500.195 370.193Q498.93 370.559 497.649 370.861Q496.367 371.164 495.073 371.402Q493.778 371.64 492.473 371.814Q491.167 371.988 489.855 372.097Q488.543 372.205 487.227 372.248Q485.911 372.292 484.595 372.27Q483.278 372.247 481.964 372.16Q480.651 372.072 479.343 371.919Q478.035 371.766 476.737 371.549Q475.438 371.331 474.152 371.049Q472.866 370.767 471.595 370.422Q470.325 370.076 469.073 369.668C456.067 365.362 445.732 357.024 437.655 346.098C436.627 344.138 435.628 342.15 434.799 340.096C429.003 325.734 429.872 303.01 436.127 289.016C441.086 277.924 451.714 266.308 463.298 261.895Z"/>
	<path fill="#231F20" transform="scale(0.25 0.25)" d="M484.472 275.384C496.531 275.153 508.18 276.663 517.385 285.33C525.408 292.884 528.711 304.163 528.878 314.934C529.054 326.253 525.072 337.141 517.041 345.213C509.658 352.632 500.348 355.79 489.996 355.737C478.506 355.678 461.699 352.31 453.497 343.691C447.591 337.483 445.548 323.606 445.896 315.536C446.397 303.894 450.567 292.63 459.425 284.793C462.895 281.723 466.741 279.981 470.999 278.263C475.371 276.862 479.961 276.195 484.472 275.384Z"/>
	<path fill="#FEFEFE" transform="scale(0.25 0.25)" d="M494.629 279.664C504.959 282.608 513.67 285.855 519.324 295.777C524.45 304.772 525.607 316.769 522.737 326.676Q522.502 327.509 522.226 328.329Q521.95 329.15 521.634 329.955Q521.317 330.76 520.96 331.549Q520.603 332.337 520.207 333.107Q519.811 333.877 519.377 334.625Q518.943 335.374 518.472 336.1Q518.001 336.826 517.494 337.528Q516.987 338.229 516.446 338.904Q515.905 339.58 515.33 340.227Q514.755 340.874 514.149 341.492Q513.543 342.109 512.906 342.696Q512.27 343.282 511.604 343.836Q510.939 344.39 510.247 344.909Q509.555 345.429 508.838 345.913Q508.121 346.398 507.38 346.845Q506.639 347.293 505.877 347.703C495.153 353.34 482.15 351.923 471 348.311C463.947 346.026 457.774 343.1 454.332 336.14C449.286 325.935 448.987 313.408 452.743 302.745C455.607 294.61 461.154 287.513 469.053 283.801C470.063 283.326 471.039 282.975 472.122 282.703C479.099 279.893 487.224 279.975 494.629 279.664Z"/>
	<path fill="#231F20" transform="scale(0.25 0.25)" d="M479.026 292.218C481.819 291.865 485.028 291.7 487.765 292.452C494.12 294.198 499.589 299.405 502.772 305.038C506 310.752 507.428 317.552 505.545 323.949C503.76 330.009 499.904 332.258 494.615 335.195C486.484 335.432 478.924 334.033 472.734 328.261C465.956 321.939 464.834 314.345 464.629 305.63C468.88 299.089 471.556 295.364 479.026 292.218Z"/>
	<path fill="#231F20" transform="scale(0.25 0.25)" d="M280.503 709.899C311.385 705.683 358.759 707.295 391.285 707.495C404.231 707.575 418.71 706.405 431.461 707.857C433.848 708.129 436.431 708.925 438.358 710.403C441.767 713.019 442.764 717.051 443.06 721.12C443.905 732.723 445.082 773.05 439.365 781.579C435.413 783.564 429.313 783.646 424.887 783.818C389.12 785.212 352.635 783.465 316.801 782.862C305.833 782.678 280.781 783.729 271.285 781.28C269.904 780.924 268.105 779.819 267.46 778.525C266.602 776.803 265.908 775.222 265.452 773.352C266.968 758.529 264.26 741.865 264.345 726.847C264.371 722.07 265.194 715.617 268.962 712.217C272.161 709.33 276.487 709.849 280.503 709.899Z"/>
	<path fill="#FEFEFE" transform="scale(0.25 0.25)" d="M323.418 711.88C349.763 713.064 376.717 711.732 403.123 711.825C411.579 711.855 421.472 710.824 429.749 712.147C432.09 712.521 434.515 713.444 436.187 715.171C437.86 716.899 438.653 719.273 438.93 721.624C439.639 727.656 438.581 734.271 438.551 740.376C438.508 749.004 439.387 757.715 438.874 766.33C438.631 770.405 438.394 775.353 435.205 778.29C421.214 782.163 292.877 778.393 273.52 777.657C272.289 776.863 271.257 776.239 270.402 775.01C269.566 765.524 266.238 723.46 271.05 717.825C276.474 711.473 313.202 712.559 323.418 711.88Z"/>
	<path fill="#231F20" transform="scale(0.25 0.25)" d="M321.485 734.225C327.149 735.867 339.242 740.978 342.613 745.586C342.882 747.151 343.266 747.809 342.419 749.237C339.538 754.096 328.045 758.305 322.639 759.428C321.621 759.64 320.746 758.705 319.895 758.147C324.279 753.752 332.215 750.603 337.624 747.246C333.765 745.271 329.81 743.517 325.856 741.743C324.25 743.837 324.642 748.67 323.972 751.508L323.12 751.781C322.805 751.458 322.611 751.273 322.318 750.899C318.99 746.662 320.89 739.187 321.485 734.225Z"/>
	<path fill="#231F20" transform="scale(0.25 0.25)" d="M396.602 734.126C402.545 735.076 418.749 740.523 422.407 745.121C422.666 746.557 423.031 747.137 422.213 748.44C419.452 752.834 407.317 757.09 402.247 758.272C399.943 758.809 399.514 758.529 397.701 757.291C401.701 753.511 407.944 751.171 412.85 748.697C407.059 749.365 400.336 750.816 395 747.813L395.546 746.342C400.131 744.197 405.288 744.387 410.254 744.195C406.773 742.735 399.003 740.6 396.784 737.866C395.841 736.705 396.405 735.526 396.602 734.126Z"/>
	<path fill="#231F20" transform="scale(0.25 0.25)" d="M1504.26 389.861C1504.9 368.654 1510.37 351.817 1526.13 337.054C1539.64 324.403 1554.89 319.437 1573.25 320.101C1586.76 320.589 1599.09 325.009 1608.49 335.042C1620.13 347.448 1627.6 369.153 1627.01 386.053C1626.59 398.337 1620.85 407.75 1612.06 415.976C1607.96 419.811 1602.52 422.344 1598.04 425.831C1597.48 436.373 1589.61 481.864 1584.23 488.835C1584.51 494.107 1584.12 503.165 1580.48 507.183C1575.31 512.908 1567.72 510.579 1563.51 513.475C1562.28 514.322 1561.29 516.166 1560.03 517.167C1559.82 517.998 1559.23 518.853 1558.83 519.617C1557.06 517.916 1557.18 514.438 1556.81 512.006L1556.4 510.441L1555.91 510.83C1555.65 509.808 1555.43 509.299 1554.64 508.616C1553.62 507.739 1552.79 507.989 1551.49 508.136C1547.97 508.531 1545.52 512.511 1543.41 515.053L1541.97 514.939C1540.4 512.714 1541.4 509.336 1540.91 506.514C1540.57 506.305 1540.23 506.1 1539.88 505.913C1531 501.194 1531.8 508.256 1525.56 510.191L1524.21 509.177C1524.23 506.911 1524.17 504.677 1524.03 502.416C1523.53 502.129 1523.02 501.848 1522.51 501.579C1513.58 496.899 1514.28 503.802 1508.17 505.701L1506.77 504.81L1506.62 500.528C1503.79 496.269 1497.32 495.36 1493.39 491.956C1489.08 488.239 1489.03 483.29 1488.59 478.024C1489.07 477.596 1489.51 477.156 1489.88 476.627C1490.89 475.196 1509.15 421.257 1510.25 416.573C1510.57 415.236 1510.52 413.907 1510.36 412.552C1511.73 408.7 1505.49 394.865 1504.26 389.861Z"/>
	<path fill="#FEFEFE" transform="scale(0.25 0.25)" d="M1497.74 478.852L1495.29 476.854C1495.21 473.705 1497.4 470.552 1497.03 467.768C1506.62 470.17 1576.86 485.813 1579.58 489.853C1579.13 491.472 1578.69 492.737 1577.79 494.162C1577.96 496.237 1578.24 496.652 1577.07 498.446C1571.33 498.492 1563.82 495.304 1558.22 493.721C1540.69 488.77 1515.48 480.043 1497.74 478.852Z"/>
	<path fill="#FEFEFE" transform="scale(0.25 0.25)" d="M1507.4 385.836C1507.49 385.646 1507.58 385.459 1507.66 385.268C1509.8 380.251 1510.04 374.339 1511.59 369.063C1516.93 350.824 1528.96 335.895 1546.8 328.576C1559.62 323.317 1577.81 322.669 1590.6 328.183C1603.4 333.704 1612.7 345.523 1617.67 358.295C1622.54 370.846 1624.99 387.403 1619.23 399.954C1614.25 410.787 1591.34 421.749 1592.4 426.652C1594.99 438.616 1585.17 471.379 1581.16 483.97C1581.14 483.983 1512.03 466.799 1497.42 463.532C1498.07 462.896 1498.53 462.442 1498.97 461.637C1501.78 456.464 1516.24 414.838 1515.03 411.254C1515.31 407.327 1509.31 389.92 1507.4 385.836Z"/>
	<path fill="#231F20" transform="scale(0.25 0.25)" d="M1588.6 362.073C1593.18 359.384 1592.28 354.038 1596.05 351.519C1597.52 353.5 1597.44 355.045 1597.1 357.467C1596.27 363.353 1590.68 386.432 1586.45 389.676L1584.48 389.52C1583.12 382.804 1593.21 371.671 1586.7 365.891L1584.45 364.709C1581.92 366.387 1581.47 370.418 1579.95 373.216C1578.67 373.513 1577.4 373.769 1576.1 373.989C1574.06 378.674 1573.85 384.867 1572.94 389.924C1571.95 395.367 1570.81 402.609 1565.67 405.766C1562.75 407.565 1559.8 407.24 1556.6 406.639C1552.6 405.887 1547.62 405.253 1545.23 401.746C1546.79 399.66 1547.36 399.544 1549.7 398.459C1564.77 391.468 1560.78 374.749 1565.34 362.202L1566.88 362.139L1567.86 364.021C1567.92 364.284 1567.99 364.546 1568.05 364.81C1570.3 375.257 1565.04 388.018 1559.32 396.474Q1557.6 399.051 1555.63 401.436C1557.84 402.738 1559.73 402.61 1562.21 402.623C1565.92 400.531 1566.81 398.098 1567.89 394.061C1569.29 388.864 1572.59 375.68 1570.95 370.839C1575.69 367.018 1579.17 363.332 1581.12 357.471C1584.51 358.254 1586.4 359.462 1588.6 362.073Z"/>
	<path fill="#231F20" transform="scale(0.25 0.25)" d="M663.934 590.35C682.316 591.428 697.807 591.265 714.083 601.313C733.433 613.26 748.754 630.942 754.021 653.34C760.557 681.139 752.723 708.525 737.772 732.336C719.45 761.513 688.134 780.128 655.238 787.749C655.132 787.76 655.026 787.774 654.919 787.782C631.634 789.432 609.457 782.659 591.613 767.288C575.845 753.705 563.412 731.896 562.004 710.921C559.929 680.037 577.187 638.326 597.313 615.413C614.05 596.358 639.806 591.829 663.934 590.35Z"/>
	<path fill="#FEFEFE" transform="scale(0.25 0.25)" d="M663.578 594.485C681.76 594.51 698.879 595.874 714.375 606.298C733.3 619.03 746.536 636.781 750.804 659.325C755.531 684.298 746.955 711.38 732.728 731.967C715.131 757.429 685.756 777.475 655.23 783.104C653.59 783.376 651.926 783.514 650.271 783.649C631.058 785.222 609.525 776.469 595.026 764.127C579.293 750.733 568.085 730.235 566.471 709.534C564.255 681.088 581.413 640.949 599.881 619.691C616.43 600.642 639.407 596.183 663.578 594.485Z"/>
	<path fill="#231F20" transform="scale(0.25 0.25)" d="M602.126 655.66C601.97 644.826 605.069 633.192 611.379 624.319C614.132 620.447 617.816 616.889 622.705 616.147C627.576 615.407 631.273 617.79 635.068 620.5C642.724 623.39 662.21 660.11 669.013 669.694C671.523 673.099 674.035 676.475 676.256 680.081C676.521 684.737 676.721 689.348 676.675 694.014C685.441 707.091 694.727 718.706 700.068 733.71C697.639 730.469 694.244 723.969 690.246 723.384C689.548 726.685 696.367 737.541 697.871 741.03C692.948 735.317 688.446 727.974 681.961 724.023C683.741 729.015 688.171 733.841 688.988 738.903C683.905 736.524 682.592 729.484 677.687 727.734L677.068 729.526C678.298 734.123 680.887 737.113 683.529 740.944C677.978 740.487 673.628 731.447 669.788 727.622C672.798 734.681 676.379 741.474 679.926 748.273C668.841 736.195 659.588 721.787 649.965 708.495C649.297 708.385 648.64 708.259 647.984 708.088C633.207 704.232 609.859 669.056 602.126 655.66Z"/>
	<path fill="#FEFEFE" transform="scale(0.25 0.25)" d="M609.936 661.058C615.54 660.86 617.292 667.884 622.156 669.857C622.896 670.158 623.698 669.56 624.412 669.275C623.775 666.128 619.398 664.452 618.123 661.101C621.707 661.005 626.637 664.307 629.877 665.911C628.131 664.519 626.533 663.167 625.131 661.414C623.503 659.378 623.434 659.225 623.717 656.635L624.541 656.337C626.596 656.857 629.85 660.567 631.512 662.1C631.164 659.526 629.396 657.223 628.073 655.028L629.092 653.115C632.024 653.527 634.212 656.23 636.435 658.179L637.843 657.975C637.607 653.989 633.179 653.755 632.82 649.545L635.311 647.352C638.486 648.366 640.71 653.206 643.362 655.318C644.718 656.399 644.827 656.633 646.527 656.429C645.587 651.349 639.677 648.787 639.104 643.574L640.165 642.681L642.917 643.885C647.486 653.039 657.8 661.72 664.116 671.034C667.342 675.804 670.874 680.391 672.308 686.054C671.66 688.764 670.862 691.629 669.657 694.149C667.774 698.087 662.941 703.144 658.643 704.375C655.627 705.239 653.477 704.323 650.879 702.932C650.189 701.403 649.512 699.711 648.582 698.313C647.211 696.25 646.207 695.776 643.922 695.405L640.5 698.062C633.406 694.515 616.058 668.748 609.936 661.058Z"/>
	<path fill="#231F20" transform="scale(0.25 0.25)" d="M1746.94 564.391C1748.94 560.262 1746.57 554.573 1747.41 549.901C1752.56 545.341 1766.89 544.107 1773.76 541.272C1813.32 524.968 1848.16 503.362 1890.53 493.467C1890.66 493.571 1890.8 493.671 1890.93 493.779C1895.5 497.579 1897.3 507.101 1897.69 512.736C1903.64 510.987 1910.07 506.734 1915.55 503.773C1919.23 508.717 1918.73 515.057 1922 520.201C1923.99 520.44 1925.99 520.692 1927.94 521.099C1930.55 521.639 1932.66 522.521 1934.02 525C1935.66 527.976 1934.71 536.995 1933.59 540.176C1937.18 544.201 1938.26 557.026 1937.82 562.482C1937.72 563.68 1937.3 564.809 1936.77 565.877C1936.96 565.961 1937.16 566.051 1937.36 566.129C1942 567.965 1949.54 565.197 1951.85 570.821C1954.27 576.711 1961.33 624.114 1959.47 628.163C1960.49 629.571 1961.26 630.933 1961.66 632.639C1965.66 649.726 1966.86 667.985 1969.41 685.378C1971.2 697.582 1974.49 710.009 1974.92 722.32L1974.11 724.082C1966.71 726.313 1957.94 726.685 1950.27 727.844Q1928.83 731.278 1907.43 734.959C1891.03 737.925 1866.1 745.876 1850.58 746.141C1844.54 749.942 1808.02 756.517 1800.63 756.877C1795.67 760.263 1733.86 771.95 1724.39 772.048C1724.62 771.571 1724.64 771.548 1724.84 770.983C1726.44 766.425 1725.25 752.676 1722.83 748.371C1721.52 746.041 1718.95 745.803 1716.6 745.055C1711.17 742.249 1703.53 740.981 1697.52 739.898C1697.83 739.134 1698.09 738.385 1698.29 737.586C1699.04 734.63 1697.74 731.299 1696.2 728.835C1696.14 728.655 1696.1 728.465 1696.01 728.297C1694.7 725.858 1691 725.124 1688.58 724.152C1680.5 721.046 1672.94 716.866 1664.66 714.237C1664.81 713.956 1664.96 713.68 1665.09 713.393C1667.74 707.475 1666.54 650.679 1664.04 644.001C1669.74 630.347 1658.61 608.519 1665.34 596.907C1667.21 593.689 1671.38 592.952 1674.7 591.911C1684.81 588.085 1742.42 567.876 1746.94 564.391Z"/>
	<path fill="#FEFEFE" transform="scale(0.25 0.25)" d="M1895.28 543.498C1896.74 543.378 1898.53 543.135 1899.98 543.393C1902.19 543.784 1904.64 545.621 1905.63 547.644C1906.85 550.14 1906.27 551.523 1905.51 553.977C1903.37 556.341 1902.02 556.863 1899 557.5C1897.15 557.467 1894.91 556.707 1893.5 555.451C1891.37 553.555 1891.3 551.653 1891.04 549.031C1891.99 546.167 1892.84 545.207 1895.28 543.498Z"/>
	<path fill="#FEFEFE" transform="scale(0.25 0.25)" d="M1909.04 511.499C1910.44 511.216 1911.46 511.227 1912.85 511.347C1913.36 511.941 1913.87 512.553 1914.27 513.231C1915.72 515.708 1915.36 519.266 1914.82 521.948C1908.8 523.968 1901.24 523.915 1894.94 524.5C1893.4 524.618 1892.51 524.301 1891.13 523.733C1895.03 518.2 1904.31 516.606 1909.04 511.499Z"/>
	<path fill="#FEFEFE" transform="scale(0.25 0.25)" d="M1747.47 584.498L1750.92 584.615L1752.36 586.802C1752.6 589.393 1752.52 591.186 1751.83 593.714C1740.12 597.534 1726.14 600.798 1713.95 601.891L1712.82 601.937L1712.04 601.174C1722.07 593.609 1736.67 591.172 1747.47 584.498Z"/>
	<path fill="#FEFEFE" transform="scale(0.25 0.25)" d="M1926.49 525.442C1929.28 528.523 1930.31 536.11 1929.97 540.248C1929.91 540.953 1929.75 541.445 1929.52 542.109C1931.94 547.184 1934.45 560.605 1932.98 566C1932.91 566.876 1932.59 567.782 1932.36 568.633C1921.64 573.431 1894.12 577.682 1881.78 578.931C1879.44 576.258 1876.69 574.253 1874.48 571.336C1871.94 567.983 1870.65 564.445 1867.62 561.398C1869.9 558.338 1869.9 553.505 1871.54 549.849C1871.76 550.878 1871.89 551.74 1871.85 552.799C1871.65 558.428 1871.65 563.81 1875.28 568.428C1877.41 571.139 1880.51 574.159 1883.96 574.546C1877.94 565.188 1872.42 557.591 1877.05 546.289C1877.89 544.25 1878.68 542.969 1878.24 540.737L1875.88 541.31C1879.6 536.835 1885.63 534.241 1891.07 532.514C1894.43 531.445 1899.55 529.498 1902.81 531.163C1904.54 535.367 1909.02 538.161 1911.16 542.672C1908.83 542.977 1903.35 539.866 1900.81 539.165C1898.02 538.394 1895.54 538.033 1892.9 539.48C1889.75 542.398 1887.55 546.587 1887.07 550.875C1887 551.422 1886.94 551.969 1886.86 552.513Q1886.69 553.466 1886.55 554.423C1884.9 551.43 1886.01 548.07 1886.59 544.89C1885.52 543.476 1885.46 543.353 1883.79 542.823C1883.43 543.347 1883.1 543.881 1882.85 544.473C1881.68 547.363 1881.77 553.8 1883.02 556.618C1892.38 577.731 1905.54 560.346 1914.22 563.869C1915.95 564.572 1916.3 567.448 1919.09 568.433C1920.72 567.533 1921.85 566.698 1922.89 565.141C1926.44 559.817 1922.18 557.861 1921.22 552.688C1921 551.507 1920.81 550.305 1920.4 549.169C1918.06 542.561 1910.17 533.162 1903.92 530.097C1908.93 526.382 1920.18 526.769 1926.49 525.442Z"/>
	<path fill="#FEFEFE" transform="scale(0.25 0.25)" d="M1883.45 499.499C1885.94 499.146 1886.61 498.937 1888.88 499.914C1892.16 504.23 1893.31 509.575 1893.96 514.876C1893.88 514.984 1893.82 515.101 1893.73 515.201C1881.73 528.856 1813.98 536.998 1794.15 539.759C1791.72 540.449 1789.76 540.791 1787.22 540.802C1790.91 537.617 1797.55 535.555 1802.03 533.337C1816.63 526.109 1831.16 518.719 1846.4 512.904C1858.5 508.287 1871.87 505.134 1883.45 499.499Z"/>
	<path fill="#FEFEFE" transform="scale(0.25 0.25)" d="M1685.76 610.468C1707.78 609.35 1731.31 603.836 1752.82 598.717L1754.28 599.997L1753.92 602.837L1755.18 605.99C1754.24 607.683 1754.27 607.535 1752.45 608.059C1737.38 612.395 1721.82 615.219 1706.58 618.995C1708.93 623.055 1710.23 629.091 1708.83 633.706C1708.79 633.848 1708.72 633.982 1708.67 634.121C1711.59 640.4 1713.98 655.39 1712.02 662.17C1714.67 665.855 1716.31 678.838 1715.5 683.319C1715.4 683.877 1715.23 684.295 1715.03 684.84C1717.87 690.187 1722.63 728.91 1721.9 735.837L1722.77 740.695L1721.63 741.806L1717.47 741.363C1710.51 737.358 1705.41 738.687 1700.7 730.903C1701.06 730.113 1701.38 729.311 1701.59 728.463C1702.62 724.106 1701.43 719.78 1699.16 716.046C1699.23 715.923 1699.31 715.804 1699.38 715.678C1699.49 715.469 1699.58 715.252 1699.68 715.04C1700.05 714.268 1700.42 713.482 1700.56 712.625C1702.2 702.444 1690.84 617.429 1685.76 610.468Z"/>
	<path fill="#FEFEFE" transform="scale(0.25 0.25)" d="M1675.69 595.684C1683.89 594.277 1692.84 589.801 1700.68 586.797Q1722.93 578.155 1745.35 569.938L1746.34 572.272L1747.83 570.816L1747.62 569.308L1748.16 569.299C1749.86 571.682 1749.36 572.387 1748.95 575.166L1749.21 578.251C1739.64 585.613 1692.68 604.254 1680.63 606.463C1686.38 614.45 1697.71 702.623 1695.87 713.968C1695.8 714.357 1695.72 714.744 1695.63 715.128C1696.33 717.238 1697.19 718.497 1696.03 720.61C1695.73 721.158 1695.22 721.659 1694.81 722.114C1687.79 717.392 1676.51 714.279 1668.55 710.865C1668.98 710.176 1669.43 709.393 1669.63 708.601C1670.72 704.321 1670.82 653.732 1669.5 650.572C1669.14 649.696 1668.26 648.683 1667.72 647.868C1673.37 636.541 1664.41 610.408 1668.55 600.277C1669.49 597.976 1673.49 596.655 1675.69 595.684Z"/>
	<path fill="#FEFEFE" transform="scale(0.25 0.25)" d="M1750.37 551.991C1784.18 546.248 1818.15 541.071 1851.87 534.848C1863.81 532.643 1877.1 531.228 1888.65 527.796C1884.47 531.05 1878.83 534.073 1873.62 535.232C1868.91 546.088 1861.91 554.635 1866.74 566.964C1868.28 570.889 1875.15 577.449 1875.44 580.098C1869.28 582.887 1761.9 605.848 1760.25 605.125C1759.28 604.701 1758.56 603.83 1757.85 603.068C1757.93 602.868 1758.02 602.671 1758.08 602.468C1760.25 595.962 1755.76 575.491 1752.38 569.16C1753.76 565.322 1752.58 556.696 1750.9 552.97C1750.7 552.516 1750.63 552.427 1750.37 551.991Z"/>
	<path fill="#231F20" transform="scale(0.25 0.25)" d="M1790.18 555.499L1792.76 555.35C1794.87 556.519 1795.81 557.013 1796.96 559.27C1799.99 565.205 1799.94 574.771 1797.92 581.006C1794.88 590.397 1781.29 590.908 1773.22 595.003C1771.39 594.833 1771.46 594.593 1770.29 593.271C1768.92 585.353 1764.58 568.972 1768.43 561.637C1773.78 557.842 1783.72 556.967 1790.18 555.499Z"/>
	<path fill="#FEFEFE" transform="scale(0.25 0.25)" d="M1787.09 560.499C1788.56 560.268 1789.82 560.356 1791.28 560.506C1793.69 562.902 1794.76 566.798 1795.33 570.068C1795.99 573.896 1794.92 577.486 1792.7 580.613C1788.65 586.302 1782.65 586.409 1776.3 587.501L1775.24 588.037C1771.75 584.513 1772.56 570.395 1769.45 564.638C1775.05 564.01 1782.07 563.054 1787.09 560.499Z"/>
	<path fill="#FEFEFE" transform="scale(0.25 0.25)" d="M1711.99 626.76C1713.09 624.269 1713.14 622.898 1715.81 621.814C1722.21 619.22 1730.48 618.072 1737.23 616.499Q1763.01 610.405 1788.95 604.997L1876.94 585.627C1899.97 580.739 1923.16 576.549 1946.08 571.169C1949.43 575.614 1956.62 620.835 1955.77 627.656C1955.75 627.81 1955.72 627.962 1955.7 628.116C1958.06 634.66 1970.61 715.239 1969.15 719.72L1969.01 720.174C1952.8 722.907 1936.47 724.924 1920.31 727.89C1895.39 732.466 1870.65 738.135 1845.8 743.143L1796.84 753.914C1774.12 757.554 1751.7 763.322 1728.97 767.098C1729.27 766.443 1729.51 765.985 1729.56 765.248C1729.88 760.355 1727.88 737.945 1724.84 735.013C1725.28 734.234 1725.68 733.402 1725.84 732.508C1726.82 726.882 1721.72 687.477 1718.83 683.93C1719.49 682.567 1719.87 681.239 1719.89 679.723C1719.94 674.707 1719.16 662.525 1715.64 658.995C1716.15 657.867 1716.55 656.734 1716.62 655.486C1716.97 649.366 1715.74 631.141 1711.99 626.76Z"/>
	<path fill="#231F20" transform="scale(0.25 0.25)" d="M1930.42 585.499C1932.73 585.137 1934.38 584.792 1936.65 585.626C1938.23 589.532 1940.16 593.698 1940.73 597.891C1941.14 600.824 1940.46 602.442 1938.74 604.7C1935.02 605.41 1933.28 603.999 1929.87 602.496C1928.13 600.013 1924.49 598.362 1921.94 596.706C1919.2 594.923 1917.92 593.866 1917.24 590.642C1919.78 587.475 1926.61 586.551 1930.42 585.499Z"/>
	<path fill="#231F20" transform="scale(0.25 0.25)" d="M1751.43 625.498C1752.86 625.346 1754.26 625.566 1755.68 625.72L1756.23 627.43C1755.72 629.365 1754.97 631.03 1753.93 632.736C1749.8 639.483 1740.91 652.14 1733.28 653.93C1730.44 647.627 1732.46 639.94 1728.56 634.007C1735.89 632.188 1744.82 629.093 1751.43 625.498Z"/>
	<path fill="#231F20" transform="scale(0.25 0.25)" d="M1829.47 602.499C1830.78 602.323 1832.08 602.223 1833.39 602.134C1850.51 600.974 1865.44 605.251 1878.42 616.659Q1879.55 617.669 1880.63 618.734Q1881.71 619.798 1882.73 620.915Q1883.76 622.032 1884.73 623.198Q1885.7 624.364 1886.6 625.577Q1887.51 626.79 1888.36 628.046Q1889.21 629.302 1890 630.599Q1890.78 631.896 1891.5 633.229Q1892.22 634.563 1892.87 635.931Q1893.53 637.299 1894.11 638.698Q1894.7 640.097 1895.21 641.523Q1895.72 642.948 1896.17 644.398Q1896.61 645.848 1896.98 647.317Q1897.35 648.787 1897.65 650.273Q1897.95 651.76 1898.17 653.259Q1898.4 654.758 1898.55 656.267Q1898.7 657.775 1898.77 659.289C1899.77 676.162 1894.12 693.424 1882.77 706.021C1873.05 716.806 1858.86 724.423 1844.24 725.231C1833.48 727.906 1818.62 723.588 1809.28 718.278C1794.66 709.972 1784.64 695.972 1780.26 679.845Q1779.86 678.367 1779.54 676.871Q1779.21 675.375 1778.96 673.866Q1778.71 672.356 1778.54 670.836Q1778.36 669.315 1778.26 667.788Q1778.16 666.261 1778.13 664.731Q1778.1 663.201 1778.15 661.671Q1778.2 660.142 1778.32 658.616Q1778.45 657.091 1778.65 655.573Q1778.84 654.056 1779.12 652.55Q1779.39 651.043 1779.73 649.553Q1780.08 648.062 1780.5 646.589Q1780.91 645.117 1781.4 643.667Q1781.89 642.217 1782.45 640.793Q1783.01 639.369 1783.64 637.974Q1784.27 636.579 1784.97 635.216Q1785.67 633.854 1786.43 632.527C1796.2 615.671 1811.19 607.361 1829.47 602.499Z"/>
	<path fill="#FEFEFE" transform="scale(0.25 0.25)" d="M1831.05 641.5C1837.12 640.548 1842.53 640.58 1847.84 644.1Q1848.3 644.405 1848.74 644.732Q1849.19 645.06 1849.61 645.41Q1850.04 645.759 1850.45 646.13Q1850.85 646.502 1851.24 646.893Q1851.63 647.285 1852 647.695Q1852.36 648.106 1852.71 648.535Q1853.06 648.964 1853.38 649.41Q1853.7 649.856 1854 650.318Q1854.3 650.78 1854.58 651.257Q1854.86 651.733 1855.11 652.224Q1855.36 652.714 1855.59 653.216Q1855.81 653.719 1856.01 654.232Q1856.22 654.746 1856.39 655.268Q1856.56 655.791 1856.71 656.323Q1856.86 656.854 1856.98 657.392Q1857.1 657.93 1857.19 658.473C1858.12 663.874 1857.05 669.434 1853.85 673.915C1850.43 678.706 1845.84 681.078 1840.16 682.051C1837.11 682.751 1833.62 682.397 1830.62 681.596C1819.8 678.7 1820.11 668.918 1815.42 661.078C1815.33 660.93 1815.24 660.785 1815.15 660.639C1820.48 651.29 1821.13 647.071 1831.05 641.5Z"/>
	<path fill="#231F20" transform="scale(0.25 0.25)" d="M924.067 358.482C922.133 355.532 920.476 352.203 918.926 349.031C909.285 329.305 906.284 307.645 913.476 286.618C922.264 260.928 940.925 246.062 964.535 234.511C974.685 255.213 981.388 274.878 978.934 298.359C976.327 323.302 965.792 341.868 946.512 357.507C943.288 359.686 939.935 361.772 937.183 364.546C937.003 386.155 937.544 407.642 937.948 429.244C938.12 438.433 939.495 449.575 938.16 458.479C940.569 474.151 941.184 546.61 938.064 561.209C937.916 564.843 937.984 568.67 937.17 572.218C937.039 576.643 936.841 580.834 935.918 585.187C935.005 606.522 930.942 628.401 927.893 649.532C925.97 662.863 924.961 676.195 922.801 689.531C923.409 690.15 923.98 690.868 924.746 691.283C936.744 689.065 962.362 693.715 971.776 689.034C973.115 686.315 973.55 683.558 974.074 680.601C971.943 661.284 993.599 591.572 1002.11 572.749C1002.32 572.196 1002.6 571.549 1002.64 570.944C1002.85 568.245 999.765 565.322 998.164 563.311C990.283 552.796 985.912 540.808 982.139 528.346C974.825 512.045 973.622 485.231 976.887 467.713C976.075 453.314 988.232 422.574 997.62 411.718C999.707 409.305 1001.28 408.523 1004.41 408.265C1011.66 413.406 1019.02 423.038 1024 430.368C1026.1 426.897 1027.97 422.687 1029.06 418.789C1032.13 415.277 1034.66 410.992 1037.56 407.286C1047.56 394.514 1059.57 382.531 1074.16 375.041C1081.46 371.294 1089.64 369.31 1096.85 365.425C1097.04 365.322 1097.23 365.216 1097.42 365.111C1098.21 365.993 1098.86 367.02 1099.43 368.062C1100.95 370.854 1101.38 374.268 1100.5 377.298C1107.25 386.661 1103.61 417.817 1101.8 428.943C1100.74 435.467 1098.08 456.407 1092.96 460.658C1097.65 461.064 1103.1 459.66 1107.76 458.897C1115.61 456.969 1123.62 456.244 1131.66 455.885C1138.11 455.708 1145.93 455.006 1151.86 457.793C1155.65 463.892 1150.31 480.31 1148.65 487.458C1146.18 498.075 1136.15 526.109 1127.18 531.859C1124.73 541.276 1110.45 551.631 1102.41 556.327C1080.5 569.131 1049.55 578.343 1024 577.728C1018.83 575.735 1013.99 576.373 1008.86 573.198C1005.31 575.128 1004.56 578.643 1002.84 582.212C998.389 596.76 983.084 635.939 983.915 649.947C979.28 662.865 980.424 676.6 977.02 689.617C995.257 689.61 1013.47 688.954 1031.72 689.189C1043.74 689.344 1069.72 691.598 1079.93 689.496L1080.95 687.156C1081.84 685.978 1082.07 685.143 1082.41 683.745C1086.25 681.968 1088.63 676.727 1090.54 673.123C1096.28 662.322 1112.9 626.424 1109.48 615.29C1109.05 616.852 1108.47 617.702 1107.41 618.891C1103.38 623.387 1096.5 631.294 1090.17 631.684L1090.35 630.178C1094.96 624.455 1108.56 608.478 1115.5 607.356C1119.27 613.549 1130.17 628.872 1128.99 635.798C1124.08 635.56 1118.56 620.956 1114.09 617.05C1114.49 618.366 1114.69 619.582 1114.58 620.966C1113.44 635.009 1095.49 680.486 1084.82 689.383C1109.64 689.564 1136.98 687.385 1160.43 679.073C1161.38 678.865 1163.47 678.161 1164.17 677.462C1170.28 671.347 1158.41 595.079 1169.39 582.16C1177.02 573.18 1202.12 576.986 1213.38 576.038C1268.47 577.585 1323.9 576.227 1379.03 576.305C1390.89 576.322 1423.27 574.564 1432.58 576.545C1433.73 581.227 1434.17 590.604 1431.76 594.942C1431.49 595.419 1431.21 595.687 1430.84 596.109L1431.83 598.666C1431.29 600.055 1420.52 603.004 1417.77 604.731C1413.4 607.476 1410.38 610.909 1409.29 616.056C1408.24 621.047 1408.83 627.168 1411.8 631.428C1414.59 635.421 1419.27 637.829 1424 638.586C1429.64 639.488 1435.82 638.28 1440.43 634.819C1451.66 626.405 1447.1 616.929 1446.11 605.778C1445.4 597.854 1444.89 587.822 1446.05 580.029C1446.41 577.617 1446.67 577.552 1448.63 576.111C1456.3 576.516 1468.45 576.351 1474 582.338C1475.68 584.153 1476.58 585.906 1476.8 588.409C1477.61 589.78 1478.15 591.069 1478.28 592.661C1479.35 606.671 1479.27 715.067 1476.87 724.605C1476.66 725.428 1476.27 726.217 1475.87 726.958C1482.95 741.283 1529.02 757.28 1527.9 768.39C1525.23 771.798 1521.15 772.535 1517.05 773.012C1508.99 773.952 1500.38 773.371 1492.26 773.403C1466.53 773.505 1440.86 772.045 1415.16 772.107C1355.49 772.251 1295.72 775.418 1236.05 774.848C1203.38 775.94 1170.04 777.559 1137.38 776.715C1136.93 776.869 1136.85 776.914 1136.31 777C1132.8 777.563 1126.24 777.981 1123.25 775.683C1122.06 774.77 1122.24 773.868 1122.04 772.461C1125.28 764.148 1138.24 756.822 1145.02 750.941C1151.49 746.75 1160.09 741.076 1164.87 735.13C1166.29 727.488 1166.98 688.674 1163.56 683.012C1137.2 691.001 1108.33 695.141 1080.72 694.046C1080.34 697.691 1076.48 702.203 1073.77 704.582C1073.11 705.158 1072.44 705.497 1071.64 705.838C1071.31 709.897 1064.09 715.846 1061.05 718.562C1018.3 756.725 936.731 776.288 879.501 773.08C852.144 771.547 773.876 761.163 756.183 741.4C760.272 739.9 788.828 752.999 795.708 755.098C803.337 757.426 811.389 759.032 819.194 760.673C860.666 769.395 901.468 770.922 943.302 763.603C980.501 757.095 1044.65 737.658 1066.55 705.586C1066.68 705.404 1066.79 705.217 1066.91 705.032C1070.34 702.199 1073.63 699.062 1074.25 694.468C1023.46 693.612 972.869 695.309 922.121 694.889C910.122 695.21 897.955 694.424 885.968 693.799C875.467 694.33 786.859 689.199 783.746 687.288C783.027 686.847 783.089 686.026 782.895 685.245C787.827 682.481 878.397 689.578 892.23 690.009C900.309 689.304 909.312 690.484 917.496 690.669C927.924 648.778 921.639 609.901 906.259 570.163C905.071 567.134 903.733 561.933 900.841 560.32C892.413 565.114 880.187 566.155 870.68 566.099C841.529 565.927 815.67 559.535 794.692 538.129C782.881 526.078 758.153 486.587 758.694 470.343C758.766 468.173 759.036 466.471 760.863 465.079C770.226 457.942 804.745 463.469 816.012 464.989C806.246 442.441 803.014 421.563 801.738 397.232C801.519 393.049 800.62 385.857 803.509 382.639C805.826 382.461 808.072 383.013 810.342 383.428C836.14 391.195 858.224 403.375 874.724 425.064C881.475 413.832 887.892 406.133 898.669 398.564C921.632 439.735 933.486 481.965 920.357 528.514Q918.716 534.392 916.5 540.078Q914.284 545.764 911.516 551.203C909.418 555.535 906.905 558.985 908.63 563.885Q909.193 565.443 909.82 566.977C919.3 586.284 923.56 608.531 926.133 629.74C928.264 611.795 929.623 593.333 932.922 575.582C932.642 571.319 933.495 567.082 934.143 562.882C933.858 554.804 934.622 546.471 935.201 538.404C935.806 516.022 935.795 493.165 934.81 470.796L933.125 400.872C933.001 392.357 934.433 377.656 932.553 369.893C932.431 369.388 931.554 368.374 931.237 367.892C928.164 365.499 926.156 361.728 924.067 358.482Z"/>
	<path fill="#FEFEFE" transform="scale(0.25 0.25)" d="M812.071 389.38C835.377 391.51 858.184 411.809 872.549 428.88C869.279 440.001 863.319 452.538 863.047 464.163L861.885 465.183C859.33 463.74 854.275 453.085 852.23 449.838C839.364 429.405 827.111 408.331 812.071 389.38Z"/>
	<path fill="#FEFEFE" transform="scale(0.25 0.25)" d="M1031.98 420.845C1035.38 418.874 1038.63 412.958 1041.19 409.786C1052.73 395.481 1062.96 386.227 1079.38 378.058C1083.96 375.783 1088.58 373.177 1093.56 371.922L1093.98 373.071L1091.69 375.163C1091.44 378.169 1047.92 466.519 1046.69 467.651C1045.96 468.326 1044.91 468.683 1043.98 469.001C1044.22 468.061 1044.35 467.378 1044.16 466.407C1042.65 458.696 1033.15 439.977 1026.68 435.434Q1027.36 434.411 1028.01 433.364C1030.11 429.932 1032.96 424.989 1031.98 420.845Z"/>
	<path fill="#FEFEFE" transform="scale(0.25 0.25)" d="M946.993 249.618C951.846 245.453 956.959 242.953 962.625 240.124C974.497 264.577 979.606 290.744 970.536 317.083C966.579 328.576 959.465 340.788 950.175 348.772C947.925 350.7 945.691 352.514 943.249 354.197C941.858 355.322 940.455 356.51 938.964 357.5C937.017 358.792 936.164 359.281 933.888 358.762C932.145 355.395 934.025 345.771 934.146 341.61C937.777 335.216 937.566 322.734 939.297 315.264C942.056 303.353 949.602 290.914 950.212 278.778L949.269 278.222C942.051 284.023 939.024 302.815 935.391 311.698C932.942 324.001 929.82 336.691 929.577 349.269C929.323 351.39 929.541 354.058 928.034 355.587L926.265 354.91C921.793 338.479 914.099 333.096 913.941 312.559C912.818 304.85 914.884 295.765 917.463 288.467C922.221 275.004 933.631 256.047 946.993 249.618Z"/>
	<path fill="#FEFEFE" transform="scale(0.25 0.25)" d="M896.552 404.926C901.17 411.831 904.334 419.874 907.578 427.502C919.83 456.308 925.333 483.406 919.216 514.433C916.929 526.034 913.013 541.93 905.681 551.313L904.834 551.611C901.089 548.15 895.644 536.79 894.436 531.773C894.604 531.423 894.774 531.073 894.933 530.719C899.531 520.519 907.845 486.368 903.815 476.197C903.039 474.237 902.763 473.394 900.756 472.552C899.172 476.051 900.327 488.398 899.584 493.531C898 504.482 894.665 515.443 891.949 526.168C883.136 508.898 873.567 491.811 865.399 474.239L866.388 464.667C873.189 439.585 877.533 423.556 896.552 404.926Z"/>
	<path fill="#FEFEFE" transform="scale(0.25 0.25)" d="M1002.86 412.567C1003.29 412.942 1003.73 413.317 1004.15 413.702C1016.32 424.814 1040.9 457.621 1041.65 474.175C1043.16 482.488 1023.77 523.295 1019.21 532.001C1015.64 521.389 1006.58 487.276 999.708 480.057L997.841 480.149C997.275 483.774 1014.04 531.761 1016.21 537.319C1013.61 546.075 1009.98 555.531 1005.91 563.708C1003.73 563.336 1002.6 561.962 1000.95 560.568C1000.06 557.233 997.291 553.341 995.796 550.133C991.227 540.329 987.098 530.428 984.463 519.908C981.137 505.728 979.862 493.366 979.762 478.873C981.745 453.554 988.197 433.396 1002.86 412.567Z"/>
	<path fill="#FEFEFE" transform="scale(0.25 0.25)" d="M762.128 468.488C780.387 463.621 800.046 467.203 818.349 469.991C829.243 471.872 847.124 478.827 854.847 479.636C858.229 481.373 861.407 482.802 865.068 483.841C869.993 493.265 885.4 518.709 886.491 527.495C873.541 521.586 817.18 497.933 807.809 498.772C810.413 504.228 879.521 528.705 889.694 532.933C891.856 537.675 900.466 552.378 899.26 556.429Q895.705 557.808 892.062 558.933C869.308 565.741 839.258 561.972 818.504 550.691C788.761 534.525 771.433 499.625 762.128 468.488Z"/>
	<path fill="#FEFEFE" transform="scale(0.25 0.25)" d="M1136.71 459.746C1140.14 460.115 1144.49 460.104 1147.68 461.329C1150.93 475.536 1138.11 508.523 1130.23 521.056C1128.71 523.479 1127.01 526.06 1124.88 527.996C1121.68 538.39 1106.07 549.347 1096.75 554.298C1076.76 564.914 1039.37 578.392 1016.45 571.542C1013.78 570.743 1011.28 569.588 1008.86 568.224C1013.24 560.332 1014.98 548.164 1021.11 541.753C1023.84 540.036 1026.98 538.759 1028.07 535.498C1029.44 535.419 1081.64 510.415 1085.6 508.003C1091.79 507.266 1106.15 503.777 1110.77 499.623L1110.71 498.401L1108.78 497.343C1102.19 497.682 1095.19 500.712 1088.94 502.801C1076.97 506.731 1064.88 512.031 1053.58 517.592C1047.86 520.409 1027.44 533.6 1023.48 533.648C1027.35 525.071 1041.1 497.581 1041.75 490.049C1050.92 484.536 1060.39 479.816 1070.07 475.27C1074.4 473.237 1079.92 471.822 1083.72 469.009C1091.56 468.289 1105.16 464.585 1112.51 461.808C1120.49 461.607 1128.67 460.193 1136.71 459.746Z"/>
	<path fill="#FEFEFE" transform="scale(0.25 0.25)" d="M1169.81 737.054C1178.36 740.954 1225.29 737.783 1237.85 737.622C1279.91 737.082 1322.01 737.408 1364.07 736.557L1429.06 735.817C1442.6 735.593 1456.48 734.544 1469.99 735.16C1472.47 735.273 1473.9 735.562 1475.95 737.013C1484.04 741.703 1512.15 755.879 1515.8 762.855C1460.12 764.509 1404.58 767.999 1348.87 769.341C1310.27 770.271 1271.16 768.358 1232.66 771.074C1201.76 770.108 1170.59 772.173 1139.67 772.441C1133.99 772.96 1128.21 772.78 1122.51 772.8C1124.51 771.848 1126.49 770.904 1128.4 769.759C1133.26 766.838 1149.48 756.308 1150.81 751.036C1156.3 750.13 1166.19 741.289 1169.81 737.054Z"/>
	<path fill="#231F20" transform="scale(0.25 0.25)" d="M1419.69 745.497C1420.68 745.352 1421.8 745.154 1422.79 745.274C1424.92 745.53 1425.92 746.236 1427.28 747.767C1426.23 749.722 1425.39 749.69 1423.38 750.513C1422.07 750.5 1420.7 750.115 1419.41 749.874L1418.56 748.474L1419.69 745.497Z"/>
	<path fill="#231F20" transform="scale(0.25 0.25)" d="M1216.61 744.494C1216.92 744.423 1217.23 744.346 1217.55 744.281C1220.22 743.728 1223.84 743.258 1226.17 744.849C1225.76 746.864 1224.77 747.216 1223.22 748.505C1221.94 749.254 1220.86 749.057 1219.4 749.095C1217.35 747.449 1217.34 747.059 1216.61 744.494Z"/>
	<path fill="#231F20" transform="scale(0.25 0.25)" d="M1182.38 743.49C1183.81 743.407 1185.44 743.2 1186.79 743.784C1188.53 744.546 1188.62 745.208 1189.33 746.849C1187.75 749.352 1186.73 749.408 1184.04 750.396C1182.52 750.054 1181.71 749.305 1180.56 748.326C1180.39 745.753 1180.82 745.6 1182.38 743.49Z"/>
	<path fill="#231F20" transform="scale(0.25 0.25)" d="M1239.54 743.498C1259.6 744.449 1361.35 740.672 1369.99 743.87L1370.22 745.522L1367.22 747.067C1324.85 748.341 1282 745.288 1239.71 747.493L1238.68 746.117L1239.54 743.498Z"/>
	<path fill="#231F20" transform="scale(0.25 0.25)" d="M1298.44 753.5C1307.51 752.847 1341.22 750.764 1347.15 755.861C1346.98 757.755 1346.97 758.31 1345.77 759.839C1342.74 763.685 1339.69 763.751 1335.08 764.275C1327.89 765.618 1300.78 766.312 1294.62 763.826C1292.37 762.917 1291.93 762.365 1291.04 760.194C1291.41 759.007 1291.79 757.761 1292.36 756.651C1293.5 754.434 1296.24 754.029 1298.44 753.5Z"/>
</svg>
