<svg version="1.1" xmlns="http://www.w3.org/2000/svg" viewBox="0 0 356.00006103515625 265.6000061035156" width="356.00006103515625" height="265.6000061035156" class="excalidraw-svg">
  <!-- svg-source:excalidraw -->
  
  <defs>
    <style class="style-fonts">
      
    </style>
    
  </defs>
  <g stroke-linecap="round"><g transform="translate(176.4000244140625 37.20001220703125) rotate(0 -58.399993896484375 91.19999694824219)"><path d="M-0.89 0.31 C-20.41 30.95, -97.02 152.48, -116.2 183.02 M0.84 -0.57 C-18.86 29.79, -97.32 150.83, -116.83 181.22" stroke="#1e1e1e" stroke-width="2" fill="none"/></g></g><mask/><g stroke-linecap="round"><g transform="translate(60.4000244140625 220.39999389648438) rotate(0 128.00003051757812 -0.8000030517578125)"><path d="M-0.74 0.38 C42.01 -0.19, 213.41 -1.95, 256.19 -2.43 M1.07 -0.47 C43.7 -0.39, 213 -1.14, 255.35 -1.33" stroke="#1e1e1e" stroke-width="2" fill="none"/></g></g><mask/><g stroke-linecap="round"><g transform="translate(176.4000244140625 34.79998779296875) rotate(0 69.60000610351562 91.20001220703125)"><path d="M-1.15 0.81 C21.81 31, 115 152.06, 138.33 182.31 M0.45 0.19 C23.73 31.09, 117.67 153.24, 140.59 183.81" stroke="#1e1e1e" stroke-width="2" fill="none"/></g></g><mask/><g transform="translate(166.800048828125 11.599990844726562) rotate(0 -0.800018310546875 7.600006103515625)" stroke="none"><path fill="#f08c00" d="M 0.63,0.21 Q 0.63,0.21 0.72,1.00 0.82,1.80 0.51,3.18 0.20,4.56 0.07,6.01 -0.04,7.45 -0.10,8.76 -0.16,10.07 -0.18,11.31 -0.21,12.54 -0.18,14.28 -0.15,16.03 -0.16,16.11 -0.17,16.18 -0.20,16.26 -0.23,16.33 -0.28,16.40 -0.32,16.46 -0.38,16.51 -0.44,16.56 -0.51,16.60 -0.59,16.63 -0.66,16.65 -0.74,16.67 -0.82,16.67 -0.90,16.67 -0.97,16.64 -1.05,16.62 -1.12,16.59 -1.19,16.55 -1.25,16.49 -1.31,16.44 -1.35,16.37 -1.39,16.31 -1.42,16.23 -1.45,16.16 -1.45,16.08 -1.46,16.00 -1.36,15.77 -1.26,15.54 -1.17,15.48 -1.08,15.42 -0.98,15.39 -0.88,15.36 -0.77,15.37 -0.67,15.37 -0.57,15.41 -0.47,15.45 -0.39,15.52 -0.31,15.59 -0.25,15.68 -0.20,15.77 -0.17,15.87 -0.15,15.98 -0.16,16.08 -0.17,16.19 -0.22,16.29 -0.26,16.38 -0.33,16.46 -0.41,16.54 -0.50,16.59 -0.59,16.64 -0.70,16.65 -0.80,16.67 -0.91,16.65 -1.01,16.64 -1.11,16.59 -1.20,16.54 -1.28,16.46 -1.35,16.38 -1.39,16.29 -1.44,16.19 -1.45,16.09 -1.46,15.98 -1.44,15.88 -1.42,15.77 -1.36,15.68 -1.31,15.59 -1.23,15.52 -1.15,15.45 -1.05,15.41 -0.95,15.37 -0.84,15.37 -0.74,15.36 -0.63,15.39 -0.53,15.42 -0.44,15.48 -0.36,15.54 -0.29,15.62 -0.23,15.71 -0.19,15.81 -0.16,15.91 -0.16,16.01 -0.16,16.12 -0.19,16.22 -0.22,16.32 -0.19,16.17 -0.15,16.03 -0.16,16.11 -0.17,16.18 -0.20,16.26 -0.23,16.33 -0.28,16.40 -0.32,16.46 -0.38,16.51 -0.44,16.56 -0.51,16.60 -0.59,16.63 -0.66,16.65 -0.74,16.67 -0.82,16.67 -0.90,16.67 -0.97,16.64 -1.05,16.62 -1.12,16.59 -1.19,16.55 -1.25,16.49 -1.31,16.44 -1.35,16.37 -1.39,16.31 -1.42,16.23 -1.45,16.16 -1.45,16.08 -1.46,16.00 -2.19,14.26 -2.91,12.52 -2.88,11.24 -2.86,9.95 -2.80,8.58 -2.74,7.21 -2.58,5.58 -2.43,3.96 -2.09,2.46 -1.74,0.95 -1.18,0.37 -0.63,-0.21 -0.59,-0.28 -0.56,-0.35 -0.51,-0.41 -0.46,-0.47 -0.39,-0.52 -0.33,-0.57 -0.25,-0.60 -0.18,-0.63 -0.10,-0.65 -0.02,-0.66 0.05,-0.65 0.13,-0.65 0.20,-0.62 0.28,-0.60 0.35,-0.55 0.41,-0.51 0.47,-0.45 0.53,-0.39 0.57,-0.32 0.61,-0.26 0.63,-0.18 0.65,-0.10 0.65,-0.02 0.66,0.05 0.64,0.13 0.62,0.21 0.63,0.21 L 0.63,0.21 Z"/></g><g transform="translate(179.60003662109375 10) rotate(0 -0.800018310546875 8)" stroke="none"><path fill="#f08c00" d="M 0.73,0.12 Q 0.73,0.12 0.77,1.54 0.82,2.97 0.74,4.64 0.66,6.30 0.62,7.71 0.59,9.12 0.58,10.64 0.56,12.16 -0.12,13.80 -0.80,15.44 -0.84,15.53 -0.88,15.63 -0.95,15.72 -1.02,15.80 -1.11,15.85 -1.20,15.91 -1.30,15.93 -1.41,15.95 -1.51,15.94 -1.62,15.93 -1.71,15.89 -1.81,15.84 -1.89,15.77 -1.97,15.70 -2.02,15.61 -2.07,15.51 -2.08,15.41 -2.10,15.30 -2.09,15.20 -2.07,15.09 -2.02,15.00 -1.97,14.90 -1.89,14.83 -1.82,14.76 -1.72,14.71 -1.62,14.67 -1.52,14.65 -1.41,14.64 -1.31,14.66 -1.21,14.69 -1.11,14.74 -1.02,14.80 -0.95,14.88 -0.89,14.96 -0.85,15.06 -0.81,15.15 -0.80,15.26 -0.79,15.37 -0.82,15.47 -0.85,15.57 -0.91,15.66 -0.97,15.75 -1.05,15.81 -1.14,15.88 -1.24,15.91 -1.34,15.95 -1.44,15.95 -1.55,15.95 -1.65,15.91 -1.75,15.88 -1.84,15.82 -1.92,15.75 -1.98,15.66 -2.04,15.58 -2.07,15.48 -2.10,15.37 -2.09,15.27 -2.09,15.16 -2.09,15.16 -2.09,15.16 -2.10,13.64 -2.11,12.12 -2.09,10.58 -2.07,9.05 -2.02,7.60 -1.97,6.15 -1.85,4.35 -1.74,2.54 -1.23,1.21 -0.73,-0.12 -0.70,-0.20 -0.68,-0.29 -0.63,-0.37 -0.59,-0.45 -0.53,-0.51 -0.46,-0.57 -0.39,-0.62 -0.31,-0.67 -0.23,-0.70 -0.14,-0.73 -0.05,-0.73 0.03,-0.74 0.12,-0.72 0.21,-0.71 0.29,-0.67 0.37,-0.64 0.44,-0.58 0.51,-0.53 0.57,-0.46 0.63,-0.39 0.66,-0.31 0.70,-0.23 0.72,-0.14 0.74,-0.05 0.73,0.03 0.73,0.12 0.73,0.12 L 0.73,0.12 Z"/></g><g transform="translate(19.60003662109375 227.60000610351562) rotate(0 -0.000030517578125 9.199996948242188)" stroke="none"><path fill="#f08c00" d="M -0.79,-0.26 Q -0.79,-0.26 -0.69,-1.07 -0.58,-1.89 0.41,-2.67 1.40,-3.45 3.17,-3.77 4.93,-4.08 6.64,-3.33 8.36,-2.58 9.15,-0.60 9.94,1.36 9.02,4.21 8.10,7.07 6.71,9.38 5.32,11.69 3.07,14.30 0.83,16.92 -1.08,18.53 -2.99,20.14 -4.86,20.85 -6.74,21.55 -7.94,20.81 -9.14,20.07 -9.33,18.77 -9.52,17.47 -8.99,16.87 -8.46,16.27 -7.35,16.03 -6.24,15.78 -4.78,15.95 -3.33,16.12 -1.73,16.68 -0.14,17.24 1.41,17.96 2.97,18.67 5.33,18.98 7.68,19.30 7.79,19.32 7.89,19.34 7.98,19.39 8.08,19.45 8.15,19.53 8.22,19.61 8.26,19.70 8.30,19.80 8.31,19.91 8.31,20.01 8.29,20.12 8.26,20.22 8.20,20.31 8.15,20.40 8.06,20.46 7.98,20.53 7.88,20.57 7.78,20.60 7.67,20.60 7.57,20.61 7.47,20.57 7.36,20.54 7.28,20.48 7.19,20.42 7.13,20.33 7.07,20.24 7.04,20.14 7.01,20.04 7.01,19.93 7.02,19.83 7.05,19.73 7.09,19.63 7.16,19.55 7.23,19.46 7.32,19.41 7.41,19.35 7.51,19.33 7.61,19.30 7.72,19.31 7.82,19.32 7.92,19.36 8.02,19.41 8.10,19.48 8.18,19.55 8.23,19.64 8.28,19.73 8.30,19.84 8.32,19.94 8.30,20.05 8.29,20.15 8.24,20.25 8.19,20.34 8.12,20.42 8.04,20.49 7.94,20.54 7.85,20.59 7.74,20.60 7.64,20.61 7.64,20.61 7.64,20.61 4.85,20.75 2.05,20.89 0.53,20.23 -0.99,19.57 -2.33,19.06 -3.67,18.56 -4.78,18.38 -5.90,18.20 -6.71,18.41 -7.52,18.61 -7.01,19.15 -6.50,19.69 -5.43,19.08 -4.36,18.48 -2.59,16.99 -0.82,15.51 1.25,13.01 3.34,10.52 4.56,8.37 5.78,6.23 6.69,4.02 7.59,1.80 7.26,0.51 6.92,-0.77 6.00,-1.21 5.07,-1.65 3.87,-1.52 2.66,-1.39 2.08,-1.13 1.50,-0.86 1.15,-0.30 0.79,0.26 0.75,0.35 0.70,0.44 0.64,0.52 0.58,0.60 0.50,0.66 0.42,0.72 0.32,0.76 0.23,0.80 0.13,0.82 0.03,0.83 -0.06,0.83 -0.16,0.82 -0.26,0.79 -0.35,0.75 -0.44,0.70 -0.53,0.65 -0.60,0.57 -0.67,0.50 -0.72,0.41 -0.77,0.32 -0.80,0.23 -0.82,0.13 -0.83,0.03 -0.83,-0.06 -0.81,-0.16 -0.79,-0.26 -0.79,-0.26 L -0.79,-0.26 Z"/></g><g transform="translate(44.4000244140625 224.39999389648438) rotate(0 1.20001220703125 10.400009155273438)" stroke="none"><path fill="#f08c00" d="M 0.44,0.88 Q 0.44,0.88 -0.37,1.41 -1.18,1.93 -1.79,3.30 -2.40,4.67 -2.94,6.60 -3.48,8.52 -3.70,10.89 -3.93,13.26 -3.87,15.00 -3.81,16.74 -2.87,17.45 -1.94,18.17 -0.84,18.04 0.25,17.92 2.03,17.28 3.80,16.64 4.66,15.78 5.52,14.93 6.06,14.99 6.59,15.05 5.69,14.55 4.79,14.06 3.57,14.12 2.34,14.18 0.82,15.02 -0.70,15.86 -2.00,16.77 -3.30,17.68 -3.36,17.77 -3.43,17.85 -3.51,17.91 -3.60,17.97 -3.70,18.00 -3.81,18.02 -3.91,18.02 -4.02,18.01 -4.12,17.97 -4.22,17.93 -4.30,17.86 -4.38,17.79 -4.43,17.70 -4.48,17.61 -4.51,17.50 -4.53,17.40 -4.52,17.29 -4.50,17.19 -4.46,17.09 -4.41,17.00 -4.34,16.92 -4.27,16.84 -4.17,16.79 -4.08,16.74 -3.97,16.73 -3.87,16.71 -3.76,16.73 -3.66,16.75 -3.56,16.80 -3.47,16.85 -3.40,16.93 -3.33,17.01 -3.28,17.10 -3.24,17.20 -3.23,17.31 -3.22,17.41 -3.24,17.51 -3.26,17.62 -3.32,17.71 -3.38,17.80 -3.46,17.87 -3.54,17.93 -3.64,17.97 -3.74,18.01 -3.84,18.02 -3.95,18.02 -4.05,17.99 -4.15,17.96 -4.24,17.90 -4.33,17.84 -4.39,17.76 -4.46,17.67 -4.49,17.57 -4.52,17.47 -4.52,17.36 -4.52,17.26 -4.48,17.16 -4.45,17.06 -4.45,17.06 -4.45,17.06 -3.19,15.25 -1.93,13.45 0.15,12.47 2.25,11.49 4.14,11.61 6.03,11.72 7.04,12.43 8.05,13.14 7.67,14.96 7.29,16.77 6.00,17.89 4.71,19.00 2.51,19.75 0.31,20.49 -1.45,20.37 -3.21,20.26 -4.68,18.84 -6.14,17.41 -6.33,15.21 -6.52,13.00 -6.24,10.40 -5.96,7.81 -5.32,5.64 -4.67,3.46 -3.58,1.68 -2.49,-0.09 -1.46,-0.49 -0.44,-0.88 -0.33,-0.92 -0.21,-0.96 -0.09,-0.97 0.01,-0.98 0.13,-0.97 0.25,-0.95 0.36,-0.91 0.47,-0.86 0.57,-0.79 0.67,-0.72 0.74,-0.63 0.82,-0.54 0.87,-0.43 0.93,-0.33 0.95,-0.21 0.98,-0.09 0.98,0.01 0.97,0.13 0.94,0.25 0.91,0.36 0.86,0.47 0.80,0.57 0.72,0.66 0.64,0.75 0.54,0.81 0.44,0.88 0.44,0.88 L 0.44,0.88 Z"/></g><g transform="translate(330.00006103515625 220.39999389648438) rotate(0 6.79998779296875 9.199996948242188)" stroke="none"><path fill="#f08c00" d="M -0.80,-0.26 Q -0.80,-0.26 -0.56,-1.11 -0.32,-1.95 1.79,-2.96 3.91,-3.96 5.62,-4.29 7.33,-4.63 9.00,-3.76 10.67,-2.90 11.44,-1.48 12.20,-0.06 11.30,2.31 10.39,4.69 8.21,6.60 6.03,8.51 4.45,9.73 2.86,10.95 2.22,11.25 1.57,11.54 1.47,11.60 1.37,11.66 1.26,11.70 1.14,11.74 1.03,11.74 0.91,11.75 0.79,11.73 0.67,11.71 0.57,11.66 0.46,11.61 0.36,11.54 0.27,11.47 0.20,11.38 0.12,11.28 0.07,11.17 0.02,11.07 0.00,10.95 -0.01,10.83 -0.00,10.72 -0.00,10.60 0.03,10.48 0.06,10.37 0.12,10.27 0.18,10.17 0.27,10.08 0.35,10.00 2.16,9.14 3.97,8.28 5.60,8.10 7.22,7.91 9.22,8.29 11.22,8.68 12.91,9.87 14.60,11.06 15.38,12.52 16.17,13.99 15.73,15.80 15.29,17.61 13.54,18.94 11.79,20.26 9.15,21.24 6.51,22.22 4.11,22.42 1.72,22.61 -0.43,20.91 -2.60,19.20 -2.65,19.10 -2.70,19.01 -2.72,18.91 -2.74,18.80 -2.72,18.70 -2.71,18.59 -2.66,18.50 -2.61,18.40 -2.54,18.33 -2.46,18.25 -2.37,18.21 -2.27,18.16 -2.17,18.15 -2.06,18.13 -1.96,18.15 -1.85,18.17 -1.76,18.23 -1.67,18.28 -1.60,18.36 -1.53,18.44 -1.49,18.54 -1.44,18.63 -1.44,18.74 -1.43,18.85 -1.45,18.95 -1.48,19.05 -1.54,19.14 -1.60,19.23 -1.68,19.30 -1.76,19.36 -1.86,19.40 -1.96,19.43 -2.07,19.44 -2.18,19.44 -2.28,19.41 -2.38,19.38 -2.46,19.31 -2.55,19.25 -2.61,19.16 -2.67,19.08 -2.70,18.98 -2.73,18.87 -2.73,18.77 -2.73,18.66 -2.69,18.56 -2.65,18.46 -2.58,18.38 -2.52,18.30 -2.43,18.24 -2.34,18.18 -2.23,18.16 -2.13,18.13 -2.03,18.14 -1.92,18.15 -1.82,18.20 -1.73,18.24 -1.65,18.31 -1.57,18.38 -1.57,18.38 -1.57,18.38 0.02,19.25 1.62,20.11 3.65,19.99 5.68,19.87 8.05,19.04 10.42,18.20 11.79,17.40 13.16,16.61 13.57,15.60 13.99,14.59 13.54,13.76 13.09,12.92 11.86,11.94 10.64,10.95 9.03,10.55 7.42,10.15 5.96,10.28 4.51,10.41 3.04,10.98 1.57,11.54 1.47,11.60 1.37,11.66 1.26,11.70 1.14,11.74 1.03,11.74 0.91,11.75 0.79,11.73 0.67,11.71 0.57,11.66 0.46,11.61 0.36,11.54 0.27,11.47 0.20,11.38 0.12,11.28 0.07,11.17 0.02,11.07 0.00,10.95 -0.01,10.83 -0.00,10.72 -0.00,10.60 0.03,10.48 0.06,10.37 0.12,10.27 0.18,10.17 0.27,10.08 0.35,10.00 1.01,9.71 1.67,9.43 3.17,8.21 4.66,6.99 6.47,5.32 8.29,3.66 9.20,1.95 10.11,0.24 9.74,-0.38 9.38,-1.01 8.38,-1.71 7.38,-2.41 6.06,-2.11 4.75,-1.80 3.00,-1.30 1.24,-0.80 1.02,-0.26 0.80,0.26 0.75,0.36 0.71,0.45 0.65,0.53 0.58,0.61 0.50,0.67 0.42,0.73 0.32,0.77 0.23,0.81 0.13,0.82 0.03,0.84 -0.06,0.83 -0.16,0.82 -0.26,0.79 -0.36,0.76 -0.44,0.71 -0.53,0.65 -0.60,0.58 -0.67,0.50 -0.72,0.42 -0.77,0.33 -0.80,0.23 -0.83,0.13 -0.83,0.03 -0.84,-0.06 -0.82,-0.16 -0.80,-0.26 -0.80,-0.26 L -0.80,-0.26 Z"/></g><g transform="translate(248.4000244140625 96.39999389648438) rotate(0 6 8.800003051757812)" stroke="none"><path fill="#1971c2" d="M 0.96,-0.48 Q 0.96,-0.48 1.79,0.82 2.63,2.13 3.58,3.56 4.54,4.99 5.64,6.52 6.74,8.05 7.89,9.62 9.05,11.20 10.01,12.57 10.97,13.95 11.72,14.84 12.46,15.73 12.50,15.80 12.54,15.87 12.55,15.95 12.57,16.03 12.57,16.11 12.58,16.18 12.56,16.26 12.54,16.34 12.50,16.41 12.47,16.48 12.41,16.54 12.36,16.60 12.30,16.64 12.23,16.69 12.16,16.72 12.08,16.75 12.01,16.76 11.93,16.77 11.85,16.76 11.77,16.75 11.70,16.72 11.62,16.69 11.56,16.65 11.49,16.60 11.44,16.54 11.38,16.49 11.45,16.04 11.51,15.60 11.60,15.55 11.69,15.49 11.80,15.47 11.90,15.45 12.01,15.47 12.11,15.48 12.21,15.53 12.30,15.57 12.38,15.65 12.45,15.72 12.50,15.82 12.55,15.91 12.56,16.02 12.58,16.12 12.56,16.23 12.54,16.33 12.49,16.43 12.44,16.52 12.36,16.59 12.28,16.66 12.18,16.70 12.08,16.75 11.98,16.75 11.87,16.76 11.77,16.74 11.67,16.71 11.58,16.66 11.49,16.60 11.42,16.52 11.35,16.44 11.32,16.34 11.28,16.24 11.28,16.13 11.27,16.02 11.30,15.92 11.33,15.82 11.39,15.73 11.46,15.65 11.54,15.58 11.63,15.52 11.73,15.49 11.83,15.46 11.94,15.46 12.04,15.46 12.14,15.50 12.24,15.54 12.33,15.60 12.41,15.67 12.47,15.76 12.52,15.85 12.55,15.95 12.58,16.05 12.57,16.16 12.56,16.26 12.52,16.36 12.48,16.46 12.47,16.10 12.46,15.73 12.50,15.80 12.54,15.87 12.55,15.95 12.57,16.03 12.57,16.10 12.58,16.18 12.56,16.26 12.54,16.34 12.50,16.41 12.47,16.48 12.41,16.54 12.36,16.60 12.30,16.64 12.23,16.69 12.16,16.72 12.08,16.75 12.01,16.76 11.93,16.77 11.85,16.76 11.77,16.75 11.70,16.72 11.62,16.69 11.56,16.65 11.49,16.60 11.44,16.54 11.38,16.49 9.99,16.05 8.60,15.61 7.65,14.26 6.71,12.91 5.54,11.32 4.38,9.73 3.26,8.14 2.15,6.55 1.13,4.97 0.12,3.38 -0.41,1.93 -0.96,0.48 -1.00,0.35 -1.05,0.23 -1.06,0.10 -1.07,-0.02 -1.06,-0.14 -1.04,-0.27 -0.99,-0.39 -0.94,-0.51 -0.86,-0.62 -0.79,-0.73 -0.69,-0.81 -0.59,-0.89 -0.47,-0.95 -0.36,-1.01 -0.23,-1.04 -0.10,-1.07 0.02,-1.07 0.15,-1.06 0.27,-1.03 0.40,-1.00 0.51,-0.93 0.63,-0.87 0.72,-0.78 0.82,-0.69 0.89,-0.59 0.96,-0.48 0.96,-0.48 L 0.96,-0.48 Z"/></g><g transform="translate(261.20001220703125 92.39999389648438) rotate(0 9.600006103515625 8.400009155273438)" stroke="none"><path fill="#1971c2" d="M 0.86,0 Q 0.86,0 0.96,0.68 1.07,1.37 1.35,2.97 1.62,4.56 1.96,6.15 2.29,7.75 2.66,9.34 3.03,10.94 3.40,12.03 3.78,13.11 3.94,13.84 4.09,14.58 3.42,14.62 2.74,14.66 3.29,14.08 3.85,13.51 4.49,12.65 5.14,11.79 6.22,10.84 7.30,9.89 8.39,8.85 9.49,7.82 10.57,7.28 11.65,6.75 12.25,5.66 12.85,4.56 13.03,5.20 13.20,5.84 13.87,6.83 14.54,7.82 15.55,9.49 16.57,11.16 17.96,13.52 19.35,15.88 19.40,15.97 19.44,16.07 19.46,16.17 19.47,16.28 19.45,16.38 19.43,16.49 19.37,16.58 19.32,16.67 19.24,16.74 19.16,16.81 19.06,16.85 18.97,16.89 18.86,16.90 18.76,16.91 18.65,16.88 18.55,16.86 18.46,16.80 18.37,16.74 18.31,16.66 18.24,16.57 18.20,16.47 18.17,16.37 18.17,16.27 18.16,16.16 18.20,16.06 18.23,15.96 18.29,15.87 18.35,15.79 18.44,15.73 18.53,15.66 18.63,15.63 18.73,15.60 18.84,15.61 18.94,15.61 19.04,15.65 19.14,15.69 19.22,15.75 19.31,15.82 19.36,15.91 19.42,16.00 19.44,16.10 19.47,16.21 19.46,16.31 19.45,16.42 19.41,16.52 19.36,16.61 19.29,16.69 19.22,16.77 19.13,16.82 19.03,16.87 18.93,16.89 18.83,16.91 18.72,16.90 18.62,16.88 18.52,16.83 18.43,16.79 18.35,16.71 18.28,16.63 18.28,16.63 18.28,16.63 16.16,14.66 14.05,12.69 13.04,11.02 12.04,9.35 11.21,7.89 10.39,6.44 10.29,5.64 10.20,4.85 11.27,4.13 12.35,3.42 13.25,4.13 14.15,4.85 14.33,5.63 14.50,6.42 14.22,7.13 13.93,7.84 13.36,8.40 12.78,8.97 12.00,9.33 11.21,9.69 10.09,10.76 8.96,11.82 8.06,12.58 7.15,13.34 6.38,14.34 5.61,15.34 4.99,15.88 4.37,16.43 3.09,15.86 1.81,15.30 1.64,14.59 1.47,13.89 1.07,12.69 0.66,11.48 0.30,9.85 -0.06,8.22 -0.38,6.55 -0.70,4.88 -0.89,3.13 -1.07,1.38 -0.96,0.69 -0.86,0 -0.84,-0.10 -0.83,-0.20 -0.79,-0.30 -0.76,-0.40 -0.70,-0.48 -0.64,-0.57 -0.56,-0.63 -0.48,-0.70 -0.39,-0.75 -0.30,-0.80 -0.20,-0.83 -0.10,-0.85 0.00,-0.85 0.10,-0.85 0.20,-0.83 0.30,-0.80 0.39,-0.75 0.48,-0.70 0.56,-0.63 0.64,-0.57 0.70,-0.48 0.76,-0.40 0.79,-0.30 0.83,-0.20 0.84,-0.10 0.86,0.00 0.86,0.00 L 0.86,0 Z"/></g><g transform="translate(170 235.60000610351562) rotate(0 6.800018310546875 5.9999847412109375)" stroke="none"><path fill="#1971c2" d="M -0.45,-0.68 Q -0.45,-0.68 0.83,-1.75 2.12,-2.82 3.81,-3.30 5.49,-3.77 6.83,-3.51 8.17,-3.24 8.77,-2.11 9.36,-0.98 9.32,0.81 9.28,2.62 8.01,4.89 6.74,7.16 5.51,8.96 4.28,10.77 3.28,12.02 2.28,13.27 1.64,14.02 1.00,14.77 0.91,14.87 0.82,14.96 0.70,15.03 0.59,15.09 0.46,15.13 0.33,15.17 0.20,15.18 0.07,15.19 -0.05,15.16 -0.18,15.14 -0.30,15.08 -0.42,15.03 -0.53,14.94 -0.63,14.86 -0.71,14.76 -0.79,14.65 -0.85,14.53 -0.90,14.41 -0.92,14.28 -0.95,14.15 -0.94,14.02 -0.93,13.88 -0.89,13.76 -0.85,13.63 -0.78,13.52 -0.71,13.41 0.22,12.99 1.17,12.58 3.09,12.28 5.02,11.98 6.79,11.89 8.57,11.79 11.21,11.97 13.85,12.15 13.96,12.17 14.06,12.18 14.16,12.23 14.25,12.28 14.33,12.35 14.40,12.43 14.45,12.52 14.50,12.62 14.51,12.72 14.53,12.83 14.51,12.93 14.49,13.04 14.43,13.13 14.38,13.22 14.30,13.29 14.22,13.36 14.13,13.40 14.03,13.45 13.92,13.45 13.82,13.46 13.71,13.44 13.61,13.41 13.52,13.35 13.43,13.30 13.37,13.21 13.30,13.13 13.26,13.03 13.23,12.93 13.22,12.83 13.22,12.72 13.25,12.62 13.28,12.52 13.34,12.43 13.41,12.34 13.49,12.28 13.58,12.22 13.68,12.19 13.78,12.16 13.89,12.16 14.00,12.16 14.09,12.20 14.19,12.24 14.28,12.30 14.36,12.37 14.42,12.46 14.47,12.55 14.50,12.65 14.53,12.76 14.52,12.86 14.51,12.97 14.47,13.07 14.42,13.16 14.35,13.24 14.28,13.32 14.19,13.37 14.10,13.43 13.99,13.45 13.89,13.47 13.89,13.47 13.89,13.47 11.31,13.81 8.74,14.16 7.07,14.31 5.40,14.47 3.20,14.62 1.00,14.77 0.91,14.87 0.82,14.96 0.70,15.03 0.59,15.09 0.46,15.13 0.33,15.17 0.20,15.18 0.07,15.19 -0.05,15.16 -0.18,15.14 -0.30,15.08 -0.42,15.03 -0.53,14.94 -0.63,14.86 -0.71,14.76 -0.79,14.65 -0.85,14.53 -0.90,14.41 -0.92,14.28 -0.95,14.15 -0.94,14.02 -0.93,13.88 -0.89,13.76 -0.85,13.63 -0.78,13.52 -0.71,13.41 -0.07,12.66 0.57,11.91 1.50,10.73 2.44,9.54 3.59,7.77 4.74,6.00 5.83,4.19 6.93,2.38 7.03,1.08 7.14,-0.21 6.59,-0.84 6.05,-1.46 4.72,-1.16 3.39,-0.85 1.92,-0.08 0.45,0.68 0.36,0.72 0.27,0.76 0.18,0.79 0.08,0.81 -0.01,0.81 -0.11,0.81 -0.20,0.78 -0.30,0.76 -0.38,0.71 -0.47,0.66 -0.54,0.59 -0.62,0.53 -0.67,0.45 -0.73,0.36 -0.76,0.27 -0.79,0.18 -0.80,0.08 -0.81,-0.01 -0.80,-0.11 -0.79,-0.20 -0.75,-0.30 -0.71,-0.39 -0.66,-0.47 -0.60,-0.55 -0.52,-0.61 -0.45,-0.68 -0.45,-0.68 L -0.45,-0.68 Z"/></g><g transform="translate(201.20001220703125 231.60000610351562) rotate(0 -6.399993896484375 10)" stroke="none"><path fill="#1971c2" d="M -0.71,0.23 Q -0.71,0.23 -1.07,-0.34 -1.43,-0.93 -2.30,-1.41 -3.17,-1.90 -4.30,-2.11 -5.42,-2.33 -6.66,-2.01 -7.89,-1.69 -9.22,-0.75 -10.55,0.18 -11.04,1.33 -11.52,2.49 -11.76,3.62 -12.00,4.75 -10.80,4.91 -9.60,5.06 -7.72,4.48 -5.85,3.90 -4.69,2.81 -3.53,1.73 -2.55,0.72 -1.56,-0.28 -0.45,0.21 0.65,0.72 0.60,1.94 0.56,3.15 0.53,5.23 0.50,7.30 0.73,9.51 0.95,11.71 1.27,14.27 1.59,16.83 1.48,19.57 1.37,22.30 1.35,22.41 1.34,22.52 1.30,22.61 1.25,22.71 1.18,22.78 1.11,22.86 1.01,22.91 0.92,22.96 0.81,22.98 0.71,22.99 0.60,22.98 0.50,22.96 0.40,22.91 0.31,22.86 0.24,22.78 0.16,22.70 0.12,22.61 0.08,22.51 0.06,22.41 0.05,22.30 0.08,22.20 0.10,22.09 0.15,22.00 0.21,21.91 0.29,21.84 0.37,21.77 0.47,21.74 0.57,21.70 0.68,21.69 0.78,21.69 0.88,21.71 0.99,21.74 1.07,21.80 1.16,21.86 1.23,21.95 1.29,22.03 1.32,22.13 1.36,22.23 1.36,22.34 1.36,22.45 1.32,22.55 1.29,22.65 1.22,22.73 1.16,22.82 1.07,22.88 0.98,22.93 0.88,22.96 0.78,22.99 0.67,22.98 0.57,22.98 0.47,22.94 0.37,22.90 0.29,22.83 0.21,22.76 0.15,22.67 0.10,22.58 0.08,22.48 0.05,22.37 0.05,22.37 0.05,22.37 -0.44,19.76 -0.94,17.14 -1.26,14.55 -1.58,11.95 -1.79,9.60 -2.00,7.26 -1.95,5.12 -1.91,2.97 -1.78,1.85 -1.66,0.72 -1.23,1.13 -0.80,1.54 -1.42,2.47 -2.04,3.40 -3.57,4.70 -5.11,6.01 -7.40,6.72 -9.69,7.44 -11.47,7.25 -13.25,7.05 -13.81,5.67 -14.36,4.28 -14.04,2.86 -13.72,1.45 -12.88,-0.12 -12.04,-1.70 -10.26,-2.88 -8.48,-4.06 -6.72,-4.39 -4.97,-4.71 -3.39,-4.29 -1.81,-3.86 -0.65,-2.84 0.51,-1.82 0.61,-1.03 0.71,-0.23 0.73,-0.14 0.75,-0.06 0.75,0.03 0.74,0.12 0.72,0.20 0.69,0.29 0.64,0.37 0.60,0.45 0.54,0.52 0.47,0.58 0.40,0.63 0.32,0.68 0.23,0.71 0.15,0.74 0.06,0.74 -0.03,0.75 -0.12,0.74 -0.21,0.72 -0.29,0.69 -0.37,0.65 -0.45,0.59 -0.52,0.54 -0.58,0.47 -0.63,0.40 -0.67,0.32 -0.71,0.23 -0.71,0.23 L -0.71,0.23 Z"/></g><g transform="translate(82 132.39999389648438) rotate(0 6.800018310546875 2)" stroke="none"><path fill="#1971c2" d="M 0,0.67 Q 0,0.67 -0.77,0.92 -1.54,1.17 -2.19,0.74 -2.85,0.30 -3.13,-0.86 -3.42,-2.04 -2.71,-3.40 -2.01,-4.76 -1.08,-5.59 -0.15,-6.42 1.37,-6.50 2.90,-6.57 4.08,-5.26 5.25,-3.95 5.64,-1.85 6.02,0.25 6.17,1.54 6.31,2.82 6.34,3.13 6.37,3.44 6.37,3.54 6.37,3.65 6.35,3.75 6.32,3.86 6.27,3.95 6.23,4.05 6.16,4.13 6.09,4.21 6.00,4.27 5.91,4.33 5.81,4.37 5.71,4.41 5.61,4.42 5.50,4.43 5.39,4.42 5.29,4.41 5.19,4.37 5.09,4.34 5.00,4.28 4.91,4.22 4.84,4.14 4.77,4.06 4.72,3.96 4.67,3.87 4.64,3.77 4.62,3.66 4.86,2.84 5.11,2.01 5.64,0.82 6.17,-0.37 6.95,-1.44 7.72,-2.51 8.91,-3.08 10.11,-3.65 11.19,-3.84 12.27,-4.02 13.69,-3.30 15.11,-2.57 15.76,-1.16 16.42,0.24 16.65,1.79 16.88,3.34 16.74,5.00 16.60,6.66 15.47,8.17 14.34,9.68 14.33,9.75 14.31,9.83 14.27,9.90 14.24,9.97 14.19,10.03 14.14,10.09 14.07,10.14 14.01,10.19 13.94,10.22 13.86,10.25 13.78,10.26 13.71,10.27 13.63,10.26 13.55,10.25 13.47,10.23 13.40,10.20 13.33,10.16 13.27,10.12 13.21,10.06 13.16,10.00 13.12,9.93 13.08,9.86 13.06,9.78 13.04,9.71 13.04,9.63 13.04,9.55 13.20,9.87 13.36,10.18 13.28,10.12 13.20,10.05 13.14,9.96 13.08,9.87 13.06,9.77 13.03,9.66 13.04,9.56 13.05,9.45 13.10,9.35 13.14,9.26 13.21,9.18 13.28,9.10 13.37,9.05 13.47,9.00 13.57,8.98 13.68,8.96 13.78,8.97 13.89,8.99 13.98,9.04 14.08,9.08 14.15,9.16 14.23,9.23 14.27,9.33 14.32,9.42 14.33,9.53 14.35,9.64 14.33,9.74 14.30,9.84 14.25,9.94 14.20,10.03 14.12,10.10 14.04,10.17 13.94,10.21 13.84,10.25 13.74,10.26 13.63,10.27 13.53,10.24 13.43,10.22 13.34,10.16 13.25,10.10 13.18,10.02 13.12,9.93 13.08,9.83 13.04,9.73 13.04,9.63 13.04,9.52 13.07,9.42 13.10,9.32 13.17,9.23 13.23,9.15 13.32,9.09 13.40,9.02 13.50,8.99 13.61,8.96 13.71,8.97 13.82,8.97 14.08,9.32 14.34,9.68 14.33,9.75 14.31,9.83 14.27,9.90 14.24,9.97 14.19,10.03 14.14,10.09 14.07,10.14 14.01,10.19 13.94,10.22 13.86,10.25 13.78,10.26 13.71,10.27 13.63,10.26 13.55,10.25 13.47,10.23 13.40,10.20 13.33,10.16 13.27,10.12 13.21,10.06 13.16,10.00 13.12,9.93 13.08,9.86 13.06,9.78 13.04,9.71 13.04,9.63 13.04,9.55 13.63,7.99 14.23,6.42 14.39,5.03 14.54,3.64 14.39,2.35 14.23,1.06 13.98,0.10 13.74,-0.84 13.03,-1.35 12.32,-1.86 11.64,-1.70 10.96,-1.54 10.18,-1.30 9.39,-1.07 8.76,-0.23 8.13,0.59 7.25,2.02 6.37,3.44 6.37,3.54 6.37,3.65 6.35,3.75 6.32,3.86 6.27,3.95 6.23,4.05 6.16,4.13 6.09,4.21 6.00,4.27 5.91,4.33 5.81,4.37 5.71,4.41 5.61,4.42 5.50,4.43 5.39,4.42 5.29,4.41 5.19,4.37 5.09,4.34 5.00,4.28 4.91,4.22 4.84,4.14 4.77,4.06 4.72,3.96 4.67,3.87 4.64,3.77 4.62,3.66 4.51,3.37 4.41,3.07 4.23,1.86 4.06,0.65 3.69,-0.96 3.32,-2.57 2.25,-3.49 1.19,-4.40 0.66,-3.90 0.13,-3.40 -0.54,-2.28 -1.21,-1.17 -0.60,-0.92 0,-0.67 0.08,-0.66 0.16,-0.65 0.23,-0.62 0.31,-0.59 0.38,-0.55 0.44,-0.50 0.50,-0.44 0.55,-0.38 0.59,-0.31 0.63,-0.23 0.65,-0.16 0.67,-0.08 0.67,0.00 0.67,0.08 0.65,0.16 0.63,0.23 0.59,0.31 0.55,0.38 0.50,0.44 0.44,0.50 0.38,0.55 0.31,0.59 0.23,0.62 0.16,0.65 0.08,0.66 -0.00,0.67 -0.00,0.67 L 0,0.67 Z"/></g><g transform="translate(86 119.60000610351562) rotate(0 10.800018310546875 -2.8000030517578125)" stroke="none"><path fill="#1971c2" d="M -0.70,-0.30 Q -0.70,-0.30 -0.15,-1.97 0.39,-3.64 0.91,-4.80 1.44,-5.97 1.96,-6.64 2.48,-7.30 3.14,-7.67 3.80,-8.04 4.77,-7.97 5.74,-7.91 7.07,-7.37 8.39,-6.82 9.91,-5.87 11.44,-4.92 12.93,-4.09 14.42,-3.27 15.70,-2.71 16.98,-2.15 19.15,-0.71 21.32,0.73 21.40,0.79 21.49,0.85 21.55,0.94 21.62,1.02 21.65,1.13 21.68,1.23 21.68,1.33 21.68,1.44 21.64,1.54 21.61,1.64 21.54,1.72 21.47,1.81 21.39,1.86 21.30,1.92 21.19,1.95 21.09,1.98 20.98,1.97 20.88,1.96 20.78,1.92 20.68,1.88 20.60,1.81 20.52,1.74 20.47,1.65 20.42,1.55 20.40,1.45 20.38,1.35 20.39,1.24 20.40,1.14 20.45,1.04 20.49,0.94 20.57,0.87 20.64,0.79 20.74,0.74 20.83,0.70 20.94,0.68 21.04,0.67 21.15,0.68 21.25,0.70 21.34,0.76 21.44,0.81 21.51,0.88 21.58,0.96 21.62,1.06 21.67,1.16 21.68,1.26 21.69,1.37 21.66,1.47 21.64,1.58 21.58,1.67 21.52,1.76 21.44,1.82 21.36,1.89 21.26,1.93 21.16,1.97 21.05,1.97 20.95,1.97 20.85,1.94 20.75,1.91 20.75,1.91 20.75,1.91 18.30,1.16 15.85,0.41 14.45,-0.20 13.06,-0.82 11.50,-1.70 9.94,-2.57 8.61,-3.44 7.28,-4.30 5.91,-5.02 4.54,-5.74 3.97,-5.39 3.40,-5.04 2.88,-3.91 2.36,-2.79 1.53,-1.24 0.70,0.30 0.65,0.38 0.61,0.46 0.54,0.52 0.48,0.59 0.40,0.64 0.32,0.69 0.23,0.72 0.15,0.75 0.05,0.75 -0.03,0.76 -0.12,0.74 -0.21,0.73 -0.29,0.69 -0.38,0.66 -0.45,0.60 -0.53,0.55 -0.58,0.47 -0.64,0.40 -0.68,0.32 -0.72,0.24 -0.74,0.15 -0.76,0.05 -0.75,-0.03 -0.75,-0.12 -0.72,-0.21 -0.70,-0.30 -0.70,-0.30 L -0.70,-0.30 Z"/></g><g transform="translate(98.800048828125 122) rotate(0 1.199981689453125 -6.399993896484375)" stroke="none"><path fill="#1971c2" d="M -0.79,-0.26 Q -0.79,-0.26 -0.45,-1.68 -0.12,-3.10 0.67,-7.09 1.48,-11.08 1.51,-11.18 1.54,-11.28 1.61,-11.37 1.67,-11.45 1.76,-11.51 1.84,-11.57 1.94,-11.60 2.05,-11.63 2.15,-11.63 2.26,-11.63 2.36,-11.59 2.46,-11.55 2.54,-11.48 2.62,-11.41 2.68,-11.32 2.73,-11.23 2.76,-11.13 2.78,-11.03 2.77,-10.92 2.76,-10.82 2.72,-10.72 2.68,-10.62 2.61,-10.54 2.53,-10.47 2.44,-10.41 2.35,-10.36 2.24,-10.34 2.14,-10.32 2.03,-10.34 1.93,-10.36 1.83,-10.40 1.74,-10.45 1.66,-10.53 1.59,-10.60 1.54,-10.70 1.50,-10.80 1.48,-10.90 1.47,-11.01 1.49,-11.11 1.51,-11.21 1.57,-11.31 1.62,-11.40 1.70,-11.47 1.78,-11.54 1.88,-11.58 1.98,-11.62 2.08,-11.63 2.19,-11.64 2.29,-11.61 2.39,-11.58 2.48,-11.52 2.57,-11.47 2.64,-11.38 2.70,-11.30 2.74,-11.20 2.77,-11.10 2.78,-10.99 2.78,-10.89 2.78,-10.89 2.78,-10.89 2.37,-6.65 1.96,-2.41 1.37,-1.07 0.79,0.26 0.74,0.35 0.70,0.44 0.64,0.52 0.57,0.60 0.49,0.66 0.41,0.72 0.32,0.76 0.23,0.80 0.13,0.81 0.03,0.83 -0.06,0.82 -0.16,0.81 -0.26,0.78 -0.35,0.75 -0.44,0.70 -0.52,0.64 -0.59,0.57 -0.66,0.50 -0.71,0.41 -0.76,0.32 -0.79,0.23 -0.82,0.13 -0.82,0.03 -0.83,-0.06 -0.81,-0.16 -0.79,-0.26 -0.79,-0.26 L -0.79,-0.26 Z"/></g><g stroke-linecap="round"><g transform="translate(62 220.39999389648438) rotate(0 92.4000244140625 -46.399993896484375)"><path d="M-0.92 -1.12 C29.93 -16.6, 154.29 -77.15, 185.32 -92.52 M0.8 0.91 C31.51 -14.98, 153.99 -78.96, 184.65 -94.49" stroke="#e03131" stroke-width="2" fill="none"/></g></g><mask/><g stroke-linecap="round"><g transform="translate(314.00006103515625 218) rotate(0 -99.60000610351562 -43.19999694824219)"><path d="M-0.61 0.35 C-33.63 -14.3, -165.48 -72.4, -198.55 -86.96 M1.27 -0.52 C-31.81 -15.09, -165.67 -71.46, -199.16 -85.72" stroke="#e03131" stroke-width="2" fill="none"/></g></g><mask/><g stroke-linecap="round"><g transform="translate(174.800048828125 38.79998779296875) rotate(0 3.199981689453125 90)"><path d="M0.66 0.52 C1.49 30.49, 4.66 150.91, 5.61 180.76 M-0.46 -0.26 C0.7 29.29, 6.9 148.87, 7.9 179.03" stroke="#e03131" stroke-width="2" fill="none"/></g></g><mask/><g transform="translate(111.60003662109375 171.60000610351562) rotate(0 6 6.8000030517578125)" stroke="none"><path fill="#2f9e44" d="M 0.77,0 Q 0.77,0 0.92,1.37 1.06,2.75 1.06,4.03 1.07,5.31 1.07,6.77 1.07,8.23 1.07,9.31 1.07,10.40 1.06,11.28 1.05,12.16 1.28,12.59 1.52,13.02 1.50,13.14 1.49,13.27 1.44,13.39 1.39,13.51 1.32,13.62 1.25,13.72 1.15,13.81 1.06,13.89 0.94,13.95 0.83,14.01 0.71,14.04 0.58,14.07 0.45,14.07 0.33,14.07 0.20,14.04 0.08,14.01 -0.02,13.95 -0.14,13.89 -0.23,13.81 -0.33,13.72 -0.40,13.62 -0.48,13.51 -0.52,13.39 -0.57,13.27 -0.58,13.14 -0.60,13.02 0.11,12.10 0.83,11.18 1.46,10.33 2.10,9.48 3.12,8.37 4.14,7.25 4.79,6.56 5.44,5.87 6.15,5.47 6.86,5.06 7.73,5.48 8.61,5.90 10.21,7.42 11.81,8.93 11.91,8.95 12.02,8.97 12.11,9.03 12.20,9.08 12.27,9.16 12.34,9.24 12.38,9.34 12.42,9.44 12.43,9.54 12.44,9.65 12.41,9.75 12.38,9.85 12.32,9.94 12.27,10.03 12.18,10.10 12.10,10.16 12.00,10.20 11.90,10.23 11.79,10.23 11.69,10.24 11.58,10.20 11.48,10.17 11.40,10.11 11.31,10.05 11.25,9.96 11.19,9.87 11.16,9.77 11.13,9.67 11.14,9.56 11.14,9.45 11.18,9.36 11.22,9.26 11.28,9.17 11.35,9.09 11.44,9.04 11.53,8.98 11.63,8.96 11.74,8.93 11.84,8.94 11.95,8.95 12.05,8.99 12.14,9.04 12.22,9.11 12.30,9.18 12.35,9.27 12.40,9.37 12.42,9.47 12.44,9.58 12.42,9.68 12.41,9.79 12.36,9.88 12.31,9.98 12.24,10.05 12.16,10.12 12.06,10.17 11.97,10.22 11.86,10.23 11.76,10.24 11.76,10.24 11.76,10.24 9.24,8.96 6.72,7.68 5.87,6.76 5.03,5.84 4.86,5.30 4.70,4.75 4.93,4.12 5.15,3.49 6.37,3.85 7.59,4.21 7.68,5.04 7.78,5.88 7.40,6.61 7.03,7.35 6.39,8.04 5.74,8.72 4.78,9.76 3.83,10.80 2.67,11.91 1.52,13.02 1.50,13.14 1.49,13.27 1.44,13.39 1.39,13.51 1.32,13.62 1.25,13.72 1.15,13.81 1.06,13.89 0.94,13.95 0.83,14.01 0.71,14.04 0.58,14.07 0.46,14.07 0.33,14.07 0.20,14.04 0.08,14.01 -0.02,13.95 -0.14,13.89 -0.23,13.81 -0.33,13.72 -0.40,13.62 -0.47,13.51 -0.52,13.39 -0.57,13.27 -0.58,13.14 -0.60,13.02 -0.82,12.66 -1.05,12.31 -1.06,11.35 -1.07,10.40 -1.07,9.31 -1.07,8.23 -1.07,6.77 -1.07,5.31 -1.06,4.03 -1.06,2.75 -0.92,1.37 -0.77,0 -0.76,-0.09 -0.75,-0.18 -0.72,-0.27 -0.69,-0.36 -0.63,-0.43 -0.58,-0.51 -0.51,-0.57 -0.44,-0.64 -0.35,-0.68 -0.27,-0.72 -0.18,-0.75 -0.09,-0.77 0.00,-0.77 0.09,-0.77 0.18,-0.75 0.27,-0.72 0.35,-0.68 0.44,-0.64 0.51,-0.57 0.58,-0.51 0.63,-0.43 0.69,-0.36 0.72,-0.27 0.75,-0.18 0.76,-0.09 0.77,0.00 0.77,0.00 L 0.77,0 Z"/></g><g transform="translate(121.20001220703125 168.39999389648438) rotate(0 4.800018310546875 2.4000091552734375)" stroke="none"><path fill="#2f9e44" d="M 0.66,0 Q 0.66,0 0.89,1.13 1.13,2.27 1.57,3.23 2.02,4.19 2.80,4.96 3.59,5.73 4.52,6.25 5.45,6.77 6.20,6.98 6.96,7.19 7.66,6.22 8.37,5.26 8.33,3.86 8.29,2.45 7.87,1.26 7.45,0.06 6.91,-0.81 6.36,-1.68 5.81,-1.93 5.26,-2.17 4.53,-1.70 3.80,-1.22 3.32,-0.51 2.84,0.20 2.23,1.45 1.61,2.70 1.57,2.79 1.53,2.89 1.45,2.97 1.38,3.04 1.29,3.09 1.19,3.14 1.09,3.16 0.98,3.18 0.88,3.16 0.77,3.14 0.68,3.09 0.58,3.04 0.51,2.97 0.44,2.89 0.39,2.79 0.35,2.70 0.34,2.59 0.33,2.49 0.35,2.38 0.37,2.28 0.43,2.19 0.48,2.10 0.56,2.03 0.64,1.96 0.74,1.92 0.84,1.88 0.95,1.87 1.05,1.87 1.15,1.90 1.26,1.92 1.34,1.98 1.43,2.04 1.50,2.13 1.56,2.21 1.60,2.31 1.63,2.41 1.63,2.52 1.63,2.63 1.60,2.73 1.56,2.83 1.50,2.91 1.43,3.00 1.35,3.06 1.26,3.12 1.16,3.14 1.05,3.17 0.95,3.17 0.84,3.16 0.74,3.12 0.64,3.08 0.56,3.01 0.48,2.95 0.43,2.86 0.37,2.76 0.35,2.66 0.33,2.56 0.34,2.45 0.35,2.35 0.35,2.35 0.35,2.35 0.58,0.53 0.81,-1.27 1.73,-2.36 2.64,-3.45 4.12,-3.97 5.59,-4.49 6.97,-3.84 8.36,-3.19 9.11,-1.96 9.87,-0.73 10.35,0.85 10.83,2.44 10.75,4.36 10.67,6.27 9.81,7.69 8.94,9.11 7.64,9.36 6.33,9.60 5.26,9.26 4.19,8.93 2.99,8.18 1.79,7.42 0.80,6.27 -0.18,5.11 -0.65,3.72 -1.13,2.32 -0.89,1.16 -0.66,0 -0.65,-0.07 -0.64,-0.15 -0.61,-0.23 -0.58,-0.30 -0.54,-0.37 -0.49,-0.43 -0.43,-0.49 -0.37,-0.54 -0.30,-0.58 -0.23,-0.61 -0.15,-0.63 -0.07,-0.65 0.00,-0.65 0.07,-0.65 0.15,-0.63 0.23,-0.61 0.30,-0.58 0.37,-0.54 0.43,-0.49 0.49,-0.43 0.54,-0.37 0.58,-0.30 0.61,-0.23 0.64,-0.15 0.65,-0.07 0.66,0.00 0.66,0.00 L 0.66,0 Z"/></g><g transform="translate(181.20001220703125 102.79998779296875) rotate(0 5.20001220703125 7.20001220703125)" stroke="none"><path fill="#2f9e44" d="M 0.76,0.12 Q 0.76,0.12 0.77,1.54 0.77,2.95 0.91,4.78 1.05,6.60 1.54,8.47 2.04,10.35 2.27,11.70 2.49,13.06 2.55,13.39 2.61,13.72 2.62,13.86 2.62,14.00 2.59,14.14 2.57,14.28 2.51,14.41 2.45,14.53 2.36,14.64 2.27,14.75 2.16,14.84 2.05,14.92 1.92,14.98 1.79,15.04 1.65,15.06 1.51,15.08 1.37,15.07 1.23,15.06 1.10,15.02 0.96,14.97 0.84,14.90 0.72,14.82 0.63,14.72 0.53,14.62 0.46,14.50 0.39,14.38 0.35,14.24 0.31,14.11 0.89,12.91 1.47,11.72 1.89,10.96 2.32,10.20 2.71,9.24 3.10,8.27 3.56,7.53 4.01,6.78 4.45,6.23 4.88,5.68 5.04,4.97 5.20,4.26 5.30,4.16 5.40,4.05 5.53,3.98 5.65,3.90 5.79,3.86 5.93,3.82 6.07,3.81 6.22,3.80 6.36,3.83 6.50,3.85 6.63,3.91 6.76,3.97 6.88,4.06 6.99,4.15 7.08,4.27 7.17,4.38 7.23,4.51 7.29,4.64 7.31,4.78 7.34,4.93 7.33,5.07 7.32,5.22 7.28,5.35 7.23,5.49 7.16,5.61 7.08,5.74 7.95,6.14 8.82,6.54 9.38,7.46 9.95,8.39 10.82,9.36 11.68,10.33 11.71,10.40 11.74,10.48 11.76,10.55 11.77,10.63 11.77,10.71 11.76,10.79 11.74,10.86 11.72,10.94 11.68,11.01 11.63,11.08 11.58,11.13 11.52,11.19 11.46,11.23 11.39,11.27 11.31,11.29 11.24,11.32 11.16,11.32 11.08,11.33 11.00,11.31 10.92,11.30 10.85,11.27 10.78,11.24 10.72,11.19 10.65,11.14 10.60,11.08 10.56,11.01 10.57,10.66 10.57,10.30 10.65,10.23 10.72,10.15 10.82,10.10 10.91,10.05 11.01,10.03 11.12,10.02 11.22,10.03 11.33,10.05 11.42,10.10 11.52,10.15 11.59,10.23 11.66,10.31 11.71,10.40 11.75,10.50 11.76,10.60 11.77,10.71 11.75,10.81 11.73,10.92 11.67,11.01 11.62,11.10 11.53,11.17 11.45,11.24 11.35,11.28 11.26,11.31 11.15,11.32 11.04,11.32 10.94,11.30 10.84,11.27 10.75,11.21 10.66,11.15 10.60,11.06 10.54,10.98 10.50,10.88 10.47,10.78 10.47,10.67 10.47,10.56 10.50,10.46 10.54,10.36 10.60,10.28 10.67,10.19 10.76,10.13 10.84,10.08 10.95,10.05 11.05,10.02 11.15,10.03 11.26,10.03 11.36,10.07 11.46,10.11 11.54,10.18 11.62,10.25 11.67,10.34 11.73,10.43 11.75,10.54 11.77,10.64 11.76,10.74 11.75,10.85 11.71,10.59 11.68,10.33 11.71,10.40 11.74,10.48 11.76,10.55 11.77,10.63 11.77,10.71 11.76,10.79 11.74,10.86 11.72,10.94 11.68,11.01 11.63,11.08 11.58,11.13 11.52,11.19 11.46,11.23 11.39,11.27 11.31,11.29 11.24,11.32 11.16,11.32 11.08,11.33 11.00,11.31 10.92,11.30 10.85,11.27 10.78,11.24 10.72,11.19 10.65,11.14 10.60,11.08 10.56,11.01 9.10,10.40 7.65,9.79 7.15,8.95 6.64,8.12 5.85,6.99 5.07,5.87 5.13,5.06 5.20,4.26 5.30,4.16 5.40,4.05 5.53,3.98 5.65,3.90 5.79,3.86 5.93,3.82 6.07,3.81 6.22,3.80 6.36,3.83 6.50,3.85 6.63,3.91 6.76,3.97 6.88,4.06 6.99,4.15 7.08,4.27 7.17,4.38 7.23,4.51 7.29,4.64 7.31,4.78 7.34,4.93 7.33,5.07 7.32,5.21 7.28,5.35 7.23,5.49 7.16,5.61 7.08,5.74 6.90,6.38 6.72,7.02 6.34,7.50 5.97,7.98 5.61,8.57 5.25,9.15 4.81,10.24 4.36,11.33 3.90,12.16 3.45,12.98 3.03,13.35 2.61,13.72 2.62,13.86 2.62,14.00 2.59,14.14 2.57,14.28 2.51,14.41 2.45,14.53 2.36,14.64 2.27,14.75 2.16,14.84 2.05,14.92 1.92,14.98 1.79,15.04 1.65,15.06 1.51,15.08 1.37,15.07 1.23,15.06 1.10,15.02 0.96,14.97 0.84,14.90 0.72,14.82 0.63,14.72 0.53,14.62 0.46,14.50 0.39,14.38 0.35,14.24 0.31,14.11 0.18,13.79 0.05,13.47 -0.15,12.22 -0.37,10.97 -0.90,8.87 -1.44,6.78 -1.56,4.67 -1.69,2.56 -1.23,1.21 -0.76,-0.12 -0.74,-0.21 -0.71,-0.30 -0.66,-0.38 -0.62,-0.46 -0.55,-0.53 -0.48,-0.60 -0.41,-0.65 -0.33,-0.70 -0.24,-0.73 -0.15,-0.76 -0.05,-0.77 0.03,-0.77 0.12,-0.76 0.21,-0.74 0.30,-0.70 0.39,-0.67 0.46,-0.61 0.54,-0.55 0.60,-0.48 0.65,-0.41 0.69,-0.32 0.73,-0.24 0.75,-0.15 0.77,-0.05 0.77,0.03 0.76,0.12 0.76,0.12 L 0.76,0.12 Z"/></g><g transform="translate(191.60003662109375 97.20001220703125) rotate(0 4.79998779296875 3.5999755859375)" stroke="none"><path fill="#2f9e44" d="M 0.91,-0.13 Q 0.91,-0.13 1.36,1.44 1.80,3.01 2.31,4.20 2.81,5.40 3.79,6.20 4.78,7.01 5.52,7.36 6.27,7.71 7.07,7.07 7.87,6.42 8.17,5.66 8.47,4.89 8.63,4.21 8.80,3.54 8.25,2.38 7.69,1.23 6.82,0.64 5.94,0.04 5.31,0.10 4.69,0.16 4.26,1.14 3.83,2.13 3.41,3.99 2.98,5.85 2.98,5.95 2.98,6.06 2.94,6.16 2.90,6.26 2.84,6.34 2.77,6.42 2.68,6.48 2.59,6.54 2.49,6.56 2.38,6.59 2.28,6.58 2.17,6.57 2.08,6.53 1.98,6.48 1.90,6.41 1.82,6.34 1.77,6.25 1.72,6.16 1.70,6.05 1.68,5.95 1.69,5.84 1.71,5.74 1.75,5.64 1.80,5.55 1.88,5.47 1.95,5.40 2.05,5.35 2.14,5.30 2.25,5.29 2.35,5.28 2.46,5.30 2.56,5.32 2.66,5.37 2.75,5.42 2.82,5.50 2.89,5.58 2.93,5.68 2.97,5.78 2.98,5.88 2.99,5.99 2.96,6.09 2.94,6.19 2.88,6.28 2.82,6.37 2.74,6.44 2.65,6.50 2.55,6.54 2.45,6.58 2.35,6.58 2.24,6.58 2.14,6.55 2.04,6.52 1.95,6.46 1.87,6.39 1.81,6.31 1.74,6.22 1.71,6.12 1.68,6.02 1.68,6.02 1.68,6.02 1.61,3.38 1.53,0.75 2.58,-0.63 3.62,-2.01 5.37,-2.13 7.12,-2.25 8.59,-1.08 10.07,0.07 10.71,1.97 11.35,3.87 11.09,4.97 10.83,6.06 10.11,7.30 9.40,8.53 7.81,9.35 6.23,10.17 4.61,9.63 2.99,9.09 1.66,7.81 0.33,6.53 -0.27,4.97 -0.88,3.42 -0.90,1.77 -0.91,0.13 -0.91,0.01 -0.91,-0.09 -0.89,-0.20 -0.86,-0.30 -0.81,-0.40 -0.76,-0.50 -0.69,-0.59 -0.62,-0.67 -0.53,-0.74 -0.44,-0.80 -0.34,-0.84 -0.23,-0.88 -0.12,-0.90 -0.01,-0.92 0.09,-0.91 0.20,-0.89 0.30,-0.86 0.41,-0.82 0.50,-0.76 0.59,-0.70 0.67,-0.62 0.74,-0.53 0.80,-0.44 0.85,-0.34 0.88,-0.23 0.91,-0.13 0.91,-0.13 L 0.91,-0.13 Z"/></g><g transform="translate(224.4000244140625 163.60000610351562) rotate(0 5.20001220703125 6.79998779296875)" stroke="none"><path fill="#2f9e44" d="M 0.79,0.19 Q 0.79,0.19 0.79,1.16 0.79,2.13 0.94,3.70 1.09,5.28 1.37,7.14 1.65,8.99 1.76,10.02 1.87,11.06 2.15,11.53 2.42,12.00 2.42,12.15 2.42,12.30 2.38,12.44 2.35,12.59 2.27,12.72 2.20,12.86 2.10,12.97 2.00,13.08 1.88,13.17 1.75,13.25 1.61,13.30 1.47,13.36 1.32,13.38 1.17,13.39 1.02,13.37 0.87,13.35 0.73,13.30 0.59,13.25 0.47,13.16 0.35,13.07 0.25,12.96 0.15,12.85 0.08,12.71 0.01,12.58 -0.02,12.43 -0.05,12.29 0.74,11.25 1.53,10.21 2.22,9.56 2.91,8.91 3.68,8.19 4.44,7.47 5.20,6.65 5.96,5.83 5.69,5.30 5.43,4.77 5.52,4.63 5.60,4.50 5.72,4.38 5.83,4.27 5.97,4.19 6.11,4.11 6.27,4.07 6.42,4.02 6.58,4.02 6.74,4.01 6.90,4.04 7.06,4.07 7.21,4.14 7.35,4.21 7.48,4.31 7.60,4.42 7.70,4.54 7.79,4.67 7.86,4.82 7.92,4.97 7.95,5.13 7.97,5.29 7.96,5.45 7.95,5.61 7.90,5.76 7.84,5.92 8.07,6.58 8.29,7.24 8.80,8.40 9.31,9.55 9.93,10.43 10.55,11.31 11.10,11.64 11.64,11.98 11.68,12.05 11.71,12.12 11.73,12.20 11.75,12.27 11.75,12.35 11.75,12.43 11.73,12.51 11.71,12.59 11.68,12.66 11.64,12.73 11.59,12.79 11.54,12.85 11.47,12.89 11.41,12.94 11.33,12.96 11.26,12.99 11.18,13.00 11.10,13.01 11.02,13.00 10.94,12.99 10.87,12.96 10.80,12.94 10.73,12.89 10.67,12.85 10.61,12.79 10.56,12.73 10.56,12.36 10.55,11.99 10.62,11.91 10.70,11.84 10.79,11.79 10.88,11.73 10.99,11.72 11.09,11.70 11.20,11.71 11.30,11.73 11.40,11.78 11.49,11.83 11.56,11.90 11.64,11.98 11.68,12.07 11.73,12.17 11.74,12.28 11.76,12.38 11.73,12.49 11.71,12.59 11.66,12.68 11.61,12.77 11.53,12.84 11.45,12.91 11.35,12.95 11.25,12.99 11.14,13.00 11.04,13.01 10.93,12.98 10.83,12.95 10.74,12.90 10.65,12.84 10.59,12.75 10.52,12.67 10.49,12.57 10.45,12.47 10.45,12.36 10.45,12.26 10.48,12.16 10.52,12.05 10.58,11.97 10.64,11.88 10.73,11.82 10.82,11.76 10.92,11.73 11.02,11.70 11.13,11.71 11.23,11.71 11.33,11.75 11.43,11.79 11.51,11.86 11.60,11.92 11.65,12.01 11.71,12.10 11.73,12.21 11.76,12.31 11.75,12.42 11.74,12.52 11.69,12.25 11.64,11.98 11.68,12.05 11.71,12.12 11.73,12.20 11.75,12.27 11.75,12.35 11.75,12.43 11.73,12.51 11.71,12.59 11.68,12.66 11.64,12.73 11.59,12.79 11.54,12.85 11.47,12.89 11.41,12.94 11.33,12.96 11.26,12.99 11.18,13.00 11.10,13.01 11.02,13.00 10.94,12.99 10.87,12.96 10.80,12.94 10.73,12.89 10.67,12.85 10.61,12.79 10.56,12.73 9.38,12.83 8.19,12.93 7.43,11.81 6.67,10.69 6.09,9.31 5.51,7.93 5.47,6.35 5.43,4.77 5.52,4.63 5.60,4.50 5.72,4.38 5.83,4.27 5.97,4.19 6.11,4.11 6.27,4.07 6.42,4.02 6.58,4.02 6.74,4.01 6.90,4.04 7.06,4.07 7.21,4.14 7.35,4.21 7.48,4.31 7.60,4.42 7.70,4.54 7.79,4.67 7.86,4.82 7.92,4.97 7.95,5.13 7.97,5.29 7.96,5.45 7.95,5.61 7.90,5.76 7.84,5.91 7.96,6.08 8.08,6.25 7.48,7.05 6.88,7.84 6.49,8.49 6.10,9.13 5.35,9.90 4.59,10.67 3.50,11.33 2.42,12.00 2.42,12.15 2.42,12.30 2.38,12.44 2.35,12.59 2.27,12.72 2.20,12.86 2.10,12.97 2.00,13.08 1.88,13.17 1.75,13.25 1.61,13.30 1.47,13.36 1.32,13.38 1.17,13.39 1.02,13.37 0.87,13.35 0.73,13.30 0.59,13.25 0.47,13.16 0.35,13.07 0.25,12.96 0.15,12.85 0.08,12.71 0.01,12.58 -0.02,12.43 -0.05,12.29 -0.34,11.88 -0.63,11.46 -0.76,10.42 -0.89,9.37 -1.18,7.42 -1.48,5.47 -1.59,3.51 -1.71,1.54 -1.25,0.67 -0.79,-0.19 -0.76,-0.29 -0.72,-0.38 -0.66,-0.46 -0.61,-0.54 -0.53,-0.61 -0.46,-0.67 -0.37,-0.72 -0.28,-0.76 -0.19,-0.79 -0.09,-0.81 0.00,-0.81 0.10,-0.81 0.19,-0.79 0.29,-0.76 0.38,-0.72 0.46,-0.67 0.54,-0.60 0.61,-0.54 0.67,-0.46 0.72,-0.37 0.76,-0.28 0.79,-0.19 0.81,-0.09 0.82,0.00 0.80,0.10 0.79,0.19 0.79,0.19 L 0.79,0.19 Z"/></g><g transform="translate(236.4000244140625 161.20001220703125) rotate(0 4 4.79998779296875)" stroke="none"><path fill="#2f9e44" d="M 0.88,-0.14 Q 0.88,-0.14 1.35,1.18 1.82,2.52 2.35,3.90 2.88,5.28 3.50,6.49 4.12,7.69 4.73,8.01 5.34,8.32 6.08,7.52 6.83,6.73 7.26,6.10 7.68,5.47 7.37,4.15 7.06,2.83 6.61,2.26 6.15,1.70 5.27,1.90 4.39,2.09 3.46,2.71 2.54,3.33 1.76,4.35 0.98,5.36 1.33,7.05 1.68,8.75 1.74,8.83 1.80,8.92 1.83,9.02 1.86,9.12 1.86,9.23 1.86,9.33 1.82,9.43 1.78,9.53 1.72,9.62 1.65,9.70 1.56,9.76 1.47,9.81 1.37,9.84 1.26,9.87 1.16,9.86 1.05,9.85 0.95,9.81 0.86,9.76 0.78,9.69 0.70,9.62 0.65,9.53 0.59,9.44 0.57,9.33 0.55,9.23 0.57,9.12 0.58,9.02 0.63,8.92 0.68,8.83 0.75,8.75 0.83,8.68 0.92,8.63 1.02,8.58 1.12,8.57 1.23,8.55 1.33,8.57 1.44,8.59 1.53,8.65 1.62,8.70 1.69,8.78 1.77,8.86 1.81,8.96 1.85,9.05 1.86,9.16 1.87,9.26 1.84,9.37 1.81,9.47 1.76,9.56 1.70,9.65 1.62,9.72 1.53,9.78 1.43,9.82 1.33,9.86 1.23,9.86 1.12,9.86 1.02,9.83 0.92,9.80 0.83,9.74 0.75,9.67 0.75,9.67 0.75,9.67 -0.26,6.74 -1.28,3.81 -0.10,2.38 1.08,0.95 2.60,0.15 4.12,-0.65 5.76,-0.55 7.40,-0.46 8.54,0.88 9.68,2.24 9.87,4.35 10.07,6.46 9.52,7.42 8.98,8.38 8.08,9.36 7.19,10.33 5.86,10.57 4.53,10.80 3.17,9.98 1.81,9.16 1.04,7.71 0.26,6.25 -0.31,4.62 -0.90,2.99 -0.89,1.57 -0.88,0.14 -0.89,0.03 -0.89,-0.06 -0.87,-0.17 -0.85,-0.28 -0.80,-0.37 -0.76,-0.47 -0.69,-0.56 -0.62,-0.64 -0.53,-0.71 -0.45,-0.77 -0.35,-0.82 -0.25,-0.86 -0.14,-0.88 -0.03,-0.89 0.06,-0.89 0.17,-0.88 0.27,-0.84 0.38,-0.81 0.47,-0.75 0.56,-0.69 0.64,-0.62 0.71,-0.54 0.77,-0.44 0.82,-0.35 0.85,-0.25 0.88,-0.14 0.88,-0.14 L 0.88,-0.14 Z"/></g></svg>