<svg version="1.1" xmlns="http://www.w3.org/2000/svg" viewBox="0 0 443.1649764346378 414.61098166062766" width="443.1649764346378" height="414.61098166062766" filter="invert(93%) hue-rotate(180deg)" class="excalidraw-svg">
  <!-- svg-source:excalidraw -->
  
  <defs>
    <style class="style-fonts">
      
    </style>
    
  </defs>
  <g stroke-linecap="round"><g transform="translate(234.76501305573157 35.81099386765891) rotate(0 0.79998779296875 124)"><path d="M1.12 -0.53 C1.19 40.79, 1 205.64, 1.28 246.88 M0.25 1.81 C0.05 43.33, -0.25 206.85, 0.16 247.83" stroke="#e03131" stroke-width="1" fill="none"/></g></g><mask/><g transform="translate(145.54413058178068 276.18032197886515) rotate(91.5293898842077 37.600006103515625 46.400001525878906)" stroke="none"><path fill="#1e1e1e" d="M 1.47,-0.24 Q 1.47,-0.24 2.13,1.06 2.78,2.37 2.94,3.99 3.11,5.61 3.40,6.76 3.68,7.92 3.87,9.80 4.06,11.68 4.15,13.61 4.23,15.55 4.28,17.75 4.33,19.95 4.36,22.26 4.38,24.58 4.40,26.25 4.42,27.92 4.65,29.61 4.89,31.29 5.01,33.34 5.13,35.38 5.18,37.63 5.23,39.88 5.25,42.21 5.28,44.54 5.50,46.03 5.73,47.51 6.05,49.06 6.38,50.60 6.75,52.17 7.12,53.75 7.51,55.34 7.91,56.92 8.33,58.51 8.75,60.10 9.35,61.80 9.95,63.50 10.48,65.26 11.00,67.02 11.67,68.80 12.33,70.58 13.07,72.49 13.80,74.40 14.51,75.77 15.23,77.13 16.22,78.86 17.21,80.59 18.27,82.18 19.34,83.77 20.48,85.36 21.62,86.96 22.59,88.36 23.56,89.77 24.43,91.05 25.30,92.34 26.37,93.32 27.45,94.31 28.70,95.12 29.95,95.94 32.16,96.55 34.37,97.17 35.97,97.31 37.58,97.44 39.80,97.76 42.03,98.08 43.98,98.20 45.92,98.32 47.23,98.15 48.53,97.98 50.26,97.68 52.00,97.39 53.34,97.05 54.69,96.71 56.22,96.34 57.74,95.97 59.75,94.62 61.75,93.28 62.48,92.25 63.21,91.23 64.07,90.03 64.94,88.83 65.70,87.50 66.46,86.18 66.98,85.02 67.49,83.85 68.18,82.19 68.87,80.53 69.33,78.64 69.79,76.75 69.98,75.12 70.17,73.49 70.25,71.90 70.33,70.31 70.63,68.70 70.93,67.09 71.02,65.32 71.11,63.54 71.16,61.60 71.20,59.66 71.48,57.91 71.75,56.16 71.83,54.74 71.92,53.32 71.74,51.76 71.55,50.20 71.25,48.37 70.96,46.53 70.81,44.42 70.66,42.31 70.61,40.98 70.55,39.65 70.52,38.13 70.50,36.62 70.49,34.83 70.48,33.04 70.25,31.57 70.03,30.10 69.92,28.35 69.81,26.60 69.77,25.41 69.73,24.21 69.71,22.76 69.70,21.31 69.93,19.55 70.17,17.79 70.25,16.56 70.33,15.34 70.65,14.03 70.96,12.73 71.03,11.63 71.10,10.54 71.15,9.34 71.19,8.14 71.47,6.48 71.74,4.82 71.87,3.01 72.00,1.20 72.03,-0.40 72.05,-2.01 72.05,-3.49 72.06,-4.96 72.97,-6.75 73.88,-8.54 73.92,-8.75 73.95,-8.96 74.05,-9.15 74.15,-9.34 74.30,-9.48 74.46,-9.63 74.65,-9.72 74.84,-9.81 75.06,-9.83 75.27,-9.85 75.47,-9.81 75.68,-9.76 75.86,-9.65 76.05,-9.54 76.18,-9.38 76.32,-9.22 76.40,-9.02 76.48,-8.83 76.49,-8.61 76.50,-8.40 76.44,-8.20 76.39,-7.99 76.27,-7.82 76.15,-7.64 75.98,-7.51 75.81,-7.38 75.61,-7.31 75.41,-7.25 75.19,-7.25 74.98,-7.25 74.78,-7.31 74.58,-7.38 74.41,-7.51 74.24,-7.64 74.12,-7.82 74.00,-7.99 73.95,-8.20 73.89,-8.40 73.90,-8.61 73.91,-8.83 73.99,-9.02 74.07,-9.22 74.21,-9.38 74.35,-9.54 74.53,-9.65 74.71,-9.76 74.92,-9.81 75.12,-9.85 75.34,-9.83 75.55,-9.81 75.74,-9.72 75.93,-9.63 76.09,-9.48 76.24,-9.34 76.34,-9.15 76.44,-8.96 76.47,-8.75 76.51,-8.54 76.51,-8.54 76.51,-8.54 77.42,-5.83 78.32,-3.12 78.31,-1.69 78.30,-0.27 78.23,1.61 78.16,3.50 78.03,4.69 77.91,5.88 77.68,7.14 77.45,8.39 77.40,9.73 77.35,11.06 76.96,13.43 76.58,15.80 76.47,17.25 76.36,18.69 76.15,19.97 75.95,21.25 75.97,22.62 75.99,23.99 76.03,25.10 76.08,26.22 76.16,27.73 76.25,29.24 76.50,31.12 76.74,33.00 76.75,34.76 76.76,36.52 76.78,37.95 76.81,39.38 76.86,40.64 76.91,41.89 77.03,43.72 77.15,45.54 77.47,47.55 77.78,49.57 77.97,51.65 78.15,53.72 78.03,55.45 77.90,57.17 77.67,58.49 77.44,59.82 77.39,61.86 77.34,63.90 77.20,66.08 77.06,68.26 76.82,69.47 76.57,70.68 76.46,72.47 76.35,74.26 76.09,76.26 75.83,78.27 75.22,80.59 74.62,82.91 73.89,84.66 73.16,86.40 72.49,87.85 71.83,89.30 70.90,90.89 69.97,92.47 69.02,93.78 68.07,95.08 66.69,96.71 65.31,98.33 63.79,99.38 62.26,100.42 60.77,101.19 59.29,101.95 57.73,102.35 56.17,102.74 54.60,103.12 53.02,103.50 51.12,103.81 49.22,104.13 47.39,104.31 45.55,104.49 43.36,104.35 41.17,104.21 39.08,103.92 36.99,103.63 34.92,103.42 32.85,103.21 31.06,102.75 29.27,102.29 27.89,101.72 26.50,101.14 24.82,99.99 23.14,98.83 21.63,97.35 20.13,95.87 19.27,94.60 18.40,93.33 17.46,91.96 16.52,90.60 15.32,88.92 14.13,87.25 12.95,85.47 11.77,83.69 10.72,81.83 9.67,79.98 8.83,78.31 7.98,76.64 7.23,74.66 6.48,72.68 5.80,70.71 5.12,68.75 4.65,67.11 4.18,65.48 3.53,63.51 2.88,61.55 2.51,59.93 2.14,58.32 1.75,56.69 1.37,55.07 1.00,53.42 0.63,51.77 0.30,50.05 -0.03,48.33 -0.28,46.46 -0.53,44.60 -0.54,42.29 -0.55,39.99 -0.59,37.83 -0.62,35.67 -0.70,33.84 -0.78,32.00 -1.00,29.97 -1.23,27.94 -1.22,26.27 -1.21,24.60 -1.20,22.30 -1.19,20.00 -1.18,17.84 -1.18,15.69 -1.19,13.86 -1.20,12.04 -1.24,10.49 -1.29,8.93 -1.54,7.43 -1.80,5.93 -1.83,4.54 -1.86,3.14 -1.67,1.69 -1.47,0.24 -1.48,0.06 -1.49,-0.11 -1.45,-0.29 -1.42,-0.46 -1.34,-0.63 -1.26,-0.79 -1.15,-0.93 -1.04,-1.07 -0.89,-1.18 -0.75,-1.29 -0.58,-1.36 -0.42,-1.43 -0.24,-1.46 -0.06,-1.49 0.11,-1.48 0.29,-1.46 0.46,-1.41 0.63,-1.35 0.78,-1.25 0.94,-1.16 1.06,-1.03 1.19,-0.90 1.28,-0.74 1.37,-0.59 1.42,-0.41 1.47,-0.24 1.47,-0.24 L 1.47,-0.24 Z"/></g><g transform="translate(64.06474585503247 273.51203812776544) rotate(91.5293898842077 4 58)" stroke="none"><path fill="#1e1e1e" d="M 1.36,-0.13 Q 1.36,-0.13 2.40,2.08 3.44,4.30 3.81,6.59 4.17,8.89 4.33,11.63 4.50,14.37 4.79,17.01 5.08,19.64 5.21,22.03 5.35,24.42 5.63,26.92 5.91,29.42 6.26,32.10 6.61,34.78 6.99,37.53 7.37,40.28 7.55,42.95 7.72,45.62 8.00,47.23 8.29,48.85 8.43,51.15 8.58,53.45 8.85,55.64 9.13,57.82 9.46,59.35 9.79,60.89 9.97,63.18 10.15,65.48 10.21,67.35 10.28,69.21 10.31,71.16 10.33,73.11 10.57,74.91 10.80,76.70 10.91,78.31 11.02,79.93 11.06,81.32 11.11,82.71 11.13,84.23 11.15,85.75 11.16,87.09 11.17,88.42 11.17,89.68 11.17,90.94 11.18,93.27 11.18,95.61 11.18,96.87 11.18,98.13 11.18,100.01 11.18,101.89 11.17,103.55 11.17,105.21 10.90,106.58 10.63,107.95 10.53,109.23 10.43,110.50 10.40,111.75 10.37,113.00 8.78,114.12 7.20,115.24 7.18,115.40 7.16,115.56 7.10,115.70 7.04,115.85 6.95,115.98 6.86,116.11 6.74,116.21 6.62,116.32 6.48,116.39 6.34,116.46 6.19,116.50 6.03,116.54 5.87,116.54 5.72,116.53 5.56,116.50 5.41,116.46 5.27,116.38 5.13,116.31 5.01,116.20 4.89,116.10 4.81,115.96 4.72,115.83 4.66,115.69 4.61,115.54 4.59,115.38 4.57,115.22 4.94,115.82 5.31,116.41 5.14,116.29 4.96,116.17 4.84,116.00 4.71,115.82 4.65,115.62 4.58,115.42 4.59,115.21 4.59,114.99 4.66,114.79 4.74,114.59 4.87,114.43 5.00,114.26 5.18,114.15 5.36,114.03 5.56,113.98 5.77,113.92 5.98,113.94 6.19,113.96 6.39,114.04 6.58,114.12 6.74,114.26 6.90,114.40 7.01,114.59 7.11,114.77 7.16,114.98 7.20,115.19 7.17,115.40 7.14,115.61 7.05,115.80 6.96,115.99 6.81,116.14 6.66,116.29 6.47,116.39 6.28,116.49 6.07,116.52 5.86,116.55 5.65,116.51 5.44,116.47 5.25,116.36 5.07,116.26 4.93,116.10 4.78,115.95 4.70,115.75 4.61,115.56 4.59,115.35 4.57,115.13 4.62,114.93 4.67,114.72 4.79,114.54 4.90,114.36 5.07,114.23 5.23,114.09 5.43,114.02 5.63,113.94 5.84,113.94 6.05,113.93 6.63,114.59 7.20,115.24 7.18,115.40 7.16,115.56 7.10,115.70 7.04,115.85 6.95,115.98 6.86,116.11 6.74,116.21 6.62,116.32 6.48,116.39 6.34,116.46 6.19,116.50 6.03,116.54 5.87,116.54 5.72,116.53 5.56,116.50 5.41,116.46 5.27,116.38 5.13,116.31 5.01,116.20 4.89,116.10 4.81,115.96 4.72,115.83 4.66,115.69 4.61,115.54 4.59,115.38 4.57,115.22 4.31,113.19 4.06,111.16 4.12,109.94 4.18,108.72 4.50,106.95 4.82,105.17 4.82,103.53 4.81,101.89 4.81,100.01 4.81,98.13 4.81,96.87 4.81,95.61 4.81,93.28 4.81,90.95 4.80,89.71 4.80,88.46 4.79,87.15 4.79,85.83 4.77,84.38 4.75,82.92 4.71,81.64 4.67,80.35 4.57,78.92 4.48,77.48 4.23,75.34 3.98,73.21 3.95,71.32 3.92,69.44 3.86,67.69 3.80,65.94 3.68,64.06 3.57,62.19 3.20,60.40 2.83,58.61 2.53,56.22 2.24,53.83 2.13,51.86 2.02,49.90 1.71,47.96 1.39,46.02 1.24,43.58 1.10,41.14 0.72,38.37 0.35,35.59 0.00,32.85 -0.34,30.11 -0.63,27.43 -0.92,24.75 -1.02,22.53 -1.13,20.30 -1.42,17.50 -1.71,14.70 -1.82,12.22 -1.94,9.73 -2.23,7.31 -2.52,4.89 -1.94,2.51 -1.36,0.13 -1.36,-0.02 -1.35,-0.19 -1.31,-0.35 -1.27,-0.51 -1.19,-0.65 -1.11,-0.80 -1.00,-0.92 -0.88,-1.04 -0.75,-1.13 -0.61,-1.22 -0.45,-1.28 -0.30,-1.33 -0.13,-1.35 0.02,-1.37 0.19,-1.34 0.35,-1.32 0.51,-1.26 0.66,-1.20 0.79,-1.10 0.93,-1.00 1.03,-0.88 1.14,-0.75 1.21,-0.60 1.29,-0.45 1.32,-0.29 1.36,-0.13 1.36,-0.13 L 1.36,-0.13 Z"/></g><g transform="translate(318.6649957305759 136.20682929434665) rotate(179.31794982743352 37.600006103515625 46.400001525878906)" stroke="none"><path fill="#1e1e1e" d="M 1.47,-0.24 Q 1.47,-0.24 2.13,1.06 2.78,2.37 2.94,3.99 3.11,5.61 3.40,6.76 3.68,7.92 3.87,9.80 4.06,11.68 4.15,13.61 4.23,15.55 4.28,17.75 4.33,19.95 4.36,22.26 4.38,24.58 4.40,26.25 4.42,27.92 4.65,29.61 4.89,31.29 5.01,33.34 5.13,35.38 5.18,37.63 5.23,39.88 5.25,42.21 5.28,44.54 5.50,46.03 5.73,47.51 6.05,49.06 6.38,50.60 6.75,52.17 7.12,53.75 7.51,55.34 7.91,56.92 8.33,58.51 8.75,60.10 9.35,61.80 9.95,63.50 10.48,65.26 11.00,67.02 11.67,68.80 12.33,70.58 13.07,72.49 13.80,74.40 14.51,75.77 15.23,77.13 16.22,78.86 17.21,80.59 18.27,82.18 19.34,83.77 20.48,85.36 21.62,86.96 22.59,88.36 23.56,89.77 24.43,91.05 25.30,92.34 26.37,93.32 27.45,94.31 28.70,95.12 29.95,95.94 32.16,96.55 34.37,97.17 35.97,97.31 37.58,97.44 39.80,97.76 42.03,98.08 43.98,98.20 45.92,98.32 47.23,98.15 48.53,97.98 50.26,97.68 52.00,97.39 53.34,97.05 54.69,96.71 56.22,96.34 57.74,95.97 59.75,94.62 61.75,93.28 62.48,92.25 63.21,91.23 64.07,90.03 64.94,88.83 65.70,87.50 66.46,86.18 66.98,85.02 67.49,83.85 68.18,82.19 68.87,80.53 69.33,78.64 69.79,76.75 69.98,75.12 70.17,73.49 70.25,71.90 70.33,70.31 70.63,68.70 70.93,67.09 71.02,65.32 71.11,63.54 71.16,61.60 71.20,59.66 71.48,57.91 71.75,56.16 71.83,54.74 71.92,53.32 71.74,51.76 71.55,50.20 71.25,48.37 70.96,46.53 70.81,44.42 70.66,42.31 70.61,40.98 70.55,39.65 70.52,38.13 70.50,36.62 70.49,34.83 70.48,33.04 70.25,31.57 70.03,30.10 69.92,28.35 69.81,26.60 69.77,25.41 69.73,24.21 69.71,22.76 69.70,21.31 69.93,19.55 70.17,17.79 70.25,16.56 70.33,15.34 70.65,14.03 70.96,12.73 71.03,11.63 71.10,10.54 71.15,9.34 71.19,8.14 71.47,6.48 71.74,4.82 71.87,3.01 72.00,1.20 72.03,-0.40 72.05,-2.01 72.05,-3.49 72.06,-4.96 72.97,-6.75 73.88,-8.54 73.92,-8.75 73.95,-8.96 74.05,-9.15 74.15,-9.34 74.30,-9.48 74.46,-9.63 74.65,-9.72 74.84,-9.81 75.06,-9.83 75.27,-9.85 75.47,-9.81 75.68,-9.76 75.86,-9.65 76.05,-9.54 76.18,-9.38 76.32,-9.22 76.40,-9.02 76.48,-8.83 76.49,-8.61 76.50,-8.40 76.44,-8.20 76.39,-7.99 76.27,-7.82 76.15,-7.64 75.98,-7.51 75.81,-7.38 75.61,-7.31 75.41,-7.25 75.19,-7.25 74.98,-7.25 74.78,-7.31 74.58,-7.38 74.41,-7.51 74.24,-7.64 74.12,-7.82 74.00,-7.99 73.95,-8.20 73.89,-8.40 73.90,-8.61 73.91,-8.83 73.99,-9.02 74.07,-9.22 74.21,-9.38 74.35,-9.54 74.53,-9.65 74.71,-9.76 74.92,-9.81 75.12,-9.85 75.34,-9.83 75.55,-9.81 75.74,-9.72 75.93,-9.63 76.09,-9.48 76.24,-9.34 76.34,-9.15 76.44,-8.96 76.47,-8.75 76.51,-8.54 76.51,-8.54 76.51,-8.54 77.42,-5.83 78.32,-3.12 78.31,-1.69 78.30,-0.27 78.23,1.61 78.16,3.50 78.03,4.69 77.91,5.88 77.68,7.14 77.45,8.39 77.40,9.73 77.35,11.06 76.96,13.43 76.58,15.80 76.47,17.25 76.36,18.69 76.15,19.97 75.95,21.25 75.97,22.62 75.99,23.99 76.03,25.10 76.08,26.22 76.16,27.73 76.25,29.24 76.50,31.12 76.74,33.00 76.75,34.76 76.76,36.52 76.78,37.95 76.81,39.38 76.86,40.64 76.91,41.89 77.03,43.72 77.15,45.54 77.47,47.55 77.78,49.57 77.97,51.65 78.15,53.72 78.03,55.45 77.90,57.17 77.67,58.49 77.44,59.82 77.39,61.86 77.34,63.90 77.20,66.08 77.06,68.26 76.82,69.47 76.57,70.68 76.46,72.47 76.35,74.26 76.09,76.26 75.83,78.27 75.22,80.59 74.62,82.91 73.89,84.66 73.16,86.40 72.49,87.85 71.83,89.30 70.90,90.89 69.97,92.47 69.02,93.78 68.07,95.08 66.69,96.71 65.31,98.33 63.79,99.38 62.26,100.42 60.77,101.19 59.29,101.95 57.73,102.35 56.17,102.74 54.60,103.12 53.02,103.50 51.12,103.81 49.22,104.13 47.39,104.31 45.55,104.49 43.36,104.35 41.17,104.21 39.08,103.92 36.99,103.63 34.92,103.42 32.85,103.21 31.06,102.75 29.27,102.29 27.89,101.72 26.50,101.14 24.82,99.99 23.14,98.83 21.63,97.35 20.13,95.87 19.27,94.60 18.40,93.33 17.46,91.96 16.52,90.60 15.32,88.92 14.13,87.25 12.95,85.47 11.77,83.69 10.72,81.83 9.67,79.98 8.83,78.31 7.98,76.64 7.23,74.66 6.48,72.68 5.80,70.71 5.12,68.75 4.65,67.11 4.18,65.48 3.53,63.51 2.88,61.55 2.51,59.93 2.14,58.32 1.75,56.69 1.37,55.07 1.00,53.42 0.63,51.77 0.30,50.05 -0.03,48.33 -0.28,46.46 -0.53,44.60 -0.54,42.29 -0.55,39.99 -0.59,37.83 -0.62,35.67 -0.70,33.84 -0.78,32.00 -1.00,29.97 -1.23,27.94 -1.22,26.27 -1.21,24.60 -1.20,22.30 -1.19,20.00 -1.18,17.84 -1.18,15.69 -1.19,13.86 -1.20,12.04 -1.24,10.49 -1.29,8.93 -1.54,7.43 -1.80,5.93 -1.83,4.54 -1.86,3.14 -1.67,1.69 -1.47,0.24 -1.48,0.06 -1.49,-0.11 -1.45,-0.29 -1.42,-0.46 -1.34,-0.63 -1.26,-0.79 -1.15,-0.93 -1.04,-1.07 -0.89,-1.18 -0.75,-1.29 -0.58,-1.36 -0.42,-1.43 -0.24,-1.46 -0.06,-1.49 0.11,-1.48 0.29,-1.46 0.46,-1.41 0.63,-1.35 0.78,-1.25 0.94,-1.16 1.06,-1.03 1.19,-0.90 1.28,-0.74 1.37,-0.59 1.42,-0.41 1.47,-0.24 1.47,-0.24 L 1.47,-0.24 Z"/></g><g transform="translate(338.89933309091793 9.957798469230625) rotate(179.31794982743352 4 58)" stroke="none"><path fill="#1e1e1e" d="M 1.36,-0.13 Q 1.36,-0.13 2.40,2.08 3.44,4.30 3.81,6.59 4.17,8.89 4.33,11.63 4.50,14.37 4.79,17.01 5.08,19.64 5.21,22.03 5.35,24.42 5.63,26.92 5.91,29.42 6.26,32.10 6.61,34.78 6.99,37.53 7.37,40.28 7.55,42.95 7.72,45.62 8.00,47.23 8.29,48.85 8.43,51.15 8.58,53.45 8.85,55.64 9.13,57.82 9.46,59.35 9.79,60.89 9.97,63.18 10.15,65.48 10.21,67.35 10.28,69.21 10.31,71.16 10.33,73.11 10.57,74.91 10.80,76.70 10.91,78.31 11.02,79.93 11.06,81.32 11.11,82.71 11.13,84.23 11.15,85.75 11.16,87.09 11.17,88.42 11.17,89.68 11.17,90.94 11.18,93.27 11.18,95.61 11.18,96.87 11.18,98.13 11.18,100.01 11.18,101.89 11.17,103.55 11.17,105.21 10.90,106.58 10.63,107.95 10.53,109.23 10.43,110.50 10.40,111.75 10.37,113.00 8.78,114.12 7.20,115.24 7.18,115.40 7.16,115.56 7.10,115.70 7.04,115.85 6.95,115.98 6.86,116.11 6.74,116.21 6.62,116.32 6.48,116.39 6.34,116.46 6.19,116.50 6.03,116.54 5.87,116.54 5.72,116.53 5.56,116.50 5.41,116.46 5.27,116.38 5.13,116.31 5.01,116.20 4.89,116.10 4.81,115.96 4.72,115.83 4.66,115.69 4.61,115.54 4.59,115.38 4.57,115.22 4.94,115.82 5.31,116.41 5.14,116.29 4.96,116.17 4.84,116.00 4.71,115.82 4.65,115.62 4.58,115.42 4.59,115.21 4.59,114.99 4.66,114.79 4.74,114.59 4.87,114.43 5.00,114.26 5.18,114.15 5.36,114.03 5.56,113.98 5.77,113.92 5.98,113.94 6.19,113.96 6.39,114.04 6.58,114.12 6.74,114.26 6.90,114.40 7.01,114.59 7.11,114.77 7.16,114.98 7.20,115.19 7.17,115.40 7.14,115.61 7.05,115.80 6.96,115.99 6.81,116.14 6.66,116.29 6.47,116.39 6.28,116.49 6.07,116.52 5.86,116.55 5.65,116.51 5.44,116.47 5.25,116.36 5.07,116.26 4.93,116.10 4.78,115.95 4.70,115.75 4.61,115.56 4.59,115.35 4.57,115.13 4.62,114.93 4.67,114.72 4.79,114.54 4.90,114.36 5.07,114.23 5.23,114.09 5.43,114.02 5.63,113.94 5.84,113.94 6.05,113.93 6.63,114.59 7.20,115.24 7.18,115.40 7.16,115.56 7.10,115.70 7.04,115.85 6.95,115.98 6.86,116.11 6.74,116.21 6.62,116.32 6.48,116.39 6.34,116.46 6.19,116.50 6.03,116.54 5.87,116.54 5.72,116.53 5.56,116.50 5.41,116.46 5.27,116.38 5.13,116.31 5.01,116.20 4.89,116.10 4.81,115.96 4.72,115.83 4.66,115.69 4.61,115.54 4.59,115.38 4.57,115.22 4.31,113.19 4.06,111.16 4.12,109.94 4.18,108.72 4.50,106.95 4.82,105.17 4.82,103.53 4.81,101.89 4.81,100.01 4.81,98.13 4.81,96.87 4.81,95.61 4.81,93.28 4.81,90.95 4.80,89.71 4.80,88.46 4.79,87.15 4.79,85.83 4.77,84.38 4.75,82.92 4.71,81.64 4.67,80.35 4.57,78.92 4.48,77.48 4.23,75.34 3.98,73.21 3.95,71.32 3.92,69.44 3.86,67.69 3.80,65.94 3.68,64.06 3.57,62.19 3.20,60.40 2.83,58.61 2.53,56.22 2.24,53.83 2.13,51.86 2.02,49.90 1.71,47.96 1.39,46.02 1.24,43.58 1.10,41.14 0.72,38.37 0.35,35.59 0.00,32.85 -0.34,30.11 -0.63,27.43 -0.92,24.75 -1.02,22.53 -1.13,20.30 -1.42,17.50 -1.71,14.70 -1.82,12.22 -1.94,9.73 -2.23,7.31 -2.52,4.89 -1.94,2.51 -1.36,0.13 -1.36,-0.02 -1.35,-0.19 -1.31,-0.35 -1.27,-0.51 -1.19,-0.65 -1.11,-0.80 -1.00,-0.92 -0.88,-1.04 -0.75,-1.13 -0.61,-1.22 -0.45,-1.28 -0.30,-1.33 -0.13,-1.35 0.02,-1.37 0.19,-1.34 0.35,-1.32 0.51,-1.26 0.66,-1.20 0.79,-1.10 0.93,-1.00 1.03,-0.88 1.14,-0.75 1.21,-0.60 1.29,-0.45 1.32,-0.29 1.36,-0.13 1.36,-0.13 L 1.36,-0.13 Z"/></g><g transform="translate(218.76501305573157 272.6110121782058) rotate(0 13.600006103515625 13.199996948242188)" stroke="none"><path fill="#f08c00" d="M 0.74,-1.24 Q 0.74,-1.24 2.27,-1.18 3.80,-1.13 5.26,-0.02 6.71,1.07 7.65,1.93 8.58,2.80 9.45,3.62 10.33,4.45 11.34,5.15 12.35,5.86 13.32,6.71 14.29,7.57 15.10,8.41 15.91,9.25 17.19,10.51 18.47,11.76 19.49,12.79 20.51,13.81 21.51,14.79 22.51,15.77 23.20,16.85 23.89,17.93 24.85,18.95 25.81,19.96 27.07,22.83 28.33,25.70 28.38,25.91 28.43,26.12 28.41,26.33 28.39,26.54 28.31,26.73 28.22,26.93 28.08,27.09 27.94,27.24 27.75,27.35 27.57,27.45 27.36,27.49 27.15,27.53 26.94,27.50 26.73,27.47 26.54,27.38 26.35,27.28 26.20,27.13 26.05,26.98 25.96,26.79 25.86,26.60 25.83,26.39 25.81,26.18 25.85,25.97 25.89,25.76 25.99,25.57 26.10,25.39 26.26,25.25 26.42,25.11 26.61,25.02 26.81,24.94 27.02,24.92 27.23,24.91 27.44,24.96 27.64,25.01 27.82,25.13 28.00,25.24 28.13,25.41 28.27,25.58 28.34,25.78 28.41,25.98 28.42,26.19 28.42,26.40 28.36,26.60 28.29,26.81 28.17,26.98 28.04,27.15 27.87,27.27 27.70,27.40 27.49,27.46 27.29,27.52 27.08,27.51 26.87,27.51 26.67,27.43 26.47,27.36 26.30,27.22 26.14,27.09 26.02,26.91 25.91,26.73 25.91,26.73 25.91,26.73 24.38,26.16 22.85,25.60 22.07,24.80 21.28,24.01 20.73,23.05 20.18,22.09 19.11,21.00 18.04,19.90 17.17,18.67 16.31,17.45 15.14,16.58 13.97,15.71 12.86,14.64 11.74,13.58 10.85,12.34 9.96,11.11 8.92,10.53 7.88,9.95 6.22,8.56 4.56,7.18 3.73,6.38 2.89,5.59 1.84,4.74 0.79,3.89 0.02,2.56 -0.74,1.24 -0.88,1.13 -1.02,1.02 -1.13,0.89 -1.23,0.75 -1.31,0.59 -1.38,0.43 -1.41,0.26 -1.44,0.09 -1.43,-0.08 -1.42,-0.25 -1.37,-0.42 -1.32,-0.59 -1.23,-0.74 -1.14,-0.89 -1.02,-1.01 -0.89,-1.13 -0.74,-1.22 -0.59,-1.32 -0.43,-1.37 -0.26,-1.42 -0.09,-1.43 0.08,-1.44 0.25,-1.41 0.42,-1.38 0.58,-1.31 0.74,-1.24 0.74,-1.24 L 0.74,-1.24 Z"/></g><g transform="translate(305.1649764346378 227.01100607469016) rotate(0 13.20001220703125 11.599990844726562)" stroke="none"><path fill="#f08c00" d="M 1.07,-0.86 Q 1.07,-0.86 2.56,-0.16 4.04,0.53 5.14,1.51 6.24,2.48 7.67,3.44 9.09,4.39 10.03,5.06 10.97,5.73 12.14,6.50 13.31,7.26 14.51,8.05 15.71,8.83 16.91,9.80 18.12,10.77 19.03,11.65 19.94,12.53 20.71,13.35 21.49,14.17 22.72,15.36 23.95,16.55 24.56,17.46 25.16,18.38 25.20,20.07 25.23,21.77 25.38,21.62 25.52,21.46 25.71,21.36 25.90,21.26 26.11,21.23 26.32,21.19 26.53,21.23 26.74,21.26 26.92,21.36 27.11,21.46 27.26,21.61 27.41,21.77 27.49,21.96 27.58,22.15 27.61,22.37 27.63,22.58 27.59,22.78 27.54,22.99 27.43,23.17 27.32,23.36 27.16,23.49 27.00,23.63 26.80,23.71 26.60,23.79 26.39,23.80 26.18,23.81 25.97,23.76 25.77,23.70 25.59,23.58 25.42,23.46 25.29,23.29 25.16,23.12 25.09,22.92 25.02,22.72 25.02,22.51 25.02,22.30 25.09,22.10 25.16,21.89 25.29,21.72 25.41,21.55 25.59,21.44 25.77,21.32 25.97,21.26 26.18,21.20 26.39,21.21 26.60,21.22 26.80,21.30 26.99,21.38 27.16,21.52 27.32,21.66 27.43,21.84 27.54,22.02 27.58,22.23 27.63,22.43 27.61,22.65 27.59,22.86 27.50,23.05 27.41,23.24 27.41,23.24 27.41,23.24 25.05,23.54 22.70,23.84 21.52,22.95 20.34,22.06 19.65,21.05 18.96,20.04 18.12,19.20 17.27,18.36 16.09,17.17 14.91,15.98 13.79,14.98 12.67,13.98 11.48,13.16 10.29,12.35 9.12,11.54 7.94,10.72 6.66,9.75 5.37,8.77 4.09,7.95 2.81,7.12 1.22,5.59 -0.36,4.06 -0.72,2.46 -1.07,0.86 -1.16,0.72 -1.25,0.57 -1.30,0.42 -1.35,0.26 -1.36,0.09 -1.37,-0.06 -1.35,-0.23 -1.32,-0.39 -1.25,-0.54 -1.18,-0.70 -1.08,-0.83 -0.98,-0.96 -0.85,-1.06 -0.72,-1.17 -0.57,-1.24 -0.42,-1.31 -0.26,-1.34 -0.09,-1.37 0.06,-1.36 0.23,-1.35 0.39,-1.31 0.55,-1.26 0.69,-1.17 0.84,-1.09 0.95,-0.97 1.07,-0.86 1.07,-0.86 L 1.07,-0.86 Z"/></g><g transform="translate(273.9650252627628 403.01100607469016) rotate(0 79.5999755859375 -1.20001220703125)" stroke="none"><path fill="#1971c2" d="M 0,-1.32 Q 0,-1.32 1.83,-1.95 3.67,-2.58 6.07,-2.60 8.46,-2.63 10.86,-2.65 13.25,-2.67 16.00,-2.46 18.75,-2.24 21.86,-2.17 24.97,-2.09 27.68,-2.06 30.39,-2.02 33.61,-2.01 36.83,-2.00 39.81,-2.00 42.79,-1.99 45.34,-1.75 47.89,-1.51 50.22,-1.42 52.55,-1.34 54.92,-1.30 57.29,-1.26 59.68,-1.24 62.07,-1.22 64.69,-1.21 67.31,-1.21 69.81,-1.20 72.31,-1.19 74.06,-1.19 75.81,-1.20 77.78,-1.42 79.75,-1.64 82.13,-1.74 84.50,-1.85 86.99,-2.11 89.49,-2.38 91.81,-2.50 94.13,-2.62 95.81,-2.67 97.48,-2.72 99.12,-2.74 100.77,-2.77 102.61,-2.78 104.46,-2.78 106.23,-3.01 108.00,-3.24 109.59,-3.35 111.18,-3.45 112.56,-3.50 113.93,-3.54 115.23,-3.77 116.54,-4.01 118.46,-4.13 120.39,-4.26 122.76,-4.65 125.14,-5.04 127.09,-5.11 129.04,-5.19 130.12,-5.21 131.20,-5.22 132.97,-5.24 134.74,-5.26 136.69,-5.27 138.64,-5.27 140.49,-5.61 142.33,-5.94 143.51,-5.99 144.69,-6.04 146.25,-6.07 147.80,-6.10 149.14,-6.43 150.48,-6.77 151.89,-6.85 153.29,-6.93 154.53,-6.95 155.77,-6.97 156.75,-6.14 157.73,-5.31 157.89,-5.29 158.05,-5.27 158.19,-5.22 158.34,-5.16 158.47,-5.07 158.60,-4.98 158.71,-4.86 158.81,-4.75 158.89,-4.61 158.96,-4.47 159.00,-4.31 159.04,-4.16 159.04,-4.00 159.04,-3.84 159.00,-3.69 158.97,-3.53 158.89,-3.39 158.82,-3.25 158.72,-3.13 158.61,-3.02 158.48,-2.93 158.35,-2.83 158.21,-2.78 158.06,-2.72 157.90,-2.70 157.74,-2.68 157.53,-2.72 157.32,-2.75 157.13,-2.85 156.94,-2.95 156.80,-3.10 156.65,-3.26 156.56,-3.45 156.47,-3.64 156.45,-3.86 156.43,-4.07 156.47,-4.27 156.52,-4.48 156.63,-4.66 156.74,-4.85 156.90,-4.98 157.06,-5.12 157.26,-5.20 157.46,-5.28 157.67,-5.29 157.88,-5.30 158.09,-5.24 158.29,-5.19 158.47,-5.07 158.64,-4.95 158.77,-4.78 158.90,-4.61 158.97,-4.41 159.03,-4.21 159.03,-3.99 159.03,-3.78 158.97,-3.58 158.90,-3.38 158.77,-3.21 158.64,-3.04 158.46,-2.92 158.29,-2.80 158.08,-2.75 157.88,-2.69 157.67,-2.70 157.45,-2.71 157.26,-2.79 157.06,-2.87 156.90,-3.01 156.74,-3.15 156.63,-3.33 156.52,-3.51 156.47,-3.72 156.43,-3.93 156.45,-4.14 156.47,-4.35 156.56,-4.54 156.65,-4.73 156.80,-4.89 156.94,-5.04 157.13,-5.14 157.32,-5.24 157.53,-5.27 157.74,-5.31 157.74,-5.31 157.73,-5.31 157.89,-5.29 158.05,-5.27 158.19,-5.22 158.34,-5.16 158.47,-5.07 158.60,-4.98 158.71,-4.86 158.81,-4.75 158.89,-4.61 158.96,-4.47 159.00,-4.31 159.04,-4.16 159.04,-4.00 159.04,-3.84 159.00,-3.69 158.97,-3.53 158.89,-3.39 158.82,-3.25 158.72,-3.13 158.61,-3.02 158.48,-2.93 158.35,-2.83 158.21,-2.78 158.06,-2.72 157.90,-2.70 157.74,-2.68 156.77,-1.84 155.80,-1.01 154.62,-1.01 153.44,-1.01 151.83,-0.93 150.21,-0.86 149.08,-0.56 147.95,-0.27 146.43,-0.25 144.91,-0.23 143.16,-0.12 141.41,-0.02 140.04,0.22 138.67,0.48 136.71,0.47 134.75,0.46 133.00,0.45 131.25,0.45 129.38,0.47 127.50,0.49 125.56,0.63 123.62,0.76 122.17,1.06 120.73,1.37 119.10,1.45 117.46,1.54 115.79,1.80 114.12,2.07 112.83,2.11 111.55,2.15 110.11,2.24 108.68,2.33 106.59,2.57 104.49,2.81 102.67,2.82 100.84,2.83 99.24,2.85 97.65,2.87 96.03,2.91 94.42,2.96 92.25,3.07 90.07,3.18 87.41,3.46 84.74,3.74 82.55,3.83 80.35,3.92 78.08,4.16 75.81,4.39 74.05,4.39 72.30,4.38 69.80,4.38 67.30,4.38 64.66,4.37 62.02,4.37 59.61,4.35 57.19,4.33 54.76,4.29 52.32,4.24 49.84,4.13 47.35,4.02 45.06,3.80 42.78,3.57 39.79,3.56 36.80,3.55 33.56,3.52 30.31,3.50 27.55,3.45 24.80,3.40 21.54,3.28 18.27,3.16 15.76,2.92 13.25,2.67 10.86,2.65 8.46,2.63 6.07,2.60 3.67,2.58 1.83,1.95 0,1.32 -0.15,1.30 -0.31,1.28 -0.46,1.22 -0.61,1.16 -0.74,1.07 -0.87,0.98 -0.98,0.86 -1.08,0.75 -1.16,0.60 -1.23,0.46 -1.27,0.31 -1.31,0.15 -1.31,-0.00 -1.31,-0.15 -1.27,-0.31 -1.23,-0.46 -1.16,-0.60 -1.08,-0.75 -0.98,-0.86 -0.87,-0.98 -0.74,-1.07 -0.61,-1.16 -0.46,-1.22 -0.31,-1.28 -0.15,-1.30 0.00,-1.32 0.00,-1.32 L 0,-1.32 Z"/></g><g stroke-linecap="round"><g transform="translate(318.1486087305253 237.757423414586) rotate(0 -39.20001220703125 24)"><path d="M0.9 0.32 C-12.16 8.31, -64.99 38.85, -78.11 46.9 M-0.08 -0.56 C-13.3 7.63, -65.87 40, -78.91 47.86" stroke="#e03131" stroke-width="1" fill="none"/></g></g><mask/><g stroke-linecap="round"><g transform="translate(311.36930013954645 249.7609227669266) rotate(0 -39.20001220703125 24)"><path d="M-0.1 -0.38 C-13.13 7.63, -65.77 39.07, -78.66 47.28 M-1.62 -1.63 C-14.78 6.6, -67.07 40.33, -79.75 48.44" stroke="#e03131" stroke-width="1" fill="none"/></g></g><mask/></svg>