<?xml version="1.0" encoding="utf-8" ?>
<svg xmlns="http://www.w3.org/2000/svg" xmlns:xlink="http://www.w3.org/1999/xlink" width="512" height="256">
	<path fill="#231F20" transform="scale(0.25 0.25)" d="M1079.8 407.098C1078.13 406.396 1077.27 405.618 1076.05 404.297L1076.26 402.204L1078.84 400.807C1081.16 400.872 1082.63 400.854 1084.58 402.198L1085.35 405.396L1084.54 406.539L1079.8 407.098Z"/>
	<path fill="#231F20" fill-opacity="0.98431373" transform="scale(0.25 0.25)" d="M1084.58 402.198C1088.36 402.89 1096.6 403.765 1098.92 406.986C1099.11 407.25 1099.26 407.539 1099.43 407.815C1098.12 409.728 1097.19 409.8 1095 410.207C1090.19 411.102 1084.36 408.535 1079.8 407.098L1084.54 406.539L1085.35 405.396L1084.58 402.198Z"/>
	<path fill="#231F20" transform="scale(0.25 0.25)" d="M247.136 455.399C250.85 454.786 255.414 454.583 259.125 455.225C263.743 456.022 266.185 457.76 268.816 461.57C264.234 462.203 258.5 462.442 254.05 461.101C250.552 460.047 248.83 458.618 247.136 455.399Z"/>
	<path fill="#231F20" transform="scale(0.25 0.25)" d="M1079.98 291.485C1082.5 290.981 1084.21 291.076 1086.71 291.683L1087.43 293.332C1087.21 293.764 1087.15 293.908 1086.86 294.355C1083.34 299.779 1074.24 303.6 1068.2 305.081C1068.14 305.113 1068.09 305.159 1068.03 305.178C1065.88 305.848 1065.51 305.781 1063.65 304.73C1063.56 299.078 1076.34 295.99 1079.98 291.485Z"/>
	<path fill="#231F20" transform="scale(0.25 0.25)" d="M767.958 441.08C773.625 440.879 786.259 441.498 790.498 445.234C792.354 446.87 792.352 447.705 792.553 449.999C785.538 449.905 775.012 451.031 769.033 446.786C767.615 444.242 767.613 443.982 767.958 441.08Z"/>
	<path fill="#231F20" transform="scale(0.25 0.25)" d="M752.034 344.066C758.273 343.474 766.738 345.352 772.41 347.888C776.832 349.866 779.029 351.774 780.755 356.228C773.225 355.722 761.262 353.973 754.994 349.678C752.586 348.028 752.517 346.752 752.034 344.066Z"/>
	<path fill="#231F20" transform="scale(0.25 0.25)" d="M810.994 257.436C812.75 257.712 814.59 258.019 816.229 258.732C824.068 262.144 833.473 273.524 836.659 281.285C834.594 281.182 832.744 280.785 830.827 280.033C820.467 275.968 815.195 267.115 810.994 257.436Z"/>
	<path fill="#231F20" transform="scale(0.25 0.25)" d="M680.685 442.681C680.852 442.677 681.02 442.662 681.188 442.67C687.222 442.968 695.997 455.255 700.186 459.945C696.877 462.143 693.293 463.979 689.816 465.902C690.44 471.533 691.222 476.374 688.488 481.534L685.11 480.543C681.857 477.394 680.495 472.565 678.867 468.427C676.19 467.813 672.918 467.43 670.928 465.4C667.404 461.806 677.752 453.516 679.428 450.331C680.559 448.183 680.554 445.079 680.685 442.681Z"/>
	<path fill="#231F20" transform="scale(0.25 0.25)" d="M400.665 315.28L403.985 316.193C406.929 319.93 406.791 324.664 407.355 329.324Q413.139 330.682 418.95 331.921C414.921 337.106 408.056 342.557 405.759 348.739C404.825 351.253 404.632 354.262 403.761 356.925L400.542 356.378C397.275 353.075 396.838 348.295 395.692 343.84C391.4 342.051 387.211 339.964 383.002 337.988C386.905 335.653 390.74 333.743 394.959 332.047C396.636 326.382 398.147 320.642 400.665 315.28Z"/>
	<path fill="#231F20" fill-opacity="0.98431373" transform="scale(0.25 0.25)" d="M597.793 263.417C602.002 265.608 602.627 269.056 604.103 273.242C607.984 275.199 611.656 277.53 615.359 279.799C609.346 286.028 607.122 291.666 602.592 298.772C600.958 301.334 599.09 301.248 596.376 301.758C596.187 300.013 596.017 298.252 595.732 296.52C594.106 286.603 587.275 291.612 580.958 287.057L580.757 285.127C583.371 280.647 588.416 279.046 591.376 275.047C594.233 271.187 593.879 266.896 597.793 263.417ZM596.1 274.382C594.022 277.344 591.462 279.957 591.049 283.582C592.838 286.058 595.888 286.641 598.663 287.504C600.699 285.543 602.001 284.266 602.671 281.39C602.185 278.929 601.993 277.705 599.866 276.068C598.878 275.309 597.265 274.823 596.1 274.382Z"/>
	<path fill="#231F20" transform="scale(0.25 0.25)" d="M911.068 289.131C913.944 288.756 917.454 288.517 920.294 289.154C922.004 289.538 922.776 289.561 923.716 291.081C920.901 295.768 907.135 296.271 901.661 298.589C890.457 303.335 880.401 309.644 871.691 318.174C854.934 334.583 845.962 355.548 845.779 379.022C845.525 411.528 864.942 432.718 886.357 454.404C886.234 455.761 885.615 456.51 884.914 457.642C883.07 458.113 882.907 458.111 881.228 457.196C867.635 449.782 847.257 418.893 842.541 403.553C835.933 382.056 839.008 357.729 849.491 337.961C862.389 313.638 885.135 297.134 911.068 289.131Z"/>
	<path fill="#231F20" transform="scale(0.25 0.25)" d="M943.975 464.017C969.758 455.15 989.047 440.962 1001.21 415.996C1012.28 393.262 1014.23 369.046 1005.85 345.04C999.88 327.942 986.674 311.023 970.22 303.144C964.751 300.525 956.424 297.858 952.387 293.406L952.266 291.713C955.381 290.228 957.731 290.544 961.002 291.667C982.042 298.892 1000.33 316.995 1009.77 336.954C1020.06 358.696 1020.61 382.745 1012.44 405.278C1003.48 430.026 985.079 452.652 960.931 463.863Q955.339 466.468 949.55 468.598L948.656 486.135C955.168 486.209 961.679 485.976 966.632 490.993C968.568 492.953 969.47 495.528 969.349 498.259C969.107 503.742 965.919 507.898 962.58 511.973L943.197 512.104C940.177 519.433 937.396 525.636 929.536 528.859C924.199 531.048 918.246 530.228 913.101 527.881C909.995 526.465 907.429 524.141 904.771 522.045C903.212 517.661 901.389 515.16 903.362 510.64C893.664 504.461 878.514 515.78 874.804 498.015C874.289 495.55 874.746 493.236 876.2 491.168C878.168 488.371 882.567 485.884 885.93 485.45C888.59 485.106 891.333 485.087 894.013 484.96C893.874 477.804 892.278 467.016 897.717 461.36C898.008 461.058 898.317 460.774 898.625 460.489C904.094 460.659 909.454 460.799 914.917 460.322C915.78 457.649 915.29 456.846 914.471 454.255C909.255 448.272 899.252 443.989 892.539 439.536C875.119 427.979 864.33 401.747 861.698 381.76C893.964 363.355 935.026 364.171 969.956 373.796C980.562 376.718 991.546 380.348 1001.19 385.725C996.789 407.11 982.453 430.231 964.025 442.316C953.796 449.025 943.243 451.856 931.37 454.183C931.169 465.228 931.364 476.453 930.057 487.431C934.047 487.181 936.888 487.509 940.315 485.24C943.643 479.195 942.412 470.837 943.975 464.017ZM882.175 491.012C881.888 494.573 881.237 498.094 882.987 501.369C885.172 503.908 889.026 503.934 892.133 504.157C905.366 505.109 949.96 507.173 960.586 504.627C961.371 501.762 962.464 498.985 961.269 496.089C958.652 492.831 955.15 492.515 951.229 492.087C928.844 489.645 904.783 491.317 882.175 491.012ZM919.344 455.297C922.068 457.305 923.132 456.931 926.444 456.957C928.889 441.27 928.071 424.747 928.076 408.915C930.198 407.96 934.224 406.604 935.631 404.768C938.13 401.508 939.844 393.018 938.816 389.036C938.179 386.57 936.861 384.64 934.637 383.342C931.094 381.273 926.391 381.119 922.484 382.06C917.912 383.162 913.563 386.043 911.204 390.181C909.804 392.636 909.464 395.135 910.328 397.834C911.81 402.466 916.062 405.24 920.102 407.428C921.84 410.183 919.542 449.061 919.344 455.297ZM910.657 510.126C909.304 512.835 908.071 514.281 909.382 517.408C910.655 520.448 913.771 522.317 916.775 523.259C921.621 524.78 925.511 524.683 930.22 522.873C932.473 520.676 934.336 519.143 934.741 515.867C933.755 513.378 933.31 512.55 930.67 511.471C925.355 509.298 916.402 509.839 910.657 510.126Z"/>
	<path fill="#FEFEFE" transform="scale(0.25 0.25)" d="M919.344 455.297C922.068 457.305 923.132 456.931 926.444 456.957C926.274 465.302 926.505 479.126 921.97 486.271L920.746 485.729C920.188 484.527 919.686 483.311 919.319 482.035C917.689 476.373 916.379 460.623 919.344 455.297Z"/>
	<path fill="#FEFEFE" transform="scale(0.25 0.25)" d="M914.917 460.322C912.813 467.546 913.472 477.641 913.443 485.235C909.463 485.539 905.449 485.964 901.456 485.84C901.66 479.538 904.012 467.014 900.742 461.914L898.625 460.489C904.094 460.659 909.454 460.799 914.917 460.322Z"/>
	<path fill="#231F20" transform="scale(0.25 0.25)" d="M924.187 387.904C925.283 387.929 926.385 387.965 927.472 388.127C930.338 388.554 932.001 390.033 933.653 392.287C934.169 394.033 934.449 395.503 933.959 397.303C932.814 401.5 929.781 403.472 926.29 405.624C922.175 405.02 919.271 403.348 916.765 400.072C916.217 397.812 915.854 396.83 916.597 394.543C917.747 391 921.121 389.498 924.187 387.904Z"/>
	<path fill="#231F20" transform="scale(0.25 0.25)" d="M1351.95 244.5C1354.89 244.454 1358.09 244.717 1360.97 245.365C1368.72 247.109 1369.35 254.819 1373.23 260.391C1379.81 269.847 1387.56 264.929 1396.57 266.65C1400.55 267.409 1403.94 270.082 1406.04 273.48C1414.53 287.225 1411.11 309.441 1407.7 324.294C1402.92 345.169 1390.92 371.488 1371.97 383.116C1365.33 387.191 1358.09 388.834 1350.45 386.936C1345.74 385.766 1341.87 383.136 1337.39 381.453C1318.7 374.422 1317.85 371.008 1314.48 351.618C1313.86 348.064 1313.45 344.672 1311.48 341.576C1311.36 341.394 1311.23 341.219 1311.11 341.04C1296.03 341.742 1280.89 341.777 1265.79 342.001C1266.63 343.225 1267.36 344.531 1267.75 345.979C1270.11 354.826 1269.66 464.513 1266.61 470.102Q1327.12 468.972 1387.59 471.631C1404.3 472.208 1419.68 469.37 1435.9 475.375C1447.14 479.535 1455.77 487.449 1460.76 498.362C1464 505.443 1465.43 513.069 1465.88 520.798C1466.78 536.304 1461.67 616.758 1456.62 629.972C1464.81 631.596 1477.99 637.641 1483.8 643.755C1488.92 634.23 1490.17 621.032 1492.37 610.466C1499.42 576.641 1507.77 545.736 1527.39 516.692C1535.31 504.974 1560.97 470.319 1574.61 467.669C1575.5 467.919 1576.73 468.05 1577.37 468.708C1590.09 481.716 1583.18 551.435 1580.5 569.777C1579.36 577.649 1575.7 585.869 1575.71 593.565C1579.38 594.233 1592 585.938 1596.3 584.106C1609.02 578.689 1621.91 575.68 1635.43 573.114C1641.28 561.243 1631.23 511.548 1643.95 499.106C1652.33 490.909 1693.92 494.566 1706.97 494.91C1715.94 487.533 1719.4 467.046 1723.29 456.26C1725.25 450.835 1727.81 445.583 1730.26 440.364C1732.6 435.359 1740.51 423.327 1740.96 418.902C1741.37 414.828 1733.45 409.52 1731.06 406.374C1729.1 403.793 1728.66 400.845 1729.21 397.709C1730.43 390.84 1764.57 333.356 1769.44 329.905C1771.68 329.234 1773.54 329.301 1775.76 329.949C1783.17 332.112 1800.45 341.184 1804.22 347.89C1804.49 350.515 1803.89 352.828 1803.14 355.323C1800.13 365.22 1770.63 420.024 1763.38 422.94C1758.84 424.767 1749.63 419.641 1745.48 417.795C1745.5 418.001 1745.55 418.206 1745.55 418.413C1745.65 427.96 1733.12 450.483 1729.35 460.238C1725.64 469.875 1722.89 479.829 1718.54 489.221C1717.35 491.793 1716.14 493.965 1714.08 495.955C1735.41 495.396 1799.38 490.151 1815.5 498.28L1815.29 499.682C1815.77 500.188 1816.08 500.49 1816.33 501.156C1819.52 509.932 1818.34 639.522 1814.69 645.735Q1821.68 646.487 1828.51 648.136C1854.2 654.457 1874.95 667.256 1894.55 684.652C1898.7 688.336 1903.45 692.096 1907.04 696.322C1911.41 701.456 1915.28 708.207 1918.75 713.989C1923.27 721.511 1934.84 741.768 1932.18 750.651C1931.42 753.167 1928.49 752.865 1926.33 752.952C1915.06 753.402 1903.45 752.19 1892.18 751.586Q1866.35 750.182 1840.49 749.511C1833.38 749.334 1820.19 747.652 1813.91 751.017C1813.85 755.174 1822.16 761.271 1823.38 767.114C1823.85 769.398 1823.87 772.689 1822.44 774.613C1821.74 775.553 1822.06 775.361 1821.09 775.523C1806.45 777.98 1776.3 776.436 1760.21 776.581C1725.39 776.896 1690.22 778.616 1655.44 777.512C1650.18 777.345 1631.56 777.106 1627.87 774.445C1627.75 768.076 1633.08 761.383 1632.05 755.431C1632.02 755.277 1631.98 755.126 1631.95 754.973C1612.6 758.759 1590.92 758.556 1571.16 759.616Q1507.6 763.64 1443.91 763.95C1443.41 769.939 1441.66 776.034 1437.16 780.292C1434.51 782.804 1431.63 784.016 1428.05 784.52C1417.99 785.932 1406.48 784.524 1396.28 784.341C1363.63 783.758 1331.06 781.671 1298.39 781.142C1253.09 780.408 1207.76 781.075 1162.45 780.602Q1022.33 779.078 882.311 773.359C823.569 770.836 764.82 766.336 706.119 762.869C658.638 760.064 611.232 758.785 563.729 756.879C524.239 755.294 484.917 753.195 445.36 752.716Q384.811 751.019 324.239 750.871C293.429 750.842 262.681 750.634 231.902 752.23Q196.534 754 161.288 757.42C149.574 758.651 131.048 763.067 120.087 762.044C117.094 761.765 115.702 760.991 113.846 758.694C113.352 755.771 113.928 753.912 115.475 751.439C130.705 727.088 165.21 717.771 191.276 711.716Q180.222 681.83 168.778 652.092C164.352 640.611 160.385 627.982 154.264 617.344C157.456 612.064 161.19 606.222 162.714 600.227C187.842 591.351 214.953 585.208 241.047 579.774C241.633 583.393 241.954 587.261 243.966 590.405C246.701 593.018 251.108 593.126 254.71 593.643C260.141 607.267 266.554 620.504 271.987 634.151C278.856 651.401 284.486 668.602 292.589 685.4C313.93 653.759 335.559 619.529 364.217 593.856C372.536 586.403 391.501 578.987 396.757 572.371C402.923 564.61 394.897 540.15 398.795 529.531C402.131 520.441 432.978 490.264 441.353 479.933C453.253 480.348 465.43 481.698 477.157 483.708C470.333 467.754 462.045 442.805 466.035 425.445C468.498 414.726 476.723 405.009 486.009 399.437C492.782 395.373 500.813 393.382 508.576 395.521C518.517 398.261 523.636 405.984 528.562 414.371C530.358 411.679 532.224 408.378 534.568 406.165C537.992 402.934 544.843 401.786 549.377 401.987C552.936 402.145 557.329 402.829 559.774 405.681C560.948 407.05 561.454 409.278 561.126 411.047C559.541 419.608 547.142 425.369 540.427 429.364C549.581 432.839 556.406 434.857 563.295 442.282C563.875 444.797 564.483 447.417 564.432 450.011C564.137 464.923 550.313 482.523 539.985 492.428C568.713 495.605 597.675 499.268 626.301 503.247C626.156 513.744 624.932 524.224 624.408 534.708C622.913 564.664 621.258 594.83 621.81 624.821C650.963 630.125 672.969 655.582 693.348 675.239C728.111 650.089 763.551 612.672 805.144 600.642C835.999 591.719 868.04 594.557 896.233 610.201C925.496 626.439 951.846 659.309 961.033 691.538C984.303 693.746 1008.23 701.032 1030.9 706.662C1049.22 711.21 1068.16 715.103 1086.15 720.774C1087.03 719.435 1087.47 718.182 1087.69 716.605C1089.01 707.057 1089.02 685.814 1083.02 677.927C1076.64 675.47 1070.05 672.971 1064.17 669.452C1053.56 663.102 1049 653.69 1046.16 642.108C1043.34 630.595 1044.41 618.92 1050.7 608.712C1057.65 597.44 1069.8 589.631 1082.58 586.6Q1083.78 586.312 1085 586.085Q1086.22 585.857 1087.45 585.69Q1088.68 585.522 1089.91 585.416Q1091.14 585.309 1092.38 585.263Q1093.62 585.218 1094.86 585.233Q1096.1 585.248 1097.33 585.325Q1098.57 585.401 1099.8 585.539Q1101.03 585.676 1102.26 585.874Q1103.48 586.072 1104.69 586.33Q1105.9 586.588 1107.1 586.905Q1108.3 587.223 1109.48 587.599Q1110.66 587.975 1111.82 588.409Q1112.98 588.843 1114.12 589.333Q1115.26 589.824 1116.37 590.37Q1117.48 590.916 1118.56 591.516Q1119.65 592.116 1120.7 592.769Q1121.61 593.332 1122.49 593.939Q1123.37 594.547 1124.22 595.198Q1125.07 595.849 1125.89 596.542Q1126.71 597.235 1127.49 597.968Q1128.27 598.701 1129.01 599.472Q1129.76 600.243 1130.46 601.05Q1131.16 601.857 1131.83 602.699Q1132.49 603.54 1133.11 604.414Q1133.73 605.287 1134.3 606.191Q1134.88 607.094 1135.41 608.025Q1135.93 608.956 1136.42 609.913Q1136.9 610.869 1137.33 611.848Q1137.76 612.828 1138.15 613.828Q1138.53 614.827 1138.86 615.845Q1139.2 616.863 1139.48 617.896Q1139.76 618.929 1139.99 619.975Q1140.25 621.124 1140.46 622.285Q1140.67 623.445 1140.81 624.615Q1140.96 625.784 1141.05 626.96Q1141.14 628.135 1141.17 629.313Q1141.2 630.492 1141.17 631.67Q1141.14 632.849 1141.06 634.024Q1140.97 635.2 1140.83 636.37Q1140.68 637.539 1140.48 638.7Q1140.27 639.861 1140.01 641.011Q1139.75 642.16 1139.43 643.295Q1139.11 644.43 1138.74 645.548Q1138.37 646.666 1137.94 647.764Q1137.51 648.861 1137.02 649.936Q1136.54 651.011 1136 652.061Q1135.47 653.11 1134.88 654.132Q1134.29 655.153 1133.65 656.144C1124.53 670.177 1107.11 675.334 1091.6 678.485C1094.55 682.088 1095.36 686.93 1096.03 691.404C1097.32 699.866 1098.99 716.395 1093.73 723.57C1094.07 723.485 1094.42 723.4 1094.77 723.299L1095.37 723.119C1107.94 719.429 1120.51 709.483 1132.44 703.615C1143.67 698.094 1166.65 690.101 1175.45 683.311C1180.14 676.434 1180.45 660.168 1181.62 651.712L1193.82 563.608C1196.41 543.822 1197.61 522.843 1202.92 503.582C1205.23 495.197 1209.01 484.735 1215.32 478.561C1225.98 468.121 1245.41 470.043 1259.27 470.184C1259.38 470.008 1259.47 469.828 1259.59 469.657C1260.06 468.927 1260.49 468.29 1260.86 467.483C1263.83 460.917 1264.21 351.498 1261.17 342.312C1258.47 334.177 1245.77 331.314 1242.87 322.754C1242.33 321.153 1242.48 321.159 1243.2 319.634C1243.65 319.533 1244.1 319.428 1244.56 319.352C1249.74 318.49 1254.29 326.089 1258.46 328.938L1259.98 328.545C1260.51 325.714 1256.91 308.927 1255.23 306.203C1258.74 303.609 1260.87 299.725 1264.75 297.501C1267.42 295.968 1269.29 296.118 1272.13 296.955C1273.33 298.048 1274.35 299.168 1275.02 300.657C1279.94 311.675 1278.51 325.697 1274.21 336.54C1274.97 336.699 1275.71 336.845 1276.48 336.935C1292.04 338.729 1306.78 339.171 1319.55 328.4C1332.4 317.553 1346.85 287.272 1348.04 270.536C1348.39 265.534 1348.92 255.51 1345.56 251.73L1343.73 251.849C1333.9 260.811 1329.05 286.142 1324.43 298.735C1318.57 314.707 1309.75 324.499 1294.24 331.67C1290.92 333.208 1286.54 335.519 1282.86 334.16L1282.29 332.692C1290 324.527 1302.49 321.571 1309.6 312.619C1323.56 295.017 1321.77 268.581 1335.75 251.697C1340.62 245.813 1344.72 245.246 1351.95 244.5ZM447.423 485.472C448.471 495.78 447.264 506.312 446.758 516.644L444.051 571.516C441.875 625.659 441.481 680.003 438.22 734.085C438.042 737.039 437.758 740.176 436.303 742.807C434.21 741.585 434.199 741.125 433.589 738.762C431.053 728.929 434.501 690.038 434.983 677.997C436.336 644.215 436.385 610.358 437.864 576.593C438.971 551.326 441.597 525.97 442.107 500.7C442.164 497.906 442.565 492.812 441.01 490.602L438.182 494.481L437.479 493.342C437.367 493.576 437.26 493.813 437.143 494.045C433.973 500.324 409.777 523.903 403.383 530.65C407.085 549.932 404.706 571.487 403.997 591.074Q402.458 629.651 401.647 668.25C399.672 693.961 397.323 720.781 398.5 746.54C438.286 747.887 478.178 747.694 517.999 749.013C536.044 749.611 554.19 749.888 572.212 750.825C585.896 751.536 599.75 753.012 613.441 753.089C612.066 728.93 612.951 704.544 613.509 680.36C613.868 664.823 613.718 649.161 614.554 633.653C615.304 619.747 616.777 605.875 617.361 591.963C618.524 564.252 616.405 534.512 621.509 507.221C563.308 502.724 505.611 490.849 447.423 485.472ZM1710.27 501.624C1696.82 498.142 1673.53 499.01 1659.31 500.499C1655.34 501.42 1650.47 501.979 1647.37 504.778C1639.41 523.233 1643.38 578.662 1643.18 600.813L1642.29 702.695C1642.27 715.99 1644.51 741.093 1640.63 753.187C1647.77 755.346 1671.62 753.005 1680.36 752.932C1722.13 752.582 1763.92 751.856 1805.69 752.079L1807.2 751.15L1806.23 748.505C1807.29 746.832 1807.74 745.476 1807.95 743.528C1810.59 717.886 1809.95 691.634 1810.2 665.891L1811.24 567.671C1811.25 550.171 1813.84 521.966 1810.03 505.647C1809.66 504.047 1809.19 502.501 1808.53 500.993C1796.94 499.438 1726.28 497.819 1719.97 502.527C1718.73 503.45 1718.04 504.809 1717.77 506.339C1717.07 510.483 1721.48 518.524 1718.86 521.485L1715.58 521.767C1712.95 515.228 1712.56 508.252 1710.27 501.624ZM1254.28 520.499C1237.24 522.406 1220.14 520.71 1203.06 520.983C1207.83 531.056 1194.95 590.943 1192.91 604.989C1190.2 623.693 1191.92 644.683 1185.07 662.739C1184.73 663.635 1184.22 664.493 1183.7 665.297C1195.89 665.222 1211.05 667.002 1222.76 664.507C1226.73 659.973 1233.96 599.787 1233.7 590.96C1233.67 590.02 1233.48 589.203 1233.17 588.322C1230.56 587.039 1227.86 589.137 1225.05 588.067C1225.09 584.373 1228.02 581.172 1230.53 578.728C1235.5 573.906 1245.06 568.438 1247.18 561.737C1253.24 565.072 1261.66 574.746 1263.56 581.502C1263.84 582.523 1263.89 583.512 1263.9 584.565C1260.47 585.894 1257.12 586.273 1253.48 586.682C1254.55 596.459 1253.29 658.532 1248.73 663.867C1248.62 663.992 1248.48 664.088 1248.36 664.198C1254.92 664.244 1280.98 666.375 1284.3 663.144C1287.28 660.247 1287.62 656.139 1287.52 652.184C1287.06 633.91 1276.17 637.186 1291.63 620.551C1293.4 618.637 1296.16 614.919 1298.69 614.497C1304.02 617.214 1306.51 623.602 1308.34 628.992C1308.82 630.428 1309.19 631.894 1309.5 633.376C1306.99 634.412 1304.5 635.433 1301.95 636.367C1302.76 642.956 1306.05 658.64 1301.56 664.197C1301.34 664.458 1301.11 664.694 1300.88 664.943L1327.38 665.17C1332.16 659.445 1339.14 607.333 1338.42 598.562C1338.32 597.454 1338.17 596.324 1337.89 595.247C1345.44 595.911 1354.77 596.277 1361.86 599.121C1364.32 607.341 1354.85 654.157 1350.16 662.932C1349.38 664.391 1348.2 665.642 1347.03 666.801Q1369.73 666.95 1392.41 667.843C1396.57 661.243 1412.33 534.538 1409.9 524.532C1409.69 523.647 1409.27 522.819 1408.83 522.028Q1361.09 520.247 1313.32 520.408C1294.95 520.29 1272.33 519.45 1254.28 520.499ZM1183.87 669.498C1186.8 689.701 1177.17 716.721 1176.19 737.541C1175.89 743.969 1175.98 750.803 1176.55 757.213C1176.79 759.806 1178.81 765.063 1178.21 767.233C1184.24 771.159 1189.58 774.618 1196.9 775.605C1220.45 778.781 1248.94 775.765 1273.26 776.161L1350.05 778.103C1360.41 778.364 1373.28 780.016 1383.48 778.395C1384.43 778.243 1385.07 777.937 1385.94 777.528C1385.72 776.851 1385.57 776.091 1385.16 775.503C1386.22 769.615 1381.02 763.96 1381.28 758.01C1381.73 747.706 1384.59 736.832 1386.18 726.613C1387.71 716.792 1388.4 706.859 1390.01 697.052C1390.86 691.825 1394.62 677.913 1392.05 673.697C1379.4 672.399 1366.58 672.4 1353.88 671.839Q1308.17 669.445 1262.4 669.471C1236.48 669.243 1209.7 667.707 1183.87 669.498ZM695.397 688.8C673.017 701.018 649.974 711.828 625.731 719.84C680.639 713.173 727.101 717.395 772.073 752.633C776.044 755.744 780.254 758.85 783.939 762.283Q841.712 767 899.659 768.433C926.568 769.362 954.143 769.291 980.901 772.088C969.77 765.645 957.619 761.323 946.41 755.086C936.72 749.694 929.076 742.911 920.624 735.896C914.198 729.417 907.585 723.05 901.371 716.371C897.099 716.8 892.498 717.81 888.812 715.015C887.443 713.976 886.268 712.324 886.037 710.585C885.659 707.739 886.544 706.516 888.018 704.286C890.63 702.981 892.613 702.253 895.501 703.365C901.208 705.563 905.206 712.54 909.456 716.784C922.998 730.308 939.389 747.125 956.919 754.926C952.189 740.711 951.172 716.826 949.614 701.206C918.915 696.565 887.612 698.274 856.851 701.254C851.835 701.74 842.902 701.541 838.628 704.15C836.325 709.008 840.853 718.014 834.477 719.973C832.591 720.553 829.797 720.4 828.116 719.413C826.069 718.212 824.784 716.299 824.321 713.968C823.69 710.794 825.681 708.311 826.959 705.462C821.231 703.738 804.232 708.181 797.001 709.068C780.364 711.11 762.623 711.04 746.006 708.872C737.417 707.751 728.716 705.168 720.748 701.797C715.632 699.632 698.748 688.968 695.397 688.8ZM840.649 607.511C776.463 611.528 754.743 653.617 705.408 682.189C745.446 697.778 768.596 700.474 811.238 694.747C856.802 688.424 900.924 681.504 946.991 687.449C936.696 658.167 910.765 630.773 882.885 617.489Q880.424 616.297 877.901 615.241Q875.378 614.185 872.801 613.269Q870.224 612.353 867.601 611.579Q864.978 610.805 862.316 610.177Q859.654 609.548 856.962 609.066Q854.27 608.583 851.555 608.25Q848.841 607.916 846.112 607.731Q843.384 607.546 840.649 607.511ZM247.673 597.267C234.294 601.431 186.511 612.227 178.376 618.325C178.474 618.51 178.58 618.691 178.669 618.88C179.051 619.697 179.352 620.575 179.685 621.415L178.884 620.877C183.267 636.123 190.481 650.251 196.335 664.946C203.589 683.156 209.982 703.166 218.658 720.687C219.757 722.906 220.746 724.995 223.041 726.165C223.191 726.241 223.349 726.3 223.503 726.368C244.07 713.563 269.236 706.277 291.997 698.093C278.19 668.948 268.7 637.789 254.351 609.043C252.379 605.092 251.556 601.141 249.045 597.385L247.673 597.267ZM1267.48 474.5C1251.22 474.893 1236.01 475.254 1220.08 478.851C1219.38 485.271 1212.16 496.015 1209.63 502.808C1208.13 506.819 1207.58 512.625 1204.9 515.898L1351.75 516.147C1370.65 516.792 1390.31 517.713 1409.18 516.802C1413.39 511.274 1414.04 499.787 1413.16 493.182C1412.54 488.588 1410.92 483.599 1407.16 480.614C1397 472.562 1287.88 474.922 1267.48 474.5ZM499.384 400.089C489.409 403.413 479.911 408.32 474.956 418.117C465.347 437.116 476.828 465.751 482.99 484.535Q507.979 488.048 533.019 491.171C542.103 487.334 552.47 469.42 556.088 460.495C557.961 455.875 559.988 449.275 557.647 444.461C556.135 441.351 553.231 439.278 549.968 438.322C539.315 435.204 533.006 435.606 526.852 424.959C522.035 416.626 519.247 403.911 508.83 400.781C505.947 399.916 502.374 399.959 499.384 400.089ZM1416.62 482.483C1416.74 482.743 1416.87 483.002 1416.99 483.264C1424.96 500.678 1407.42 608.52 1404.03 634.417C1401.43 654.272 1399.59 674.268 1396.63 694.062C1394.91 705.562 1386.3 755.617 1388.17 764.467C1389.45 770.554 1395.19 775.05 1400.69 777.175C1408.78 780.297 1422.57 782.206 1430.62 778.54C1434.08 776.962 1436.05 774.156 1437.33 770.681C1440.83 761.156 1441.31 749.736 1442.49 739.684C1445.72 712.173 1447.32 684.71 1449.77 657.132L1456.64 573.072C1457.93 557.137 1460.31 541.444 1460.33 525.416C1460.34 517.012 1459.89 508.065 1456.11 500.388C1455.37 498.877 1454.66 497.664 1453.28 496.655C1453.11 492.354 1449.94 488.694 1446.84 485.837C1444.87 484.011 1442.71 482.883 1440.26 481.826C1453.37 494.165 1455.36 515.598 1455.88 532.573C1456.68 558.348 1449.62 586.791 1446.83 612.683C1442.14 656.271 1440.72 708.208 1431.7 750.257C1430.65 755.135 1428.43 760.603 1424.87 764.218C1423.88 765.224 1422.75 766.029 1421.57 766.8C1415.64 767.085 1407.4 768.102 1402.67 763.729C1399.36 760.673 1399.14 754.853 1399.18 750.674C1399.29 737.649 1403.54 724.984 1405.19 712.125C1409.32 679.96 1411.56 647.639 1415.5 615.467C1418.2 593.438 1421.01 571.489 1423.35 549.414C1424.34 540.051 1425.93 530.691 1426.12 521.266C1426.32 511.873 1426.22 491.571 1420.21 484.05C1419.19 482.775 1418.13 482.709 1416.62 482.483ZM963.84 704.527C964.035 719.576 962.177 743.384 973.796 754.92C981.327 762.397 994.079 764.233 1004.29 764.023C1020.13 763.698 1048.56 757.251 1060.64 746.534C1061.11 746.116 1061.17 745.943 1061.45 745.463C1067.01 743.188 1077.29 739.044 1080.4 733.819C1073.24 729.855 1063.42 728.051 1055.55 725.78C1025.61 717.142 994.854 708.381 963.84 704.527ZM1630.37 580.499C1608.79 585.176 1590.74 593.947 1572.31 605.724C1571.65 627.732 1543.73 670.861 1544.63 680.194L1545.99 680.176L1546.46 679.502C1554.27 675.2 1561.38 669.465 1568.63 664.281C1588.19 650.279 1609.59 637.412 1633.95 634.539C1638.23 627.616 1637.18 589.856 1635.73 580.822C1633.82 580.397 1632.32 580.29 1630.37 580.499ZM1517.15 542.497C1519.32 549.471 1507.55 570.661 1505.15 578.909Q1503 586.123 1501.17 593.424Q1499.33 600.725 1497.82 608.098Q1496.3 615.472 1495.11 622.905Q1493.92 630.337 1493.06 637.815Q1492.19 645.293 1491.65 652.801Q1491.11 660.309 1490.9 667.834Q1490.68 675.358 1490.8 682.885Q1490.92 690.411 1491.36 697.926C1491.7 703.65 1491.25 712.902 1494.57 717.602C1497.29 717.585 1498.29 716.444 1500.47 714.918L1500.88 712.505C1504.34 702.203 1505.62 691.041 1507.71 680.389C1510.62 665.555 1514.02 650.571 1517.85 635.944C1523.06 616.007 1532.44 597.426 1537.84 577.626C1537.7 577.402 1537.57 577.173 1537.43 576.954C1536.33 575.292 1534.34 574.861 1533.13 573.514C1527.39 567.119 1528.25 543.827 1517.6 542.518C1517.45 542.499 1517.3 542.504 1517.15 542.497ZM1572.24 477.498C1552.62 492.804 1532.74 514.26 1521.53 536.622C1527.7 541.294 1537.28 559.158 1538.39 566.763C1538.75 569.289 1538.56 571.79 1537.95 574.263C1541.27 569.723 1545.11 564.418 1544.63 558.45C1544.79 558.301 1544.96 558.156 1545.12 558.003C1548.41 554.841 1548.8 548.484 1553.52 547.882C1555.14 551.936 1550.49 563.934 1548.66 568.096C1547.91 569.797 1547.14 571.44 1545.74 572.697C1554.59 570.604 1564.77 568.616 1572.61 563.819C1580.99 553.567 1577.7 502.527 1576.2 487.299C1575.87 483.898 1575.39 479.982 1572.53 477.713C1572.44 477.639 1572.34 477.57 1572.24 477.498ZM621.137 630.325C620.662 656.004 620.971 682.102 618.765 707.684C634.769 702.711 651.577 697.728 666.448 689.886C673.643 686.099 680.899 682.393 687.919 678.289C669.639 660.866 646.931 634.997 621.137 630.325ZM391.879 582.741C386.415 585.71 378.291 589.339 374.859 594.595Q376.261 597.357 377.714 600.092C377.2 600.627 376.599 601.591 375.844 601.587C372.84 601.571 370.014 599.635 367.431 598.258C361.291 604.171 355.652 610.252 350.168 616.779C352.778 618.048 355.682 619.098 357.198 621.718C355.439 623.297 353.167 622.867 350.842 622.736C348.478 622.604 346.086 621.96 343.792 621.389C340.516 626.362 334.859 633.067 333.883 638.879C334.974 641.276 337.561 641.287 337.222 643.791C333.157 645.877 330.288 644.322 326.841 645.557C322.35 647.165 316.373 659.893 314.026 664.102L314.629 665.623C316.808 666.49 319.028 666.836 320.296 668.853C319.674 670.14 319.563 671.263 318.13 671.716C311.589 673.786 311.221 669.359 305.949 676.473C303.582 679.84 300.213 683.623 299.682 687.791C300.695 689.719 300.734 690.054 302.944 690.745C306.242 691.776 311.157 691.066 314.695 691.109C323.45 682.67 330.993 672.411 339.128 663.311C356.93 643.4 375.091 625.345 395.971 608.621C396.683 602.432 398.665 590.058 395.276 584.82C394.476 583.582 393.158 583.272 391.879 582.741ZM1771.72 335.499C1757.76 350.141 1747.58 390.436 1733.29 401.549C1739.23 404.272 1754.74 416.036 1760.47 415.249C1769.08 411.313 1792.34 366.893 1796.1 356.492C1796.8 354.551 1797.67 352.138 1796.98 350.112C1793.31 344.386 1779.68 337.199 1773.02 335.667C1772.37 335.518 1772.29 335.532 1771.72 335.499ZM166.183 606.696C164.157 610.181 162.705 613.867 161.195 617.593C171.296 642.03 180.696 666.944 190.245 691.613C195.125 704.222 199.412 718.178 205.989 729.984C208.355 734.233 212.526 740.759 217.455 742.4C228.837 746.189 296.115 715.043 309.696 708.829C311.222 706.912 312.666 705.674 312.03 702.992C311.76 701.855 310.988 700.659 310.407 699.647C303.858 697.215 244.929 721.84 234.618 726.576Q227.047 730.044 219.761 734.076C216.034 727.916 212.439 721.746 209.573 715.131C204.835 704.195 169.863 609.988 166.183 606.696ZM1456.19 638.497C1462.03 649.524 1445.91 724.174 1450.49 729.344C1450.79 729.672 1452.05 730.047 1452.43 730.167C1459.56 732.382 1478.21 726.287 1484.61 722.599C1485.66 721.99 1486.58 721.254 1487.4 720.355C1487.84 714.772 1487.1 698.72 1483.65 694.511C1484.59 690.641 1482.95 685.95 1480.94 682.617C1476.41 675.075 1459.86 659.404 1459.83 651.626L1461.05 650.89C1467.85 653.114 1478.69 665.209 1481.82 671.644C1482.28 672.583 1482.37 673.376 1482.39 674.403C1484.95 670.751 1486.75 663.388 1486.04 658.884C1485.12 653.076 1480.99 648.338 1476.23 645.185C1471.88 642.308 1461.42 637.612 1456.19 638.497ZM395.452 616.941C383.297 625.266 336.56 670.266 331.884 680.55C335.456 681.601 339.555 681.127 343.25 681.009C360.994 681.187 377.573 682.246 394.306 688.572C397.09 677.537 398.582 627.593 395.452 616.941ZM1676.88 759.5C1663.79 759.831 1650.69 759.668 1637.6 760.01C1637.91 763.427 1634.84 767.897 1632.69 770.454C1632.19 771.048 1631.66 771.619 1631.09 772.141Q1678.82 772.965 1726.55 771.917C1740.58 771.722 1755.31 772.634 1769.23 771.449C1779.54 771.301 1810.26 772.766 1817.83 770.334C1818.66 767.591 1818.87 767.041 1818.15 764.306C1814.24 760.23 1808.1 760.129 1802.77 760.005C1776.21 759.389 1749.44 759.925 1722.85 759.761C1707.97 759.67 1691.63 758.164 1676.88 759.5ZM1567.83 571.498C1560.46 575.66 1553.09 575.398 1545.15 577.222C1540.62 589.226 1522.51 631.803 1523.51 642.086C1524.61 642.322 1525.16 642.586 1526.24 642.251C1537.02 641.258 1547.41 638.905 1557.09 633.851C1561.62 625.916 1575.2 580.516 1573.39 571.217C1571.42 571.101 1569.78 571.107 1567.83 571.498ZM1086.8 736.484C1081.85 746.264 1045.02 760.777 1034.47 764.247C1023.87 767.736 1012.74 769.329 1002.15 772.726Q1020.45 773.077 1038.75 773.045Q1062.19 773.591 1085.6 774.98C1094.17 770.436 1115.64 749.274 1119.9 740.611C1113.18 738.598 1093.08 734.831 1086.8 736.484ZM1088.33 603.49C1080.37 607.095 1074.08 611.554 1070.85 620.016C1068.13 627.138 1069.11 634.777 1072.33 641.551C1075.29 647.8 1080.33 653.739 1087.08 655.972C1092.2 657.668 1097.45 656.882 1102.18 654.387C1113.2 648.565 1118.72 636.405 1122.05 624.908C1123.31 620.544 1124.46 615.623 1123.48 611.119C1122.19 609.662 1122.02 609.108 1119.94 609.095C1118.56 609.087 1117.34 609.844 1116.16 610.487C1114.11 618.604 1099.71 635.181 1092.33 639.527C1091.25 640.161 1090.16 640.709 1088.99 641.152C1083.37 638.025 1074 633.896 1071.51 627.584C1073.5 626.462 1076.03 627.166 1078.21 627.805C1081.09 628.651 1085.77 631.285 1087.31 633.897C1094.19 630.477 1107.33 619.919 1110.07 612.473C1110.45 611.427 1110.6 610.321 1110.7 609.219C1104.15 605.256 1096.06 602.535 1088.33 603.49ZM1173.45 690.497C1155.72 698.422 1124.84 710.685 1110.26 722.859L1109.96 724.223L1111.83 725.069Q1141.84 727.137 1171.93 727.249C1176.47 720.706 1176.88 699.804 1175.84 691.999C1174.89 690.812 1174.93 690.792 1173.45 690.497ZM1385.37 272.498C1390.8 276.548 1393.03 284.247 1393.93 290.718C1397.19 314.376 1386.38 343.216 1372.09 361.773C1365.9 369.814 1357.88 375.06 1349.46 380.496C1350.73 382.417 1351.71 382.561 1353.9 382.964C1355.66 383.285 1358.77 383.36 1360.31 382.502C1372.58 379.395 1382.21 366.61 1388.39 356.229C1399.31 337.913 1409.58 304.915 1404.45 283.908C1403.45 279.835 1401.18 275.176 1397.33 273.1C1393.43 270.995 1389.55 271.932 1385.37 272.498ZM1551.12 642.499C1540.52 646.476 1530.8 648.124 1519.52 648.181C1523.78 661.659 1504.09 697.966 1510.22 707.501C1535.29 692.309 1541.02 667.857 1554.02 643.987C1552.83 642.79 1552.79 642.746 1551.12 642.499ZM1429.66 548.498C1427.65 557.624 1421.96 600.522 1425.75 607.36C1426.75 609.17 1428.01 609.984 1430 610.309C1431.74 610.593 1434.72 610.056 1436.2 609.146C1438.61 608.375 1440.27 608.295 1441.57 605.857C1445.13 599.216 1446.41 559.854 1443.49 552.75C1443.17 551.954 1442.81 551.513 1442.26 550.859C1438.08 549.156 1434.2 548.246 1429.66 548.498ZM540.041 407.886C537.569 411.443 534.323 416.617 534.632 421.056L535.8 422.28C538.533 422.337 540.22 421.285 542.501 419.981C546.228 418.227 550.462 416.725 552.854 413.21L553.314 410.854C551.407 408.794 549.853 408.051 546.985 407.9C544.684 407.779 542.344 407.821 540.041 407.886ZM1265.48 305.493C1265.5 305.787 1265.53 306.08 1265.54 306.375C1265.6 309.456 1262.27 310.891 1262.46 314.461C1262.75 319.786 1266.85 324.453 1267.24 330.197C1270.52 328.048 1271.42 322.866 1272.19 319.204C1273.14 314.677 1273.04 310.109 1270.5 306.126C1268.44 305.163 1267.7 305.34 1265.48 305.493Z"/>
	<path fill="#FEFEFE" fill-opacity="0.0078431377" transform="scale(0.25 0.25)" d="M1416.62 482.483C1418.13 482.709 1419.19 482.775 1420.21 484.05C1426.22 491.571 1426.32 511.873 1426.12 521.266C1425.93 530.691 1424.34 540.051 1423.35 549.414C1421.01 571.489 1418.2 593.438 1415.5 615.467C1411.56 647.639 1409.32 679.96 1405.19 712.125C1403.54 724.984 1399.29 737.649 1399.18 750.674C1399.14 754.853 1399.36 760.673 1402.67 763.729C1407.4 768.102 1415.64 767.085 1421.57 766.8C1422.75 766.029 1423.88 765.224 1424.87 764.218C1428.43 760.603 1430.65 755.135 1431.7 750.257C1440.72 708.208 1442.14 656.271 1446.83 612.683C1449.62 586.791 1456.68 558.348 1455.88 532.573C1455.36 515.598 1453.37 494.165 1440.26 481.826C1442.71 482.883 1444.87 484.011 1446.84 485.837C1449.94 488.694 1453.11 492.354 1453.28 496.655C1454.66 497.664 1455.37 498.877 1456.11 500.388C1459.89 508.065 1460.34 517.012 1460.33 525.416C1460.31 541.444 1457.93 557.137 1456.64 573.072L1449.77 657.132C1447.32 684.71 1445.72 712.173 1442.49 739.684C1441.31 749.736 1440.83 761.156 1437.33 770.681C1436.05 774.156 1434.08 776.962 1430.62 778.54C1422.57 782.206 1408.78 780.297 1400.69 777.175C1395.19 775.05 1389.45 770.554 1388.17 764.467C1386.3 755.617 1394.91 705.562 1396.63 694.062C1399.59 674.268 1401.43 654.272 1404.03 634.417C1407.42 608.52 1424.96 500.678 1416.99 483.264C1416.87 483.002 1416.74 482.743 1416.62 482.483Z"/>
	<path fill="#231F20" transform="scale(0.25 0.25)" d="M1268.54 490.498C1273.26 489.92 1278.57 489.796 1283.26 490.561C1286.45 491.081 1290.07 491.615 1292.08 494.393L1291.73 496.4C1290.06 498.186 1288.54 499.427 1286.42 500.639C1283.46 502.726 1277.88 503.012 1274.37 502.341C1271.25 501.743 1269.36 500.329 1267.55 497.74C1266.75 494.756 1267.4 493.191 1268.54 490.498Z"/>
	<path fill="#231F20" transform="scale(0.25 0.25)" d="M1242.62 490.501C1244.59 490.576 1246.3 490.585 1248.1 491.461C1249.52 492.148 1249.39 492.602 1249.87 494.026C1249.26 496.39 1248.04 498.085 1246.27 499.706C1240.54 504.925 1236.19 505.007 1228.93 504.768C1227.01 504.55 1225.57 504.066 1223.83 503.249C1222.03 500.121 1224.11 495.448 1223.28 491.635C1223.23 491.409 1223.17 491.186 1223.12 490.962Q1232.86 490.47 1242.62 490.501Z"/>
	<path fill="#231F20" transform="scale(0.25 0.25)" d="M214.741 619.247C217.91 618.891 223.942 617.898 226.616 619.821L226.082 621.234C221.91 624.079 217.591 624.982 212.764 626.098C207.727 627.215 202.261 627.368 197.118 627.857C202.638 623.736 208.074 621.031 214.741 619.247Z"/>
	<path fill="#231F20" transform="scale(0.25 0.25)" d="M229.614 630.312C232.882 629.985 235.352 629.744 238.497 630.92L238.361 632.024C232.708 635.254 225.255 636.651 218.965 638.405C215.035 639.034 211.702 639.649 208.047 638.021C208.157 637.847 208.244 637.656 208.375 637.497C212.18 632.879 223.815 631.245 229.614 630.312Z"/>
	<path fill="#231F20" transform="scale(0.25 0.25)" d="M799.307 617.803C802.046 618.076 804.757 618.335 807.248 619.604C810.02 621.015 810.558 622.591 811.346 625.344C810.999 629.177 809.174 631.3 806.846 634.232C806.428 634.538 806.37 634.623 805.8 634.803C803.821 635.43 801.926 634.893 800.101 634.123C798.863 632.897 797.875 631.741 797.336 630.065C795.702 624.992 797.007 622.361 799.307 617.803Z"/>
	<path fill="#231F20" transform="scale(0.25 0.25)" d="M847.161 634.697C849.931 634.972 852.832 635.173 855.228 636.732C856.897 637.818 858.061 639.528 858.371 641.506C859.067 645.941 856.447 649.911 854.19 653.457C852.18 653.226 850.432 652.931 848.648 651.928C846.473 650.706 844.82 648.866 844.233 646.396C843.193 642.021 845.103 638.413 847.161 634.697Z"/>
	<path fill="#231F20" transform="scale(0.25 0.25)" d="M911.591 649.547C914.239 650.473 916.554 651.336 918.528 653.41C920.626 655.613 921.862 658.315 921.635 661.422C921.36 665.203 919.072 667.185 916.463 669.572C913.692 669.27 910.654 668.759 908.434 666.94C906.472 665.333 905.281 663.153 905.296 660.592C905.324 655.784 908.261 652.602 911.591 649.547Z"/>
	<path fill="#231F20" transform="scale(0.25 0.25)" d="M861.699 732.432C864.056 732.804 866.576 733.092 868.611 734.429C870.73 735.821 872.052 737.806 872.383 740.332C872.965 744.765 870.941 748.283 868.445 751.73C866.386 751.377 864.508 750.92 862.661 749.902C860.601 748.766 858.777 746.741 858.243 744.407C857.219 739.935 859.488 736.109 861.699 732.432Z"/>
	<path fill="#231F20" transform="scale(0.25 0.25)" d="M935.7 719.929C938.884 719.935 942.24 719.918 944.757 722.196C946.132 723.441 946.786 724.729 946.987 726.52C947.535 731.414 944.181 734.995 941.373 738.602C937.984 738.57 934.926 738.239 932.318 735.778C930.396 733.963 929.519 731.699 929.689 729.062C929.974 724.658 932.523 722.491 935.7 719.929Z"/>
	<path fill="#231F20" transform="scale(0.25 0.25)" d="M1308.73 713.499C1319.83 712.465 1351.23 711.909 1360.58 716.842L1360.04 718.322L1356.2 719.939C1353.18 721.568 1348.91 721.093 1345.56 721.047C1336.7 720.925 1314.33 721.913 1308.49 715.894L1308.73 713.499Z"/>
	<path fill="#231F20" transform="scale(0.25 0.25)" d="M1263.22 691.498C1277.77 689.419 1327.42 691.483 1341.61 693.653C1343.98 694.016 1345.78 694.248 1347.21 696.229L1345.35 698.033C1345.09 698.176 1344.85 698.353 1344.58 698.46C1339.42 700.488 1269.25 697.197 1264.72 695.017C1263.85 694.597 1263.52 692.452 1263.22 691.498Z"/>
	<path fill="#231F20" transform="scale(0.25 0.25)" d="M1655.06 690.498C1658.32 690.253 1659.97 690.571 1662.6 692.444L1662.88 694.566C1660.91 696.88 1659.98 697.254 1657.24 698.301C1654.86 698.308 1654.23 698.699 1652.41 697.058C1652.54 693.873 1653.31 693.046 1655.06 690.498Z"/>
	<path fill="#231F20" fill-opacity="0.98431373" transform="scale(0.25 0.25)" d="M1653.57 572.498C1655.29 572.417 1657.28 572.22 1658.96 572.664C1661.15 573.245 1662.06 573.642 1663.2 575.659C1662.06 577.808 1660.78 578.409 1658.66 579.501C1657.56 579.953 1656.45 580.468 1655.24 580.343C1653.31 580.145 1653.11 579.532 1651.94 578.113C1652.03 575.378 1652.14 574.819 1653.57 572.498Z"/>
	<path fill="#231F20" transform="scale(0.25 0.25)" d="M1723.38 524.499C1735.62 523.265 1747.72 525.182 1757.71 532.842C1767.33 540.215 1773.26 552.006 1774.8 563.903C1776.45 576.609 1770.73 590.664 1762.99 600.659C1755.26 610.642 1744.18 614.488 1732.07 615.902C1721.18 616.674 1711.24 615.837 1701.83 609.659C1692.24 603.356 1685.8 593.205 1683.56 582.008C1680.93 568.926 1683.2 554.466 1690.8 543.371C1698.64 531.925 1710.18 526.839 1723.38 524.499ZM1718.36 530.499C1706.63 535.201 1697.86 541.697 1692.83 553.766C1688.37 564.462 1687.5 577.582 1692.02 588.391C1696.3 598.595 1705.61 601.133 1709.37 608.377C1718.25 609.988 1726.21 611.739 1735.2 609.9C1745.44 608.048 1753.67 603.191 1759.66 594.54C1766.2 585.105 1769.53 571.938 1767.45 560.574C1765.65 550.709 1760.12 541.093 1751.68 535.472C1741.54 528.723 1729.91 529.045 1718.36 530.499Z"/>
	<path fill="#231F20" transform="scale(0.25 0.25)" d="M1728.64 536.5C1728.95 536.472 1729.26 536.44 1729.57 536.416C1737.52 535.824 1745.33 537.621 1751.4 542.994C1757.55 548.444 1760.55 556.604 1760.98 564.669C1761.5 574.416 1758.28 583.924 1751.61 591.101C1744.5 598.753 1735.97 601.785 1725.75 602.197C1720.08 602.486 1714.8 601.685 1709.9 598.743C1703.06 594.631 1698.64 587.836 1696.77 580.153C1694.6 571.237 1695.74 561.334 1700.57 553.455C1707.01 542.931 1717.31 539.229 1728.64 536.5Z"/>
	<path fill="#231F20" transform="scale(0.25 0.25)" d="M1724.08 637.5C1734.87 636.643 1746.45 638.93 1755.39 645.242C1764.98 652.019 1771.43 663.624 1773.37 675.095Q1773.59 676.393 1773.74 677.7Q1773.9 679.007 1773.99 680.32Q1774.08 681.633 1774.1 682.949Q1774.13 684.264 1774.09 685.58Q1774.05 686.895 1773.95 688.207Q1773.85 689.519 1773.68 690.825Q1773.51 692.13 1773.28 693.426Q1773.05 694.722 1772.76 696.005Q1772.47 697.288 1772.11 698.555Q1771.76 699.823 1771.34 701.071Q1770.93 702.319 1770.45 703.546Q1769.97 704.773 1769.44 705.975Q1768.9 707.176 1768.31 708.351Q1767.71 709.525 1767.06 710.669Q1766.41 711.813 1765.7 712.924Q1765 714.035 1764.24 715.11C1755.52 727.216 1743.14 731.87 1728.97 734.04C1719.75 734.73 1708.73 731.69 1701.03 726.803C1691.23 720.582 1684.82 710.486 1682.33 699.235Q1682.05 697.952 1681.82 696.656Q1681.6 695.36 1681.45 694.056Q1681.29 692.751 1681.2 691.44Q1681.1 690.129 1681.07 688.815Q1681.05 687.5 1681.08 686.187Q1681.12 684.873 1681.22 683.562Q1681.32 682.252 1681.48 680.948Q1681.64 679.643 1681.87 678.349Q1682.1 677.055 1682.39 675.773Q1682.68 674.491 1683.03 673.225Q1683.39 671.959 1683.8 670.712Q1684.22 669.465 1684.69 668.239Q1685.17 667.014 1685.7 665.813Q1686.24 664.613 1686.83 663.44Q1687.43 662.267 1688.08 661.125Q1688.73 659.982 1689.43 658.873C1697.85 645.892 1709.46 640.498 1724.08 637.5ZM1723.31 643.499C1710.24 647.135 1699.9 652.634 1692.95 664.934Q1692.4 665.915 1691.91 666.921Q1691.41 667.928 1690.96 668.958Q1690.52 669.988 1690.12 671.038Q1689.72 672.089 1689.38 673.158Q1689.04 674.227 1688.75 675.312Q1688.46 676.396 1688.22 677.494Q1687.99 678.591 1687.8 679.699Q1687.62 680.807 1687.5 681.923Q1687.37 683.038 1687.3 684.159Q1687.23 685.279 1687.21 686.401Q1687.19 687.524 1687.23 688.646Q1687.27 689.768 1687.37 690.887Q1687.46 692.006 1687.61 693.118Q1687.76 694.231 1687.97 695.335Q1688.17 696.439 1688.43 697.531Q1688.69 698.624 1689 699.702C1691.88 709.697 1697.98 718.328 1707.23 723.312C1713.34 726.6 1719.86 727.924 1726.75 728.034C1737.96 727.726 1747.43 724.814 1755.32 716.484C1764.09 707.235 1767.38 694.734 1766.93 682.246C1766.54 671.347 1763.28 660.25 1754.96 652.737C1747.56 646.052 1736.34 642.656 1726.45 643.222Q1724.88 643.316 1723.31 643.499Z"/>
	<path fill="#231F20" transform="scale(0.25 0.25)" d="M1722.32 650.499C1731.02 649.149 1739.3 649.801 1746.79 654.797C1753.97 659.579 1758.48 667.232 1760.02 675.633C1762 686.414 1759.48 698.272 1753.12 707.223C1747.48 715.157 1740.67 719.114 1731.21 720.763C1725.97 721.312 1720.87 720.904 1715.98 718.888C1707.72 715.486 1701.42 708.894 1697.99 700.684C1694.28 691.793 1693.76 680.837 1697.5 671.869C1702.16 660.696 1711.7 654.97 1722.32 650.499Z"/>
	<path fill="#231F20" fill-opacity="0.98431373" transform="scale(0.25 0.25)" d="M418.33 531.518C420.227 531.997 421.515 532.312 422.831 533.835C425.473 536.892 420.714 596.329 419.977 604.679C417.933 605.032 416.588 605.114 414.6 604.469C411.419 598.623 416.812 540.725 418.33 531.518Z"/>
	<path fill="#231F20" transform="scale(0.25 0.25)" d="M525.728 613.078C530.745 612.658 536.465 612.974 540.874 615.692C542.505 616.697 543.933 618.085 544.368 620.01C546.568 629.758 537.928 633.627 534.656 640.419C533.543 642.73 533.797 668.616 534.872 671.001L541.208 673.107C541.728 675.408 541.603 675.852 540.856 678.111C538.826 680.374 537.046 680.602 534.21 681.061C529.173 681.218 522.211 682.053 518.213 678.439L518.369 676.631C520.887 673.71 523.899 672.922 527.467 671.764C527.725 661.192 527.514 650.708 527.162 640.144C524.625 638.447 521.805 636.714 520.001 634.195C518.008 631.414 516.713 627.496 517.319 624.089C518.254 618.833 521.529 615.97 525.728 613.078Z"/>
	<path fill="#231F20" transform="scale(0.25 0.25)" d="M476.835 525.06C515.877 528.289 554.998 530.471 593.977 534.439C594.928 550.42 594.819 567.671 592.059 583.476C573.098 582.658 485.381 585.84 475.153 578.856C471.409 570.742 474.425 534.467 476.835 525.06Z"/>
</svg>
