<?xml version="1.0" encoding="utf-8" ?>
<svg xmlns="http://www.w3.org/2000/svg" xmlns:xlink="http://www.w3.org/1999/xlink" width="512" height="256">
	<path fill="#231F20" transform="scale(0.25 0.25)" d="M792.209 427.55C795.27 427.585 799.652 427.835 802.154 429.648L801.637 431.013C797.31 433.535 792.739 433.661 787.873 434.073C787.493 434.066 787.114 434.056 786.735 434.029C783.81 433.815 779.374 433.216 777.388 430.97L778.406 429.527C782.756 427.229 787.429 427.565 792.209 427.55Z"/>
	<path fill="#231F20" transform="scale(0.25 0.25)" d="M616.662 443.288C622.828 442.873 639.069 440.718 643.67 444.656L643.594 447.704C638.478 448.21 633.314 448.818 628.176 449.013C625.146 449.128 619.594 449.218 617.366 446.744C616.435 445.71 616.708 444.615 616.662 443.288Z"/>
	<path fill="#231F20" transform="scale(0.25 0.25)" d="M1064.91 347.456C1066.35 347.38 1067.49 347.663 1068.86 348.019C1072.26 351.461 1074.93 354.495 1075.13 359.537C1075.39 365.65 1072.27 369.721 1068.25 374.028L1067.69 375.448L1066.5 375.744C1065.7 372.184 1060.69 365.012 1060.87 362.414C1061.21 357.504 1065.46 353.633 1064.99 348.112C1064.97 347.893 1064.94 347.675 1064.91 347.456Z"/>
	<path fill="#231F20" transform="scale(0.25 0.25)" d="M791.674 258.425L793.113 259.082C798.97 261.756 795.903 272.098 800.814 275.581C803.47 277.465 807.324 278.876 810.269 280.385C810.983 280.751 811.333 281.758 811.731 282.456C798.473 292.188 803.059 289.884 798.453 304.835C791.483 301.476 794.571 297.065 790.943 291.883C788.03 287.723 782.649 287.819 778.058 287.285Q779.48 286 780.87 284.679C789.4 276.547 791.363 269.875 791.674 258.425ZM794.145 275.599C792.443 278.634 790.939 281.753 791.78 285.342C792.203 287.147 793.599 288.48 794.883 289.726L796.191 290.03C797.959 287.2 799.651 285.012 799.222 281.53C797.937 278.694 796.556 277.449 794.145 275.599Z"/>
	<path fill="#231F20" fill-opacity="0.98823529" transform="scale(0.25 0.25)" d="M292.019 445.162C293.121 445.358 294.215 445.77 295.286 446.098C298.312 449.175 299.455 453.842 300.866 457.836C302.935 459.615 305.509 462.254 307.976 463.395C310.923 464.758 315.07 463.64 317.393 465.985C315.62 468.755 311.421 469.175 308.44 470.587C300.316 474.436 306.117 489.194 303.483 496.683L301.313 497.268C298.626 492.163 297.292 485.978 294.386 481.141C290.838 475.235 282.901 482.317 277.534 480.606C278.155 477.453 284.958 472.57 287.447 470.162C290.048 461.992 289.424 453.371 292.019 445.162ZM294.882 459.203C294.139 463.676 292.606 470.036 295.414 474.077C295.511 474.216 295.619 474.347 295.721 474.482C296.97 474.425 297.683 474.614 298.711 473.837C300.538 471.174 302.213 469.01 301.607 465.611C301.182 463.219 298.919 461.201 296.884 460.002C296.2 459.599 295.642 459.419 294.882 459.203Z"/>
	<path fill="#231F20" transform="scale(0.25 0.25)" d="M354.959 702.257C358.074 701.853 360.365 701.399 363.168 702.826L363.015 704.458C348.464 714.813 294.06 723.22 273.835 728.336C259.13 732.055 244.697 736.736 230.253 741.346C226.621 742.05 225.113 742.533 221.525 741.112L221.618 740.567C230.883 730.959 309.9 714.733 328.327 710.108C337.296 707.857 346.138 705.022 354.959 702.257Z"/>
	<path fill="#231F20" fill-opacity="0.98823529" transform="scale(0.25 0.25)" d="M1385.42 317.5C1391.64 317.346 1398.11 317.454 1404.04 319.52C1406.77 320.471 1409.07 321.37 1410.34 324.015C1407.93 325.458 1391.47 322.733 1386.97 322.853C1363.52 323.473 1334.76 333.223 1318.51 350.751C1311.33 358.496 1305.48 372.526 1306.07 383.012C1306.34 387.728 1306.83 399.763 1310.26 402.857C1316.19 400.75 1318.03 390.358 1320.75 385.138C1322.27 382.205 1324.66 379.471 1326.73 376.894L1328.35 380.88C1327.26 385.475 1324.78 392.523 1320.98 395.517C1321.12 396.302 1321.23 397.139 1321.12 397.936C1320.17 404.537 1313.35 416.753 1308.3 420.932C1308.27 420.798 1308.24 420.663 1308.22 420.528C1306.35 409.968 1285.85 404.64 1284.39 395.435L1285.8 394.21C1287.57 394.237 1289.33 394.361 1290.98 395.057C1294.45 396.514 1298.98 400.529 1300.36 404.053C1300.42 404.214 1300.47 404.38 1300.53 404.544C1305.45 391.478 1291.15 376.773 1310.63 351.613C1328.14 329.013 1358.36 320.734 1385.42 317.5Z"/>
	<path fill="#231F20" transform="scale(0.25 0.25)" d="M201.586 592.262C205.009 592.135 208.669 592.488 212.029 593.102Q212.69 593.225 213.344 593.38Q213.998 593.536 214.643 593.724Q215.289 593.911 215.924 594.13Q216.559 594.35 217.183 594.6Q217.807 594.851 218.418 595.132Q219.028 595.413 219.624 595.724Q220.22 596.034 220.8 596.374Q221.38 596.714 221.942 597.082Q222.505 597.451 223.048 597.846Q223.592 598.242 224.115 598.664Q224.638 599.085 225.14 599.533Q225.642 599.98 226.121 600.451Q226.6 600.923 227.055 601.417Q227.51 601.912 227.941 602.429Q228.371 602.945 228.775 603.482Q229.179 604.02 229.556 604.576C236.879 615.36 235.662 626.189 233.36 638.19Q231.997 639.497 230.52 640.672C224.335 645.688 216.475 647.095 208.648 646.184C203.4 645.574 198.07 643.541 194.823 639.185C192.152 635.603 191.152 630.738 191.807 626.352C192.262 623.307 193.043 621.415 195.477 619.58L197.33 620.358L197.326 622.252C197.783 626.783 196.934 631.759 197.884 636.135C198.313 638.114 199.401 639.92 201.169 640.991C204.138 642.787 210.102 643.379 213.487 642.758L213.723 641.671C205.504 631.355 200.867 613.396 196.658 600.812C191.296 606.789 188.836 617.357 184.959 620.548C183.872 616.921 184.034 613.236 185.436 609.669C188.418 602.082 194.237 595.579 201.586 592.262ZM203.895 597.472C203.095 598.005 200.973 599.03 200.826 599.927C199.632 607.236 212.024 629.673 215.497 636.693L216.774 636.492C219.257 632.064 218.416 625.914 217.096 621.233C215.002 613.812 206.355 604.861 205.789 599.693L206.617 598.672C209.124 599.309 209.355 599.661 211.098 601.617C214.371 606.473 217.286 611.437 219.258 616.977C221.116 622.197 221.898 636.74 225.314 639.656C227.786 638.456 228.856 636.225 229.724 633.726C232.453 625.869 231.491 616.434 227.883 609C225.128 603.322 220.341 599.496 214.375 597.523C211.082 596.435 207.269 597.106 203.895 597.472Z"/>
	<path fill="#231F20" transform="scale(0.25 0.25)" d="M310.792 616.724C311.396 616.847 311.201 616.784 311.906 617.066C314.008 617.908 315.103 619.847 315.96 621.834C317.15 624.596 317.226 626.968 316.111 629.799C311.865 634.595 208.973 683.256 202.193 684.383C199.699 682.215 199.508 679.378 198.592 676.243C198.045 674.084 197.764 672.727 198.514 670.591C217.043 659.189 238.786 650.936 258.542 641.779C271.03 635.99 283.881 628.488 296.864 624.157L298.449 625.108L299.089 628.19C299.657 630.851 299.602 632.748 302 634.3C304.664 633.951 307.527 632.537 309.454 630.634C314.31 625.84 310.618 622.732 310.77 617.158C310.773 617.013 310.785 616.868 310.792 616.724Z"/>
	<path fill="#231F20" transform="scale(0.25 0.25)" d="M672.414 446.931C671.599 437.69 673.703 429.491 679.834 422.32C685.12 416.136 692.593 411.967 700.766 411.373C709.104 410.768 717.205 413.845 723.358 419.437C736.496 431.375 733.204 448.424 737.776 464.048C742.559 466.757 749.688 470.398 751.875 475.63C751.815 478.337 750.119 480.02 748.51 482.017C748.262 489.54 756.686 491.579 754.5 499.621L753.031 500.918C750.386 500.541 745.546 498.258 743.423 499.778C741.583 501.094 740.85 502.685 738.466 503.272C735.37 499.336 737.958 495.862 731.826 494.217C729.544 495.091 727.547 496.571 725.202 495.362C718.588 491.953 713.992 477.603 710.097 471.146C703.999 467.027 690.624 469.251 683.004 464.503C677.133 460.845 673.916 453.361 672.414 446.931ZM676.766 442.946L672.414 446.931C673.916 453.361 677.133 460.845 683.004 464.503C690.624 469.251 703.999 467.027 710.097 471.146L713.245 467.898C715.345 469.657 717.465 471.549 719.847 472.914C722.13 474.223 722.583 474.591 725.142 473.896C723.698 468.312 718.881 463.219 715.318 458.779L712.743 458.93C706.05 459.295 699.598 459.716 694.31 454.757Q693.912 454.386 693.553 453.977Q693.194 453.568 692.878 453.125Q692.562 452.682 692.293 452.209Q692.023 451.737 691.802 451.239Q691.581 450.742 691.412 450.225Q691.242 449.708 691.125 449.177Q691.009 448.645 690.946 448.105Q690.883 447.564 690.875 447.02C690.835 443.598 692.376 440.265 694.793 437.885C697.133 435.579 700.547 434.279 703.826 434.367C709.942 434.53 713.336 438.041 717.39 442.132C718.22 452.253 720.329 458.974 727.556 466.487C729.039 468.029 729.034 468.17 731.176 468.208C732.899 459.227 728.255 435.904 723.855 427.632C720.582 421.48 714.129 417.976 707.569 416.053C702.418 414.543 697.317 414.916 692.615 417.581C683.166 422.935 679.583 433.148 676.766 442.946ZM699.035 438.834C697.363 441.947 695.528 444.718 696.62 448.364C697.253 450.481 698.91 452.03 700.862 452.972C704.057 454.513 707.575 454.922 711.066 455.161C712.744 452.431 713.282 449.557 712.482 446.406C711.789 443.673 708.94 441.069 706.458 439.883C704.22 438.814 701.47 438.884 699.035 438.834Z"/>
	<path fill="#231F20" fill-opacity="0.98823529" transform="scale(0.25 0.25)" d="M672.414 446.931L676.766 442.946C677.969 449.171 680.608 455.969 686.099 459.609C694.394 465.11 709.125 461.058 713.245 467.898L710.097 471.146C703.999 467.027 690.624 469.251 683.004 464.503C677.133 460.845 673.916 453.361 672.414 446.931Z"/>
	<path fill="#231F20" transform="scale(0.25 0.25)" d="M275.962 532.992C277.679 533.011 279.865 533.291 281.407 534.099C288.948 538.048 308.285 600.124 313 611.894C306.716 614.065 300.842 617.039 294.821 619.836C294.665 619.75 294.494 619.687 294.352 619.58C289.291 615.796 275.028 565.632 272.309 556.338C256.343 562.56 180.507 595.684 170.332 592.815L169.471 590.991C175.132 585.883 189.235 582.557 196.46 579.91C208.929 575.343 276.829 551.911 281.617 545.009C282.523 543.704 282.139 543.069 281.913 541.58C281.268 540.916 280.553 540.264 279.698 539.88C271.72 536.305 246.673 548.661 237.692 552.112C212.67 562.405 184.933 569.596 160.795 581.346Q162.502 583.434 163.951 585.709C168.63 593.144 170.851 605.17 173.779 613.641C177.285 623.784 181.363 634.063 185.164 644.118C187.612 650.595 191.054 656.261 193.105 662.983C194.839 668.663 199.002 680.815 197.197 686.527C196.567 688.521 195.102 690.12 193.156 690.824C190.47 691.796 187.057 690.857 184.552 689.718C181.84 688.485 178.79 686.242 177.186 683.716C170.403 673.042 161.046 637.997 155.878 623.504C152.685 614.55 148.544 605.95 145.451 596.961C144.241 593.446 143.378 588.939 145.351 585.5C151.032 575.597 256.172 539.637 275.962 532.992Z"/>
	<path fill="#231F20" transform="scale(0.25 0.25)" d="M1540.62 283.5Q1542.66 283.395 1544.71 283.418Q1546.13 283.423 1547.55 283.499Q1548.97 283.575 1550.38 283.721Q1551.79 283.866 1553.2 284.082Q1554.6 284.297 1556 284.582Q1557.39 284.866 1558.76 285.22Q1560.14 285.573 1561.5 285.993Q1562.85 286.414 1564.19 286.901Q1565.52 287.389 1566.83 287.941Q1568.14 288.494 1569.42 289.111Q1570.7 289.728 1571.95 290.407Q1573.2 291.086 1574.41 291.826Q1575.62 292.567 1576.8 293.366Q1577.97 294.165 1579.1 295.021Q1580.24 295.878 1581.33 296.789Q1582.42 297.7 1583.46 298.664Q1584.51 299.628 1585.5 300.643C1594.71 310.112 1600.23 322.73 1599.98 336.022C1599.66 352.617 1584.98 374.55 1573.12 385.861C1575.33 386.761 1578.19 387.643 1580.05 389.151C1581.82 390.597 1581.71 390.82 1581.87 392.975C1578.42 396.445 1572.69 394.792 1568.71 398.428C1568.27 402.75 1573.2 403.733 1573.56 408.969C1570.8 411.668 1566.63 411.782 1562.95 412.736C1558.31 413.938 1558.26 416.861 1555.93 420.352C1554.44 422.594 1551.78 422.95 1549.32 423.501C1548.33 423.84 1547.66 423.929 1546.6 423.889C1539.85 423.633 1535.6 416.78 1531.47 412.201C1528.59 410.331 1524.4 411.193 1522.02 408.395C1523.19 404.275 1527.99 402.95 1529.64 398.777C1526.41 394.309 1519.31 395.713 1515.95 391.008L1516.53 388.972C1518 388.375 1520.48 387.668 1521.35 386.283C1523.51 382.856 1497.9 349.534 1495.64 337.496C1493.58 326.465 1496.86 315.576 1503.12 306.451C1512.39 292.933 1524.84 286.367 1540.62 283.5ZM1542.28 287.499C1528.86 289.653 1517.43 294.75 1509.24 306.103C1502.52 315.415 1498.74 326.932 1500.68 338.409C1501.27 341.915 1502.17 345.526 1503.87 348.672C1506.8 354.065 1511.86 358.353 1515.48 363.334C1520.36 370.032 1524.47 378.01 1528.33 385.334C1534.86 387.55 1542.9 386.394 1549.75 386.117C1555.72 386.228 1561.57 386.263 1567.45 387.394C1570.93 383.607 1591.05 351.606 1592.84 346.872C1594.49 342.524 1594.71 336.821 1594.49 332.229C1593.89 319.685 1588.18 308.491 1578.81 300.203C1569.28 291.774 1555.74 286.459 1542.9 287.442C1542.69 287.457 1542.49 287.48 1542.28 287.499Z"/>
	<path fill="#231F20" transform="scale(0.25 0.25)" d="M1566.55 322.499C1567.94 322.217 1569.29 321.937 1570.72 322.002C1573.02 322.108 1574.15 322.609 1575.6 324.551C1577.28 326.807 1577.56 330.126 1576.94 332.796C1576.22 335.87 1574.37 338.962 1571.56 340.516C1567.19 342.926 1561.87 339.524 1557.44 338.301C1557.91 344.22 1552.82 355.432 1549.15 359.922C1546.82 362.772 1544.77 363.494 1541.22 363.89C1538.58 363.382 1536.03 362.911 1534.43 360.488C1532.48 357.54 1532.1 352.454 1532.76 349.057C1533.36 345.935 1535.1 342.838 1537.91 341.213C1541.79 338.966 1547.06 340.998 1550.99 342.216C1557.56 336.759 1559.63 328.09 1566.55 322.499ZM1539.13 345.498C1537.43 348.31 1535.66 351.363 1536.83 354.762C1537.2 355.849 1537.76 356.758 1538.42 357.683C1539.79 358.038 1540.9 358.631 1542.25 358.137C1544.55 356.95 1546.66 355.917 1547.57 353.268C1548.47 350.624 1547.93 349.441 1546.94 347.023C1544.67 345.38 1543.6 344.766 1540.65 345.183C1540.14 345.256 1539.64 345.384 1539.13 345.498Z"/>
	<path fill="#231F20" fill-opacity="0.98823529" transform="scale(0.25 0.25)" d="M329.932 244.136C350.412 245.553 369.196 256.01 386.06 267.011C389.783 261.467 394.305 255.307 399.56 251.152C401.38 249.713 402.744 248.545 405.094 248.814C405.584 255.099 395.965 265.536 392.164 270.617C403.942 281.193 415.022 294.613 421.33 309.248C427.986 324.69 429.573 339.229 423.322 355.005C419.153 359.523 415.108 362.912 409.143 364.791C390.221 370.751 365.962 362.612 349.027 353.961Q348.069 353.482 347.124 352.979Q346.179 352.476 345.246 351.951Q344.313 351.425 343.394 350.876Q342.474 350.327 341.569 349.756Q340.663 349.185 339.772 348.591Q338.88 347.998 338.004 347.382Q337.128 346.767 336.267 346.13Q335.406 345.494 334.561 344.836Q333.716 344.178 332.888 343.5Q332.059 342.821 331.248 342.122Q330.437 341.424 329.643 340.705Q328.849 339.987 328.073 339.249Q327.297 338.511 326.539 337.754Q325.782 336.997 325.043 336.222Q324.305 335.447 323.585 334.653Q322.866 333.86 322.167 333.049Q321.467 332.239 320.788 331.411Q320.109 330.583 319.451 329.739Q318.792 328.894 318.155 328.034Q317.517 327.174 316.901 326.298Q316.285 325.422 315.691 324.531Q315.096 323.641 314.524 322.736Q313.952 321.83 313.403 320.911Q312.853 319.992 312.326 319.06Q311.8 318.128 311.296 317.183Q310.793 316.238 310.312 315.281Q309.832 314.324 309.376 313.355Q308.92 312.386 308.488 311.407Q308.055 310.427 307.647 309.437Q307.239 308.447 306.856 307.447Q306.473 306.447 306.114 305.438Q305.756 304.43 305.422 303.412C300.33 287.39 308.717 273.024 316.253 258.675C319.505 252.483 322.925 246.295 329.932 244.136ZM329.429 248.072C322.841 260.462 325.199 276.304 329.19 289.268C335.612 310.127 350.526 330.75 370.065 340.953C380.392 346.346 403.997 356.667 415.441 352.817Q415.988 352.639 416.513 352.405Q417.038 352.172 417.535 351.885Q418.033 351.598 418.499 351.26Q418.964 350.923 419.392 350.539Q419.819 350.155 420.205 349.729Q420.59 349.303 420.929 348.839Q421.268 348.375 421.557 347.878Q421.846 347.381 422.082 346.857C426.143 337.974 421.099 322.261 417.647 313.558C412.284 300.038 402.928 287.37 392.888 276.947C391.13 276.594 389.6 275.856 387.97 276.934C383.501 279.89 376.601 294.833 376.071 300.156C376.019 300.676 375.987 301.199 375.969 301.722C381.051 306.878 386.675 310.751 391.262 316.447C388.012 314.708 383.508 311.652 379.894 311.097C375.294 310.391 370.187 313.028 365.748 312.469C359.928 311.737 354.206 293.676 352.617 288.366C351.585 284.92 350.35 280.477 351.175 276.893C351.964 276.778 352.257 276.522 352.933 277.016C360.158 282.296 363.939 292.383 368.446 299.851C371.689 289.237 377.727 280.709 383.986 271.654C368.322 261.316 348.008 251.432 329.429 248.072Z"/>
	<path fill="#231F20" transform="scale(0.25 0.25)" d="M1226 505.494C1226.64 505.815 1227.22 506.148 1227.7 506.712C1233.8 513.941 1232.33 547.012 1231.37 556.616C1229.48 575.392 1216.72 624.451 1201.9 636.528C1210.76 631.48 1214.94 625.141 1221.47 617.761C1230.92 607.09 1244.38 598.67 1257.7 593.792C1268.1 589.985 1296.7 583.826 1306.55 588.362L1305.63 588.946L1305.74 589.913C1290.01 605.835 1273.4 621.054 1253.2 631.143C1241.81 636.832 1209.04 644.463 1202.79 652.123C1198.66 657.175 1187.02 727.521 1187.81 737.866C1188.15 742.216 1191.96 740.72 1195.37 740.617C1213.27 740.078 1255.47 741.19 1269.11 754.054C1271.14 755.971 1271.56 757.123 1271.69 759.836C1270.95 761.135 1270.21 761.766 1268.92 762.534C1263.26 765.891 1254.66 767.022 1248.25 768.167C1207.72 775.405 1148.68 776.028 1109.15 765.795C1105.83 762.692 1100.41 760.653 1096.24 758.846C1102.08 756.661 1107.42 753.534 1113.39 751.586C1134.96 744.552 1157.71 743.339 1180.09 740.731C1183.39 736.422 1192.8 666.172 1193.69 656.064L1192.96 656.549C1193.05 656.263 1193.64 654.658 1193.58 654.497C1192.81 652.13 1183.84 647.408 1181.25 645.725C1178.85 644.159 1176.32 642.665 1174.24 640.663C1165.28 632.019 1130.41 591.281 1125.62 581.562L1126.56 580.405C1130.82 578.95 1136.18 580.684 1140.34 581.963C1157.07 587.1 1177.68 597.249 1186.01 613.328C1188.73 618.592 1194.73 633.77 1192.93 639.273L1190.5 638.752L1189.71 639.517C1189.79 639.731 1189.87 639.947 1189.96 640.159C1191.32 643.49 1193.82 647.659 1197.26 649.049C1197.81 648.565 1198.21 648.11 1198.5 647.422C1203.21 636.323 1218.85 559.575 1216.43 553.635L1216.96 553.276C1216.41 553.92 1215.77 554.585 1215.4 555.353C1207.59 571.347 1210.22 608.907 1200.53 620.604L1199.11 620.261C1198.63 619.139 1198.17 617.983 1197.86 616.806C1191.46 593.023 1193.05 565.63 1204.02 543.458C1210.47 530.406 1218.99 518.273 1226 505.494Z"/>
	<path fill="#231F20" transform="scale(0.25 0.25)" d="M329.703 530.288C330.512 530.69 331.084 531.067 331.734 531.711C338.536 538.459 344.046 546.679 350.65 553.684C405.08 611.421 388.028 618.769 390.174 690.371C393.99 676.987 399.591 663.106 406.012 650.798C414.406 634.707 437.555 604.744 455.559 599.111L456.074 600.184C455.909 614.358 450.622 632.093 445.438 645.15C435.352 670.551 414.874 699.439 389.175 710.56C392.107 723.871 395.641 736.746 400.029 749.64C412.169 748.872 424.539 749.15 436.71 749.022C436.721 753.459 436.467 757.743 438.335 761.877L439.532 762.062C441.062 758.723 440.84 754.871 440.921 751.263L440.601 749.635C444.486 748.106 450.085 749.065 454.226 749.252C454.512 751.523 454.75 753.856 455.279 756.083C455.689 757.809 455.86 759.68 457.394 760.634C458.675 757.017 458.241 753.493 457.989 749.73C464.972 749.833 472.149 750.309 479.047 751.405C485.972 752.505 494.939 753.998 499.273 759.992C499.502 762.119 499.831 762.897 498.525 764.734C496.298 767.865 491.291 769.346 487.725 770.093C459.304 776.052 347.066 782.225 324.608 766.979C322.778 765.736 322.687 765.269 322.26 763.209C322.473 762.85 322.542 762.711 322.827 762.356C330.083 753.302 381.663 750.649 393.107 749.727C389.026 717.578 377.746 713.46 361.238 689.108C352.661 676.456 346.443 662.25 341.45 647.846C328.554 610.644 332.333 569.145 329.703 530.288Z"/>
	<path fill="#231F20" transform="scale(0.25 0.25)" d="M892.631 398.149C925.095 397.777 959.139 404.354 991.482 407.64C1038.36 412.404 1087.71 413.573 1133.63 424.095C1140.27 425.615 1157.37 429.679 1161.1 435.605C1161.13 435.798 1161.17 435.99 1161.2 436.183C1163.17 449.724 1156.04 472.34 1154.17 486.229C1153.1 494.205 1153.15 502.481 1151.67 510.374C1151.19 512.918 1150.62 515.079 1149.11 517.216C1164.48 511.053 1177.98 499.146 1192.93 491.718C1202.4 487.016 1214.59 483.563 1224.92 487.501C1227.26 488.394 1227.93 489.188 1228.93 491.323C1226.26 497.744 1220.92 503.765 1217.08 509.6C1209.77 520.686 1201.41 534.966 1197.02 547.616C1194.22 555.722 1192.5 564.573 1191.42 573.068C1190.29 582.032 1192.07 598.49 1187.32 606.011C1187.01 604.656 1186.63 603.432 1185.81 602.285C1174.76 586.772 1153.45 578.86 1135.61 574.922Q1136.35 573.818 1136.91 572.614C1139.16 567.813 1139.39 559.845 1140.2 554.511C1142.15 541.794 1144.8 529.094 1146.24 516.311C1147.25 507.398 1147.08 498.358 1148.32 489.471C1150.36 474.852 1154.34 460.652 1155.8 445.872C1156.03 443.47 1155.9 441.559 1155.09 439.283C1154.93 439.023 1154.79 438.756 1154.62 438.502C1151.3 433.426 1138.86 430.199 1133.06 428.918C1135.65 434.1 1117.83 536.089 1115.57 554.369C1114.18 565.621 1114.06 576.952 1113.03 588.227C1112.37 595.419 1110.38 603.581 1111.06 610.728C1117.13 613.306 1125.82 613.623 1132.41 614.634C1132.73 614.034 1133.01 613.494 1133.22 612.841C1134.55 608.66 1133.29 604.249 1131.48 600.45C1148.09 608.309 1154.94 627.647 1167.59 639.808C1173.89 645.869 1182.01 650.031 1188.53 655.945L1188.13 656.7C1178.11 660.018 1151.35 631.495 1140.68 626.636C1134.94 624.019 1128.84 623.737 1122.65 623.404C1122.57 623.841 1122.5 624.272 1122.37 624.697C1119.18 634.922 1108.17 645.796 1101.3 653.892C1069.84 690.942 1029.58 705.141 982.817 711.747C964.251 714.37 944.722 717.054 927.994 726.058C901.961 740.07 890.896 774.968 859.745 779.152C848.078 780.719 835.751 778.108 824.458 775.346C769.679 761.946 730.437 736.057 670.736 758.084C657.333 763.029 646.574 772.549 633.91 778.936C635.915 775.78 638.001 772.956 640.78 770.433C679.291 735.466 740.773 743.091 786.233 757.088C806.971 763.473 829.976 773.691 851.728 774.739C884.524 776.319 893.211 743.218 915.74 727.113C961.707 694.254 1024.67 719.338 1085.36 663.672C1091.05 658.451 1117.58 627.51 1117.82 622.264C1087.03 619.422 1055.64 618.893 1024.75 617.152C978.813 614.736 778.044 605.403 748.974 617.871C732.298 625.022 716.004 648.115 705.11 662.494C686.185 687.471 668.345 714.928 638.178 727.196C609.67 738.79 585.782 725.671 560.044 733.408C547.007 737.327 543.627 752.841 535.359 754.907L534.208 753.609C534.352 748.168 539.194 742.2 542.979 738.65C560.078 722.615 583.359 727.288 604.544 727.914C656.802 729.461 677.296 686.913 705.947 651.5C715.956 639.128 728.412 628.403 739.972 617.474C688.077 623.368 636.187 629.58 585.059 640.493C535.209 651.133 486.13 665.948 435.953 674.998C451.553 652.046 464.02 615.935 460.252 588.056C436.496 602.812 408.807 626.368 398.131 652.823C396.466 624.481 393.038 605.567 381.049 579.725C385.768 537.475 379.976 480.718 404.961 444.511C407.446 440.909 410.74 437.102 415.347 436.462C422.63 435.452 429.151 441.838 433.714 446.692C443.451 457.051 451.748 469.238 458.426 481.765C465.402 494.849 482.311 545.086 493.014 551.13C494.427 551.928 495.81 552.272 497.366 551.853C505.074 549.777 512.355 527.605 516.424 520.438C521.549 511.413 528.909 502.26 539.378 499.536C547.699 497.371 556.128 500.043 563.416 504.092C594.508 521.367 605.262 558.44 625.089 569.446C635.847 575.417 648.272 567.071 658.721 564.025C683.475 556.81 701.296 578.905 714.585 596.127C718.406 601.078 722.743 607.992 728.366 610.941C731.67 612.673 735.734 612.841 739.388 612.775C759.457 612.409 779.569 608.479 799.692 607.921C809.597 607.646 833.58 609.234 841.672 606.336C845.243 605.058 842.456 599.105 841.746 596.222C839.182 585.81 820.109 502.887 822.338 499.123C826.781 491.617 873.651 472.877 884.012 469.363C884.787 456.558 887.816 407.195 892.631 398.149ZM895.652 403.651C893.868 410.482 893.834 417.609 893.145 424.607C891.203 444.321 890.071 463.81 888.884 483.568Q886.624 518.101 885.45 552.687C885.061 563.561 883.937 574.681 884.871 585.529C936.007 593.271 987.938 597.578 1039.37 603.138C1060.1 605.38 1084.39 606.524 1104.57 610.894C1106.32 608.749 1106.77 606.298 1106.42 603.582C1106.34 602.877 1106.18 602.185 1106.01 601.496C1109.12 597.195 1110.36 558.255 1111.32 549.814Q1115.79 512.937 1121.66 476.257C1123.46 465.351 1130.03 438.579 1129.32 429.047C1129.28 428.487 1129.17 428.331 1128.97 427.878C1102.81 422.785 1075.96 421.05 1049.46 418.664L955.839 410.248C935.809 408.617 915.687 404.223 895.652 403.651ZM881.356 475.938C863.001 483.838 844.377 491.596 826.722 500.985C828.568 507.397 829.41 514.039 830.878 520.543C834.843 538.105 838.641 555.496 841.889 573.205C842.927 578.864 845.116 585.62 845.444 591.272Q846.84 598.208 848.549 605.074C858.567 599.219 868.54 592.836 878.999 587.809C879.449 576.736 883.899 477.712 882.678 475.769L881.356 475.938Z"/>
	<path fill="#231F20" transform="scale(0.25 0.25)" d="M912.425 426.294C921.204 424.846 932.336 425.542 940.779 428.36C944.865 429.724 946.658 430.971 948.59 434.831C940.088 436.056 923.447 436.194 916.027 431.661C913.668 430.22 913.051 428.824 912.425 426.294Z"/>
	<path fill="#231F20" transform="scale(0.25 0.25)" d="M1004.42 459.27C1015.45 458.573 1027.97 462.131 1036.95 468.396C1046.79 475.265 1052.71 485.743 1054.65 497.489Q1054.85 498.604 1054.98 499.727Q1055.12 500.851 1055.21 501.979Q1055.29 503.108 1055.32 504.24Q1055.34 505.371 1055.31 506.503Q1055.28 507.635 1055.2 508.763Q1055.11 509.892 1054.97 511.015Q1054.82 512.137 1054.63 513.252Q1054.43 514.366 1054.17 515.469Q1053.92 516.572 1053.61 517.661Q1053.3 518.75 1052.94 519.822Q1052.57 520.894 1052.16 521.947Q1051.74 522.999 1051.27 524.03Q1050.8 525.06 1050.29 526.066Q1049.77 527.072 1049.2 528.05Q1048.63 529.029 1048.01 529.977Q1047.39 530.926 1046.73 531.843C1038.37 543.293 1026.29 548.729 1012.64 550.742C1001.68 551.898 988.848 548.286 979.914 542.054C970.09 535.2 963.848 524.628 961.832 512.891C959.764 500.85 961.738 488.603 968.976 478.597C977.675 466.573 990.343 461.581 1004.42 459.27ZM1023.42 483.737C1019.25 489.418 1006.28 505.307 999.328 506.262C997.114 506.566 994.446 503.942 992.871 502.62C991.664 501.608 990.641 501.783 989.092 501.633L986.478 502.906C986.099 505.507 986.822 506.748 988.376 508.88C990.548 511.86 993.523 514.478 996.261 516.93C997.072 517.413 998.562 518.654 999.458 518.45C1008.07 516.493 1024.71 499.647 1029.17 492.147C1030.57 489.799 1030.86 488.602 1030.44 485.943C1028.61 484.125 1026.61 483.722 1024.1 483.689C1023.87 483.686 1023.65 483.721 1023.42 483.737Z"/>
	<path fill="#231F20" transform="scale(0.25 0.25)" d="M1804.4 397.5C1822.66 396.067 1842.11 399.694 1857.71 409.569C1882.07 425.003 1895.54 454.223 1901.59 481.522C1914.24 538.597 1889.01 608.984 1850.91 651.923C1842.08 661.882 1832.77 671.789 1821.67 679.227C1819.42 680.73 1817.47 681.815 1815.98 684.151C1819.94 687.147 1868.55 681.855 1879.44 683.759L1880.24 685.761L1880.84 684.94L1880.44 684.194L1878.11 687.017C1862.74 690.541 1847.15 689.286 1831.5 689.952C1815.03 690.653 1798.6 691.878 1782.11 692.224C1752.98 692.835 1723.69 692.213 1694.55 692.015C1690.86 696.086 1685.97 699.585 1681.97 703.484C1635.23 749.043 1592.69 760.269 1528.95 762.542Q1516.92 762.94 1504.88 762.781Q1492.84 762.622 1480.82 761.907Q1468.8 761.192 1456.83 759.922Q1444.85 758.653 1432.95 756.831C1398.31 751.547 1346.68 741.555 1313.31 753.969C1306.41 756.537 1301.42 762.751 1295.33 766.684C1293.4 767.929 1292.28 767.746 1290.23 767.203L1290.37 765.604C1322.75 725.301 1417.8 751.54 1461.61 755.635C1512.89 760.429 1583.97 761.401 1630.33 736.691C1641.48 730.745 1681.74 705.478 1684.98 693.458C1685.02 693.3 1685.05 693.138 1685.08 692.978C1673.7 691.607 1660.99 692.75 1649.48 692.871C1627.6 693.103 1605.84 693.221 1583.98 692.058C1584.37 692.817 1584.62 693.311 1584.74 694.166C1585.68 700.866 1582.33 708.394 1577.91 713.235C1574.41 717.077 1569.4 720.429 1564.16 721.195C1547.82 723.584 1528.09 719.403 1511.48 718.489Q1473.63 716.335 1435.75 717.809C1427.39 718.304 1418.38 719.314 1410.06 718.236C1375.96 713.82 1394.93 682.735 1386.27 671.868C1377.58 660.97 1261.91 645.203 1241.28 642.637C1248.9 640.7 1255.47 637.286 1262.15 633.247C1273.69 626.271 1310.84 597.44 1314.02 584.613L1312.75 583.447C1291.84 577.795 1261.28 584.913 1243.02 596.042C1235.1 600.87 1227.86 607.468 1219.5 611.439L1218.62 611.846C1235.44 596.047 1237.06 554.985 1235.54 533.574C1234.87 524.029 1228.88 501.37 1232.38 493.638C1240.62 491.585 1264.53 518.519 1273.07 522.965C1283.9 528.598 1299.11 526.77 1309.59 521.104C1318.68 516.187 1327.13 507.856 1334.64 500.795C1355.8 480.895 1378.91 456.269 1407.62 447.876C1413.26 446.23 1419.68 445.454 1425 448.497C1429.68 451.175 1432.3 456.191 1433.66 461.242C1439.84 484.095 1430.45 511.006 1429.43 534.255C1428.97 544.942 1432.89 582.11 1428.92 589.106C1449.1 590.652 1469.56 591.633 1489.8 591.843C1510.07 592.053 1546.11 588.933 1564.49 591.812C1568.36 592.418 1572.26 594.027 1575.92 595.39C1576.06 595.458 1576.21 595.516 1576.34 595.596C1590.55 604.136 1582.88 627.535 1586.13 640.591C1586.84 643.45 1587.94 644.977 1590.47 646.512C1609.99 650.952 1627.3 621.105 1642.46 613.911C1646.11 612.175 1650.2 611.54 1654.07 613.004C1671.24 619.512 1675.28 670.592 1683.23 686.956C1683.69 687.915 1684.42 688.096 1685.44 688.372C1690.81 689.82 1698.73 686.835 1703.43 684.339C1706.13 680.284 1703.18 676.893 1700.33 673.64C1695.88 668.559 1690.64 663.916 1686.48 658.631C1676.52 645.997 1671.49 625.213 1669.17 609.72C1661.27 556.833 1678.3 495.536 1710.04 452.899C1734.05 420.649 1764.94 403.198 1804.4 397.5ZM1804.34 422.499C1769.79 429.812 1743.54 452.675 1724.62 481.832C1701.55 517.381 1688.89 566.051 1697.99 608.069C1702.11 627.131 1710.46 646.683 1727.4 657.655C1738.36 664.75 1749.06 666.437 1761.86 665.887C1792.16 663.436 1816.57 646.032 1835.82 623.311C1861.25 593.309 1876.96 549.726 1873.59 510.259C1871.41 484.815 1864.43 452.242 1843.88 435.032C1834.12 426.856 1821.27 420.875 1808.33 422.068Q1806.33 422.256 1804.34 422.499ZM1410.08 593.499C1404.12 594.502 1400.15 595.296 1396.57 600.475C1386.3 615.303 1392.09 651.86 1392.94 669.881C1393.35 678.483 1392.38 687.649 1394.09 696.101C1394.98 700.48 1396.66 707.543 1400.53 710.323C1404.23 712.984 1409.97 713.686 1414.38 713.932C1426.34 714.598 1438.45 713.594 1450.41 713.221Q1471.45 712.771 1492.49 713.052C1514.78 713.33 1536.9 716.451 1559.17 716.84C1565.55 716.095 1570.91 714.72 1575.13 709.532C1585 697.402 1582.57 636.083 1580.36 618.749C1579.58 612.651 1577.84 602.538 1572.75 598.607C1566.2 593.546 1544.48 596.042 1536.21 596.273C1514.08 596.893 1491.85 597.633 1469.72 596.525C1451.61 595.618 1427.49 591.359 1410.08 593.499ZM1866.97 426.498C1863.94 431.589 1859.69 436.127 1855.01 439.73C1866.41 447.086 1871.96 471.89 1874.65 484.292Q1875.09 486.278 1875.48 488.274Q1875.87 490.269 1876.21 492.275Q1876.55 494.28 1876.84 496.292Q1877.13 498.305 1877.37 500.325Q1877.61 502.344 1877.8 504.369Q1878 506.394 1878.14 508.423Q1878.27 510.452 1878.36 512.484Q1878.45 514.516 1878.49 516.549Q1878.53 518.583 1878.52 520.616Q1878.51 522.65 1878.44 524.683Q1878.38 526.716 1878.27 528.746Q1878.16 530.777 1877.99 532.804Q1877.83 534.832 1877.62 536.854Q1877.4 538.877 1877.14 540.893Q1876.87 542.91 1876.56 544.919Q1876.24 546.928 1875.88 548.929Q1875.52 550.93 1875.1 552.922Q1874.69 554.913 1874.23 556.893Q1873.76 558.873 1873.25 560.842Q1872.74 562.81 1872.18 564.765Q1871.62 566.72 1871.01 568.66Q1870.4 570.6 1869.74 572.525Q1869.08 574.449 1868.38 576.357Q1867.67 578.264 1866.92 580.154Q1866.17 582.043 1865.37 583.913Q1864.57 585.784 1863.72 587.633Q1862.88 589.483 1861.99 591.311Q1861.09 593.139 1860.16 594.944Q1859.22 596.75 1858.24 598.531Q1857.26 600.313 1856.23 602.069Q1855.21 603.826 1854.14 605.556Q1853.07 607.287 1851.96 608.99C1844.26 620.854 1833.52 636.463 1822.4 645.407C1817.71 649.174 1808.83 651.722 1805.36 656.225C1802.38 660.094 1802.34 665.521 1803.36 670.085C1804.2 673.855 1805.59 678.32 1808.82 680.501C1835.53 671.154 1866.23 627.147 1877.95 602.671C1898.51 559.77 1906.97 508.069 1890.7 462.429C1887.41 453.216 1879.08 430.933 1869.8 427.059C1868.89 426.68 1867.93 426.613 1866.97 426.498ZM1834.97 406.499Q1833.18 409.963 1831.02 413.204Q1828.85 416.445 1826.34 419.423C1831.75 421.693 1837.66 424.002 1842.33 427.609C1844.24 429.084 1848.13 434.044 1850.35 434.564C1851 434.717 1851.69 434.575 1852.36 434.58C1856.82 431.008 1860.73 426.572 1863.04 421.297C1860.94 415.884 1852.49 411.604 1847.43 409.383C1843.34 407.587 1839.52 406.047 1834.97 406.499ZM1734.97 669.499C1736.97 672.374 1737.88 674.094 1737.25 677.744C1736.67 681.108 1735.61 684.472 1734.43 687.672C1741 688.009 1751.12 689.196 1757.24 687.343C1760.03 686.196 1761.18 685.972 1762.47 683.001C1763.68 680.229 1762.98 675.772 1761.93 672.998C1761.65 672.271 1761.63 672.283 1761.29 671.722C1753.13 670.689 1743.06 668.377 1734.97 669.499ZM1406.57 503.493C1405.81 510.145 1404.74 524.711 1399.9 529.424C1394.64 529.454 1389.38 529.125 1384.48 531.332L1383.24 532.825C1385.34 534.861 1388.67 535.21 1391.49 535.157C1393.84 535.113 1396.18 534.923 1398.52 534.726C1397.81 539.936 1394.82 551.902 1390.67 555.23C1390.55 555.326 1390.42 555.413 1390.3 555.504C1392.64 556.71 1393.2 557.258 1395.88 556.767C1400.52 552.91 1403.55 542.587 1404.03 536.695Q1404.13 535.606 1404.1 534.513C1408.47 534.103 1412.69 533.898 1416.72 531.984L1416.43 530.872C1412.77 529.624 1409.22 529.247 1405.38 528.883C1409.3 523.607 1411.4 512.494 1411.41 506.058L1410.16 504.026L1406.57 503.493Z"/>
	<path fill="#231F20" transform="scale(0.25 0.25)" d="M1410.47 614.498C1414.74 614.113 1422.08 614.418 1425.57 617.137C1424.27 618.838 1423.25 618.713 1421.22 619.216C1419.16 620.211 1415.58 620.263 1413.37 619.756C1411.06 619.226 1410.61 618.805 1409.47 616.93L1410.47 614.498Z"/>
	<path fill="#231F20" fill-opacity="0.98431373" transform="scale(0.25 0.25)" d="M1408.72 678.498C1411.6 678.078 1414.74 677.877 1417.55 678.803C1419.84 679.558 1421.21 679.867 1422.34 682.085C1420.89 683.789 1419.14 684.013 1417.07 684.502C1416.91 684.543 1416.74 684.588 1416.57 684.626C1413.92 685.207 1410.1 685.105 1407.79 683.521C1406.57 682.687 1406.77 682.122 1406.57 680.745L1408.72 678.498Z"/>
	<path fill="#231F20" transform="scale(0.25 0.25)" d="M1407.46 639.499C1410.24 638.906 1412.89 638.533 1415.75 638.73C1418.5 638.919 1421.36 639.487 1423.17 641.567C1422.09 643.476 1420.24 643.926 1418.3 644.681C1415.86 645.82 1412.51 646.039 1409.89 645.282C1407.49 644.587 1407.24 644.102 1406.18 642.03L1407.46 639.499Z"/>
	<path fill="#231F20" transform="scale(0.25 0.25)" d="M1406.73 658.499Q1407.42 658.416 1408.11 658.358C1413.28 657.934 1420.86 657.342 1425.02 660.787C1423.67 662.77 1422.4 662.928 1420.26 663.757C1419.75 664.033 1419.64 664.12 1419.01 664.298C1415.4 665.308 1410 665.371 1406.76 663.316C1405.45 662.487 1405.6 662.115 1405.27 660.621L1406.73 658.499Z"/>
	<path fill="#231F20" transform="scale(0.25 0.25)" d="M1549.63 681.498C1551.45 681.318 1553.1 681.319 1554.79 682.12C1557.12 683.217 1559.05 685.567 1559.73 688.045Q1559.88 688.591 1559.97 689.148Q1560.06 689.706 1560.09 690.271Q1560.12 690.835 1560.09 691.399Q1560.07 691.964 1559.98 692.522Q1559.89 693.081 1559.75 693.628Q1559.61 694.174 1559.41 694.703Q1559.21 695.232 1558.96 695.737Q1558.7 696.243 1558.4 696.719C1556.59 699.536 1554.18 700.187 1551.14 700.994C1550.08 700.798 1549.02 700.582 1548.03 700.146C1545.54 699.044 1544.59 697.458 1543.55 695.081C1543.78 689.425 1546.3 685.907 1549.63 681.498Z"/>
	<path fill="#231F20" transform="scale(0.25 0.25)" d="M1543.4 603.499C1549.45 602.788 1555.01 602.364 1560.19 606.139C1563.36 608.453 1565.51 611.784 1566.12 615.677C1566.79 620.018 1565.57 624.329 1562.86 627.768C1559.28 632.314 1554.81 634.075 1549.23 634.759C1547.99 634.724 1546.77 634.45 1545.57 634.178C1540.64 633.062 1533.63 630.26 1530.99 625.589C1529.37 622.727 1529.08 619.864 1529.88 616.713C1531.66 609.67 1537.6 606.833 1543.4 603.499ZM1543.49 608.499C1539.59 611.795 1535.85 614.477 1535.42 619.94C1535.31 621.399 1535.74 623.278 1536.76 624.372C1539.19 626.978 1543.93 628.931 1547.49 629.089C1547.64 629.096 1547.79 629.092 1547.94 629.094C1552.11 628.665 1554.72 628.211 1557.56 624.806C1559.67 622.275 1560.9 619.148 1560.39 615.811C1559.98 613.187 1558.35 610.706 1556.14 609.267C1552.49 606.903 1547.52 607.678 1543.49 608.499Z"/>
	<path fill="#231F20" fill-opacity="0.98823529" transform="scale(0.25 0.25)" d="M1546.04 612.498C1549.25 612.198 1550.92 612.689 1553.49 614.512C1554.45 616.698 1555.31 618.091 1554.14 620.472C1552.82 623.138 1550.57 623.389 1548.02 624.154C1546.78 623.942 1545.27 623.542 1544.23 622.793C1542.08 621.247 1541.92 619.882 1541.53 617.485C1542.67 614.594 1543.56 614.201 1546.04 612.498Z"/>
	<path fill="#231F20" transform="scale(0.25 0.25)" d="M1475.55 617.499C1478.54 617.157 1481.48 616.959 1484.47 617.477C1491.68 618.726 1504.8 624.41 1508.92 630.625C1511.22 634.094 1508.88 639.284 1508.24 643.184L1510.94 645.979C1513.91 645.983 1514.06 642.711 1516.27 640.675L1518.57 641.496C1521.19 644.173 1522.81 646.707 1523.62 650.409C1525.8 660.322 1522.2 672.534 1516.81 680.875C1511.42 689.201 1503.99 695.25 1494.21 697.255C1493.92 697.412 1493.64 697.592 1493.34 697.724C1485.84 701.051 1472.95 698.067 1465.98 694.569Q1465.01 694.091 1464.06 693.565Q1463.11 693.038 1462.18 692.464Q1461.26 691.891 1460.37 691.271Q1459.48 690.652 1458.62 689.988Q1457.76 689.325 1456.94 688.619Q1456.11 687.913 1455.32 687.166Q1454.54 686.419 1453.79 685.633Q1453.04 684.848 1452.33 684.025Q1451.62 683.203 1450.96 682.346Q1450.29 681.489 1449.67 680.599Q1449.04 679.71 1448.47 678.79Q1447.89 677.87 1447.36 676.922Q1446.83 675.974 1446.35 675.001Q1445.87 674.028 1445.44 673.031Q1445.01 672.035 1444.63 671.018Q1444.25 670.002 1443.92 668.967Q1443.64 668.072 1443.4 667.164Q1443.16 666.256 1442.96 665.338Q1442.77 664.419 1442.62 663.492Q1442.47 662.565 1442.37 661.631Q1442.27 660.698 1442.22 659.76Q1442.16 658.823 1442.15 657.884Q1442.15 656.945 1442.18 656.007Q1442.22 655.069 1442.31 654.134Q1442.4 653.199 1442.53 652.27Q1442.66 651.34 1442.84 650.418Q1443.02 649.496 1443.24 648.585Q1443.47 647.673 1443.74 646.774Q1444.01 645.875 1444.32 644.99Q1444.64 644.105 1445 643.237Q1445.35 642.37 1445.76 641.521Q1446.16 640.672 1446.6 639.844C1452.92 627.809 1463.01 621.469 1475.55 617.499ZM1474.79 642.498C1469.97 647.6 1467.77 651.106 1468 658.261C1468.17 663.535 1469.61 669.879 1473.86 673.437C1477.46 676.452 1482.75 676.836 1487.25 676.106C1487.86 676.007 1488.26 675.785 1488.8 675.502C1492.47 674.333 1495.11 673.396 1496.99 669.75C1498.9 666.08 1498.73 661.815 1497.43 657.979C1495.46 652.196 1490.85 646.594 1485.29 643.957C1481.74 642.269 1478.69 641.938 1474.79 642.498ZM1497.18 626.501L1496.83 629.103C1495.76 629.617 1495.16 630.115 1493.95 629.993C1491.27 629.724 1488.49 629.482 1486.21 631.202C1486.54 633.694 1486.45 635.428 1488.68 637.084C1489.16 637.444 1489.68 637.769 1490.19 638.093C1493.85 639.537 1495.82 640.814 1499.77 640.233C1501.74 638.683 1502.88 638.081 1503.11 635.369C1503.3 633.018 1501.98 629.579 1501.1 627.445C1499.57 626.678 1498.88 626.4 1497.18 626.501Z"/>
	<path fill="#FEFEFE" fill-opacity="0.0078431377" transform="scale(0.25 0.25)" d="M1474.79 642.498C1478.69 641.938 1481.74 642.269 1485.29 643.957C1490.85 646.594 1495.46 652.196 1497.43 657.979C1498.73 661.815 1498.9 666.08 1496.99 669.75C1495.11 673.396 1492.47 674.333 1488.8 675.502C1488.26 675.785 1487.86 676.007 1487.25 676.106C1482.75 676.836 1477.46 676.452 1473.86 673.437C1469.61 669.879 1468.17 663.535 1468 658.261C1467.77 651.106 1469.97 647.6 1474.79 642.498Z"/>
	<path fill="#231F20" transform="scale(0.25 0.25)" d="M1474.17 647.498C1475.91 647.352 1477.81 647.391 1479.51 647.813C1484.39 649.021 1490.28 653.974 1492.63 658.352C1493.65 660.238 1494.26 662.565 1493.53 664.655C1492.62 667.239 1490.91 668.37 1488.55 669.5C1487.92 670.22 1488.11 670.191 1487.41 670.507C1484.82 671.687 1481.86 672.945 1479.09 671.677C1475.42 669.99 1473.73 666.018 1472.56 662.41C1470.84 657.071 1471.63 652.392 1474.17 647.498Z"/>
	<path fill="#231F20" fill-opacity="0.98823529" transform="scale(0.25 0.25)" d="M1815.42 469.499C1817.07 469.409 1817.64 469.628 1819.02 470.394C1819.38 471.144 1819.72 471.965 1819.83 472.796C1820.97 481.992 1810.14 533.916 1805.23 540.722C1813.57 541.654 1825.26 541.85 1832.52 546.168C1832.41 546.774 1832.42 546.965 1832.21 547.498C1830.67 551.553 1756.18 611.864 1750.34 614.264C1750.19 614.511 1750.08 614.789 1749.89 615.004C1748.7 616.359 1747.15 616.582 1745.5 616.574C1746.29 609.307 1750.92 601.083 1752.94 593.816C1755.31 585.243 1763.62 561.351 1759.49 554.063C1752.93 550.939 1743.97 550.518 1736.77 549.41C1744.77 546.242 1753.73 535.988 1760.11 530.021C1768.74 521.953 1815.13 478.039 1815.42 469.499ZM1810.78 484.496C1804.64 495.182 1756.84 541.992 1746.36 547.326C1752.76 548.116 1761.42 548.229 1766.52 552.623C1770.35 562.119 1752.64 599.228 1757.04 604.081C1757.91 603.371 1758.71 602.82 1759.32 601.859C1764.04 599.759 1822.26 550.979 1823.33 548.423C1815.67 546.385 1807.75 546.05 1800.01 544.399C1802.62 540.372 1812.37 492.756 1813.97 485.672C1812.79 484.658 1812.25 484.612 1810.78 484.496Z"/>
</svg>
