<svg version="1.1" xmlns="http://www.w3.org/2000/svg" viewBox="0 0 565.6000366210938 281.6000061035156" width="565.6000366210938" height="281.6000061035156" filter="invert(93%) hue-rotate(180deg)" class="excalidraw-svg">
  <!-- svg-source:excalidraw -->
  
  <defs>
    <style class="style-fonts">
      
    </style>
    
  </defs>
  <g stroke-opacity="0.4" fill-opacity="0.4" transform="translate(56.39996337890625 57.199981689453125) rotate(0 244.80001831054688 40.80000305175781)" stroke="none"><path fill="#2f9e44" d="M 0.32,-0.64 Q 0.32,-0.64 1.39,-0.49 2.47,-0.33 3.17,0.12 3.88,0.59 4.43,1.04 4.98,1.49 5.56,1.82 6.15,2.15 7.26,2.58 8.38,3.01 8.96,3.08 9.54,3.14 10.45,3.45 11.35,3.77 12.00,3.85 12.65,3.93 14.06,4.27 15.46,4.60 16.08,4.67 16.69,4.73 17.41,4.77 18.14,4.81 19.11,5.09 20.08,5.36 20.75,5.44 21.42,5.51 21.96,5.55 22.49,5.59 23.38,5.88 24.26,6.17 25.08,6.24 25.90,6.30 26.74,6.34 27.57,6.39 28.16,6.40 28.75,6.42 29.66,6.43 30.56,6.44 31.20,6.44 31.84,6.44 33.27,6.71 34.69,6.99 35.29,7.05 35.89,7.11 37.00,7.40 38.11,7.69 39.10,7.79 40.10,7.88 41.37,8.18 42.63,8.47 43.93,8.57 45.23,8.67 46.72,8.72 48.20,8.77 49.65,9.03 51.11,9.30 52.07,9.39 53.04,9.49 54.11,9.53 55.19,9.57 56.34,9.59 57.50,9.61 59.03,9.86 60.56,10.11 61.78,10.20 63.01,10.30 63.99,10.34 64.97,10.38 66.43,10.64 67.88,10.90 69.29,10.99 70.70,11.09 72.33,11.37 73.97,11.66 75.38,12.02 76.78,12.38 78.08,12.76 79.37,13.15 80.81,13.53 82.24,13.92 83.77,14.31 85.30,14.70 86.77,14.85 88.24,15.00 89.48,15.32 90.73,15.65 91.92,16.01 93.12,16.38 94.51,16.75 95.90,17.13 97.09,17.27 98.28,17.41 99.60,17.73 100.93,18.04 101.99,18.42 103.06,18.80 104.22,18.91 105.39,19.03 106.94,19.33 108.49,19.64 110.07,20.00 111.64,20.35 112.91,20.49 114.17,20.63 115.94,20.93 117.71,21.23 119.29,21.34 120.87,21.46 122.46,21.51 124.05,21.56 125.97,21.82 127.89,22.08 129.09,22.19 130.29,22.29 131.92,22.33 133.56,22.38 135.41,22.39 137.26,22.41 138.96,22.42 140.67,22.43 142.45,22.21 144.23,21.99 145.76,21.89 147.29,21.79 148.91,21.32 150.54,20.84 152.48,20.39 154.42,19.94 156.15,19.52 157.87,19.11 159.95,18.48 162.02,17.85 164.11,17.34 166.20,16.83 167.99,16.39 169.77,15.94 171.36,15.32 172.95,14.70 174.37,14.19 175.79,13.68 177.35,13.22 178.91,12.76 180.40,12.14 181.89,11.52 183.53,10.99 185.18,10.46 186.97,9.80 188.76,9.14 190.35,8.81 191.93,8.49 193.70,8.14 195.47,7.79 197.37,7.41 199.28,7.03 200.99,6.64 202.70,6.26 204.08,5.87 205.47,5.48 206.88,5.29 208.28,5.11 209.81,5.03 211.35,4.95 212.68,4.91 214.01,4.88 214.86,4.93 215.71,4.97 216.69,3.89 217.67,2.80 218.46,2.09 219.25,1.39 221.19,0.48 223.13,-0.41 225.23,-1.42 227.32,-2.43 228.96,-3.11 230.59,-3.80 232.77,-4.35 234.94,-4.90 236.99,-5.35 239.03,-5.80 240.80,-6.22 242.57,-6.63 243.98,-7.03 245.39,-7.43 246.68,-7.83 247.96,-8.23 248.92,-8.61 249.88,-8.99 251.43,-9.21 252.98,-9.43 254.42,-9.72 255.85,-10.01 257.26,-10.15 258.67,-10.30 260.33,-10.57 261.98,-10.85 263.60,-11.19 265.21,-11.53 266.55,-11.90 267.89,-12.27 269.15,-12.65 270.41,-13.04 271.35,-13.41 272.30,-13.79 273.85,-14.01 275.39,-14.23 276.82,-14.52 278.26,-14.80 280.15,-14.95 282.04,-15.09 283.98,-15.15 285.93,-15.20 287.36,-14.98 288.79,-14.77 290.10,-14.43 291.42,-14.09 292.62,-13.40 293.81,-12.72 294.66,-12.25 295.51,-11.78 296.20,-11.29 296.89,-10.80 297.42,-10.35 297.95,-9.91 299.12,-9.46 300.29,-9.01 301.21,-8.68 302.14,-8.35 303.29,-7.96 304.45,-7.57 305.52,-7.11 306.59,-6.66 307.60,-6.61 308.62,-6.56 309.59,-6.54 310.55,-6.52 311.65,-6.51 312.76,-6.50 313.92,-6.50 315.08,-6.49 316.03,-6.49 316.99,-6.49 318.08,-6.49 319.18,-6.49 320.10,-6.49 321.03,-6.49 321.88,-6.49 322.73,-6.49 323.56,-6.49 324.38,-6.49 325.19,-6.49 326.00,-6.49 326.81,-6.49 327.62,-6.49 328.83,-6.24 330.04,-5.99 331.05,-5.90 332.07,-5.82 333.21,-5.78 334.35,-5.74 335.30,-5.45 336.26,-5.16 337.08,-5.09 337.90,-5.03 339.12,-4.73 340.35,-4.44 341.37,-4.06 342.40,-3.69 343.11,-3.58 343.83,-3.46 344.65,-3.10 345.46,-2.74 346.18,-2.38 346.89,-2.02 347.95,-1.38 349.01,-0.73 349.72,-0.20 350.43,0.32 351.37,0.84 352.32,1.36 352.80,1.77 353.28,2.19 353.73,2.62 354.17,3.05 354.52,3.69 354.87,4.33 355.40,4.92 355.93,5.52 356.23,6.15 356.53,6.79 357.04,7.36 357.55,7.92 357.84,8.56 358.13,9.20 358.63,9.74 359.13,10.29 359.87,11.05 360.62,11.82 361.38,12.36 362.13,12.90 363.25,13.91 364.37,14.92 365.20,15.50 366.03,16.07 367.09,16.79 368.16,17.51 369.30,18.28 370.45,19.05 371.70,20.13 372.96,21.21 373.85,21.81 374.74,22.42 375.83,23.16 376.92,23.89 377.92,24.72 378.91,25.55 379.95,26.30 380.99,27.06 381.72,27.65 382.45,28.25 383.11,28.65 383.78,29.06 384.52,29.47 385.26,29.88 386.18,30.60 387.09,31.33 387.81,31.77 388.52,32.22 389.28,32.64 390.04,33.06 390.82,33.46 391.60,33.87 392.27,34.34 392.94,34.81 393.57,35.17 394.20,35.53 394.82,35.99 395.44,36.45 396.04,36.79 396.64,37.14 397.51,37.85 398.38,38.56 399.33,39.25 400.29,39.94 401.29,40.40 402.28,40.87 403.22,41.33 404.16,41.79 405.18,42.19 406.21,42.58 407.63,43.24 409.06,43.90 410.16,44.12 411.26,44.33 412.55,44.69 413.83,45.05 414.92,45.17 416.01,45.29 417.51,45.59 419.01,45.90 420.56,46.25 422.11,46.61 423.58,46.75 425.04,46.88 426.30,47.20 427.55,47.51 429.04,47.61 430.52,47.71 431.43,47.76 432.34,47.82 433.38,48.10 434.42,48.39 435.33,48.51 436.24,48.63 436.85,48.65 437.46,48.66 438.40,48.68 439.35,48.69 440.40,48.69 441.45,48.69 442.18,48.69 442.91,48.69 443.92,48.69 444.92,48.69 445.57,48.69 446.23,48.69 447.19,48.69 448.16,48.70 449.03,48.70 449.91,48.70 450.75,48.70 451.58,48.70 452.62,48.96 453.65,49.22 455.01,49.61 456.36,50.01 457.14,50.12 457.92,50.24 458.77,50.54 459.63,50.84 460.19,50.90 460.75,50.96 461.46,51.00 462.16,51.04 463.15,51.32 464.14,51.61 465.01,51.73 465.88,51.85 466.74,52.15 467.61,52.45 468.56,52.55 469.51,52.65 470.48,52.68 471.45,52.72 472.21,53.05 472.97,53.37 473.87,53.44 474.77,53.52 475.50,53.86 476.24,54.20 476.91,54.23 477.58,54.26 478.85,54.62 480.12,54.97 481.01,55.39 481.89,55.80 482.55,55.96 483.20,56.12 483.67,56.55 484.15,56.97 484.68,56.87 485.20,56.76 485.92,57.10 486.64,57.44 487.84,57.84 489.04,58.24 490.24,58.65 491.44,59.05 492.11,59.21 492.78,59.37 493.33,59.87 493.88,60.37 494.07,60.97 494.25,61.56 494.30,62.53 494.34,63.49 493.97,64.30 493.61,65.10 493.01,65.54 492.41,65.97 491.81,66.27 491.20,66.58 490.48,66.94 489.77,67.30 488.70,67.71 487.64,68.13 486.61,68.33 485.59,68.53 484.60,68.82 483.60,69.10 482.77,69.43 481.93,69.76 480.82,70.16 479.72,70.55 478.42,70.75 477.13,70.94 476.60,71.19 476.06,71.44 474.87,71.62 473.67,71.80 472.93,72.06 472.19,72.31 470.72,72.47 469.26,72.62 468.12,72.89 466.99,73.15 465.55,73.50 464.11,73.85 462.58,74.23 461.05,74.61 459.48,75.00 457.91,75.39 456.86,75.77 455.80,76.14 454.35,76.55 452.91,76.97 451.64,77.36 450.38,77.76 449.15,78.16 447.92,78.55 446.57,78.76 445.22,78.96 444.44,79.04 443.66,79.11 442.77,79.35 441.89,79.59 440.41,79.73 438.92,79.86 437.51,80.12 436.10,80.39 433.75,80.52 431.40,80.65 429.97,80.70 428.54,80.75 426.77,80.77 425.00,80.79 422.87,80.80 420.74,80.81 419.26,81.03 417.79,81.26 415.88,81.37 413.98,81.47 412.03,81.52 410.08,81.56 408.10,81.58 406.12,81.60 403.67,81.61 401.22,81.62 399.03,81.62 396.83,81.62 394.29,81.63 391.75,81.63 389.29,81.63 386.83,81.63 384.41,81.63 381.98,81.63 379.49,81.40 377.00,81.16 374.78,80.83 372.57,80.50 370.56,80.36 368.55,80.23 366.55,80.17 364.55,80.11 362.55,80.09 360.55,80.06 358.55,80.05 356.55,80.04 355.24,80.04 353.93,80.03 352.45,80.03 350.98,80.03 349.43,80.03 347.89,80.03 346.42,80.25 344.96,80.47 343.54,80.57 342.13,80.68 340.97,80.93 339.81,81.19 338.25,81.32 336.68,81.45 335.48,81.72 334.27,81.98 332.93,82.12 331.59,82.25 330.33,82.30 329.07,82.35 327.84,82.38 326.61,82.40 325.40,82.41 324.19,82.42 322.98,82.42 321.78,82.42 320.57,82.43 319.37,82.43 317.71,82.43 316.05,82.43 314.42,82.43 312.80,82.43 311.19,82.43 309.58,82.43 307.74,82.43 305.91,82.43 303.75,82.43 301.59,82.43 298.90,82.66 296.21,82.88 293.39,82.99 290.57,83.09 287.99,83.13 285.41,83.17 282.77,83.41 280.13,83.66 277.57,83.77 275.00,83.88 272.76,83.92 270.52,83.97 268.64,83.99 266.77,84.01 265.28,84.01 263.80,84.02 262.47,84.03 261.15,84.03 259.90,84.03 258.65,84.03 257.67,84.03 256.69,84.03 255.40,84.35 254.10,84.67 253.20,84.92 252.30,85.17 250.95,85.52 249.59,85.87 248.10,86.25 246.61,86.62 245.43,87.19 244.24,87.76 242.67,88.29 241.10,88.82 239.78,89.26 238.46,89.70 236.78,90.33 235.10,90.97 233.15,91.50 231.19,92.03 229.61,92.27 228.03,92.50 226.53,92.81 225.02,93.12 223.21,93.49 221.40,93.86 219.48,94.25 217.56,94.63 216.10,95.02 214.64,95.40 213.07,95.80 211.50,96.20 209.56,96.39 207.63,96.58 205.43,96.65 203.23,96.73 201.15,96.76 199.07,96.79 197.50,96.80 195.93,96.81 194.10,96.82 192.28,96.82 190.13,96.83 187.98,96.83 186.37,96.83 184.77,96.83 183.05,96.59 181.33,96.35 179.89,96.01 178.44,95.67 177.13,95.29 175.82,94.91 174.38,94.53 172.93,94.15 171.78,93.73 170.63,93.32 169.49,92.93 168.36,92.53 167.18,92.13 166.01,91.74 164.52,91.08 163.03,90.43 161.59,89.96 160.14,89.49 158.80,89.05 157.46,88.61 156.20,88.19 154.94,87.77 153.86,87.63 152.77,87.48 151.48,87.16 150.18,86.84 148.95,86.47 147.71,86.10 146.84,85.97 145.98,85.84 144.79,85.53 143.61,85.22 142.35,85.11 141.10,85.01 139.85,84.96 138.60,84.91 137.62,84.62 136.64,84.33 135.78,84.26 134.93,84.18 133.64,84.14 132.34,84.10 131.09,84.08 129.84,84.06 128.39,84.05 126.94,84.04 125.63,84.04 124.33,84.04 122.73,84.26 121.13,84.48 119.19,84.58 117.25,84.69 115.51,84.73 113.77,84.77 112.34,84.79 110.91,84.81 109.62,84.82 108.32,84.83 107.07,84.83 105.83,84.83 104.61,84.83 103.40,84.83 102.19,84.84 100.98,84.84 99.68,85.06 98.37,85.28 97.25,85.38 96.13,85.49 95.17,85.53 94.22,85.58 93.12,85.59 92.02,85.61 91.02,85.83 90.02,86.05 89.00,86.16 87.97,86.28 86.99,86.53 86.01,86.78 84.74,86.92 83.47,87.05 82.67,87.30 81.86,87.55 80.78,87.90 79.71,88.24 78.66,88.42 77.62,88.59 76.71,88.66 75.81,88.73 74.84,89.08 73.87,89.43 73.08,89.50 72.29,89.57 71.75,89.59 71.22,89.61 69.88,89.62 68.54,89.63 67.05,89.95 65.56,90.28 64.66,90.33 63.75,90.38 63.15,90.39 62.55,90.41 61.42,90.74 60.29,91.06 59.76,91.12 59.22,91.17 58.33,91.20 57.43,91.23 56.61,91.24 55.79,91.24 54.99,91.24 54.19,91.24 53.56,91.24 52.93,91.24 51.99,91.24 51.05,91.24 50.40,91.24 49.75,91.25 49.06,91.16 48.36,91.08 47.78,90.70 47.20,90.32 46.25,90.04 45.29,89.77 44.64,89.61 43.98,89.46 43.51,89.04 43.04,88.62 42.20,88.21 41.36,87.81 40.81,87.59 40.26,87.38 39.75,87.10 39.24,86.82 38.54,86.45 37.85,86.09 36.94,85.38 36.03,84.66 35.33,84.23 34.63,83.80 33.74,83.05 32.85,82.31 32.02,81.54 31.19,80.77 30.49,80.30 29.79,79.84 29.05,79.41 28.30,78.98 27.39,78.25 26.47,77.51 25.63,76.74 24.80,75.97 23.83,75.25 22.87,74.53 22.17,73.94 21.47,73.36 20.82,72.96 20.17,72.56 19.43,72.16 18.70,71.75 17.78,71.02 16.86,70.30 16.27,69.77 15.67,69.24 14.95,68.54 14.22,67.85 13.69,67.32 13.16,66.80 12.69,66.33 12.22,65.86 11.86,65.20 11.50,64.54 11.19,63.92 10.89,63.30 10.53,62.57 10.17,61.85 9.96,61.16 9.75,60.47 9.48,59.88 9.22,59.29 9.04,58.34 8.86,57.39 8.80,56.53 8.74,55.67 8.51,54.80 8.28,53.92 8.15,52.92 8.02,51.92 7.97,51.03 7.92,50.13 7.90,49.29 7.88,48.44 7.87,47.39 7.86,46.34 7.86,45.44 7.86,44.53 7.86,43.69 7.85,42.84 7.85,42.26 7.85,41.67 7.85,40.96 7.85,40.25 7.85,39.71 7.85,39.18 7.85,38.30 7.85,37.42 7.85,36.61 7.85,35.79 7.85,34.99 7.85,34.19 7.85,33.56 7.85,32.93 7.85,32.20 7.85,31.47 7.85,30.70 7.85,29.93 7.85,29.15 7.85,28.36 7.85,27.79 7.85,27.23 7.85,26.32 7.86,25.41 7.55,24.45 7.24,23.50 6.87,22.70 6.50,21.90 6.04,21.40 5.57,20.90 5.36,20.35 5.15,19.80 4.66,19.25 4.17,18.71 3.91,18.16 3.65,17.62 2.95,16.53 2.25,15.44 1.84,14.67 1.43,13.90 1.26,13.28 1.09,12.67 0.63,12.10 0.18,11.53 -0.14,10.83 -0.47,10.14 -0.95,9.62 -1.42,9.10 -1.84,8.30 -2.26,7.50 -2.66,6.70 -3.07,5.91 -3.47,5.09 -3.88,4.28 -4.09,3.68 -4.29,3.08 -4.50,2.46 -4.70,1.83 -4.75,1.22 -4.80,0.61 -4.51,-0.18 -4.22,-0.98 -4.05,-1.69 -3.88,-2.40 -3.40,-2.97 -2.92,-3.54 -1.30,-2.97 0.32,-2.41 0.39,-2.45 0.46,-2.48 0.54,-2.50 0.61,-2.52 0.69,-2.52 0.77,-2.52 0.85,-2.50 0.92,-2.48 0.99,-2.45 1.06,-2.41 1.12,-2.36 1.18,-2.30 1.23,-2.24 1.27,-2.17 1.30,-2.10 1.33,-2.03 1.34,-1.95 1.35,-1.87 1.34,-1.79 1.33,-1.71 1.30,-1.64 1.27,-1.56 1.23,-1.50 1.18,-1.43 1.12,-1.38 1.06,-1.33 1.21,-1.61 1.35,-1.89 1.33,-1.79 1.32,-1.68 1.27,-1.59 1.23,-1.49 1.15,-1.42 1.08,-1.34 0.98,-1.29 0.89,-1.24 0.78,-1.23 0.68,-1.21 0.57,-1.23 0.47,-1.25 0.38,-1.30 0.28,-1.35 0.21,-1.43 0.14,-1.51 0.10,-1.61 0.06,-1.71 0.05,-1.81 0.04,-1.92 0.06,-2.02 0.09,-2.12 0.14,-2.21 0.20,-2.30 0.28,-2.37 0.36,-2.44 0.46,-2.48 0.56,-2.51 0.67,-2.52 0.77,-2.52 0.88,-2.49 0.98,-2.46 1.06,-2.40 1.15,-2.34 1.21,-2.25 1.28,-2.17 1.31,-2.07 1.34,-1.96 1.34,-1.86 1.34,-1.75 1.30,-1.65 1.27,-1.55 1.20,-1.47 1.13,-1.38 1.05,-1.33 0.96,-1.27 0.85,-1.24 0.75,-1.22 0.64,-1.22 0.54,-1.23 0.44,-1.27 0.34,-1.31 0.26,-1.38 0.18,-1.45 0.13,-1.55 0.08,-1.64 0.20,-2.02 0.32,-2.41 0.39,-2.45 0.46,-2.48 0.54,-2.50 0.61,-2.52 0.69,-2.52 0.77,-2.52 0.85,-2.50 0.92,-2.48 0.99,-2.45 1.06,-2.41 1.12,-2.36 1.18,-2.31 1.23,-2.24 1.27,-2.17 1.30,-2.10 1.33,-2.03 1.34,-1.95 1.35,-1.87 1.34,-1.79 1.33,-1.71 1.30,-1.64 1.27,-1.56 1.23,-1.50 1.18,-1.43 1.12,-1.38 1.06,-1.33 0.09,-0.98 -0.87,-0.63 -1.11,0.32 -1.35,1.29 -0.95,2.45 -0.55,3.61 -0.15,4.40 0.23,5.19 0.61,5.94 1.00,6.69 1.22,7.20 1.44,7.72 2.03,8.42 2.61,9.12 2.89,9.69 3.18,10.27 3.85,11.28 4.51,12.29 4.89,13.00 5.26,13.72 5.59,14.30 5.92,14.88 6.35,15.49 6.78,16.11 6.92,16.71 7.06,17.31 7.65,18.00 8.25,18.69 8.65,19.15 9.05,19.61 9.47,20.48 9.89,21.35 10.33,22.43 10.77,23.52 11.05,24.43 11.33,25.33 11.34,26.28 11.34,27.23 11.34,27.79 11.34,28.36 11.34,29.15 11.34,29.93 11.34,30.70 11.34,31.47 11.34,32.20 11.34,32.93 11.34,33.56 11.34,34.19 11.34,34.99 11.34,35.79 11.34,36.61 11.34,37.42 11.34,38.30 11.34,39.18 11.34,39.71 11.34,40.24 11.34,40.95 11.34,41.66 11.34,42.25 11.34,42.84 11.34,43.68 11.34,44.52 11.35,45.42 11.35,46.31 11.36,47.34 11.37,48.36 11.38,49.15 11.40,49.94 11.45,50.73 11.49,51.51 11.57,52.30 11.66,53.09 11.94,54.26 12.21,55.42 12.26,56.12 12.30,56.82 12.37,57.38 12.44,57.94 12.87,59.12 13.29,60.31 13.66,61.04 14.02,61.77 14.37,62.61 14.71,63.45 15.15,63.88 15.59,64.31 16.12,64.82 16.64,65.34 17.31,65.99 17.99,66.64 18.53,67.11 19.06,67.59 19.73,68.15 20.39,68.71 21.21,69.16 22.02,69.61 22.86,70.15 23.70,70.68 24.33,71.22 24.96,71.75 26.06,72.58 27.16,73.41 27.92,74.11 28.68,74.82 29.37,75.40 30.05,75.97 30.90,76.47 31.76,76.97 32.66,77.59 33.56,78.22 34.32,78.94 35.09,79.66 35.79,80.26 36.48,80.85 37.35,81.41 38.22,81.96 38.85,82.49 39.47,83.02 40.21,83.41 40.96,83.80 41.80,84.36 42.64,84.93 43.41,85.35 44.18,85.78 44.99,86.16 45.80,86.55 46.42,86.75 47.04,86.96 47.59,87.16 48.15,87.36 48.95,87.65 49.75,87.94 50.40,87.95 51.05,87.95 51.99,87.95 52.93,87.95 53.56,87.95 54.19,87.95 54.98,87.95 55.78,87.94 56.58,87.94 57.37,87.94 58.14,87.91 58.92,87.89 59.72,87.79 60.53,87.68 61.47,87.41 62.41,87.13 63.00,87.11 63.59,87.09 64.41,87.05 65.22,87.02 65.97,86.97 66.71,86.92 67.58,86.63 68.45,86.35 69.34,86.35 70.23,86.34 71.14,86.31 72.06,86.29 72.94,86.20 73.82,86.11 74.66,85.79 75.51,85.47 76.30,85.42 77.10,85.36 77.91,85.24 78.72,85.12 79.83,84.76 80.94,84.41 82.04,84.10 83.13,83.80 84.17,83.70 85.22,83.60 86.42,83.31 87.62,83.02 88.49,82.93 89.36,82.84 90.66,82.58 91.96,82.33 93.01,82.31 94.07,82.29 94.95,82.25 95.83,82.21 96.84,82.12 97.85,82.03 99.41,81.79 100.98,81.55 102.18,81.55 103.39,81.55 104.61,81.55 105.82,81.55 107.06,81.54 108.30,81.54 109.59,81.54 110.87,81.53 112.28,81.51 113.69,81.50 115.39,81.45 117.08,81.41 118.89,81.32 120.70,81.23 122.52,81.00 124.33,80.76 125.65,80.77 126.96,80.77 128.42,80.78 129.89,80.79 131.17,80.81 132.45,80.83 133.86,80.88 135.27,80.92 136.46,81.07 137.64,81.21 138.21,81.42 138.77,81.64 140.08,81.69 141.40,81.75 142.92,81.90 144.45,82.05 145.47,82.32 146.49,82.60 147.57,82.78 148.64,82.95 149.81,83.31 150.99,83.66 152.11,83.94 153.24,84.23 154.60,84.44 155.97,84.65 157.23,85.07 158.49,85.49 159.82,85.93 161.16,86.37 162.76,86.90 164.36,87.43 165.71,88.03 167.06,88.63 168.25,89.03 169.43,89.43 170.59,89.84 171.75,90.24 172.76,90.61 173.77,90.98 175.25,91.38 176.73,91.77 177.97,92.13 179.20,92.49 180.50,92.80 181.80,93.11 183.28,93.34 184.77,93.56 186.37,93.56 187.97,93.55 190.12,93.55 192.27,93.55 194.09,93.54 195.90,93.54 197.46,93.52 199.02,93.51 201.07,93.48 203.12,93.45 205.22,93.38 207.32,93.31 209.01,93.17 210.70,93.02 212.25,92.62 213.81,92.23 215.36,91.82 216.91,91.42 218.83,91.03 220.74,90.65 222.55,90.28 224.36,89.92 225.96,89.59 227.56,89.26 228.95,89.06 230.35,88.87 232.15,88.39 233.95,87.91 235.69,87.25 237.43,86.59 238.75,86.15 240.07,85.71 241.47,85.26 242.86,84.80 244.33,84.13 245.80,83.45 247.29,83.08 248.78,82.70 250.12,82.36 251.45,82.02 252.56,81.72 253.67,81.43 254.24,81.37 254.82,81.31 255.72,81.04 256.63,80.76 257.64,80.76 258.64,80.75 259.89,80.75 261.14,80.75 262.46,80.75 263.78,80.74 265.26,80.74 266.74,80.73 268.59,80.71 270.45,80.69 272.66,80.65 274.86,80.60 277.35,80.50 279.84,80.40 282.60,80.15 285.36,79.90 287.90,79.86 290.45,79.81 293.19,79.72 295.94,79.63 298.76,79.39 301.59,79.16 303.75,79.16 305.91,79.16 307.74,79.16 309.58,79.16 311.19,79.16 312.80,79.16 314.42,79.16 316.05,79.16 317.71,79.16 319.37,79.16 320.57,79.16 321.77,79.15 322.96,79.15 324.16,79.14 325.36,79.14 326.55,79.13 327.74,79.11 328.93,79.09 330.11,79.04 331.28,78.99 332.44,78.89 333.59,78.78 335.01,78.49 336.42,78.20 337.78,78.10 339.13,78.00 340.51,77.71 341.89,77.42 343.19,77.33 344.49,77.24 346.19,77.00 347.88,76.77 349.43,76.77 350.98,76.77 352.46,76.77 353.94,76.77 355.25,76.78 356.57,76.78 358.58,76.79 360.59,76.80 362.62,76.83 364.65,76.85 366.71,76.91 368.77,76.97 370.91,77.12 373.05,77.26 375.18,77.58 377.31,77.91 379.65,78.13 381.98,78.36 384.41,78.36 386.83,78.36 389.29,78.36 391.75,78.36 394.29,78.36 396.83,78.36 399.02,78.35 401.21,78.35 403.65,78.35 406.09,78.34 408.05,78.32 410.01,78.30 411.91,78.26 413.81,78.22 415.56,78.13 417.31,78.04 419.02,77.80 420.73,77.55 422.84,77.54 424.96,77.53 426.70,77.51 428.43,77.49 429.83,77.44 431.23,77.39 433.37,77.29 435.51,77.18 437.08,76.89 438.65,76.60 439.87,76.52 441.08,76.43 442.21,76.15 443.34,75.86 444.05,75.80 444.77,75.73 445.85,75.59 446.93,75.45 448.17,75.05 449.41,74.65 450.72,74.25 452.02,73.84 453.37,73.46 454.73,73.08 455.93,72.66 457.13,72.24 458.70,71.85 460.28,71.46 461.82,71.09 463.35,70.71 464.81,70.36 466.27,70.01 467.62,69.71 468.96,69.41 470.09,69.33 471.21,69.24 472.24,68.93 473.26,68.61 474.05,68.54 474.85,68.46 475.75,68.11 476.65,67.77 477.66,67.64 478.66,67.51 479.71,67.14 480.76,66.77 481.75,66.39 482.73,66.01 483.87,65.69 485.01,65.38 485.75,65.25 486.49,65.13 487.41,64.78 488.33,64.43 489.05,64.07 489.76,63.72 490.49,63.53 491.21,63.35 491.10,62.77 490.99,62.20 490.38,62.00 489.77,61.81 489.18,61.61 488.59,61.41 487.98,61.21 487.37,61.01 486.79,60.82 486.21,60.62 485.13,60.29 484.06,59.96 483.53,59.87 483.01,59.79 482.18,59.40 481.34,59.02 480.55,58.63 479.75,58.25 479.16,58.08 478.57,57.91 477.96,57.76 477.35,57.60 476.57,57.54 475.80,57.47 475.12,57.14 474.43,56.82 473.51,56.75 472.60,56.68 471.48,56.37 470.37,56.05 469.82,56.03 469.28,56.01 468.49,55.95 467.70,55.89 466.61,55.55 465.52,55.21 464.99,55.15 464.45,55.10 463.78,54.97 463.12,54.84 462.53,54.63 461.94,54.42 461.10,54.37 460.26,54.32 458.89,53.96 457.53,53.61 456.99,53.54 456.45,53.48 455.80,53.33 455.15,53.18 454.60,52.95 454.05,52.72 453.39,52.61 452.73,52.49 452.14,52.29 451.55,52.09 450.73,52.09 449.91,52.09 449.03,52.09 448.16,52.09 447.19,52.10 446.23,52.10 445.57,52.10 444.92,52.10 443.91,52.10 442.91,52.10 442.18,52.10 441.45,52.10 440.38,52.09 439.32,52.09 438.34,52.08 437.36,52.07 436.64,52.04 435.92,52.02 435.37,51.97 434.82,51.91 434.14,51.78 433.45,51.65 432.79,51.43 432.12,51.22 431.19,51.16 430.26,51.11 428.48,50.96 426.70,50.81 425.71,50.54 424.71,50.27 423.03,50.10 421.35,49.93 419.84,49.58 418.33,49.23 416.96,48.95 415.60,48.67 414.26,48.49 412.92,48.32 411.73,47.99 410.55,47.66 409.10,47.32 407.65,46.99 406.31,46.37 404.97,45.75 403.82,45.30 402.66,44.84 401.73,44.38 400.80,43.93 399.56,43.31 398.31,42.70 397.25,41.93 396.19,41.16 395.56,40.62 394.92,40.07 394.15,39.61 393.39,39.15 392.95,38.81 392.51,38.47 391.74,38.02 390.97,37.57 390.49,37.23 390.02,36.88 389.21,36.45 388.39,36.02 387.55,35.55 386.71,35.09 385.83,34.52 384.96,33.96 384.29,33.40 383.62,32.84 382.80,32.39 381.98,31.94 381.14,31.40 380.30,30.87 379.65,30.34 378.99,29.80 377.87,28.97 376.74,28.15 375.88,27.43 375.02,26.70 373.92,25.96 372.81,25.21 371.78,24.49 370.75,23.78 369.65,22.82 368.55,21.86 367.40,21.09 366.25,20.32 365.17,19.58 364.08,18.84 363.09,18.14 362.10,17.43 361.11,16.53 360.13,15.63 359.17,14.91 358.21,14.19 357.81,13.78 357.41,13.36 357.01,12.94 356.61,12.52 356.21,12.06 355.81,11.60 355.40,10.84 354.99,10.08 354.60,9.64 354.21,9.20 353.80,8.45 353.40,7.69 353.00,7.26 352.61,6.83 352.21,6.26 351.81,5.70 351.44,5.21 351.07,4.72 350.43,4.18 349.80,3.64 349.12,3.33 348.43,3.02 347.84,2.57 347.24,2.13 346.32,1.55 345.39,0.98 344.31,0.40 343.22,-0.16 342.23,-0.34 341.23,-0.52 340.39,-0.84 339.54,-1.16 338.54,-1.42 337.54,-1.68 336.36,-1.82 335.18,-1.96 334.69,-2.17 334.19,-2.37 332.98,-2.41 331.78,-2.46 330.54,-2.57 329.30,-2.68 328.45,-2.89 327.60,-3.10 326.80,-3.10 326.00,-3.10 325.19,-3.10 324.38,-3.10 323.56,-3.10 322.73,-3.10 321.88,-3.10 321.03,-3.10 320.10,-3.10 319.17,-3.10 318.08,-3.10 316.98,-3.10 316.02,-3.11 315.07,-3.11 313.90,-3.11 312.73,-3.11 311.60,-3.12 310.48,-3.13 309.43,-3.16 308.39,-3.18 307.56,-3.24 306.73,-3.31 305.58,-3.72 304.42,-4.14 303.79,-4.29 303.16,-4.45 302.61,-4.69 302.07,-4.93 301.43,-5.09 300.79,-5.26 300.27,-5.50 299.75,-5.73 298.99,-6.10 298.23,-6.47 297.68,-6.58 297.12,-6.69 296.47,-7.00 295.81,-7.31 295.36,-7.69 294.92,-8.07 294.40,-8.45 293.89,-8.84 292.98,-9.33 292.07,-9.83 291.30,-10.34 290.54,-10.84 289.39,-11.14 288.24,-11.44 287.13,-11.63 286.02,-11.83 284.15,-11.77 282.28,-11.72 280.60,-11.61 278.92,-11.49 277.37,-11.18 275.81,-10.87 274.67,-10.75 273.52,-10.63 272.46,-10.21 271.40,-9.80 270.09,-9.40 268.78,-9.00 267.35,-8.61 265.91,-8.22 264.23,-7.86 262.54,-7.50 260.77,-7.21 259.00,-6.91 257.76,-6.80 256.52,-6.68 254.97,-6.37 253.41,-6.06 252.26,-5.94 251.11,-5.82 250.04,-5.39 248.97,-4.97 247.65,-4.56 246.32,-4.15 244.84,-3.73 243.36,-3.31 241.56,-2.89 239.77,-2.46 237.77,-2.02 235.77,-1.58 233.84,-1.11 231.90,-0.63 230.36,0.00 228.81,0.65 226.67,1.67 224.53,2.70 223.01,3.34 221.49,3.98 220.61,4.76 219.74,5.54 218.97,6.10 218.21,6.65 217.34,7.25 216.47,7.85 215.28,7.93 214.09,8.00 212.79,8.03 211.50,8.05 210.09,8.12 208.68,8.18 207.49,8.33 206.30,8.48 204.84,8.89 203.38,9.29 201.63,9.69 199.89,10.08 197.98,10.46 196.08,10.84 194.30,11.19 192.53,11.54 191.18,11.80 189.84,12.05 187.98,12.74 186.12,13.42 184.60,13.91 183.08,14.39 181.43,15.07 179.79,15.74 178.32,16.17 176.85,16.60 175.46,17.10 174.07,17.60 172.30,18.28 170.52,18.96 168.73,19.40 166.93,19.84 164.93,20.33 162.92,20.82 160.76,21.47 158.60,22.12 156.86,22.54 155.13,22.96 153.25,23.39 151.38,23.83 149.44,24.35 147.50,24.88 146.05,24.98 144.61,25.07 142.63,25.30 140.66,25.53 138.94,25.53 137.22,25.52 135.35,25.50 133.47,25.48 131.75,25.43 130.03,25.38 128.75,25.27 127.46,25.16 125.70,24.91 123.95,24.67 122.29,24.61 120.63,24.56 118.91,24.43 117.19,24.29 115.51,24.00 113.83,23.72 112.39,23.55 110.95,23.39 109.42,23.03 107.89,22.68 106.47,22.40 105.04,22.11 103.53,21.92 102.02,21.73 101.11,21.40 100.20,21.06 99.04,20.78 97.89,20.50 96.49,20.31 95.10,20.13 93.65,19.74 92.21,19.35 91.07,19.00 89.92,18.65 88.91,18.37 87.90,18.09 86.22,17.90 84.53,17.72 82.99,17.32 81.44,16.92 79.96,16.52 78.48,16.13 77.25,15.76 76.01,15.39 74.72,15.05 73.43,14.72 71.95,14.45 70.48,14.19 68.90,14.07 67.32,13.96 66.08,13.72 64.83,13.49 63.80,13.44 62.76,13.39 61.40,13.29 60.04,13.18 58.74,12.95 57.44,12.72 56.25,12.70 55.07,12.68 53.89,12.63 52.71,12.58 51.62,12.47 50.53,12.35 49.31,12.11 48.09,11.87 46.53,11.82 44.97,11.77 43.44,11.63 41.91,11.49 40.85,11.23 39.78,10.97 38.54,10.83 37.31,10.69 36.40,10.44 35.49,10.19 34.60,10.06 33.70,9.92 32.77,9.73 31.84,9.54 31.19,9.54 30.54,9.54 29.60,9.52 28.65,9.51 28.03,9.49 27.42,9.47 26.49,9.42 25.57,9.37 24.41,9.23 23.25,9.08 22.74,8.87 22.22,8.66 21.62,8.61 21.01,8.57 20.09,8.43 19.17,8.29 18.55,8.07 17.94,7.85 17.10,7.79 16.26,7.74 15.36,7.59 14.45,7.44 13.93,7.23 13.41,7.01 12.80,6.96 12.20,6.90 11.27,6.74 10.34,6.58 9.68,6.32 9.03,6.07 8.12,5.87 7.21,5.68 6.59,5.40 5.97,5.12 5.32,4.88 4.66,4.64 3.91,4.17 3.15,3.69 2.71,3.31 2.27,2.94 1.74,2.56 1.20,2.17 0.44,1.41 -0.32,0.64 -0.39,0.59 -0.46,0.54 -0.52,0.48 -0.58,0.42 -0.62,0.34 -0.66,0.26 -0.69,0.18 -0.71,0.10 -0.71,0.01 -0.71,-0.07 -0.69,-0.15 -0.67,-0.24 -0.63,-0.31 -0.60,-0.39 -0.54,-0.46 -0.48,-0.52 -0.41,-0.57 -0.34,-0.63 -0.26,-0.66 -0.18,-0.69 -0.09,-0.70 -0.01,-0.71 0.07,-0.71 0.15,-0.70 0.24,-0.67 0.32,-0.64 0.32,-0.64 L 0.32,-0.64 Z"/></g><g stroke-linecap="round"><g transform="translate(101.199951171875 233.99996948242188) rotate(0 210.39999389648438 1.20001220703125)"><path d="M0 0 C150.55 2.3, 300.21 2, 420.8 2.4 M0 0 C131.73 2.45, 263.29 2.76, 420.8 2.4" stroke="#1e1e1e" stroke-width="2" fill="none"/></g><g transform="translate(101.199951171875 233.99996948242188) rotate(0 210.39999389648438 1.20001220703125)"><path d="M397.31 10.97 C406.95 8.79, 414.86 3.56, 420.8 2.4 M397.31 10.97 C404.91 9.3, 412.3 5.79, 420.8 2.4" stroke="#1e1e1e" stroke-width="2" fill="none"/></g><g transform="translate(101.199951171875 233.99996948242188) rotate(0 210.39999389648438 1.20001220703125)"><path d="M397.3 -6.13 C406.9 -2.22, 414.82 -1.36, 420.8 2.4 M397.3 -6.13 C405.06 -2.46, 412.46 -0.62, 420.8 2.4" stroke="#1e1e1e" stroke-width="2" fill="none"/></g></g><mask/><g stroke-linecap="round"><g transform="translate(101.199951171875 233.99996948242188) rotate(0 -41.199981689453125 -40)"><path d="M0 0 C-22.67 -25.38, -49.17 -49.77, -82.4 -80 M0 0 C-30.19 -27.68, -59.91 -58.91, -82.4 -80" stroke="#1e1e1e" stroke-width="2" fill="none"/></g><g transform="translate(101.199951171875 233.99996948242188) rotate(0 -41.199981689453125 -40)"><path d="M-59.58 -69.78 C-64.68 -73.47, -72.95 -76.52, -82.4 -80 M-59.58 -69.78 C-67.95 -72.36, -75.74 -77.91, -82.4 -80" stroke="#1e1e1e" stroke-width="2" fill="none"/></g><g transform="translate(101.199951171875 233.99996948242188) rotate(0 -41.199981689453125 -40)"><path d="M-71.49 -57.51 C-72.83 -64.88, -77.45 -71.68, -82.4 -80 M-71.49 -57.51 C-75.45 -64.72, -78.86 -74.79, -82.4 -80" stroke="#1e1e1e" stroke-width="2" fill="none"/></g></g><mask/><g stroke-linecap="round"><g transform="translate(101.199951171875 234.80001831054688) rotate(0 0.800018310546875 -98.40000915527344)"><path d="M0 0 C-0.18 -53.28, 1.64 -105.43, 1.6 -196.8 M0 0 C1.83 -69.68, 2.75 -140.63, 1.6 -196.8" stroke="#1e1e1e" stroke-width="2" fill="none"/></g><g transform="translate(101.199951171875 234.80001831054688) rotate(0 0.800018310546875 -98.40000915527344)"><path d="M10.37 -173.39 C6.98 -179.49, 5.98 -184.42, 1.6 -196.8 M10.37 -173.39 C7.25 -181.51, 4.49 -190.86, 1.6 -196.8" stroke="#1e1e1e" stroke-width="2" fill="none"/></g><g transform="translate(101.199951171875 234.80001831054688) rotate(0 0.800018310546875 -98.40000915527344)"><path d="M-6.73 -173.23 C-5.46 -179.28, -1.81 -184.25, 1.6 -196.8 M-6.73 -173.23 C-3.78 -181.34, -0.46 -190.74, 1.6 -196.8" stroke="#1e1e1e" stroke-width="2" fill="none"/></g></g><mask/><g transform="translate(12.39996337890625 125.99996948242188) rotate(0 7.60003662109375 8)" stroke="none"><path fill="#1971c2" d="M -0.27,-0.83 Q -0.27,-0.83 0.57,-1.20 1.42,-1.57 2.31,-1.12 3.20,-0.67 3.84,0.63 4.48,1.94 4.72,3.95 4.97,5.96 4.59,8.29 4.20,10.63 3.32,12.83 2.43,15.02 1.56,16.45 0.70,17.88 -0.56,18.89 -1.83,19.89 -2.49,19.10 -3.16,18.30 -2.84,17.24 -2.51,16.19 -1.14,14.05 0.21,11.90 1.47,10.11 2.74,8.31 4.23,6.59 5.71,4.86 7.27,3.21 8.82,1.56 9.90,0.21 10.98,-1.13 11.91,-2.18 12.85,-3.23 12.95,-3.33 13.06,-3.44 13.19,-3.51 13.32,-3.59 13.46,-3.63 13.61,-3.67 13.76,-3.68 13.91,-3.69 14.05,-3.66 14.20,-3.63 14.34,-3.57 14.47,-3.50 14.59,-3.41 14.71,-3.31 14.80,-3.20 14.89,-3.08 14.95,-2.94 15.01,-2.80 15.03,-2.65 15.06,-2.51 15.05,-2.36 15.04,-2.21 14.99,-2.06 14.95,-1.92 14.87,-1.79 14.79,-1.67 13.74,-1.71 12.69,-1.75 11.25,-0.40 9.82,0.93 8.46,2.69 7.11,4.45 6.33,6.04 5.56,7.63 5.24,8.86 4.92,10.08 5.20,10.59 5.48,11.09 6.15,11.70 6.83,12.30 7.93,12.75 9.03,13.21 10.12,13.41 11.22,13.61 12.36,13.73 13.50,13.85 15.12,13.85 16.74,13.86 16.84,13.86 16.95,13.86 17.05,13.90 17.15,13.93 17.23,14.00 17.32,14.06 17.38,14.15 17.44,14.24 17.46,14.34 17.49,14.45 17.48,14.55 17.48,14.66 17.44,14.76 17.40,14.86 17.33,14.94 17.26,15.02 17.17,15.07 17.07,15.12 16.97,15.15 16.87,15.17 16.76,15.16 16.66,15.14 16.56,15.10 16.46,15.05 16.39,14.98 16.31,14.90 16.26,14.81 16.21,14.72 16.20,14.61 16.18,14.51 16.20,14.40 16.22,14.30 16.27,14.20 16.32,14.11 16.40,14.04 16.47,13.96 16.57,13.92 16.67,13.88 16.77,13.87 16.88,13.86 16.98,13.88 17.09,13.90 17.18,13.96 17.27,14.02 17.34,14.10 17.40,14.18 17.44,14.28 17.48,14.38 17.49,14.48 17.49,14.59 17.46,14.69 17.43,14.79 17.37,14.88 17.31,14.97 17.22,15.03 17.14,15.09 17.04,15.13 16.94,15.16 16.94,15.16 16.94,15.16 15.12,15.70 13.31,16.24 12.02,16.15 10.74,16.05 9.37,15.77 8.01,15.48 6.57,14.78 5.13,14.09 4.17,13.06 3.20,12.04 2.86,10.89 2.52,9.73 2.92,8.13 3.31,6.53 4.22,4.72 5.12,2.91 6.64,0.99 8.15,-0.92 9.48,-2.07 10.81,-3.23 11.83,-3.23 12.85,-3.23 12.95,-3.33 13.06,-3.44 13.19,-3.51 13.32,-3.59 13.46,-3.63 13.61,-3.67 13.76,-3.68 13.91,-3.69 14.05,-3.66 14.20,-3.63 14.34,-3.57 14.47,-3.50 14.59,-3.41 14.71,-3.32 14.80,-3.20 14.89,-3.08 14.95,-2.94 15.01,-2.80 15.03,-2.65 15.06,-2.51 15.05,-2.36 15.04,-2.21 14.99,-2.06 14.95,-1.92 14.87,-1.79 14.79,-1.67 13.85,-0.62 12.92,0.42 11.77,1.84 10.63,3.26 9.11,4.87 7.59,6.49 6.19,8.11 4.78,9.74 3.55,11.50 2.33,13.27 1.09,15.17 -0.13,17.07 -0.52,17.96 -0.90,18.85 -1.08,18.29 -1.25,17.74 -1.36,17.14 -1.47,16.55 -0.69,15.30 0.08,14.05 0.89,12.11 1.71,10.18 2.08,8.19 2.45,6.20 2.31,4.54 2.17,2.88 1.75,1.77 1.33,0.65 0.80,0.74 0.27,0.83 0.17,0.85 0.07,0.87 -0.03,0.86 -0.14,0.86 -0.24,0.83 -0.34,0.80 -0.43,0.75 -0.52,0.69 -0.60,0.62 -0.67,0.55 -0.73,0.46 -0.79,0.37 -0.82,0.27 -0.85,0.17 -0.86,0.06 -0.87,-0.03 -0.85,-0.13 -0.84,-0.24 -0.79,-0.34 -0.75,-0.43 -0.69,-0.52 -0.63,-0.60 -0.54,-0.67 -0.46,-0.74 -0.37,-0.78 -0.27,-0.83 -0.27,-0.83 L -0.27,-0.83 Z"/></g><g transform="translate(121.199951171875 18) rotate(0 5.20001220703125 7.9999847412109375)" stroke="none"><path fill="#1971c2" d="M 0,0.66 Q 0,0.66 -0.91,0.87 -1.83,1.07 -2.86,1.10 -3.89,1.13 -4.97,1.95 -6.04,2.78 -6.68,4.13 -7.32,5.47 -7.61,6.87 -7.91,8.27 -7.39,10.27 -6.87,12.27 -5.41,13.68 -3.95,15.09 -1.85,15.89 0.24,16.69 2.85,16.82 5.47,16.95 7.58,16.13 9.69,15.32 11.67,13.67 13.65,12.03 15.14,10.01 16.63,8.00 17.22,6.15 17.80,4.29 17.64,3.28 17.47,2.27 16.41,1.33 15.34,0.39 13.22,-0.21 11.10,-0.83 8.43,-0.89 5.76,-0.95 3.78,-0.54 1.80,-0.14 0.41,0.61 -0.96,1.36 -0.96,1.47 -0.97,1.58 -1.01,1.67 -1.05,1.77 -1.12,1.85 -1.19,1.93 -1.29,1.99 -1.38,2.04 -1.48,2.06 -1.59,2.08 -1.69,2.07 -1.80,2.06 -1.89,2.01 -1.99,1.96 -2.06,1.89 -2.14,1.82 -2.19,1.72 -2.24,1.63 -2.25,1.52 -2.27,1.42 -2.25,1.31 -2.23,1.21 -2.18,1.11 -2.13,1.02 -2.05,0.95 -1.97,0.88 -1.87,0.83 -1.78,0.79 -1.67,0.78 -1.56,0.77 -1.46,0.80 -1.36,0.82 -1.27,0.88 -1.18,0.93 -1.11,1.01 -1.04,1.10 -1.01,1.20 -0.97,1.29 -0.96,1.40 -0.96,1.51 -0.99,1.61 -1.02,1.71 -1.08,1.80 -1.14,1.88 -1.23,1.95 -1.31,2.01 -1.41,2.04 -1.51,2.08 -1.62,2.07 -1.73,2.07 -1.83,2.04 -1.93,2.00 -2.01,1.94 -2.09,1.87 -2.15,1.78 -2.21,1.69 -2.24,1.59 -2.26,1.49 -2.26,1.49 -2.26,1.49 -0.48,-0.60 1.29,-2.69 3.56,-3.13 5.83,-3.56 8.85,-3.43 11.87,-3.31 14.47,-2.39 17.06,-1.47 18.44,0.09 19.82,1.66 20.00,3.31 20.18,4.96 19.40,7.21 18.62,9.45 16.91,11.68 15.20,13.91 12.88,15.75 10.56,17.58 7.98,18.46 5.40,19.35 2.38,19.14 -0.62,18.93 -3.11,17.87 -5.60,16.80 -7.36,14.89 -9.12,12.98 -9.69,10.42 -10.26,7.86 -9.86,6.11 -9.46,4.36 -8.46,2.63 -7.47,0.89 -5.79,-0.11 -4.11,-1.13 -2.97,-1.10 -1.83,-1.07 -0.91,-0.87 0,-0.66 0.07,-0.65 0.15,-0.64 0.23,-0.61 0.30,-0.58 0.37,-0.54 0.44,-0.49 0.49,-0.43 0.54,-0.37 0.58,-0.30 0.62,-0.23 0.64,-0.15 0.66,-0.08 0.66,0.00 0.66,0.08 0.64,0.15 0.62,0.23 0.58,0.30 0.54,0.37 0.49,0.43 0.44,0.49 0.37,0.54 0.30,0.58 0.23,0.61 0.15,0.64 0.07,0.65 -0.00,0.66 -0.00,0.66 L 0,0.66 Z"/></g><g transform="translate(130.79998779296875 10) rotate(0 -8 19.199996948242188)" stroke="none"><path fill="#1971c2" d="M 0.68,0.39 Q 0.68,0.39 -0.10,2.07 -0.89,3.75 -1.74,5.15 -2.58,6.56 -3.78,9.60 -4.98,12.65 -6.20,16.02 -7.42,19.40 -8.42,21.78 -9.41,24.17 -11.15,28.31 -12.89,32.44 -13.64,34.21 -14.39,35.97 -14.45,36.06 -14.50,36.15 -14.58,36.23 -14.66,36.30 -14.76,36.34 -14.85,36.38 -14.96,36.39 -15.07,36.40 -15.17,36.37 -15.27,36.34 -15.36,36.29 -15.45,36.23 -15.52,36.15 -15.58,36.06 -15.62,35.96 -15.65,35.86 -15.66,35.76 -15.66,35.65 -15.63,35.55 -15.60,35.45 -15.53,35.36 -15.47,35.28 -15.39,35.21 -15.30,35.15 -15.20,35.12 -15.10,35.09 -14.99,35.09 -14.88,35.10 -14.78,35.13 -14.68,35.17 -14.60,35.24 -14.52,35.30 -14.46,35.39 -14.41,35.48 -14.38,35.59 -14.35,35.69 -14.36,35.80 -14.37,35.90 -14.42,36.00 -14.46,36.10 -14.53,36.18 -14.60,36.25 -14.69,36.31 -14.79,36.36 -14.89,36.38 -14.99,36.40 -15.10,36.38 -15.20,36.37 -15.30,36.32 -15.39,36.27 -15.47,36.20 -15.54,36.12 -15.59,36.03 -15.64,35.93 -15.65,35.83 -15.67,35.72 -15.65,35.62 -15.63,35.51 -15.63,35.51 -15.63,35.51 -15.04,33.69 -14.46,31.86 -13.07,27.55 -11.67,23.23 -10.69,20.90 -9.72,18.56 -8.47,15.15 -7.22,11.73 -5.86,8.55 -4.50,5.37 -3.64,4.02 -2.78,2.68 -1.73,1.14 -0.68,-0.39 -0.63,-0.46 -0.57,-0.54 -0.50,-0.60 -0.42,-0.66 -0.34,-0.70 -0.25,-0.75 -0.16,-0.77 -0.06,-0.78 0.02,-0.78 0.12,-0.78 0.21,-0.75 0.30,-0.73 0.39,-0.68 0.47,-0.63 0.54,-0.56 0.61,-0.50 0.66,-0.42 0.71,-0.34 0.74,-0.25 0.77,-0.16 0.78,-0.06 0.79,0.02 0.77,0.12 0.76,0.21 0.72,0.30 0.68,0.39 0.68,0.39 L 0.68,0.39 Z"/></g><g transform="translate(540.3999633789062 223.60000610351562) rotate(0 5.60003662109375 14.399993896484375)" stroke="none"><path fill="#1971c2" d="M 0.62,0.31 Q 0.62,0.31 0.46,1.38 0.30,2.44 -0.27,4.57 -0.85,6.70 -1.33,9.64 -1.80,12.58 -2.01,14.95 -2.22,17.33 -2.31,18.80 -2.40,20.27 -1.99,22.33 -1.58,24.40 -1.23,25.44 -0.88,26.48 -0.25,26.91 0.37,27.35 1.82,27.52 3.26,27.69 5.21,27.59 7.15,27.50 8.50,26.85 9.86,26.20 12.08,24.75 14.30,23.30 14.38,23.23 14.45,23.15 14.55,23.11 14.65,23.06 14.75,23.05 14.86,23.03 14.96,23.06 15.06,23.08 15.16,23.13 15.25,23.18 15.32,23.26 15.39,23.34 15.43,23.44 15.47,23.54 15.48,23.65 15.48,23.75 15.46,23.85 15.43,23.96 15.37,24.05 15.31,24.13 15.23,24.20 15.15,24.27 15.05,24.30 14.95,24.34 14.84,24.34 14.73,24.34 14.63,24.31 14.53,24.27 14.45,24.21 14.36,24.15 14.30,24.06 14.24,23.97 14.21,23.87 14.18,23.77 14.18,23.66 14.19,23.56 14.22,23.46 14.26,23.36 14.33,23.28 14.40,23.20 14.49,23.14 14.58,23.08 14.68,23.06 14.79,23.03 14.89,23.04 15.00,23.05 15.09,23.10 15.19,23.14 15.27,23.21 15.35,23.29 15.40,23.38 15.45,23.47 15.47,23.58 15.49,23.68 15.47,23.79 15.46,23.89 15.41,23.99 15.36,24.08 15.36,24.08 15.36,24.08 13.19,26.41 11.03,28.75 9.20,29.57 7.36,30.38 5.06,30.48 2.76,30.58 0.71,30.13 -1.33,29.67 -2.42,28.64 -3.52,27.61 -3.99,26.28 -4.46,24.95 -4.89,22.53 -5.32,20.11 -5.23,18.59 -5.13,17.07 -4.91,14.58 -4.68,12.09 -4.14,8.99 -3.61,5.89 -2.87,3.56 -2.14,1.23 -1.38,0.45 -0.62,-0.31 -0.57,-0.38 -0.53,-0.45 -0.46,-0.50 -0.40,-0.56 -0.33,-0.60 -0.26,-0.64 -0.17,-0.66 -0.09,-0.69 -0.01,-0.69 0.07,-0.69 0.15,-0.67 0.23,-0.65 0.30,-0.61 0.38,-0.58 0.44,-0.52 0.51,-0.47 0.56,-0.40 0.61,-0.33 0.64,-0.25 0.67,-0.18 0.68,-0.09 0.69,-0.01 0.68,0.06 0.68,0.15 0.65,0.23 0.62,0.31 0.62,0.31 L 0.62,0.31 Z"/></g><g transform="translate(532.3999633789062 237.99996948242188) rotate(0 8.4000244140625 -1.5999755859375)" stroke="none"><path fill="#1971c2" d="M -0.08,-0.85 Q -0.08,-0.85 2.19,-1.27 4.47,-1.69 6.75,-2.22 9.03,-2.76 12.17,-3.15 15.30,-3.54 15.41,-3.55 15.52,-3.55 15.62,-3.53 15.72,-3.50 15.81,-3.44 15.90,-3.38 15.96,-3.29 16.02,-3.21 16.06,-3.11 16.09,-3.01 16.09,-2.90 16.09,-2.79 16.06,-2.69 16.02,-2.59 15.96,-2.51 15.89,-2.42 15.81,-2.36 15.72,-2.30 15.61,-2.28 15.51,-2.25 15.41,-2.25 15.30,-2.26 15.20,-2.30 15.10,-2.34 15.02,-2.41 14.94,-2.48 14.89,-2.57 14.83,-2.66 14.81,-2.76 14.79,-2.87 14.80,-2.97 14.81,-3.08 14.86,-3.18 14.90,-3.27 14.97,-3.35 15.05,-3.43 15.14,-3.48 15.24,-3.52 15.34,-3.54 15.45,-3.56 15.55,-3.54 15.65,-3.52 15.75,-3.47 15.84,-3.42 15.91,-3.35 15.99,-3.27 16.03,-3.17 16.08,-3.08 16.09,-2.97 16.10,-2.86 16.08,-2.76 16.05,-2.66 16.00,-2.57 15.94,-2.47 15.86,-2.41 15.78,-2.34 15.68,-2.30 15.58,-2.26 15.58,-2.26 15.58,-2.26 12.59,-1.32 9.59,-0.38 7.16,0.19 4.72,0.77 2.40,0.81 0.08,0.85 -0.01,0.85 -0.12,0.85 -0.22,0.82 -0.32,0.79 -0.41,0.74 -0.50,0.69 -0.57,0.62 -0.65,0.55 -0.71,0.46 -0.76,0.38 -0.80,0.28 -0.83,0.18 -0.84,0.08 -0.85,-0.01 -0.84,-0.12 -0.82,-0.22 -0.79,-0.31 -0.75,-0.41 -0.69,-0.49 -0.63,-0.58 -0.55,-0.65 -0.47,-0.71 -0.38,-0.76 -0.28,-0.80 -0.18,-0.83 -0.08,-0.85 -0.08,-0.85 L -0.08,-0.85 Z"/></g><g transform="translate(101.199951171875 233.19998168945312) rotate(0 0.800048828125 1.600006103515625)" stroke="none"><path fill="#2f9e44" d="M 0.66,-0.33 Q 0.66,-0.33 1.00,0.32 1.35,0.98 0.61,1.59 -0.12,2.21 -0.87,1.52 -1.63,0.84 -1.70,0.29 -1.78,-0.25 -1.48,-0.94 -1.18,-1.63 -0.50,-1.99 0.17,-2.35 0.84,-2.20 1.51,-2.05 2.02,-1.65 2.54,-1.26 2.76,-0.31 2.99,0.63 2.56,1.24 2.12,1.84 1.56,2.12 0.99,2.39 0.11,2.47 -0.76,2.55 -1.32,2.27 -1.88,1.99 -2.28,1.62 -2.67,1.25 -2.80,0.90 -2.93,0.55 -3.02,0.45 -3.11,0.35 -3.17,0.23 -3.23,0.11 -3.26,-0.01 -3.29,-0.14 -3.28,-0.28 -3.28,-0.41 -3.25,-0.54 -3.21,-0.67 -3.15,-0.79 -3.08,-0.90 -2.99,-1.00 -2.90,-1.10 -2.79,-1.18 -2.68,-1.25 -2.55,-1.30 -2.43,-1.34 -2.29,-1.35 -2.16,-1.37 -2.03,-1.35 -1.89,-1.33 -1.77,-1.28 -1.65,-1.23 -1.54,-1.15 -1.43,-1.08 -0.14,-1.33 1.14,-1.58 1.65,-0.99 2.16,-0.40 2.33,0.45 2.50,1.32 2.28,2.10 2.05,2.88 1.36,3.55 0.66,4.21 -0.20,4.51 -1.08,4.80 -1.83,4.85 -2.58,4.89 -3.19,4.17 -3.81,3.44 -3.30,2.40 -2.78,1.36 -1.96,1.04 -1.14,0.73 -0.10,0.64 0.93,0.55 1.82,0.52 2.72,0.50 3.55,0.78 4.38,1.06 4.88,1.78 5.39,2.50 5.28,3.20 5.17,3.90 4.50,4.52 3.82,5.14 2.92,5.32 2.01,5.50 1.31,5.05 0.60,4.60 0.29,3.95 -0.00,3.30 0.22,2.24 0.45,1.19 1.18,0.67 1.90,0.15 2.73,0.06 3.56,-0.02 4.27,0.48 4.99,0.99 5.28,1.56 5.58,2.14 5.60,2.93 5.62,3.73 5.09,4.22 4.55,4.72 3.71,4.63 2.86,4.55 2.20,4.12 1.53,3.69 1.15,2.86 0.77,2.03 0.72,1.26 0.68,0.49 1.04,-0.04 1.39,-0.58 2.20,-0.80 3.01,-1.03 3.70,-0.99 4.39,-0.96 4.89,-0.60 5.39,-0.24 4.19,0.12 2.99,0.48 3.04,0.55 3.08,0.61 3.11,0.68 3.14,0.76 3.15,0.84 3.16,0.91 3.15,0.99 3.14,1.07 3.12,1.15 3.09,1.22 3.05,1.29 3.00,1.35 2.94,1.41 2.89,1.46 2.82,1.50 2.75,1.53 2.67,1.55 2.59,1.57 2.51,1.58 2.44,1.58 2.36,1.56 2.28,1.54 2.21,1.51 2.14,1.47 2.08,1.42 2.02,1.37 1.96,1.27 1.89,1.17 1.87,1.06 1.85,0.96 1.86,0.85 1.87,0.75 1.92,0.65 1.96,0.56 2.03,0.48 2.11,0.40 2.20,0.35 2.29,0.30 2.40,0.28 2.50,0.27 2.61,0.28 2.71,0.30 2.81,0.35 2.90,0.40 2.98,0.48 3.05,0.56 3.09,0.65 3.14,0.75 3.15,0.85 3.16,0.96 3.14,1.06 3.11,1.17 3.06,1.26 3.01,1.35 2.92,1.42 2.84,1.49 2.74,1.53 2.65,1.57 2.54,1.57 2.43,1.58 2.33,1.55 2.23,1.52 2.14,1.46 2.05,1.40 1.99,1.32 1.92,1.23 1.89,1.13 1.86,1.03 1.86,0.92 1.86,0.82 1.89,0.72 1.92,0.62 1.99,0.53 2.05,0.45 2.14,0.39 2.23,0.33 2.33,0.30 2.43,0.27 2.54,0.28 2.65,0.28 2.74,0.32 2.84,0.36 2.92,0.43 3.01,0.50 3.00,0.49 2.99,0.48 3.04,0.55 3.08,0.61 3.11,0.68 3.14,0.76 3.15,0.84 3.16,0.91 3.15,0.99 3.14,1.07 3.12,1.15 3.09,1.22 3.05,1.29 3.00,1.35 2.94,1.41 2.89,1.46 2.82,1.50 2.75,1.53 2.67,1.55 2.59,1.57 2.51,1.58 2.44,1.58 2.36,1.56 2.28,1.54 2.21,1.51 2.14,1.47 2.08,1.42 2.02,1.37 2.93,1.22 3.84,1.07 3.30,0.99 2.75,0.91 2.89,1.45 3.02,1.98 3.52,2.37 4.02,2.77 3.38,2.77 2.73,2.77 1.91,2.80 1.09,2.83 0.26,2.88 -0.57,2.92 -1.42,2.89 -2.26,2.86 -1.47,2.66 -0.68,2.46 -0.16,2.00 0.35,1.55 0.27,0.81 0.19,0.06 -0.39,0.26 -0.99,0.46 -1.96,0.51 -2.93,0.55 -3.02,0.45 -3.11,0.35 -3.17,0.23 -3.23,0.11 -3.26,-0.01 -3.29,-0.14 -3.28,-0.28 -3.28,-0.41 -3.25,-0.54 -3.21,-0.67 -3.15,-0.79 -3.08,-0.90 -2.99,-1.00 -2.90,-1.10 -2.79,-1.18 -2.68,-1.25 -2.55,-1.30 -2.43,-1.34 -2.29,-1.35 -2.16,-1.37 -2.03,-1.35 -1.89,-1.33 -1.77,-1.28 -1.65,-1.23 -1.54,-1.15 -1.43,-1.08 -1.26,-0.70 -1.10,-0.32 -0.35,-0.15 0.39,0.01 -0.01,0.43 -0.43,0.85 -0.54,0.59 -0.66,0.33 -0.68,0.24 -0.71,0.16 -0.72,0.07 -0.73,-0.01 -0.72,-0.10 -0.71,-0.19 -0.67,-0.27 -0.64,-0.35 -0.59,-0.42 -0.54,-0.50 -0.47,-0.55 -0.40,-0.61 -0.32,-0.65 -0.24,-0.69 -0.16,-0.71 -0.07,-0.73 0.01,-0.73 0.10,-0.73 0.18,-0.70 0.27,-0.68 0.35,-0.64 0.43,-0.59 0.49,-0.53 0.56,-0.47 0.61,-0.40 0.66,-0.32 0.66,-0.32 L 0.66,-0.33 Z"/></g><g transform="translate(101.199951171875 245.19998168945312) rotate(0 -1.199981689453125 10.399993896484375)" stroke="none"><path fill="#2f9e44" d="M 0.80,0.50 Q 0.80,0.50 -0.11,2.48 -1.03,4.46 -1.91,6.74 -2.79,9.02 -3.39,11.12 -4.00,13.22 -4.25,14.74 -4.50,16.26 -4.61,17.34 -4.72,18.42 -3.67,18.52 -2.63,18.62 -1.82,18.39 -1.01,18.15 1.03,17.40 3.09,16.65 3.18,16.60 3.28,16.55 3.38,16.54 3.49,16.52 3.59,16.54 3.70,16.56 3.79,16.61 3.88,16.66 3.95,16.74 4.03,16.82 4.07,16.91 4.11,17.01 4.12,17.12 4.13,17.22 4.11,17.33 4.08,17.43 4.03,17.52 3.97,17.61 3.89,17.68 3.80,17.74 3.71,17.78 3.61,17.82 3.50,17.82 3.39,17.83 3.29,17.80 3.19,17.77 3.10,17.71 3.02,17.65 2.95,17.56 2.89,17.47 2.86,17.37 2.83,17.27 2.83,17.17 2.83,17.06 2.87,16.96 2.90,16.86 2.97,16.78 3.03,16.69 3.12,16.63 3.21,16.58 3.31,16.55 3.42,16.52 3.52,16.53 3.63,16.54 3.73,16.58 3.82,16.62 3.90,16.69 3.98,16.76 4.04,16.85 4.09,16.94 4.11,17.05 4.13,17.15 4.12,17.26 4.11,17.36 4.06,17.46 4.01,17.55 3.94,17.63 3.86,17.71 3.86,17.71 3.86,17.71 1.84,19.38 -0.18,21.05 -1.27,21.35 -2.35,21.66 -3.87,21.68 -5.38,21.70 -6.25,21.05 -7.11,20.40 -7.42,19.29 -7.74,18.18 -7.62,16.97 -7.50,15.76 -7.21,14.07 -6.92,12.37 -6.26,10.13 -5.60,7.90 -4.58,5.40 -3.56,2.89 -2.18,1.19 -0.80,-0.50 -0.73,-0.59 -0.66,-0.68 -0.57,-0.75 -0.48,-0.82 -0.37,-0.87 -0.27,-0.91 -0.15,-0.93 -0.04,-0.95 0.07,-0.94 0.18,-0.93 0.29,-0.90 0.40,-0.86 0.50,-0.80 0.60,-0.74 0.68,-0.66 0.76,-0.57 0.81,-0.47 0.87,-0.37 0.90,-0.26 0.94,-0.15 0.94,-0.04 0.95,0.07 0.92,0.18 0.90,0.29 0.85,0.40 0.80,0.50 0.80,0.50 L 0.80,0.50 Z"/></g><g transform="translate(89.199951171875 256.3999938964844) rotate(0 6.4000244140625 -0.399993896484375)" stroke="none"><path fill="#2f9e44" d="M -0.13,-0.97 Q -0.13,-0.97 1.44,-1.35 3.03,-1.74 5.16,-1.81 7.29,-1.87 9.54,-1.65 11.79,-1.43 11.90,-1.41 12.00,-1.40 12.10,-1.35 12.19,-1.30 12.27,-1.23 12.34,-1.15 12.39,-1.06 12.44,-0.96 12.45,-0.86 12.47,-0.75 12.45,-0.65 12.43,-0.54 12.37,-0.45 12.32,-0.36 12.24,-0.29 12.16,-0.22 12.07,-0.17 11.97,-0.13 11.86,-0.12 11.76,-0.11 11.65,-0.14 11.55,-0.17 11.46,-0.22 11.37,-0.28 11.31,-0.36 11.24,-0.45 11.20,-0.55 11.17,-0.65 11.16,-0.75 11.16,-0.86 11.19,-0.96 11.22,-1.06 11.28,-1.15 11.35,-1.23 11.43,-1.30 11.52,-1.36 11.62,-1.39 11.72,-1.42 11.83,-1.42 11.93,-1.41 12.03,-1.38 12.13,-1.34 12.22,-1.27 12.30,-1.21 12.36,-1.12 12.41,-1.03 12.44,-0.92 12.46,-0.82 12.46,-0.72 12.45,-0.61 12.41,-0.51 12.36,-0.41 12.29,-0.34 12.22,-0.26 12.13,-0.20 12.04,-0.15 11.93,-0.13 11.83,-0.11 11.83,-0.11 11.83,-0.11 9.61,0.22 7.40,0.56 5.40,0.69 3.40,0.82 1.77,0.89 0.13,0.97 0.02,0.97 -0.09,0.97 -0.21,0.95 -0.32,0.92 -0.43,0.87 -0.54,0.82 -0.63,0.74 -0.72,0.66 -0.79,0.57 -0.86,0.47 -0.90,0.36 -0.95,0.25 -0.96,0.13 -0.98,0.02 -0.97,-0.09 -0.96,-0.21 -0.92,-0.32 -0.88,-0.43 -0.81,-0.53 -0.75,-0.63 -0.66,-0.71 -0.57,-0.79 -0.47,-0.85 -0.36,-0.91 -0.25,-0.94 -0.13,-0.97 -0.13,-0.97 L -0.13,-0.97 Z"/></g><g transform="translate(108.39996337890625 265.9999694824219) rotate(0 2.4000244140625 2.4000244140625)" stroke="none"><path fill="#2f9e44" d="M 0.70,0.17 Q 0.70,0.17 0.76,1.08 0.82,1.99 1.14,2.48 1.46,2.98 1.89,3.34 2.32,3.70 3.09,3.82 3.86,3.94 4.41,3.47 4.96,3.00 4.77,2.19 4.58,1.38 3.52,1.24 2.45,1.11 0.70,1.55 -1.05,1.98 -1.12,1.95 -1.19,1.92 -1.26,1.87 -1.32,1.83 -1.37,1.77 -1.43,1.71 -1.46,1.64 -1.50,1.57 -1.51,1.49 -1.53,1.41 -1.53,1.33 -1.53,1.25 -1.51,1.18 -1.49,1.10 -1.45,1.03 -1.41,0.96 -1.36,0.90 -1.30,0.85 -1.24,0.80 -1.17,0.76 -1.10,0.73 -1.02,0.70 -0.94,0.70 -0.87,0.69 -0.79,0.70 -0.71,0.71 -0.47,1.03 -0.22,1.35 -0.24,1.45 -0.26,1.56 -0.31,1.65 -0.36,1.74 -0.43,1.82 -0.51,1.89 -0.61,1.93 -0.70,1.98 -0.81,1.99 -0.92,2.00 -1.02,1.98 -1.12,1.95 -1.21,1.90 -1.31,1.84 -1.37,1.76 -1.44,1.68 -1.48,1.58 -1.52,1.48 -1.53,1.38 -1.53,1.27 -1.50,1.17 -1.47,1.07 -1.41,0.98 -1.35,0.89 -1.27,0.83 -1.18,0.76 -1.08,0.73 -0.98,0.70 -0.88,0.70 -0.77,0.70 -0.67,0.73 -0.57,0.77 -0.48,0.83 -0.40,0.90 -0.34,0.98 -0.28,1.07 -0.25,1.17 -0.23,1.28 -0.23,1.38 -0.24,1.49 -0.28,1.59 -0.32,1.69 -0.39,1.77 -0.45,1.85 -0.55,1.90 -0.64,1.96 -0.74,1.98 -0.84,2.00 -0.95,1.99 -1.06,1.98 -1.15,1.93 -1.25,1.89 -1.33,1.81 -1.40,1.74 -1.45,1.65 -1.50,1.55 -1.27,1.77 -1.05,1.98 -1.12,1.95 -1.19,1.92 -1.26,1.87 -1.32,1.83 -1.37,1.77 -1.43,1.71 -1.46,1.64 -1.50,1.57 -1.51,1.49 -1.53,1.41 -1.53,1.33 -1.53,1.25 -1.51,1.18 -1.49,1.10 -1.45,1.03 -1.41,0.96 -1.36,0.90 -1.30,0.85 -1.24,0.80 -1.17,0.76 -1.10,0.73 -1.02,0.70 -0.94,0.70 -0.87,0.69 -0.79,0.70 -0.71,0.71 1.23,-0.46 3.18,-1.63 4.86,-1.04 6.53,-0.44 7.18,0.88 7.83,2.20 7.21,3.66 6.59,5.12 5.21,5.81 3.83,6.50 2.25,6.12 0.66,5.74 -0.13,4.92 -0.94,4.09 -1.34,2.89 -1.74,1.68 -1.22,0.75 -0.70,-0.17 -0.67,-0.25 -0.64,-0.34 -0.59,-0.41 -0.54,-0.48 -0.47,-0.54 -0.41,-0.60 -0.33,-0.64 -0.25,-0.68 -0.17,-0.70 -0.08,-0.72 0.00,-0.72 0.09,-0.72 0.17,-0.70 0.26,-0.68 0.33,-0.63 0.41,-0.59 0.48,-0.53 0.54,-0.48 0.59,-0.40 0.64,-0.33 0.67,-0.25 0.70,-0.17 0.71,-0.08 0.72,0.00 0.71,0.08 0.70,0.17 0.70,0.17 L 0.70,0.17 Z"/></g><g transform="translate(478.79998779296875 229.19998168945312) rotate(0 -1.20001220703125 6.800018310546875)" stroke="none"><path fill="#2f9e44" d="M 0.67,0 Q 0.67,0 0.96,0.92 1.25,1.84 1.25,2.46 1.25,3.08 1.25,4.01 1.26,4.94 0.95,6.08 0.65,7.21 0.59,7.77 0.52,8.33 0.50,9.08 0.49,9.83 0.17,10.93 -0.14,12.03 -0.92,13.23 -1.71,14.42 -1.76,14.51 -1.81,14.61 -1.89,14.68 -1.97,14.75 -2.06,14.80 -2.16,14.84 -2.27,14.85 -2.37,14.86 -2.47,14.84 -2.58,14.81 -2.67,14.76 -2.76,14.70 -2.83,14.62 -2.89,14.54 -2.93,14.44 -2.97,14.34 -2.98,14.23 -2.98,14.13 -2.95,14.03 -2.92,13.92 -2.86,13.84 -2.80,13.75 -2.72,13.69 -2.63,13.62 -2.53,13.59 -2.43,13.56 -2.32,13.56 -2.22,13.56 -2.12,13.59 -2.02,13.63 -1.93,13.69 -1.85,13.76 -1.79,13.85 -1.73,13.94 -1.70,14.04 -1.68,14.14 -1.68,14.25 -1.69,14.35 -1.73,14.45 -1.77,14.55 -1.84,14.63 -1.91,14.71 -2.00,14.76 -2.09,14.82 -2.20,14.84 -2.30,14.86 -2.41,14.85 -2.51,14.84 -2.61,14.79 -2.70,14.74 -2.78,14.67 -2.86,14.60 -2.90,14.50 -2.95,14.41 -2.97,14.30 -2.99,14.20 -2.97,14.09 -2.95,13.99 -2.95,13.99 -2.95,13.99 -2.50,12.25 -2.04,10.51 -2.04,9.73 -2.04,8.95 -1.97,8.02 -1.89,7.10 -1.73,6.54 -1.57,5.98 -1.41,5.46 -1.26,4.94 -1.25,4.01 -1.25,3.08 -1.25,2.46 -1.25,1.84 -0.96,0.92 -0.67,0 -0.66,-0.08 -0.65,-0.16 -0.62,-0.23 -0.59,-0.31 -0.55,-0.38 -0.50,-0.44 -0.44,-0.50 -0.38,-0.55 -0.31,-0.59 -0.24,-0.63 -0.16,-0.65 -0.08,-0.67 0.00,-0.67 0.08,-0.67 0.16,-0.65 0.24,-0.63 0.31,-0.59 0.38,-0.55 0.44,-0.50 0.50,-0.44 0.55,-0.38 0.59,-0.31 0.62,-0.23 0.65,-0.16 0.66,-0.08 0.67,0.00 0.67,0.00 L 0.67,0 Z"/></g><g transform="translate(474.79998779296875 253.19998168945312) rotate(0 -1.5999755859375 6.399993896484375)" stroke="none"><path fill="#2f9e44" d="M 0.70,0.47 Q 0.70,0.47 0.03,2.01 -0.63,3.56 -1.72,5.09 -2.80,6.62 -3.18,7.57 -3.56,8.53 -3.71,9.53 -3.86,10.53 -2.95,10.85 -2.03,11.17 -0.08,10.94 1.86,10.70 1.96,10.68 2.06,10.66 2.17,10.67 2.27,10.68 2.37,10.73 2.47,10.77 2.54,10.85 2.62,10.92 2.67,11.02 2.72,11.11 2.73,11.22 2.75,11.32 2.73,11.43 2.71,11.53 2.66,11.62 2.61,11.72 2.53,11.79 2.45,11.86 2.35,11.90 2.26,11.95 2.15,11.96 2.05,11.97 1.94,11.94 1.84,11.92 1.75,11.86 1.66,11.81 1.59,11.72 1.52,11.64 1.48,11.54 1.45,11.44 1.44,11.34 1.44,11.23 1.47,11.13 1.50,11.03 1.56,10.94 1.62,10.85 1.71,10.79 1.79,10.73 1.89,10.69 1.99,10.66 2.10,10.66 2.21,10.67 2.31,10.70 2.41,10.74 2.49,10.80 2.57,10.87 2.63,10.96 2.69,11.04 2.72,11.15 2.74,11.25 2.74,11.36 2.73,11.46 2.69,11.56 2.65,11.66 2.58,11.74 2.51,11.82 2.42,11.87 2.32,11.92 2.32,11.92 2.32,11.92 -0.04,12.98 -2.42,14.03 -3.59,13.85 -4.76,13.67 -5.56,13.13 -6.36,12.58 -6.56,11.31 -6.75,10.04 -6.51,8.73 -6.27,7.41 -5.73,6.17 -5.19,4.92 -4.12,3.44 -3.04,1.95 -1.87,0.74 -0.70,-0.47 -0.64,-0.54 -0.57,-0.62 -0.49,-0.68 -0.40,-0.74 -0.31,-0.78 -0.21,-0.82 -0.11,-0.83 -0.01,-0.85 0.08,-0.83 0.19,-0.82 0.28,-0.79 0.38,-0.75 0.46,-0.70 0.55,-0.64 0.62,-0.56 0.69,-0.49 0.74,-0.40 0.79,-0.31 0.81,-0.21 0.84,-0.11 0.84,-0.01 0.84,0.08 0.82,0.18 0.79,0.28 0.75,0.38 0.70,0.47 0.70,0.47 L 0.70,0.47 Z"/></g><g transform="translate(465.99993896484375 259.6000061035156) rotate(0 4.4000244140625 0)" stroke="none"><path fill="#2f9e44" d="M 0,-0.83 Q 0,-0.83 1.15,-0.97 2.3,-1.10 5.25,-0.88 8.21,-0.65 8.32,-0.63 8.42,-0.62 8.52,-0.57 8.61,-0.52 8.68,-0.44 8.76,-0.36 8.80,-0.27 8.85,-0.17 8.86,-0.07 8.87,0.03 8.85,0.13 8.82,0.24 8.77,0.33 8.71,0.42 8.63,0.49 8.55,0.56 8.45,0.60 8.35,0.64 8.25,0.64 8.14,0.65 8.04,0.62 7.94,0.59 7.85,0.53 7.76,0.47 7.70,0.39 7.63,0.30 7.60,0.20 7.56,0.10 7.56,-0.00 7.56,-0.10 7.60,-0.20 7.63,-0.30 7.70,-0.39 7.76,-0.47 7.85,-0.53 7.94,-0.59 8.04,-0.62 8.14,-0.65 8.25,-0.64 8.35,-0.64 8.45,-0.60 8.55,-0.56 8.63,-0.49 8.71,-0.42 8.77,-0.33 8.82,-0.24 8.85,-0.13 8.87,-0.03 8.86,0.07 8.85,0.17 8.80,0.27 8.76,0.36 8.68,0.44 8.61,0.52 8.52,0.57 8.42,0.62 8.32,0.63 8.21,0.65 8.21,0.65 8.21,0.65 5.25,0.88 2.3,1.10 1.15,0.97 0,0.83 -0.10,0.82 -0.20,0.81 -0.29,0.77 -0.39,0.74 -0.47,0.68 -0.55,0.62 -0.62,0.55 -0.69,0.47 -0.73,0.38 -0.78,0.29 -0.80,0.19 -0.83,0.10 -0.83,-0.00 -0.83,-0.10 -0.80,-0.19 -0.78,-0.29 -0.73,-0.38 -0.69,-0.47 -0.62,-0.55 -0.55,-0.62 -0.47,-0.68 -0.39,-0.74 -0.29,-0.77 -0.20,-0.81 -0.10,-0.82 0.00,-0.83 0.00,-0.83 L 0,-0.83 Z"/></g><g transform="translate(480.39996337890625 264.3999938964844) rotate(0 -0.39996337890625 3.600006103515625)" stroke="none"><path fill="#2f9e44" d="M 0.82,0 Q 0.82,0 1.15,1.15 1.48,2.3 0.71,4.73 -0.05,7.16 -0.11,7.24 -0.17,7.33 -0.26,7.40 -0.34,7.46 -0.44,7.50 -0.54,7.53 -0.65,7.53 -0.76,7.53 -0.86,7.50 -0.96,7.46 -1.04,7.40 -1.13,7.33 -1.19,7.25 -1.25,7.16 -1.27,7.06 -1.30,6.95 -1.30,6.85 -1.29,6.74 -1.25,6.64 -1.21,6.54 -1.14,6.46 -1.08,6.38 -0.99,6.33 -0.89,6.27 -0.79,6.25 -0.69,6.23 -0.58,6.24 -0.48,6.25 -0.38,6.29 -0.28,6.34 -0.21,6.41 -0.13,6.48 -0.08,6.58 -0.03,6.67 -0.01,6.78 0.00,6.88 -0.01,6.99 -0.03,7.09 -0.08,7.18 -0.13,7.28 -0.20,7.35 -0.28,7.42 -0.38,7.47 -0.47,7.51 -0.58,7.53 -0.69,7.54 -0.79,7.51 -0.89,7.49 -0.98,7.44 -1.07,7.38 -1.14,7.30 -1.21,7.22 -1.25,7.12 -1.29,7.02 -1.30,6.92 -1.30,6.81 -1.28,6.71 -1.25,6.61 -1.25,6.61 -1.25,6.61 -1.36,4.45 -1.48,2.3 -1.15,1.15 -0.82,0 -0.80,-0.09 -0.79,-0.19 -0.76,-0.28 -0.72,-0.38 -0.67,-0.46 -0.61,-0.54 -0.54,-0.61 -0.46,-0.67 -0.37,-0.72 -0.29,-0.76 -0.19,-0.79 -0.09,-0.81 0.00,-0.81 0.09,-0.81 0.19,-0.79 0.29,-0.76 0.37,-0.72 0.46,-0.67 0.54,-0.61 0.61,-0.54 0.67,-0.46 0.72,-0.38 0.76,-0.28 0.79,-0.19 0.80,-0.09 0.82,0.00 0.82,0.00 L 0.82,0 Z"/></g><g transform="translate(56.4000244140625 60.39996337890625) rotate(0 243.99996948242188 46)" stroke="none"><path fill="#f08c00" d="M -0.46,-0.69 Q -0.46,-0.69 0.05,-1.40 0.58,-2.11 1.26,-2.71 1.94,-3.31 2.47,-3.80 3.01,-4.30 3.69,-4.97 4.38,-5.64 5.52,-6.27 6.67,-6.90 7.94,-7.77 9.21,-8.64 10.47,-9.49 11.73,-10.34 12.96,-11.16 14.18,-11.98 15.48,-12.61 16.78,-13.24 17.75,-13.71 18.72,-14.19 19.77,-14.82 20.82,-15.45 22.25,-16.22 23.67,-16.98 25.11,-17.35 26.55,-17.73 27.20,-18.04 27.84,-18.36 28.91,-18.77 29.98,-19.17 31.01,-19.75 32.04,-20.33 33.27,-20.86 34.51,-21.39 35.31,-21.63 36.11,-21.86 37.51,-22.53 38.90,-23.20 40.28,-23.61 41.65,-24.02 42.88,-24.41 44.12,-24.80 44.94,-24.98 45.76,-25.16 46.72,-25.45 47.68,-25.74 48.79,-26.10 49.90,-26.46 51.19,-26.64 52.48,-26.82 53.59,-27.10 54.69,-27.38 55.74,-27.52 56.78,-27.66 57.79,-27.93 58.80,-28.20 60.44,-28.57 62.09,-28.94 64.18,-29.33 66.27,-29.72 68.29,-30.12 70.31,-30.52 72.07,-30.91 73.83,-31.30 75.83,-31.49 77.84,-31.68 79.61,-31.76 81.37,-31.84 83.51,-31.88 85.65,-31.91 87.47,-31.93 89.29,-31.94 90.99,-31.95 92.69,-31.95 94.65,-31.72 96.62,-31.49 98.39,-31.15 100.15,-30.81 101.83,-30.44 103.50,-30.07 104.81,-29.92 106.11,-29.78 107.69,-29.48 109.26,-29.17 110.85,-28.81 112.43,-28.46 113.92,-28.32 115.40,-28.19 116.86,-27.88 118.31,-27.57 119.83,-27.21 121.34,-26.85 123.01,-26.21 124.67,-25.57 126.40,-25.11 128.13,-24.65 129.61,-24.21 131.09,-23.76 132.71,-23.09 134.33,-22.42 135.94,-21.67 137.54,-20.92 139.33,-20.17 141.13,-19.41 142.96,-18.88 144.80,-18.35 146.52,-17.89 148.24,-17.43 150.19,-16.76 152.13,-16.08 153.91,-15.32 155.68,-14.56 157.55,-13.79 159.42,-13.02 160.78,-12.73 162.14,-12.45 163.91,-12.08 165.68,-11.71 167.38,-11.32 169.08,-10.93 170.72,-10.54 172.36,-10.14 173.98,-9.74 175.59,-9.35 176.66,-9.19 177.74,-9.04 179.40,-8.73 181.07,-8.43 182.71,-8.07 184.36,-7.71 186.18,-7.33 188.01,-6.95 190.15,-6.56 192.29,-6.17 194.06,-6.02 195.82,-5.86 198.24,-5.56 200.66,-5.25 202.86,-4.89 205.06,-4.53 207.36,-4.15 209.66,-3.76 211.38,-3.36 213.10,-2.96 214.85,-2.81 216.59,-2.66 218.26,-2.59 219.93,-2.52 221.33,-2.49 222.74,-2.47 224.25,-2.46 225.76,-2.45 227.09,-2.45 228.43,-2.44 230.37,-2.44 232.32,-2.44 234.52,-2.44 236.73,-2.44 238.82,-2.44 240.91,-2.44 242.72,-2.44 244.52,-2.45 246.44,-2.45 248.36,-2.45 250.32,-2.45 252.29,-2.45 254.28,-2.45 256.26,-2.45 258.25,-2.45 260.25,-2.45 262.02,-2.45 263.78,-2.45 265.68,-2.45 267.58,-2.45 269.77,-2.45 271.96,-2.45 273.81,-2.45 275.66,-2.45 277.36,-2.45 279.07,-2.45 280.35,-2.67 281.64,-2.89 283.48,-3.00 285.31,-3.11 287.14,-3.37 288.96,-3.64 290.27,-3.76 291.57,-3.88 292.84,-3.93 294.11,-3.98 295.34,-4.00 296.58,-4.02 297.79,-4.03 299.00,-4.04 300.44,-4.04 301.87,-4.05 302.95,-4.05 304.03,-4.05 305.14,-3.80 306.25,-3.54 306.99,-3.47 307.73,-3.39 308.50,-3.35 309.27,-3.31 310.05,-3.30 310.84,-3.28 311.63,-3.27 312.42,-3.27 313.22,-3.26 314.02,-3.26 314.82,-3.26 315.61,-3.25 316.42,-3.25 317.23,-3.25 318.25,-2.99 319.26,-2.72 320.15,-2.65 321.03,-2.58 321.67,-2.54 322.31,-2.50 323.02,-2.49 323.73,-2.47 324.50,-2.46 325.26,-2.45 325.83,-2.45 326.40,-2.44 327.34,-2.17 328.28,-1.90 329.28,-1.80 330.28,-1.70 331.45,-1.67 332.63,-1.64 333.60,-1.37 334.57,-1.09 335.62,-0.98 336.67,-0.87 337.85,-0.85 339.02,-0.82 339.99,-0.55 340.96,-0.28 341.81,-0.17 342.66,-0.06 343.69,-0.03 344.72,0.00 345.51,0.30 346.31,0.60 347.67,0.95 349.03,1.30 349.57,1.44 350.10,1.59 350.64,2.05 351.17,2.51 351.78,2.47 352.39,2.43 353.10,2.76 353.80,3.10 354.56,3.67 355.31,4.24 356.03,4.07 356.75,3.89 357.45,3.91 358.15,3.92 358.91,3.93 359.67,3.94 361.14,3.94 362.61,3.95 364.04,3.74 365.47,3.52 367.11,3.42 368.76,3.32 369.75,3.08 370.75,2.83 371.88,2.50 373.01,2.17 374.18,1.80 375.35,1.42 376.26,1.06 377.17,0.69 378.00,0.30 378.84,-0.07 379.33,-0.41 379.82,-0.75 380.60,-1.18 381.37,-1.62 382.34,-1.87 383.32,-2.12 384.27,-2.41 385.23,-2.70 386.06,-3.04 386.88,-3.37 388.13,-3.57 389.39,-3.78 390.60,-3.85 391.81,-3.92 393.25,-3.95 394.68,-3.97 395.98,-3.99 397.28,-4.00 398.52,-4.00 399.76,-4.01 400.52,-4.01 401.27,-4.01 401.83,-4.02 402.38,-4.02 403.29,-4.02 404.19,-4.01 405.09,-3.74 405.99,-3.46 406.94,-3.14 407.89,-2.82 408.64,-2.71 409.39,-2.60 410.20,-2.24 411.02,-1.88 411.63,-1.45 412.23,-1.03 412.96,-0.36 413.69,0.29 414.50,0.67 415.31,1.04 416.16,1.86 417.01,2.68 417.51,3.19 418.01,3.70 418.46,4.16 418.91,4.62 419.48,5.70 420.05,6.79 420.48,7.91 420.92,9.03 421.50,10.07 422.09,11.11 423.01,12.45 423.94,13.79 424.77,14.79 425.60,15.79 426.52,17.53 427.44,19.27 428.44,20.80 429.45,22.32 430.14,23.49 430.83,24.66 431.56,25.82 432.30,26.97 432.90,28.25 433.50,29.54 433.91,30.18 434.32,30.83 434.59,31.52 434.86,32.21 435.39,32.85 435.92,33.49 436.89,34.49 437.86,35.49 438.58,36.22 439.30,36.94 439.95,37.39 440.61,37.84 441.49,38.22 442.38,38.61 443.42,39.35 444.45,40.09 445.39,40.52 446.33,40.95 447.11,41.45 447.88,41.94 448.74,42.30 449.60,42.65 450.66,43.04 451.73,43.43 452.73,43.57 453.73,43.70 454.81,44.03 455.88,44.37 456.62,44.47 457.36,44.57 458.34,44.62 459.32,44.66 460.43,44.69 461.54,44.71 462.49,44.72 463.43,44.73 464.49,45.00 465.56,45.26 466.47,45.62 467.38,45.99 468.22,46.37 469.06,46.76 469.69,46.86 470.32,46.96 471.25,47.29 472.18,47.63 473.02,48.00 473.86,48.38 474.49,48.48 475.11,48.58 476.51,48.94 477.91,49.29 478.70,49.41 479.49,49.52 480.51,49.55 481.53,49.58 482.33,49.88 483.13,50.18 483.77,50.27 484.40,50.35 485.12,50.70 485.83,51.06 486.31,51.45 486.80,51.85 487.48,52.43 488.17,53.01 488.71,53.26 489.26,53.51 489.70,53.93 490.15,54.34 490.49,54.98 490.83,55.61 490.95,56.18 491.07,56.74 490.99,57.40 490.92,58.07 491.34,58.56 491.77,59.05 491.84,59.60 491.91,60.15 491.67,61.08 491.42,62.01 490.84,63.02 490.25,64.03 489.56,64.79 488.87,65.55 488.47,65.89 488.07,66.24 487.43,66.54 486.79,66.83 485.89,67.14 485.00,67.45 484.22,67.79 483.44,68.12 482.46,68.33 481.49,68.53 480.60,68.60 479.72,68.68 479.09,68.90 478.46,69.12 477.28,69.27 476.09,69.41 475.34,69.65 474.59,69.90 473.53,70.24 472.47,70.59 471.33,70.97 470.19,71.35 468.85,71.95 467.52,72.54 466.20,73.05 464.87,73.56 463.62,74.01 462.36,74.46 461.14,74.88 459.91,75.31 458.82,75.51 457.73,75.72 456.53,75.81 455.34,75.89 454.04,76.14 452.75,76.40 451.15,76.52 449.55,76.64 447.95,76.69 446.35,76.74 445.22,76.76 444.09,76.79 442.81,77.02 441.53,77.24 440.18,77.35 438.82,77.46 437.44,77.73 436.06,77.99 434.67,78.11 433.28,78.24 431.63,78.51 429.98,78.79 428.03,78.92 426.07,79.05 424.44,79.33 422.80,79.60 420.69,79.95 418.58,80.31 417.05,80.67 415.52,81.04 413.68,81.44 411.84,81.84 410.05,82.02 408.26,82.20 406.20,82.49 404.13,82.79 402.27,82.92 400.40,83.06 398.63,83.55 396.86,84.04 394.29,84.28 391.73,84.52 388.88,84.84 386.02,85.17 382.44,85.31 378.86,85.45 376.20,85.51 373.54,85.57 370.87,85.82 368.19,86.07 365.20,86.40 362.22,86.74 359.11,87.11 356.00,87.48 353.14,88.09 350.27,88.70 347.80,88.97 345.32,89.25 342.71,89.59 340.09,89.93 337.14,90.31 334.18,90.68 331.62,91.29 329.07,91.89 326.95,92.17 324.82,92.45 322.59,92.79 320.37,93.13 318.04,93.50 315.71,93.87 313.34,94.26 310.98,94.65 309.43,95.24 307.88,95.83 305.68,96.35 303.48,96.87 301.51,97.53 299.53,98.18 297.36,99.13 295.18,100.07 292.80,100.96 290.43,101.85 288.47,102.47 286.52,103.08 284.85,103.78 283.19,104.47 281.11,105.45 279.03,106.42 277.02,107.52 275.01,108.61 273.40,109.34 271.78,110.07 270.22,110.82 268.65,111.57 267.07,112.35 265.48,113.13 263.35,113.95 261.23,114.77 259.21,115.56 257.20,116.35 256.00,117.09 254.80,117.83 253.46,118.44 252.13,119.06 250.59,119.56 249.05,120.06 246.97,120.52 244.89,120.97 243.14,121.38 241.38,121.79 239.47,122.20 237.55,122.60 235.49,122.79 233.43,122.97 231.18,123.05 228.92,123.13 226.66,123.38 224.41,123.64 222.46,123.75 220.51,123.87 218.05,123.92 215.60,123.97 213.03,123.51 210.46,123.06 207.78,122.40 205.10,121.74 202.56,121.00 200.03,120.25 197.36,119.48 194.69,118.71 191.89,117.67 189.09,116.63 186.40,116.00 183.72,115.37 181.62,114.86 179.51,114.34 177.41,113.65 175.30,112.95 173.45,112.18 171.61,111.40 169.90,110.62 168.19,109.83 166.55,109.03 164.90,108.23 163.56,107.69 162.22,107.14 160.86,106.40 159.50,105.66 158.51,105.14 157.52,104.62 156.18,103.94 154.85,103.26 153.26,102.80 151.67,102.33 150.24,101.87 148.80,101.42 147.31,101.00 145.81,100.59 144.26,100.18 142.70,99.78 141.12,99.37 139.54,98.97 138.33,98.55 137.13,98.13 135.77,97.74 134.42,97.36 133.11,96.95 131.81,96.54 130.27,95.88 128.72,95.23 127.05,94.76 125.38,94.30 123.62,93.60 121.86,92.90 120.49,92.39 119.11,91.88 117.44,91.46 115.77,91.03 113.82,90.36 111.86,89.69 109.97,89.21 108.08,88.72 106.53,88.27 104.99,87.81 103.55,87.65 102.11,87.49 100.87,87.15 99.63,86.82 98.62,86.43 97.61,86.05 96.69,85.94 95.77,85.83 94.72,85.50 93.66,85.18 92.58,84.82 91.49,84.46 90.69,84.34 89.89,84.22 88.73,83.91 87.57,83.59 86.75,83.49 85.93,83.38 84.76,83.08 83.58,82.78 82.76,82.68 81.94,82.57 81.15,82.53 80.35,82.48 79.16,82.21 77.98,81.94 76.73,81.85 75.49,81.76 74.48,81.72 73.46,81.69 72.35,81.67 71.23,81.65 70.11,81.39 68.99,81.13 68.23,81.04 67.47,80.96 66.31,80.67 65.15,80.38 64.54,80.28 63.92,80.17 63.04,80.13 62.16,80.09 61.54,80.07 60.91,80.05 60.15,80.25 59.38,80.45 58.68,80.56 57.98,80.67 57.43,80.71 56.88,80.76 55.80,81.09 54.71,81.42 53.88,81.81 53.05,82.19 52.52,82.26 51.99,82.33 51.16,82.35 50.32,82.37 49.65,82.70 48.97,83.02 48.40,83.22 47.82,83.41 47.21,83.61 46.60,83.80 45.64,83.89 44.69,83.98 43.67,84.31 42.65,84.63 42.06,84.68 41.47,84.72 40.68,84.44 39.89,84.16 38.89,83.82 37.89,83.48 37.25,83.06 36.61,82.64 36.01,82.30 35.40,81.96 34.79,81.51 34.18,81.06 33.45,80.38 32.71,79.71 32.18,79.20 31.65,78.69 30.96,78.01 30.27,77.34 29.29,76.36 28.31,75.38 27.27,74.57 26.23,73.75 24.85,72.70 23.47,71.64 22.47,71.00 21.46,70.36 20.07,69.36 18.67,68.36 16.79,67.30 14.90,66.24 13.53,65.27 12.15,64.30 10.85,63.16 9.55,62.03 8.14,60.89 6.73,59.76 5.38,58.56 4.03,57.35 2.99,56.37 1.96,55.39 1.17,54.12 0.38,52.86 -0.14,51.91 -0.67,50.95 -1.16,49.79 -1.65,48.62 -1.87,47.83 -2.09,47.05 -2.19,46.43 -2.29,45.82 -2.33,45.05 -2.37,44.29 -2.38,43.75 -2.40,43.21 -2.41,42.32 -2.42,41.43 -2.42,40.79 -2.43,40.14 -2.43,39.18 -2.43,38.22 -2.43,37.58 -2.43,36.94 -2.43,36.21 -2.43,35.48 -2.43,34.94 -2.43,34.39 -2.43,33.70 -2.43,33.01 -2.43,32.26 -2.43,31.51 -2.43,30.96 -2.43,30.41 -2.10,29.15 -1.78,27.90 -1.77,27.30 -1.76,26.70 -1.45,25.71 -1.15,24.72 -1.02,23.62 -0.90,22.53 -0.61,20.93 -0.32,19.34 -0.24,18.79 -0.15,18.25 -0.10,17.41 -0.05,16.58 -0.04,15.32 -0.03,14.07 -0.03,13.24 -0.03,12.42 -0.03,11.85 -0.02,11.28 -0.35,9.90 -0.67,8.53 -1.03,7.55 -1.40,6.57 -1.49,5.66 -1.57,4.74 -1.89,4.08 -2.22,3.42 -2.68,2.92 -3.14,2.42 -3.43,1.78 -3.71,1.14 -3.82,0.59 -3.92,0.04 -3.96,-0.85 -4.01,-1.76 -3.62,-3.03 -3.24,-4.31 -2.60,-4.71 -1.97,-5.11 -1.40,-5.23 -0.82,-5.34 0.32,-5.25 1.48,-5.16 1.91,-4.81 2.35,-4.47 3.13,-4.81 3.91,-5.15 4.68,-5.55 5.44,-5.95 6.06,-6.17 6.69,-6.40 8.20,-6.93 9.71,-7.47 9.80,-7.53 9.89,-7.58 10.00,-7.61 10.10,-7.63 10.21,-7.62 10.31,-7.61 10.41,-7.57 10.51,-7.52 10.58,-7.45 10.66,-7.38 10.71,-7.29 10.76,-7.19 10.78,-7.09 10.80,-6.98 10.78,-6.88 10.77,-6.77 10.72,-6.68 10.67,-6.59 10.59,-6.51 10.52,-6.44 10.42,-6.39 10.33,-6.35 10.22,-6.33 10.12,-6.32 10.01,-6.34 9.91,-6.36 9.82,-6.42 9.72,-6.47 9.65,-6.55 9.58,-6.63 9.54,-6.73 9.50,-6.83 9.50,-6.94 9.49,-7.04 9.52,-7.14 9.55,-7.25 9.60,-7.33 9.66,-7.42 9.75,-7.49 9.83,-7.55 9.93,-7.59 10.03,-7.62 10.14,-7.62 10.24,-7.63 10.34,-7.59 10.45,-7.56 10.53,-7.50 10.62,-7.43 10.68,-7.35 10.74,-7.26 10.77,-7.16 10.80,-7.05 10.79,-6.95 10.79,-6.84 10.75,-6.74 10.71,-6.64 10.64,-6.56 10.57,-6.48 10.57,-6.48 10.57,-6.48 9.35,-5.27 8.13,-4.05 7.00,-3.67 5.87,-3.28 5.30,-3.02 4.73,-2.76 4.31,-2.43 3.89,-2.10 2.72,-2.06 1.54,-2.02 0.94,-2.27 0.34,-2.51 -0.22,-2.51 -0.79,-2.51 -0.76,-1.81 -0.73,-1.11 -0.68,-0.38 -0.63,0.35 -0.24,0.80 0.15,1.26 0.55,2.11 0.95,2.95 1.29,3.67 1.63,4.40 1.58,5.02 1.54,5.64 1.95,6.23 2.35,6.82 2.46,7.46 2.56,8.11 2.62,8.73 2.69,9.34 2.95,10.29 3.22,11.23 3.22,11.83 3.23,12.42 3.22,13.25 3.22,14.08 3.22,14.96 3.21,15.84 3.18,16.75 3.15,17.67 3.10,18.22 3.05,18.77 2.94,19.47 2.82,20.16 2.61,20.91 2.39,21.65 2.37,22.20 2.35,22.75 2.29,23.56 2.22,24.37 2.08,25.05 1.94,25.73 1.70,26.40 1.47,27.07 1.28,28.21 1.10,29.36 0.96,29.88 0.83,30.41 0.83,30.96 0.83,31.51 0.83,32.26 0.83,33.01 0.83,33.70 0.83,34.39 0.83,34.94 0.83,35.48 0.83,36.21 0.83,36.94 0.83,37.58 0.83,38.22 0.83,39.18 0.83,40.14 0.83,41.19 0.83,42.24 0.85,43.18 0.87,44.12 0.96,45.15 1.05,46.18 1.21,46.78 1.37,47.38 1.77,48.38 2.18,49.38 2.67,50.28 3.17,51.18 3.70,52.11 4.23,53.04 5.22,53.98 6.22,54.92 7.48,56.08 8.74,57.23 10.22,58.40 11.70,59.57 12.88,60.61 14.06,61.64 15.27,62.53 16.49,63.42 18.52,64.57 20.56,65.73 21.90,66.68 23.23,67.64 24.33,68.36 25.43,69.09 26.83,70.15 28.23,71.22 29.40,72.16 30.58,73.09 31.56,74.07 32.53,75.04 33.20,75.70 33.88,76.36 34.38,76.85 34.89,77.33 35.51,77.91 36.13,78.49 36.55,78.82 36.98,79.15 38.07,79.82 39.17,80.50 39.66,80.72 40.15,80.95 40.79,81.25 41.43,81.54 42.09,81.43 42.76,81.33 43.62,81.04 44.49,80.76 45.32,80.70 46.15,80.64 47.37,80.24 48.59,79.84 49.75,79.49 50.91,79.15 51.77,79.07 52.63,79.00 53.73,78.55 54.83,78.10 56.17,77.77 57.50,77.45 58.08,77.36 58.66,77.28 59.82,77.04 60.99,76.80 61.66,76.82 62.32,76.84 63.40,76.90 64.47,76.96 65.22,77.09 65.96,77.22 66.91,77.47 67.86,77.73 68.82,77.85 69.78,77.97 70.55,78.18 71.31,78.40 72.46,78.42 73.60,78.44 74.67,78.49 75.74,78.54 77.23,78.67 78.72,78.80 79.64,79.03 80.55,79.26 81.46,79.32 82.36,79.37 83.38,79.51 84.40,79.65 85.39,79.91 86.37,80.18 87.39,80.32 88.42,80.47 89.42,80.74 90.42,81.01 91.46,81.20 92.50,81.38 93.58,81.73 94.65,82.08 95.44,82.35 96.24,82.61 97.50,82.81 98.76,83.01 99.62,83.35 100.49,83.69 101.50,83.97 102.51,84.26 104.20,84.48 105.90,84.69 107.39,85.13 108.89,85.57 110.91,86.10 112.92,86.62 114.75,87.25 116.58,87.88 118.40,88.36 120.23,88.83 121.65,89.36 123.07,89.88 124.67,90.52 126.26,91.16 128.13,91.70 130.00,92.23 131.39,92.83 132.78,93.43 134.05,93.82 135.32,94.22 136.77,94.64 138.22,95.05 139.28,95.43 140.34,95.81 141.93,96.22 143.52,96.62 145.10,97.04 146.68,97.45 148.24,97.88 149.79,98.31 151.20,98.75 152.61,99.20 154.47,99.78 156.32,100.35 157.68,101.04 159.04,101.73 160.05,102.26 161.07,102.80 162.27,103.46 163.46,104.12 164.89,104.71 166.32,105.29 167.94,106.08 169.56,106.86 171.22,107.63 172.87,108.40 174.60,109.12 176.33,109.85 178.31,110.50 180.29,111.16 182.38,111.67 184.48,112.18 187.35,112.87 190.22,113.57 192.91,114.57 195.60,115.56 198.28,116.34 200.95,117.11 203.42,117.83 205.88,118.56 208.47,119.19 211.05,119.83 213.30,120.26 215.55,120.69 217.93,120.64 220.32,120.59 222.18,120.49 224.04,120.38 226.43,120.11 228.81,119.85 230.98,119.78 233.15,119.71 235.01,119.55 236.86,119.39 238.75,118.98 240.64,118.58 242.42,118.17 244.20,117.75 246.12,117.34 248.03,116.93 249.40,116.49 250.76,116.05 251.93,115.53 253.09,115.00 254.54,114.14 255.98,113.28 258.01,112.48 260.04,111.68 262.03,110.92 264.02,110.15 265.62,109.37 267.22,108.58 268.82,107.81 270.42,107.05 271.93,106.37 273.44,105.70 275.53,104.56 277.62,103.43 279.77,102.42 281.92,101.41 283.72,100.67 285.53,99.93 287.40,99.34 289.27,98.75 291.56,97.89 293.86,97.03 296.18,96.03 298.50,95.03 300.61,94.34 302.72,93.65 304.73,93.18 306.73,92.72 308.58,92.05 310.43,91.39 312.81,91.00 315.18,90.61 317.53,90.23 319.87,89.85 322.13,89.51 324.40,89.16 326.36,88.91 328.31,88.67 331.04,88.03 333.76,87.40 336.71,87.02 339.67,86.65 342.31,86.30 344.96,85.96 347.28,85.71 349.59,85.46 352.60,84.83 355.60,84.20 358.73,83.83 361.85,83.45 364.87,83.11 367.88,82.77 370.68,82.51 373.47,82.25 376.10,82.19 378.73,82.14 382.19,82.00 385.65,81.87 388.54,81.55 391.43,81.22 393.72,81.03 396.01,80.83 398.08,80.29 400.15,79.75 401.91,79.63 403.67,79.51 405.80,79.21 407.94,78.90 409.54,78.75 411.15,78.60 412.95,78.21 414.76,77.83 416.40,77.44 418.04,77.05 420.16,76.71 422.27,76.36 424.07,76.07 425.86,75.79 427.66,75.68 429.46,75.58 431.23,75.29 432.99,75.01 434.23,74.90 435.46,74.79 437.01,74.51 438.56,74.23 439.78,74.13 440.99,74.04 442.51,73.79 444.02,73.55 445.14,73.53 446.26,73.51 447.78,73.46 449.31,73.42 450.73,73.32 452.15,73.22 453.63,72.95 455.12,72.67 456.13,72.61 457.15,72.54 458.01,72.40 458.87,72.25 460.08,71.84 461.28,71.43 462.50,71.00 463.72,70.57 464.98,70.09 466.23,69.61 467.71,68.97 469.19,68.32 470.34,67.95 471.49,67.58 472.57,67.22 473.66,66.87 474.70,66.57 475.75,66.26 476.62,66.18 477.50,66.10 478.48,65.81 479.45,65.52 480.18,65.47 480.91,65.41 481.55,65.31 482.20,65.21 483.08,64.83 483.96,64.45 485.00,64.13 486.04,63.81 486.80,63.33 487.57,62.85 487.98,61.91 488.40,60.97 488.70,60.53 489.00,60.09 488.62,59.62 488.24,59.14 488.09,58.54 487.95,57.93 487.93,57.27 487.91,56.61 487.42,56.15 486.93,55.69 486.40,55.21 485.87,54.73 485.01,54.27 484.16,53.80 483.57,53.61 482.99,53.42 482.18,53.10 481.37,52.79 480.26,52.76 479.16,52.73 478.62,52.68 478.09,52.62 477.44,52.48 476.80,52.33 476.28,52.12 475.76,51.91 475.14,51.83 474.51,51.76 473.54,51.56 472.56,51.36 471.80,51.02 471.04,50.68 470.37,50.42 469.69,50.16 468.71,49.95 467.73,49.74 466.95,49.38 466.17,49.03 465.43,48.73 464.69,48.44 464.03,48.23 463.37,48.03 462.42,48.02 461.48,48.01 460.31,47.99 459.15,47.96 458.01,47.90 456.87,47.84 455.88,47.68 454.89,47.52 454.06,47.25 453.23,46.98 451.91,46.76 450.59,46.55 449.44,46.12 448.29,45.70 447.19,45.21 446.08,44.73 445.49,44.33 444.90,43.94 443.70,43.35 442.50,42.76 441.75,42.19 441.00,41.62 439.86,41.09 438.71,40.55 437.83,39.92 436.95,39.29 436.22,38.55 435.49,37.82 434.85,37.17 434.21,36.52 433.80,36.08 433.39,35.65 432.97,35.15 432.56,34.65 432.03,33.62 431.50,32.59 430.99,31.76 430.47,30.94 429.98,29.84 429.49,28.75 428.73,27.55 427.97,26.36 427.31,25.25 426.66,24.14 425.58,22.47 424.50,20.79 423.76,19.33 423.03,17.88 422.12,16.76 421.22,15.65 420.22,14.17 419.23,12.70 418.55,11.45 417.87,10.21 417.48,9.20 417.10,8.19 416.83,7.52 416.57,6.85 416.13,6.41 415.69,5.97 415.18,5.45 414.68,4.93 414.24,4.42 413.80,3.90 412.67,3.30 411.53,2.70 410.93,2.14 410.32,1.58 409.58,1.08 408.83,0.58 407.84,0.42 406.85,0.25 405.49,-0.26 404.13,-0.78 403.26,-0.77 402.38,-0.77 401.83,-0.77 401.28,-0.77 400.53,-0.77 399.77,-0.77 398.54,-0.76 397.31,-0.76 396.03,-0.75 394.75,-0.74 393.37,-0.71 392.00,-0.68 390.92,-0.62 389.84,-0.56 388.96,-0.46 388.07,-0.36 387.12,0.02 386.16,0.40 385.09,0.71 384.02,1.02 383.46,1.11 382.91,1.20 382.25,1.56 381.60,1.92 380.89,2.38 380.18,2.84 379.27,3.25 378.37,3.66 377.35,4.07 376.32,4.48 375.12,4.86 373.92,5.24 372.71,5.60 371.50,5.96 370.23,6.26 368.97,6.55 367.46,6.65 365.95,6.75 364.28,6.99 362.61,7.24 361.13,7.24 359.65,7.24 358.88,7.24 358.11,7.24 357.37,7.24 356.63,7.23 355.94,7.21 355.24,7.18 354.72,7.03 354.20,6.88 353.68,6.42 353.16,5.97 352.20,5.72 351.24,5.47 350.71,5.39 350.18,5.30 349.63,4.88 349.07,4.46 348.51,4.37 347.95,4.29 347.35,4.06 346.76,3.82 345.67,3.50 344.57,3.17 343.47,3.15 342.36,3.14 341.83,3.09 341.30,3.04 340.65,2.92 340.01,2.79 339.48,2.60 338.95,2.40 338.26,2.39 337.56,2.39 337.02,2.37 336.47,2.35 335.68,2.30 334.90,2.25 334.25,2.13 333.60,2.01 333.08,1.81 332.55,1.61 331.86,1.61 331.17,1.61 330.63,1.59 330.08,1.57 329.30,1.52 328.52,1.46 327.42,1.15 326.33,0.83 325.78,0.83 325.23,0.83 324.44,0.82 323.66,0.82 322.88,0.80 322.11,0.78 321.41,0.74 320.72,0.69 319.54,0.57 318.36,0.44 317.78,0.25 317.19,0.05 316.40,0.05 315.61,0.05 314.81,0.05 314.00,0.05 313.20,0.05 312.39,0.04 311.58,0.04 310.76,0.03 309.93,0.01 309.10,-0.00 308.22,-0.05 307.35,-0.09 306.40,-0.21 305.44,-0.32 304.72,-0.53 304.01,-0.74 302.94,-0.73 301.88,-0.73 300.45,-0.73 299.03,-0.73 297.83,-0.72 296.63,-0.71 295.44,-0.69 294.25,-0.66 293.06,-0.62 291.88,-0.57 290.65,-0.46 289.43,-0.35 287.46,-0.07 285.50,0.20 283.83,0.28 282.17,0.37 280.62,0.61 279.08,0.85 277.37,0.85 275.66,0.85 273.81,0.85 271.96,0.85 269.77,0.85 267.58,0.85 265.68,0.85 263.78,0.85 262.02,0.85 260.25,0.85 258.25,0.85 256.26,0.85 254.28,0.85 252.29,0.85 250.32,0.85 248.36,0.85 246.44,0.85 244.52,0.85 242.72,0.84 240.91,0.84 238.82,0.84 236.73,0.84 234.52,0.84 232.31,0.83 230.36,0.83 228.41,0.83 227.07,0.82 225.73,0.81 224.20,0.79 222.67,0.78 221.23,0.75 219.80,0.71 218.05,0.64 216.30,0.57 214.33,0.38 212.36,0.20 210.74,-0.17 209.13,-0.56 206.83,-0.94 204.53,-1.32 202.39,-1.67 200.26,-2.03 197.89,-2.32 195.53,-2.62 193.62,-2.80 191.71,-2.98 189.53,-3.37 187.35,-3.77 185.50,-4.16 183.66,-4.54 182.07,-4.90 180.48,-5.25 178.87,-5.55 177.27,-5.85 176.05,-6.03 174.82,-6.22 173.21,-6.62 171.60,-7.01 169.98,-7.41 168.35,-7.80 166.69,-8.19 165.03,-8.57 163.24,-8.94 161.45,-9.32 159.83,-9.69 158.21,-10.06 156.31,-10.84 154.42,-11.62 152.75,-12.34 151.08,-13.06 149.24,-13.70 147.41,-14.34 145.66,-14.81 143.91,-15.29 141.89,-15.88 139.88,-16.46 138.04,-17.25 136.19,-18.04 134.65,-18.76 133.10,-19.48 131.64,-20.10 130.18,-20.72 128.74,-21.15 127.30,-21.59 125.41,-22.11 123.52,-22.63 122.06,-23.21 120.61,-23.79 119.13,-24.14 117.65,-24.49 116.37,-24.77 115.10,-25.05 113.42,-25.22 111.74,-25.39 110.20,-25.74 108.66,-26.09 107.21,-26.38 105.76,-26.67 104.29,-26.84 102.82,-27.01 101.19,-27.38 99.57,-27.74 97.90,-28.06 96.24,-28.38 94.47,-28.60 92.70,-28.82 91.01,-28.82 89.32,-28.81 87.50,-28.80 85.69,-28.79 83.60,-28.76 81.50,-28.74 79.81,-28.67 78.11,-28.61 76.30,-28.46 74.49,-28.31 72.69,-27.92 70.88,-27.52 68.85,-27.13 66.81,-26.75 64.77,-26.38 62.72,-26.02 61.13,-25.68 59.54,-25.35 58.35,-25.05 57.16,-24.76 56.28,-24.65 55.39,-24.54 54.13,-24.23 52.86,-23.92 51.82,-23.80 50.78,-23.67 49.65,-23.32 48.51,-22.96 47.45,-22.64 46.38,-22.33 45.69,-22.18 44.99,-22.03 43.73,-21.63 42.47,-21.23 41.22,-20.87 39.97,-20.51 39.15,-20.20 38.33,-19.88 37.63,-19.49 36.93,-19.10 36.28,-18.92 35.63,-18.74 34.53,-18.27 33.43,-17.81 32.22,-17.15 31.00,-16.48 30.03,-16.12 29.06,-15.76 28.16,-15.34 27.25,-14.93 26.13,-14.68 25.01,-14.42 23.66,-13.70 22.31,-12.98 21.15,-12.29 19.99,-11.60 19.01,-11.12 18.03,-10.64 16.91,-10.11 15.78,-9.58 14.56,-8.77 13.34,-7.95 12.08,-7.10 10.83,-6.26 9.42,-5.31 8.01,-4.36 7.19,-3.96 6.36,-3.55 5.66,-2.87 4.96,-2.19 4.39,-1.67 3.82,-1.14 3.00,-0.43 2.17,0.27 1.32,0.48 0.46,0.69 0.37,0.74 0.28,0.78 0.18,0.81 0.08,0.83 -0.01,0.83 -0.11,0.83 -0.21,0.80 -0.31,0.78 -0.39,0.73 -0.48,0.68 -0.56,0.61 -0.63,0.54 -0.69,0.46 -0.74,0.37 -0.78,0.28 -0.81,0.18 -0.82,0.08 -0.83,-0.01 -0.82,-0.11 -0.81,-0.21 -0.77,-0.30 -0.73,-0.40 -0.67,-0.48 -0.61,-0.56 -0.54,-0.63 -0.46,-0.69 -0.46,-0.69 L -0.46,-0.69 Z"/></g><g transform="translate(55.5999755859375 55.5999755859375) rotate(0 0.00005000000000165983 0.00004999999999988347)" stroke="none"><path fill="#e03131" d="M 4.25,-4.24 Q 4.25,-4.24 4.81,-3.46 5.38,-2.67 5.67,-1.74 5.95,-0.81 5.92,0.16 5.90,1.13 5.56,2.04 5.23,2.95 4.62,3.71 4.01,4.47 3.19,4.99 2.37,5.52 1.43,5.75 0.48,5.99 -0.48,5.91 -1.45,5.83 -2.34,5.44 -3.23,5.06 -3.96,4.41 -4.68,3.76 -5.16,2.91 -5.64,2.07 -5.82,1.11 -6.00,0.16 -5.87,-0.80 -5.74,-1.76 -5.31,-2.63 -4.88,-3.50 -4.19,-4.19 -3.50,-4.88 -2.63,-5.31 -1.76,-5.74 -0.79,-5.87 0.16,-6.00 1.11,-5.82 2.07,-5.64 2.92,-5.16 3.76,-4.68 4.41,-3.95 5.06,-3.23 5.44,-2.34 5.83,-1.44 5.91,-0.47 5.99,0.48 5.75,1.43 5.52,2.37 4.99,3.19 4.47,4.01 3.71,4.62 2.95,5.23 2.04,5.56 1.13,5.90 0.15,5.92 -0.81,5.95 -1.74,5.66 -2.67,5.38 -3.46,4.81 -4.25,4.24 -4.25,4.24 -4.24,4.25 -4.69,3.67 -5.14,3.10 -5.44,2.44 -5.73,1.78 -5.86,1.07 -5.99,0.36 -5.95,-0.36 -5.91,-1.08 -5.69,-1.77 -5.48,-2.46 -5.10,-3.08 -4.73,-3.70 -4.21,-4.21 -3.70,-4.73 -3.08,-5.10 -2.46,-5.48 -1.77,-5.69 -1.08,-5.91 -0.35,-5.95 0.36,-5.99 1.07,-5.86 1.78,-5.73 2.44,-5.44 3.10,-5.14 3.68,-4.69 4.25,-4.24 4.25,-4.24 L 4.25,-4.24 Z"/></g><g transform="translate(101.199951171875 143.59994506835938) rotate(0 0.00005000000000165983 0.00005000000000165983)" stroke="none"><path fill="#e03131" d="M 4.25,-4.24 Q 4.25,-4.24 4.81,-3.46 5.38,-2.67 5.67,-1.74 5.95,-0.81 5.92,0.16 5.90,1.13 5.56,2.04 5.23,2.95 4.62,3.71 4.01,4.47 3.19,4.99 2.37,5.52 1.43,5.75 0.48,5.99 -0.48,5.91 -1.45,5.83 -2.34,5.44 -3.23,5.06 -3.96,4.41 -4.68,3.76 -5.16,2.91 -5.64,2.07 -5.82,1.11 -6.00,0.16 -5.87,-0.80 -5.74,-1.76 -5.31,-2.63 -4.88,-3.50 -4.19,-4.19 -3.50,-4.88 -2.63,-5.31 -1.76,-5.74 -0.79,-5.87 0.16,-6.00 1.11,-5.82 2.07,-5.64 2.92,-5.16 3.76,-4.68 4.41,-3.95 5.06,-3.23 5.44,-2.34 5.83,-1.44 5.91,-0.47 5.99,0.48 5.75,1.43 5.52,2.37 4.99,3.19 4.47,4.01 3.71,4.62 2.95,5.23 2.04,5.56 1.13,5.90 0.15,5.92 -0.81,5.95 -1.74,5.66 -2.67,5.38 -3.46,4.81 -4.25,4.24 -4.25,4.24 -4.24,4.25 -4.69,3.67 -5.14,3.10 -5.44,2.44 -5.73,1.78 -5.86,1.07 -5.99,0.36 -5.95,-0.36 -5.91,-1.08 -5.69,-1.77 -5.48,-2.46 -5.10,-3.08 -4.73,-3.70 -4.21,-4.21 -3.70,-4.73 -3.08,-5.10 -2.46,-5.48 -1.77,-5.69 -1.08,-5.91 -0.35,-5.95 0.36,-5.99 1.07,-5.86 1.78,-5.73 2.44,-5.44 3.10,-5.14 3.68,-4.69 4.25,-4.24 4.25,-4.24 L 4.25,-4.24 Z"/></g><g transform="translate(412.39996337890625 65.19998168945312) rotate(0 0.00005000000000165983 0.00004999999999988347)" stroke="none"><path fill="#e03131" d="M 4.25,-4.24 Q 4.25,-4.24 4.81,-3.46 5.38,-2.67 5.67,-1.74 5.95,-0.81 5.92,0.16 5.90,1.13 5.56,2.04 5.23,2.95 4.62,3.71 4.01,4.47 3.19,4.99 2.37,5.52 1.43,5.75 0.48,5.99 -0.48,5.91 -1.45,5.83 -2.34,5.44 -3.23,5.06 -3.96,4.41 -4.68,3.76 -5.16,2.91 -5.64,2.07 -5.82,1.11 -6.00,0.16 -5.87,-0.80 -5.74,-1.76 -5.31,-2.63 -4.88,-3.50 -4.19,-4.19 -3.50,-4.88 -2.63,-5.31 -1.76,-5.74 -0.79,-5.87 0.16,-6.00 1.11,-5.82 2.07,-5.64 2.92,-5.16 3.76,-4.68 4.41,-3.95 5.06,-3.23 5.44,-2.34 5.83,-1.44 5.91,-0.47 5.99,0.48 5.75,1.43 5.52,2.37 4.99,3.19 4.47,4.01 3.71,4.62 2.95,5.23 2.04,5.56 1.13,5.90 0.15,5.92 -0.81,5.95 -1.74,5.66 -2.67,5.38 -3.46,4.81 -4.25,4.24 -4.25,4.24 -4.24,4.25 -4.69,3.67 -5.14,3.10 -5.44,2.44 -5.73,1.78 -5.86,1.07 -5.99,0.36 -5.95,-0.36 -5.91,-1.08 -5.69,-1.77 -5.48,-2.46 -5.10,-3.08 -4.73,-3.70 -4.21,-4.21 -3.70,-4.73 -3.08,-5.10 -2.46,-5.48 -1.77,-5.69 -1.08,-5.91 -0.35,-5.95 0.36,-5.99 1.07,-5.86 1.78,-5.73 2.44,-5.44 3.10,-5.14 3.68,-4.69 4.25,-4.24 4.25,-4.24 L 4.25,-4.24 Z"/></g><g transform="translate(547.6000366210938 114.79998779296875) rotate(0 0.00005000000000165983 0.00005000000000165983)" stroke="none"><path fill="#e03131" d="M 4.25,-4.24 Q 4.25,-4.24 4.81,-3.46 5.38,-2.67 5.67,-1.74 5.95,-0.81 5.92,0.16 5.90,1.13 5.56,2.04 5.23,2.95 4.62,3.71 4.01,4.47 3.19,4.99 2.37,5.52 1.43,5.75 0.48,5.99 -0.48,5.91 -1.45,5.83 -2.34,5.44 -3.23,5.06 -3.96,4.41 -4.68,3.76 -5.16,2.91 -5.64,2.07 -5.82,1.11 -6.00,0.16 -5.87,-0.80 -5.74,-1.76 -5.31,-2.63 -4.88,-3.50 -4.19,-4.19 -3.50,-4.88 -2.63,-5.31 -1.76,-5.74 -0.79,-5.87 0.16,-6.00 1.11,-5.82 2.07,-5.64 2.92,-5.16 3.76,-4.68 4.41,-3.95 5.06,-3.23 5.44,-2.34 5.83,-1.44 5.91,-0.47 5.99,0.48 5.75,1.43 5.52,2.37 4.99,3.19 4.47,4.01 3.71,4.62 2.95,5.23 2.04,5.56 1.13,5.90 0.15,5.92 -0.81,5.95 -1.74,5.66 -2.67,5.38 -3.46,4.81 -4.25,4.24 -4.25,4.24 -4.24,4.25 -4.69,3.67 -5.14,3.10 -5.44,2.44 -5.73,1.78 -5.86,1.07 -5.99,0.36 -5.95,-0.36 -5.91,-1.08 -5.69,-1.77 -5.48,-2.46 -5.10,-3.08 -4.73,-3.70 -4.21,-4.21 -3.70,-4.73 -3.08,-5.10 -2.46,-5.48 -1.77,-5.69 -1.08,-5.91 -0.35,-5.95 0.36,-5.99 1.07,-5.86 1.78,-5.73 2.44,-5.44 3.10,-5.14 3.68,-4.69 4.25,-4.24 4.25,-4.24 L 4.25,-4.24 Z"/></g><g stroke-linecap="round"><g transform="translate(286 152.39999389648438) rotate(0 0.399993896484375 13.20001220703125)"><path d="M-0.51 -0.16 C-0.4 4.2, 0.47 21.46, 0.75 25.95 M0.22 -0.72 C0.25 3.71, 0.16 21.98, 0.29 26.42" stroke="#1e1e1e" stroke-width="0.5" fill="none"/></g></g><mask/><g transform="translate(282.79998779296875 177.99996948242188) rotate(0 4 -0.399993896484375)" stroke="none"><path fill="#1e1e1e" d="M 0,-0.70 Q 0,-0.70 0.92,-0.97 1.84,-1.24 2.46,-1.24 3.08,-1.24 4.01,-1.24 4.94,-1.25 6.12,-1.32 7.29,-1.39 7.37,-1.38 7.45,-1.37 7.52,-1.34 7.60,-1.32 7.66,-1.27 7.73,-1.23 7.78,-1.17 7.83,-1.11 7.87,-1.04 7.91,-0.97 7.93,-0.89 7.95,-0.81 7.95,-0.73 7.95,-0.65 7.93,-0.58 7.91,-0.50 7.87,-0.43 7.83,-0.36 7.78,-0.30 7.73,-0.24 7.66,-0.20 7.60,-0.15 7.52,-0.12 7.45,-0.10 7.37,-0.09 7.29,-0.08 7.04,-0.20 6.79,-0.32 6.73,-0.41 6.68,-0.50 6.66,-0.60 6.64,-0.71 6.65,-0.81 6.66,-0.92 6.71,-1.01 6.76,-1.11 6.83,-1.19 6.90,-1.26 7.00,-1.31 7.09,-1.36 7.20,-1.37 7.30,-1.39 7.41,-1.37 7.51,-1.35 7.61,-1.30 7.70,-1.25 7.77,-1.17 7.84,-1.09 7.89,-1.00 7.93,-0.90 7.94,-0.79 7.95,-0.69 7.92,-0.58 7.90,-0.48 7.84,-0.39 7.79,-0.30 7.71,-0.23 7.62,-0.17 7.52,-0.13 7.43,-0.09 7.32,-0.09 7.21,-0.08 7.11,-0.11 7.01,-0.14 6.92,-0.20 6.84,-0.26 6.77,-0.35 6.71,-0.43 6.68,-0.54 6.64,-0.64 6.65,-0.74 6.65,-0.85 6.68,-0.95 6.72,-1.05 6.78,-1.13 6.85,-1.22 6.94,-1.28 7.03,-1.33 7.13,-1.36 7.23,-1.39 7.34,-1.38 7.44,-1.37 7.54,-1.33 7.64,-1.29 7.47,-1.34 7.29,-1.39 7.37,-1.38 7.45,-1.37 7.52,-1.34 7.60,-1.32 7.66,-1.27 7.73,-1.23 7.78,-1.17 7.83,-1.11 7.87,-1.04 7.91,-0.97 7.93,-0.89 7.95,-0.81 7.95,-0.73 7.95,-0.65 7.93,-0.58 7.91,-0.50 7.87,-0.43 7.83,-0.36 7.78,-0.30 7.73,-0.24 7.66,-0.20 7.60,-0.15 7.52,-0.12 7.45,-0.10 7.37,-0.09 7.29,-0.08 6.12,0.58 4.94,1.25 4.01,1.24 3.08,1.24 2.46,1.24 1.84,1.24 0.92,0.97 0,0.70 -0.08,0.69 -0.16,0.68 -0.24,0.65 -0.32,0.62 -0.39,0.57 -0.46,0.52 -0.52,0.46 -0.57,0.39 -0.61,0.32 -0.65,0.24 -0.67,0.16 -0.69,0.08 -0.69,-0.00 -0.69,-0.08 -0.67,-0.16 -0.65,-0.24 -0.61,-0.32 -0.57,-0.39 -0.52,-0.46 -0.46,-0.52 -0.39,-0.57 -0.32,-0.62 -0.24,-0.65 -0.16,-0.68 -0.08,-0.69 0.00,-0.70 0.00,-0.70 L 0,-0.70 Z"/></g><g transform="translate(282.79998779296875 152.39999389648438) rotate(0 4 -0.79998779296875)" stroke="none"><path fill="#1e1e1e" d="M 0,-0.66 Q 0,-0.66 0.92,-0.95 1.84,-1.23 2.46,-1.24 3.08,-1.26 3.72,-1.43 4.35,-1.61 5.85,-1.72 7.35,-1.83 7.43,-1.90 7.51,-1.98 7.60,-2.03 7.70,-2.07 7.80,-2.09 7.91,-2.10 8.01,-2.08 8.12,-2.06 8.21,-2.01 8.30,-1.96 8.37,-1.88 8.44,-1.80 8.48,-1.70 8.52,-1.60 8.53,-1.50 8.54,-1.39 8.52,-1.29 8.49,-1.19 8.43,-1.10 8.38,-1.01 8.29,-0.94 8.21,-0.87 8.11,-0.84 8.01,-0.80 7.90,-0.80 7.80,-0.80 7.70,-0.83 7.59,-0.86 7.51,-0.92 7.42,-0.98 7.36,-1.07 7.30,-1.16 7.27,-1.26 7.24,-1.36 7.24,-1.46 7.24,-1.57 7.28,-1.67 7.32,-1.77 7.38,-1.85 7.45,-1.94 7.54,-1.99 7.63,-2.05 7.73,-2.07 7.84,-2.10 7.94,-2.09 8.05,-2.08 8.14,-2.04 8.24,-2.00 8.32,-1.93 8.40,-1.86 8.45,-1.76 8.50,-1.67 8.52,-1.57 8.54,-1.46 8.53,-1.36 8.51,-1.25 8.47,-1.16 8.42,-1.06 8.42,-1.06 8.42,-1.06 6.98,-0.18 5.53,0.69 4.31,0.97 3.08,1.26 2.46,1.24 1.84,1.23 0.92,0.95 0,0.66 -0.07,0.65 -0.15,0.64 -0.23,0.61 -0.30,0.58 -0.37,0.54 -0.44,0.49 -0.49,0.43 -0.54,0.37 -0.58,0.30 -0.62,0.23 -0.64,0.15 -0.66,0.08 -0.66,-0.00 -0.66,-0.08 -0.64,-0.15 -0.62,-0.23 -0.58,-0.30 -0.54,-0.37 -0.49,-0.43 -0.44,-0.49 -0.37,-0.54 -0.30,-0.58 -0.23,-0.61 -0.15,-0.64 -0.07,-0.65 0.00,-0.66 0.00,-0.66 L 0,-0.66 Z"/></g><g transform="translate(302 156.39999389648438) rotate(0 -2.800018310546875 8.399993896484375)" stroke="none"><path fill="#1e1e1e" d="M -0.34,0.68 Q -0.34,0.68 -0.89,0.65 -1.44,0.63 -2.37,0.76 -3.31,0.90 -3.82,1.52 -4.33,2.13 -4.53,2.72 -4.73,3.32 -4.83,3.98 -4.94,4.64 -3.77,4.85 -2.59,5.06 -1.67,5.34 -0.75,5.61 0.43,6.08 1.61,6.55 2.02,7.12 2.43,7.69 2.59,8.76 2.75,9.83 2.79,10.69 2.82,11.55 2.59,12.54 2.35,13.53 2.00,14.41 1.65,15.29 1.23,15.96 0.81,16.64 0.33,17.20 -0.14,17.76 -1.01,18.13 -1.89,18.50 -2.47,18.61 -3.05,18.71 -4.33,18.74 -5.61,18.77 -6.22,18.41 -6.82,18.06 -7.32,17.06 -7.82,16.06 -8.00,15.34 -8.17,14.62 -7.99,13.85 -7.81,13.08 -5.96,12.05 -4.10,11.02 -4.08,10.94 -4.06,10.86 -4.02,10.80 -3.98,10.73 -3.93,10.67 -3.87,10.61 -3.80,10.57 -3.74,10.53 -3.66,10.50 -3.59,10.48 -3.51,10.47 -3.43,10.47 -3.35,10.48 -3.27,10.49 -3.20,10.52 -3.13,10.56 -3.06,10.60 -3.00,10.65 -2.95,10.71 -2.90,10.77 -2.87,10.85 -2.83,10.92 -2.82,10.99 -2.80,11.07 -2.81,11.15 -2.81,11.23 -2.95,10.90 -3.09,10.58 -3.01,10.65 -2.94,10.72 -2.89,10.82 -2.84,10.91 -2.82,11.02 -2.80,11.12 -2.82,11.23 -2.83,11.33 -2.88,11.42 -2.93,11.52 -3.01,11.59 -3.09,11.67 -3.18,11.71 -3.28,11.76 -3.38,11.77 -3.49,11.78 -3.59,11.76 -3.70,11.73 -3.79,11.68 -3.88,11.63 -3.95,11.54 -4.02,11.46 -4.06,11.37 -4.10,11.27 -4.10,11.16 -4.11,11.05 -4.08,10.95 -4.05,10.85 -3.99,10.76 -3.93,10.67 -3.85,10.61 -3.77,10.54 -3.67,10.51 -3.57,10.48 -3.46,10.48 -3.35,10.48 -3.25,10.51 -3.15,10.54 -3.07,10.61 -2.98,10.67 -2.92,10.76 -2.86,10.85 -2.83,10.95 -2.80,11.05 -2.81,11.16 -2.81,11.26 -2.85,11.36 -2.89,11.46 -2.96,11.54 -3.03,11.62 -3.12,11.68 -3.21,11.73 -3.32,11.76 -3.42,11.78 -3.52,11.77 -3.63,11.76 -3.87,11.39 -4.10,11.02 -4.08,10.94 -4.06,10.86 -4.02,10.80 -3.98,10.73 -3.93,10.67 -3.87,10.61 -3.80,10.57 -3.74,10.53 -3.66,10.50 -3.59,10.48 -3.51,10.47 -3.43,10.47 -3.35,10.48 -3.27,10.49 -3.20,10.52 -3.13,10.56 -3.06,10.60 -3.00,10.65 -2.95,10.71 -2.90,10.77 -2.87,10.85 -2.83,10.92 -2.82,10.99 -2.80,11.07 -2.81,11.15 -2.81,11.23 -4.14,12.57 -5.47,13.90 -5.51,14.48 -5.54,15.05 -4.89,15.67 -4.25,16.28 -3.45,16.19 -2.66,16.09 -1.99,15.68 -1.32,15.26 -1.01,14.80 -0.70,14.33 -0.41,13.60 -0.12,12.87 0.07,12.25 0.26,11.63 0.22,10.86 0.19,10.09 -0.04,9.19 -0.28,8.29 -0.90,8.17 -1.53,8.04 -2.15,7.82 -2.77,7.60 -3.56,7.54 -4.35,7.49 -5.18,7.32 -6.02,7.14 -6.60,6.66 -7.18,6.18 -7.31,5.19 -7.44,4.20 -7.26,3.27 -7.09,2.35 -6.63,1.37 -6.17,0.38 -5.13,-0.53 -4.10,-1.46 -3.09,-1.68 -2.08,-1.89 -1.23,-1.72 -0.39,-1.55 -0.02,-1.11 0.34,-0.68 0.41,-0.63 0.49,-0.57 0.55,-0.51 0.61,-0.44 0.66,-0.36 0.70,-0.28 0.73,-0.19 0.75,-0.10 0.75,-0.01 0.75,0.07 0.73,0.16 0.71,0.25 0.67,0.33 0.63,0.42 0.57,0.49 0.51,0.56 0.44,0.61 0.36,0.66 0.28,0.70 0.19,0.73 0.10,0.74 0.01,0.76 -0.07,0.75 -0.16,0.74 -0.25,0.71 -0.34,0.68 -0.34,0.68 L -0.34,0.68 Z"/></g><g transform="translate(312.39996337890625 157.19998168945312) rotate(0 3.20001220703125 2.399993896484375)" stroke="none"><path fill="#1e1e1e" d="M 0,0.82 Q 0,0.82 -0.67,0.98 -1.34,1.14 -1.86,1.74 -2.38,2.33 -2.71,3.13 -3.04,3.93 -3.18,4.64 -3.31,5.35 -2.75,5.84 -2.19,6.33 -1.55,6.43 -0.91,6.53 0.23,6.58 1.38,6.64 2.63,6.22 3.87,5.81 4.81,5.23 5.74,4.64 6.58,3.96 7.42,3.27 7.94,2.60 8.46,1.92 8.93,1.47 9.40,1.01 8.63,0.21 7.86,-0.59 7.28,-0.98 6.70,-1.37 5.94,-1.48 5.17,-1.58 4.37,-1.66 3.56,-1.74 2.76,-1.78 1.97,-1.82 0.96,-1.48 -0.04,-1.14 -0.12,-1.16 -0.20,-1.17 -0.27,-1.20 -0.34,-1.23 -0.41,-1.28 -0.47,-1.33 -0.52,-1.39 -0.57,-1.45 -0.60,-1.52 -0.64,-1.59 -0.65,-1.67 -0.67,-1.75 -0.66,-1.83 -0.66,-1.91 -0.64,-1.98 -0.61,-2.06 -0.57,-2.13 -0.53,-2.20 -0.48,-2.25 -0.42,-2.31 -0.36,-2.35 -0.29,-2.39 -0.21,-2.42 -0.14,-2.44 -0.06,-2.45 0.01,-2.45 0.31,-2.05 0.62,-1.64 0.57,-1.54 0.53,-1.45 0.46,-1.37 0.39,-1.29 0.30,-1.24 0.21,-1.18 0.10,-1.16 0.00,-1.14 -0.10,-1.16 -0.20,-1.17 -0.30,-1.22 -0.39,-1.27 -0.47,-1.34 -0.54,-1.42 -0.59,-1.51 -0.64,-1.61 -0.65,-1.71 -0.67,-1.82 -0.65,-1.92 -0.63,-2.03 -0.58,-2.12 -0.52,-2.21 -0.44,-2.28 -0.37,-2.35 -0.27,-2.39 -0.17,-2.44 -0.06,-2.44 0.03,-2.45 0.13,-2.43 0.24,-2.40 0.33,-2.35 0.42,-2.29 0.48,-2.21 0.55,-2.12 0.59,-2.02 0.62,-1.92 0.63,-1.82 0.63,-1.71 0.60,-1.61 0.57,-1.51 0.50,-1.42 0.44,-1.33 0.36,-1.27 0.27,-1.21 0.17,-1.18 0.07,-1.15 -0.03,-1.15 -0.14,-1.15 -0.23,-1.19 -0.33,-1.23 -0.42,-1.29 -0.50,-1.36 -0.56,-1.45 -0.61,-1.54 -0.64,-1.64 -0.67,-1.75 -0.35,-1.44 -0.04,-1.14 -0.12,-1.16 -0.20,-1.17 -0.27,-1.20 -0.34,-1.23 -0.41,-1.28 -0.47,-1.33 -0.52,-1.39 -0.57,-1.45 -0.60,-1.52 -0.64,-1.59 -0.65,-1.67 -0.67,-1.75 -0.66,-1.83 -0.66,-1.91 -0.64,-1.98 -0.61,-2.06 -0.57,-2.13 -0.53,-2.20 -0.48,-2.25 -0.42,-2.31 -0.36,-2.35 -0.29,-2.39 -0.21,-2.42 -0.14,-2.44 -0.06,-2.45 0.01,-2.45 1.05,-3.46 2.09,-4.46 2.96,-4.42 3.83,-4.38 4.78,-4.28 5.73,-4.17 6.94,-3.85 8.15,-3.53 8.97,-2.92 9.79,-2.30 10.43,-1.55 11.07,-0.80 11.39,-0.11 11.70,0.57 11.62,1.40 11.53,2.23 11.01,2.89 10.49,3.55 9.77,4.42 9.05,5.29 8.06,6.07 7.06,6.85 5.84,7.56 4.62,8.26 2.96,8.71 1.30,9.17 -0.04,9.09 -1.39,9.02 -2.31,8.82 -3.23,8.62 -4.19,8.00 -5.15,7.38 -5.45,6.15 -5.75,4.91 -5.52,3.92 -5.30,2.92 -4.79,1.87 -4.28,0.81 -3.61,0.11 -2.94,-0.58 -2.18,-0.86 -1.41,-1.14 -0.70,-0.98 0,-0.82 0.09,-0.80 0.19,-0.79 0.28,-0.76 0.38,-0.72 0.46,-0.67 0.54,-0.61 0.61,-0.54 0.67,-0.46 0.72,-0.37 0.76,-0.29 0.79,-0.19 0.81,-0.09 0.81,0.00 0.81,0.09 0.79,0.19 0.76,0.29 0.72,0.37 0.67,0.46 0.61,0.54 0.54,0.61 0.46,0.67 0.38,0.72 0.28,0.76 0.19,0.79 0.09,0.80 -0.00,0.82 -0.00,0.82 L 0,0.82 Z"/></g><g transform="translate(314.79998779296875 148.39999389648438) rotate(0 -0.399993896484375 10.399993896484375)" stroke="none"><path fill="#1e1e1e" d="M 0.80,0.20 Q 0.80,0.20 0.73,1.16 0.66,2.12 0.60,2.90 0.54,3.67 0.53,4.91 0.52,6.14 0.52,7.59 0.51,9.05 0.51,10.35 0.51,11.66 0.51,12.91 0.51,14.15 0.51,14.91 0.51,15.67 0.51,16.23 0.51,16.78 0.18,18.59 -0.14,20.40 -0.16,20.51 -0.17,20.61 -0.22,20.71 -0.27,20.80 -0.35,20.87 -0.43,20.95 -0.52,20.99 -0.62,21.04 -0.72,21.05 -0.83,21.06 -0.93,21.04 -1.04,21.01 -1.13,20.96 -1.22,20.90 -1.29,20.82 -1.36,20.74 -1.40,20.64 -1.44,20.54 -1.44,20.44 -1.45,20.33 -1.42,20.23 -1.39,20.13 -1.33,20.04 -1.27,19.95 -1.19,19.89 -1.10,19.82 -1.00,19.79 -0.90,19.76 -0.79,19.76 -0.69,19.76 -0.59,19.79 -0.49,19.82 -0.40,19.89 -0.32,19.95 -0.26,20.04 -0.20,20.13 -0.17,20.23 -0.14,20.33 -0.15,20.44 -0.15,20.54 -0.19,20.64 -0.23,20.74 -0.30,20.82 -0.37,20.90 -0.46,20.96 -0.55,21.01 -0.66,21.04 -0.76,21.06 -0.87,21.05 -0.97,21.04 -1.07,20.99 -1.16,20.95 -1.24,20.87 -1.32,20.80 -1.37,20.71 -1.42,20.61 -1.43,20.51 -1.45,20.40 -1.45,20.40 -1.45,20.40 -1.78,18.59 -2.11,16.78 -2.11,16.22 -2.11,15.67 -2.10,14.91 -2.10,14.15 -2.10,12.90 -2.09,11.65 -2.07,10.33 -2.06,9.01 -2.03,7.54 -2.00,6.06 -1.93,4.73 -1.85,3.40 -1.72,2.48 -1.58,1.55 -1.19,0.67 -0.80,-0.20 -0.77,-0.29 -0.73,-0.38 -0.67,-0.47 -0.62,-0.55 -0.54,-0.62 -0.47,-0.68 -0.38,-0.73 -0.29,-0.77 -0.19,-0.80 -0.09,-0.82 0.00,-0.82 0.10,-0.82 0.20,-0.80 0.29,-0.77 0.38,-0.73 0.47,-0.68 0.55,-0.61 0.62,-0.54 0.68,-0.46 0.73,-0.38 0.77,-0.29 0.80,-0.19 0.82,-0.09 0.83,0.00 0.81,0.10 0.80,0.20 0.80,0.20 L 0.80,0.20 Z"/></g></svg>