<?xml version="1.0" encoding="utf-8" ?>
<svg xmlns="http://www.w3.org/2000/svg" xmlns:xlink="http://www.w3.org/1999/xlink" width="512" height="256">
	<path fill="#231F20" transform="scale(0.25 0.25)" d="M1531.86 685.152C1520.52 685.443 1507.83 684.835 1496.59 683.304C1494.26 682.987 1492.05 682.465 1490.61 680.585C1498.63 676.79 1531.74 681.287 1542.36 682.16L1548.87 683.785C1543.31 684.751 1537.26 683.411 1531.86 685.152Z"/>
	<path fill="#231F20" fill-opacity="0.98823529" transform="scale(0.25 0.25)" d="M548.486 518.347L551.466 519.439C553.5 522.485 552.599 525.064 553.06 528.64C555.829 531.279 559.57 530.63 563.069 532.17C561.743 534.417 556.56 535.881 554.033 536.977C551.903 539.697 552.439 542.898 551.864 546.296L550.176 546.58C549.004 543.365 548.558 539.847 547.956 536.482C545.9 534.559 538.167 534.459 535.084 533.576L535.546 532.289C539.64 530.448 544.835 530.688 549.272 530.444C548.879 526.414 548.669 522.391 548.486 518.347Z"/>
	<path fill="#231F20" transform="scale(0.25 0.25)" d="M720.616 327.19C722.033 327.403 723.144 327.944 724.421 328.55C726.535 332.055 725.021 335.038 725.774 338.828C728.865 341.021 733.432 338.843 737.219 340.461L737.367 342.282C734.12 344.996 729.895 343.307 726.676 345.232C724.779 346.367 725.626 353.212 724.789 355.963C723.943 355.831 723.263 355.923 722.625 355.326C720.063 352.934 721.216 347.859 719.467 346.335C716.357 343.626 711.778 345.519 708.56 343.027L708.71 341.458C711.281 339.345 716.125 340.305 719.437 339.411C719.697 335.309 720.069 331.264 720.616 327.19Z"/>
	<path fill="#231F20" transform="scale(0.25 0.25)" d="M1301.76 350.49L1304.57 350.724C1307.88 354.467 1307.1 358.79 1306.9 363.538C1310.97 363.326 1315.33 362.747 1318.96 364.957L1318.78 366.466C1315.57 368.87 1310.93 369.024 1307.05 369.572C1307.21 370.343 1307.38 371.128 1307.47 371.912C1307.86 375.408 1306.59 376.979 1304.63 379.509L1302.93 379.946L1301.8 378.987L1301.23 370.964C1298.44 366.773 1291.51 369.766 1287.47 366.512L1287.57 364.76C1291.17 362.998 1296.63 363.513 1300.64 363.397C1302.18 360.783 1301.26 353.962 1301.76 350.49Z"/>
	<path fill="#231F20" transform="scale(0.25 0.25)" d="M418.918 462.976C419.959 462.848 420.986 462.77 422.036 462.743C425.461 462.655 428.308 463.132 430.822 465.713C432.659 467.597 433.714 470.043 433.519 472.696C433.186 477.221 430.695 479.671 427.374 482.264C425.669 482.441 423.939 482.59 422.225 482.531C419.59 482.439 417.127 481.176 415.418 479.18C413.823 477.318 413.164 475.046 413.355 472.63C413.702 468.248 415.746 465.797 418.918 462.976Z"/>
	<path fill="#231F20" transform="scale(0.25 0.25)" d="M186.063 556.497C187.927 557.692 187.493 559.542 188.666 560.959C189.243 561.657 194.345 563.35 195.579 563.894C185.804 583.632 201.511 585.914 200.186 603.155C200.101 604.26 198.917 604.887 198.106 605.603C191.312 598.156 190.907 583.045 187.018 573.64C183.783 571.895 182.36 575.02 179.154 573.769C179.001 573.069 178.873 572.371 178.853 571.652C178.701 566.392 182.43 560.05 186.063 556.497Z"/>
	<path fill="#231F20" transform="scale(0.25 0.25)" d="M208.154 537.621C209.841 537.88 211.316 538.092 212.792 539.009C214.32 539.959 213.346 540.557 212.772 542.084C208.359 553.822 226.769 586.043 229.531 599.735C229.994 602.027 230.234 602.981 228.887 604.979L226.061 604.654C219.35 592.921 215.492 576.781 211.419 563.836C210.252 560.129 209.225 554.694 207.287 551.418C205.829 548.954 203.211 549.097 200.659 548.586L200.153 547.059C201.562 543.274 205.298 540.377 208.154 537.621Z"/>
	<path fill="#231F20" transform="scale(0.25 0.25)" d="M1852.31 408.499C1855.7 408.374 1859.11 408.286 1862.25 409.791C1865.1 411.157 1867.28 413.853 1868.14 416.884C1868.93 419.699 1868.45 422.525 1866.85 424.967C1864.51 428.555 1861.23 429.99 1857.18 430.823C1855.69 430.991 1854.13 430.958 1852.68 430.518C1849.6 429.587 1846.67 427.507 1845.25 424.587C1843.95 421.916 1843.77 418.445 1844.76 415.638C1846.1 411.816 1848.86 410.16 1852.31 408.499ZM1853.15 413.499C1851.49 415.166 1849.73 416.372 1849.84 419C1849.95 421.657 1851.07 422.731 1852.79 424.487C1854.18 424.854 1855.98 425.627 1857.34 425.259C1860.11 424.393 1861.34 423.826 1863.07 421.355C1863.29 418.913 1863.51 417.751 1861.59 415.848C1859.49 413.76 1856.64 413.197 1853.77 413.43C1853.57 413.447 1853.36 413.476 1853.15 413.499Z"/>
	<path fill="#231F20" fill-opacity="0.98431373" transform="scale(0.25 0.25)" d="M1542.36 682.16C1571.31 681.939 1598.28 679.709 1626.62 673.342C1635.97 671.243 1650.43 661.943 1659.27 663.931C1658.84 665.603 1657.6 666.094 1656.15 666.955C1631.81 681.48 1561.08 690.185 1531.86 685.152C1537.26 683.411 1543.31 684.751 1548.87 683.785L1542.36 682.16Z"/>
	<path fill="#231F20" fill-opacity="0.98039216" transform="scale(0.25 0.25)" d="M74.6319 536.915C76.988 534.888 76.9215 530.732 77.4565 527.636C79.8871 542.206 101.013 579.144 112.987 587.68C118.58 591.667 123.042 591.87 127.365 598.128C125.18 600.139 126.215 602.192 124.79 603.676C120.556 608.087 116.503 604.994 114.57 611.457C103.74 597.195 109.73 595.395 104.768 586.596C102.613 582.774 99.1852 579.47 96.6303 575.872C87.9918 563.708 79.6534 551.061 74.6319 536.915Z"/>
	<path fill="#231F20" transform="scale(0.25 0.25)" d="M223.773 513.922C228.877 515.924 235.916 519.883 238.276 525.02C240.244 529.302 238.71 532.347 237.231 536.549C239.971 549.416 259.927 595.87 257.643 604.317L255.54 605.42C244.536 586.729 243.088 559.579 232.709 540.964C229.247 534.756 217.599 528.13 217.477 520.804C219.388 520.303 220.987 519.936 222.521 518.624C223.927 517.421 223.629 515.692 223.773 513.922Z"/>
	<path fill="#231F20" fill-opacity="0.98823529" transform="scale(0.25 0.25)" d="M380.038 591.368C392.296 590.388 404.983 591.929 417.192 593.048C460.715 597.036 503.382 604.799 544.57 619.963C549.721 621.859 565.386 626.905 567.749 632.018L566.526 634.146C554.404 631.5 541.697 625.108 529.974 620.749Q516.606 615.756 502.88 611.853Q489.154 607.95 475.159 605.162C456.838 601.472 438.828 599.607 420.182 598.445C408.194 597.698 393.256 598.389 381.82 595.322C379.994 594.832 379.343 594.746 378.414 593.071L380.038 591.368Z"/>
	<path fill="#231F20" transform="scale(0.25 0.25)" d="M640.11 508.433C643.189 508.143 645.024 508.681 647.508 510.401C650.793 515.781 650.112 521.7 649.874 527.756C649.635 533.823 649.622 544.164 644.332 548.279C642.45 549.744 640.281 550.064 637.974 549.558C635.577 549.032 633.144 546.88 631.794 544.852C630.339 542.666 629.564 539.911 630.28 537.322C631.966 531.228 638.509 531.822 642.92 529.164C645.228 526.326 644.659 520.479 644.772 516.903L629.112 519.34C627.173 519.558 625.852 519.949 624.142 520.895C619.278 527.52 624.004 535.15 622.784 542.512C622.411 544.764 621.349 547.012 619.374 548.275C617.148 549.699 614.468 549.661 612.003 548.996C608.763 548.122 606.745 546.356 605.131 543.459C605.045 541.443 604.752 540.331 605.912 538.578C608.271 535.014 613.256 534.267 617.098 533.338C618.273 525.279 618.54 518.264 617.754 510.192C625.214 509.92 632.675 509.101 640.11 508.433Z"/>
	<path fill="#231F20" transform="scale(0.25 0.25)" d="M420.878 536.143C423.648 535.809 426.882 535.643 429.632 536.242C435.115 537.437 437.7 541.533 440.592 545.956C440.513 552.91 439.819 564.003 444.969 569.301C451.259 575.774 460.499 569.826 467.954 570.223L468.603 571.279C467.711 573.007 466.725 573.809 465.011 574.656C459.945 577.159 451.377 578.708 445.927 576.69C434.704 572.534 436.847 553.687 432.296 544.404C431.16 542.085 429.632 539.523 427.107 538.627C417.834 541.464 415.191 564.622 408.136 572.382C405.41 575.381 401.794 577.638 397.64 577.673C379.937 577.822 385.777 557.36 377.423 549.039C374.516 548.141 373.657 548.372 370.806 549.068C366.131 555.476 363.438 561.17 361.518 568.792C356.948 571.425 352.676 574 347.309 574.618C343.825 575.02 339.449 574.115 336.701 571.85C332.885 568.704 328.704 562.059 328.281 557.031C328.072 554.546 328.253 553.148 329.78 551.215C336.342 552.213 336.862 567.901 344.183 572.12C358.059 573.58 358.631 549.439 370.411 543.09C372.652 541.881 375.242 541.005 377.757 541.948C385.353 544.798 387.363 560.622 390.6 567.285C392.031 570.23 393.59 572.074 396.793 573.162C411.921 573.447 410.919 545.282 420.214 536.744L420.878 536.143Z"/>
	<path fill="#231F20" fill-opacity="0.98823529" transform="scale(0.25 0.25)" d="M1436.64 365.491C1437.89 365.27 1439.26 365.03 1440.53 365.242C1445.49 366.075 1455.15 374.532 1457.62 378.889C1458.37 380.222 1458.91 382.035 1458.41 383.505C1457.28 386.852 1441.11 400.031 1438.12 401.298C1436.18 402.121 1435.96 401.871 1434.11 401.147C1435.01 394.967 1445.97 390.473 1449.76 385.02L1449.06 383.593C1448.39 383.333 1447.71 383.092 1447.02 382.899C1427.35 377.421 1400.11 387.682 1383.31 397.309C1349.75 416.527 1317.83 460.067 1308.45 497.583C1307.94 499.601 1307.68 500.647 1308.76 502.479C1315 500.738 1321.51 496.821 1327.4 494.002L1329.31 495.32L1330.6 493.25L1329.22 493.332L1330.08 494.527C1328.65 496.409 1326.36 498.223 1324.48 499.642C1319.49 503.409 1306.8 513.091 1300.92 512.203L1300.21 510.608C1301.69 486.035 1329.51 439.096 1346.62 420.85C1375.21 390.355 1407.72 379.02 1448.62 377.668C1447.41 374.407 1439.39 368.302 1436.64 365.491Z"/>
	<path fill="#231F20" transform="scale(0.25 0.25)" d="M74.6319 536.915C73.5373 533.517 72.5672 530.161 72.3608 526.578C71.5779 512.985 79.3915 484.145 88.4783 474.258C97.4512 464.496 110.532 458.879 121.301 451.33C127.075 447.282 132.192 442.274 138.134 438.469C139.332 437.702 140.337 437.291 141.765 437.279C144.656 437.256 147.168 438.333 149.155 440.419C151.366 442.741 152.615 446.204 152.538 449.398Q152.526 449.937 152.46 450.472Q152.394 451.006 152.276 451.532Q152.158 452.058 151.988 452.569Q151.818 453.081 151.598 453.573Q151.379 454.065 151.111 454.533Q150.844 455.001 150.532 455.44Q150.219 455.879 149.865 456.285Q149.511 456.691 149.118 457.06C146.596 459.436 142.188 460.578 139.113 462.285C127.52 468.721 98.373 484.233 90.0487 492.154C79.5511 502.141 77.8441 513.904 77.4565 527.636C76.9215 530.732 76.988 534.888 74.6319 536.915ZM126.474 452.836C115.433 459.156 89.8805 473.395 86.4 486.241C86.2667 486.733 86.2542 487.405 86.2216 487.886C88.6251 488.067 90.1106 486.228 92.0022 484.809C105.013 475.685 119.137 468.208 133.152 460.757C131.115 457.517 129.958 454.617 126.474 452.836Z"/>
	<path fill="#231F20" transform="scale(0.25 0.25)" d="M1721.02 259.499L1723.98 259.289C1725.68 260.187 1726.14 260.611 1727.12 262.286C1732.62 271.628 1745.74 312.557 1743.04 322.146C1742.05 325.657 1740.24 328.413 1736.93 330.108C1733.33 331.95 1728.68 331.39 1725.02 330.066C1720.72 328.51 1716.23 325.201 1714.33 320.932C1713.35 318.731 1713.21 316.26 1714.23 314.045C1717.87 306.063 1726.16 304.886 1733.63 302.356Q1733.64 301.117 1733.55 299.882C1733.05 293.074 1729.7 279.104 1724.35 274.594C1715.39 278.111 1693.05 279.118 1687.09 285.909C1685.22 288.042 1686.04 292.763 1686.21 295.493C1691.21 301.357 1698.01 326.069 1698.38 333.96C1698.6 338.875 1697.62 344.408 1694.11 348.093Q1693.71 348.516 1693.27 348.896Q1692.83 349.276 1692.36 349.609Q1691.88 349.942 1691.37 350.225Q1690.86 350.508 1690.33 350.738Q1689.8 350.967 1689.24 351.141Q1688.69 351.315 1688.12 351.432Q1687.55 351.549 1686.97 351.606Q1686.39 351.664 1685.81 351.663C1681.42 351.622 1677.24 349.262 1674.32 346.091C1671.4 342.93 1668.6 337.415 1668.98 332.995C1669.73 324.132 1684.09 325.93 1689.24 321.281C1689.03 316.334 1676.89 277.292 1673.75 274.325C1689.21 271.69 1706.62 265.591 1721.02 259.499ZM1716.32 265.499C1706.41 269.021 1690.37 271.069 1682.85 278.297L1683.12 279.946C1685.06 280.468 1685.22 280.615 1687.2 279.85C1697.36 277.728 1716.03 274.296 1723.96 267.726L1724.3 266.106C1721.74 264.489 1719.24 265.004 1716.32 265.499Z"/>
	<path fill="#231F20" transform="scale(0.25 0.25)" d="M1224.61 481.496Q1225.42 481.318 1226.24 481.175C1229.78 480.543 1233.11 480.763 1236.11 482.946C1240.95 486.464 1244.17 491.225 1244.96 497.204C1245.52 501.34 1244.6 504.916 1242.12 508.274C1241.93 508.491 1241.73 508.701 1241.52 508.898C1233.46 516.507 1191.63 533.348 1180.93 533.139C1175.71 531.304 1168.66 528.101 1165.22 523.679C1163.04 520.881 1162.41 517.471 1162.84 514.004C1166.2 486.985 1209.03 494.307 1224.25 481.807C1224.37 481.707 1224.49 481.6 1224.61 481.496Z"/>
	<path fill="#FEFEFE" transform="scale(0.25 0.25)" d="M1172.37 502.488C1173.51 502.236 1174.68 502.027 1175.86 502.081C1179.19 502.233 1182.4 505.042 1184.42 507.511C1187.76 511.607 1189.66 517.179 1188.93 522.483C1188.44 526.039 1186.69 527.154 1184.11 529.202C1181.73 527.476 1185.36 518.759 1183.97 514.515C1182.19 509.125 1174.06 509.033 1172.37 502.488Z"/>
	<path fill="#231F20" transform="scale(0.25 0.25)" d="M477.705 232.392C485.3 231.194 494.471 231.945 502.014 233.363C523.288 237.365 537.777 250.223 549.728 267.762C553.449 273.224 565.707 291.087 564.141 297.444C563.799 298.832 562.969 298.926 561.791 299.565C559.868 298.763 559.133 298.071 558.088 296.278C555.836 292.414 554.599 287.145 552.673 282.962C545.846 268.136 535.765 255.372 522.047 246.401C505.615 235.656 486.599 233.809 467.692 237.871C445.755 242.585 428.018 254.03 415.877 273.042Q414.91 274.531 414.018 276.066Q413.127 277.602 412.312 279.18Q411.498 280.757 410.763 282.373Q410.029 283.99 409.375 285.641Q408.721 287.291 408.15 288.972Q407.58 290.654 407.093 292.361Q406.607 294.069 406.206 295.798Q405.805 297.528 405.49 299.275Q405.175 301.023 404.948 302.783Q404.721 304.544 404.581 306.314Q404.441 308.084 404.39 309.859Q404.339 311.634 404.375 313.409Q404.412 315.184 404.537 316.955Q404.662 318.726 404.875 320.489Q405.088 322.251 405.388 324.001Q405.688 325.751 406.075 327.484C411.574 351.945 424.767 372.698 446.13 385.95C469.157 400.235 500.865 405.537 527.24 399.267C548.373 394.244 566.42 383.037 577.877 364.389Q579.639 361.42 581.095 358.289C586.757 346.214 593.331 319.521 588.136 306.612C587.283 304.493 586.208 303.169 584.089 302.33C582.435 305.32 581.425 309.096 578.309 310.532L576.526 309.462C576.927 304.633 576.659 297.352 578.729 292.995C579.57 291.225 581.148 289.666 582.997 289.047C587.133 287.663 591.955 289.816 595.578 291.773C599.63 293.961 604.839 296.914 606.168 301.526L604.224 302.24C599.123 302.117 594.729 299.168 590.363 296.788C591.566 302.997 592.796 309.224 593.697 315.485C596.577 335.52 590.237 357.463 578.043 373.562C563.701 392.496 539.893 402.419 516.915 405.496C489.182 409.21 457.873 401.92 435.533 384.765C417.437 370.87 403.138 347.616 400.155 324.901C397.209 302.463 402.465 281.482 416.375 263.564C432.051 243.372 452.953 235.472 477.705 232.392Z"/>
	<path fill="#231F20" transform="scale(0.25 0.25)" d="M1799.01 355.497L1801.97 356.199C1802.47 359.947 1777.48 381.632 1773.64 388.297C1761.98 408.579 1761.76 430.903 1750.26 449.88C1746.36 456.321 1740.89 462.788 1733.2 464.517C1723.61 466.677 1714.54 461.441 1706.74 456.501C1704.63 449.295 1695.62 442.465 1695.67 434.573C1695.69 431.02 1696.79 427.167 1697.74 423.772C1706.07 394.044 1741.41 404.251 1762.13 392.147C1770.71 387.135 1777.04 377.12 1783.9 369.974C1788.71 364.972 1794.09 360.424 1799.01 355.497ZM1729.99 409.499C1727.85 413.754 1727.46 416.797 1728.94 421.38C1729.41 422.839 1730.17 423.912 1731.24 424.994C1733.44 425.749 1735.33 425.747 1737.51 424.643C1737.77 424.512 1737.97 424.292 1738.19 424.116C1741.16 422.984 1742.13 422.042 1743.88 419.462C1744.33 416.773 1744.7 415.539 1743.18 413.074C1741.92 411.043 1738.88 409.162 1736.6 408.839C1734.54 408.549 1731.98 409.025 1729.99 409.499Z"/>
	<path fill="#231F20" transform="scale(0.25 0.25)" d="M285.918 635.134C282.283 624.574 282.083 613.648 279.493 602.927C276.388 590.078 253.74 513.375 256.664 505.681C257.164 504.366 257.813 503.54 259.125 503.104C261.614 502.276 264.076 503.084 266.293 504.285C279.896 511.657 284.11 537.56 287.947 551.321C293.787 572.263 298.233 593.608 303.025 614.802C304.891 623.055 307.776 631.289 308.62 639.725C309.053 644.048 309.005 648.758 306.801 652.646C303.11 659.154 283.762 662.036 276.833 663.743C258.806 668.185 240.723 672.449 222.742 677.075C207.317 681.044 191.724 686.303 175.765 687.456C162.141 676.944 123.404 627.529 114.57 611.457C116.503 604.994 120.556 608.087 124.79 603.676C126.215 602.192 125.18 600.139 127.365 598.128C145.481 616.694 160.262 645.404 177.402 662.898C201.657 655.989 226.259 650.272 250.738 644.217C262.41 641.33 274.504 638.87 285.918 635.134ZM234.009 652.836C231.59 655.371 228.763 657.816 228.836 661.598C228.89 664.375 229.423 665.143 231.102 667.291C234.266 668.84 236.58 669.128 240.088 668.32C242.928 666.498 245.076 665.317 246.252 661.991C246.202 659.32 246.399 657.935 244.528 655.815C242.333 653.329 238.681 652.576 235.549 652.724Q234.778 652.764 234.009 652.836Z"/>
	<path fill="#231F20" transform="scale(0.25 0.25)" d="M482.637 252.392C495.771 251.827 509.801 254.797 520.846 262.071C534.44 271.023 543.464 285.509 546.533 301.389C549.661 317.573 546.645 334.176 537.348 347.867C526.423 363.953 510.564 373.076 491.722 376.601C491.569 376.619 491.416 376.642 491.261 376.656C475.92 378.076 459.548 373.718 447.476 364.015C435.182 354.133 427.797 338.982 426.298 323.409C424.599 305.746 428.57 287.718 440.113 273.928C451.331 260.525 465.256 253.907 482.637 252.392ZM480.268 257.242C464.139 260.138 451.024 267.224 441.441 280.972C431.855 294.726 429.657 312.903 432.749 329.181C435.428 343.279 444.002 355.259 455.787 363.24Q456.888 363.977 458.024 364.66Q459.16 365.342 460.329 365.968Q461.497 366.593 462.695 367.161Q463.892 367.728 465.117 368.236Q466.341 368.743 467.589 369.19Q468.836 369.637 470.104 370.022Q471.373 370.406 472.658 370.728Q473.944 371.05 475.244 371.308Q476.544 371.566 477.855 371.76Q479.166 371.954 480.485 372.083Q481.804 372.212 483.127 372.276Q484.451 372.34 485.776 372.339Q487.102 372.338 488.425 372.271Q489.749 372.205 491.068 372.073Q492.386 371.941 493.697 371.745Q495.008 371.549 496.307 371.288C513.58 365.767 527.437 355.816 535.938 339.454C542.858 326.137 544.422 310.851 539.837 296.506C535.452 282.786 526.29 270.347 513.376 263.614C503.025 258.217 491.819 256.626 480.268 257.242Z"/>
	<path fill="#231F20" transform="scale(0.25 0.25)" d="M485.502 275.349C495.199 274.636 506.379 276.424 514.333 282.256C522.924 288.555 527.862 298.752 529.298 309.148Q529.447 310.185 529.545 311.228Q529.643 312.271 529.689 313.318Q529.735 314.365 529.73 315.412Q529.724 316.46 529.667 317.506Q529.61 318.553 529.501 319.595Q529.392 320.637 529.232 321.672Q529.072 322.708 528.861 323.734Q528.65 324.76 528.389 325.775Q528.127 326.789 527.816 327.79Q527.505 328.79 527.145 329.774Q526.785 330.758 526.376 331.723Q525.968 332.688 525.513 333.631Q525.057 334.575 524.556 335.495Q524.054 336.415 523.508 337.309Q522.962 338.203 522.372 339.069Q521.783 339.935 521.151 340.771C513.147 351.204 503.047 354.303 490.611 355.894C478.521 354.926 466.324 353.826 456.462 345.906C449.376 340.215 446.134 332.475 445.206 323.589C443.988 311.918 446.546 298.772 454.134 289.539C462.242 279.673 473.37 276.649 485.502 275.349ZM480.776 280.239C470.253 282.836 461.748 286.82 455.974 296.602C450.559 305.778 449.236 318.162 452.054 328.387C454.262 336.396 459.519 342.506 466.776 346.428C475.755 351.28 485.987 351.936 495.959 351.057C506.365 347.81 514.069 343.458 519.415 333.404Q519.862 332.56 520.268 331.695Q520.673 330.83 521.034 329.945Q521.396 329.061 521.714 328.16Q522.031 327.259 522.304 326.344Q522.576 325.428 522.803 324.5Q523.03 323.572 523.211 322.634Q523.391 321.696 523.525 320.75Q523.659 319.804 523.746 318.852Q523.833 317.901 523.872 316.946Q523.912 315.992 523.904 315.037Q523.897 314.081 523.842 313.128Q523.787 312.174 523.685 311.224Q523.582 310.274 523.433 309.33Q523.284 308.387 523.088 307.452Q522.893 306.517 522.651 305.592Q522.409 304.668 522.122 303.757C519.401 294.997 513.635 287.539 505.36 283.411C497.535 279.507 489.276 279.447 480.776 280.239Z"/>
	<path fill="#231F20" transform="scale(0.25 0.25)" d="M480.581 292.092C484.241 291.976 487.738 292.26 491.113 293.818C497.729 296.871 503.147 303.625 505.558 310.396C507.272 315.21 507.526 320.673 505.177 325.328C502.418 330.798 497.455 333.183 491.901 335.004C487.811 334.953 483.187 334.109 479.459 332.418C473.324 329.634 468.239 323.731 466.078 317.391C464.375 312.395 464.226 306.846 466.762 302.104C469.689 296.631 474.878 293.875 480.581 292.092Z"/>
	<path fill="#231F20" transform="scale(0.25 0.25)" d="M318.503 707.446C340.315 706.069 362.585 707.323 384.459 707.49C398.161 707.595 412.389 706.499 425.986 707.95C430.321 708.413 438.726 709.411 441.354 713.206C448.19 723.075 444.03 768.99 441.184 781.298C425.408 785.548 407.748 784.161 391.5 784.236C377.105 784.283 275.216 784.031 270.104 780.76C268.162 779.518 267.044 775.513 266.535 773.329C263.999 762.451 262.783 721.358 268.097 712.56C274.825 707.521 309.029 707.857 318.503 707.446ZM418.432 711.453C396.284 712.545 280.169 709.166 272.158 717.66C267.448 722.654 269.677 758.982 270.436 766.851C270.746 770.065 270.926 773.893 272.44 776.766C278.862 778.75 287.489 777.917 294.25 778.011C314.401 778.809 427.513 783.788 436.648 776.141C439.7 769.732 440.652 726.728 438.216 719.691C437.182 716.703 435.267 714.451 432.425 713.028C428.624 711.124 422.634 711.319 418.432 711.453Z"/>
	<path fill="#231F20" transform="scale(0.25 0.25)" d="M320.419 734.361C325.554 735.257 335.884 738.534 339.548 742.23C341.57 744.271 341.468 745.295 341.472 747.975C338.871 753.351 332.907 756.639 327.498 758.643C325.003 759.567 322.389 760.22 319.87 759.048L319.64 757.473C325.344 753.072 331.617 750.333 338.181 747.513C334.575 745.746 330 743.012 326.025 743.591C325.35 746.253 324.584 748.841 323.717 751.446L322.384 751.582C318.913 746.623 320.032 740.2 320.419 734.361Z"/>
	<path fill="#231F20" transform="scale(0.25 0.25)" d="M396.983 734.088C402.846 734.826 410.652 736.799 415.831 739.633C418.818 741.268 420.902 743.143 421.85 746.522C421.439 749.655 420.116 751.312 417.669 753.137C413.507 756.242 402.526 759.063 397.452 758.124C399.571 754.106 407.436 751.228 411.382 749.178C406.29 749.598 401.818 750.094 397.241 747.39L397.739 746.037C401.397 744.273 405.856 744.581 409.85 744.489C405.61 742.122 399.829 740.091 396.737 736.265L396.983 734.088Z"/>
	<path fill="#231F20" transform="scale(0.25 0.25)" d="M1558.97 320.499C1566.3 319.767 1573.8 319.426 1581.07 320.765C1594.97 323.323 1606.59 331.066 1614.55 342.692C1623.24 355.389 1630.09 375.275 1627.06 390.635C1623.64 407.989 1610.16 417.687 1596.51 426.911C1597.07 427.743 1597.28 428.307 1597.47 429.313C1598.94 437.136 1584.34 502.637 1580.88 506.744C1576.62 511.799 1569.09 510.131 1564.32 513.373C1561.65 515.192 1561.61 518.123 1557.98 518.615C1555.67 515.706 1556.45 514.297 1556.01 510.814C1555.81 509.23 1555.23 509.168 1554 508.224C1551.25 508.227 1550 508.85 1547.92 510.49L1547.28 510.999C1546.99 512.308 1545.91 513.808 1545.24 515.001L1543.39 515.122C1540.64 512.735 1540.18 509.305 1539.32 505.806C1533.25 503.058 1530.91 508.374 1525.46 509.275C1522.4 507.416 1523.53 504.101 1521.84 500.937C1515.06 498.74 1516.03 502.615 1510.82 504.899C1508.89 505.743 1508.04 505.178 1506.31 504.377C1505.72 495.251 1496.89 495.709 1491.44 489.932C1481.45 479.327 1510.05 429.396 1510.13 413.508L1510.12 412.903C1510.15 406.113 1506.45 400.029 1504.87 393.547C1501.54 379.852 1506.58 363.107 1513.86 351.414C1524.54 334.252 1539.55 325.018 1558.97 320.499ZM1563.11 324.499C1545.34 327.654 1531.77 334.362 1521.32 349.423C1515.46 357.87 1507.07 377.311 1509.04 387.6C1510.43 394.826 1514.99 402.263 1515.47 409.565C1516.07 418.681 1504.12 453.425 1499.35 462.159C1498.96 462.86 1498.5 463.285 1497.94 463.831C1509.26 466.052 1546.23 473.358 1554.46 477.503C1563.22 479.073 1572.19 480.927 1580.76 483.365C1584.86 476.97 1594.37 435.977 1593.12 429.886C1592.93 428.951 1592.65 428.041 1592.33 427.143C1595.5 412.251 1627.64 412.606 1621.66 374.537C1620.12 364.755 1616.28 354.813 1610.86 346.527C1603.72 335.609 1592.92 327.614 1580.01 325.067C1574.31 323.942 1568.85 324.037 1563.11 324.499ZM1497.56 468.499C1497.11 471.147 1495.95 474.716 1497.35 477.013C1508.41 479.987 1569.41 498.283 1576.06 497.805C1578.02 495.318 1578.36 493.468 1578.79 490.412C1578.29 489.175 1578.4 488.621 1577.11 488.052C1567.3 483.725 1506.5 468.599 1497.56 468.499Z"/>
	<path fill="#231F20" transform="scale(0.25 0.25)" d="M1592.57 352.494L1595.95 352.091C1596.62 352.63 1597.32 352.892 1597.49 353.765C1598.94 361.225 1593.17 380.884 1588.95 386.94C1588.01 388.292 1587.32 389.218 1585.68 389.549C1584.19 382.639 1590.68 370.56 1586.74 365.023C1584.45 366.065 1583.05 368.912 1581.54 370.852C1579.28 373.764 1576.33 376.939 1574.78 380.294C1571.56 387.292 1573.64 396.288 1568.91 402.868C1567.06 405.445 1565.14 405.962 1562.22 406.544C1555.09 407.937 1549.06 404.168 1542.59 401.706C1568.8 391.732 1554.96 375.849 1564.68 363.732C1565.85 362.271 1565.93 362.135 1567.77 361.945C1569.69 363.936 1569.3 367.917 1570.27 370.564C1575.31 368.37 1576.5 360.613 1582.16 358.792C1584.39 358.073 1587.25 359.758 1589.22 360.778L1589.81 361.09C1592 358.915 1592.08 355.432 1592.57 352.494Z"/>
	<path fill="#231F20" transform="scale(0.25 0.25)" d="M652.807 591.375C671.558 589.484 692.599 590.712 709.768 599.141C728.307 608.242 745.686 626.528 752.39 646.214C760.106 668.871 756.923 695.942 746.335 717.167C728.948 752.018 701.476 773.002 665.043 785.266Q660.176 786.395 655.246 787.209C635.613 790.251 611.928 783.095 596.16 771.393C578.907 758.589 565.323 737.529 562.269 716.104C557.731 684.261 572.439 646.957 591.441 622.014C607.261 601.247 627.908 594.808 652.807 591.375ZM653.061 595.352C629.256 598.51 611.207 605.154 596.212 624.838C578.773 647.728 563.018 683.331 567.137 712.764Q567.276 713.766 567.439 714.764Q567.602 715.762 567.789 716.756Q567.977 717.75 568.189 718.739Q568.4 719.728 568.636 720.711Q568.872 721.695 569.131 722.672Q569.391 723.649 569.674 724.62Q569.957 725.591 570.264 726.555Q570.571 727.518 570.902 728.474Q571.232 729.43 571.586 730.378Q571.939 731.325 572.316 732.264Q572.693 733.203 573.092 734.132Q573.491 735.061 573.913 735.98Q574.335 736.899 574.779 737.808Q575.224 738.716 575.69 739.614Q576.156 740.511 576.644 741.397Q577.132 742.283 577.641 743.157Q578.151 744.03 578.682 744.891Q579.212 745.752 579.764 746.6Q580.315 747.448 580.887 748.282Q581.459 749.116 582.051 749.936Q582.643 750.756 583.255 751.561Q583.867 752.366 584.499 753.156Q585.13 753.946 585.781 754.721Q586.431 755.495 587.1 756.253Q587.769 757.011 588.457 757.753Q589.144 758.495 589.85 759.22Q590.555 759.944 591.278 760.652Q592.001 761.359 592.741 762.049Q593.481 762.738 594.237 763.409Q594.994 764.081 595.766 764.733Q596.539 765.386 597.327 766.019Q598.115 766.653 598.919 767.267C614.245 778.801 635.185 785.86 654.437 783.094Q659.035 782.473 663.524 781.298C696.032 770.873 724.383 749.958 740.281 719.134C751.202 697.959 755.139 671.809 747.702 648.922C741.512 629.871 726.59 611.946 708.654 602.896C692.731 594.86 670.51 592.639 653.061 595.352Z"/>
	<path fill="#231F20" transform="scale(0.25 0.25)" d="M622.515 615.942C624.496 616.137 626.56 616.421 628.469 616.992C644.504 621.789 668.06 666.276 676.818 681.45C675.644 695.748 684.639 704.628 691.378 716.421C692.404 718.216 694.411 720.881 694.972 722.811C695.202 723.602 694.391 726.606 694.241 727.587C692.608 729.352 693.472 732.51 691.095 734.821C688.097 733.142 686.867 729.007 685.391 725.951C686.197 731.866 688.933 736.682 691.321 742.094C686.749 738.649 683.204 733.949 679.518 729.609L678.285 729.652C678.631 733.248 681.265 736.241 680.676 739.829C678.304 739.528 677.145 737.69 675.464 736.049C675.972 738.487 676.366 740.561 676.086 743.076L675.143 742.966C665.769 734.173 658.045 719.841 650.565 709.161L649.965 708.914C632.199 701.549 611.762 677.057 604.717 659.505C601.211 650.771 601.895 640.365 605.769 631.841C609.03 624.664 615.14 618.664 622.515 615.942ZM639.01 642.362C639.893 649.345 645.155 650.794 645.748 654.939L644.234 655.463C641.568 653.645 637.785 648.99 634.919 648.477C633.743 650.307 633.925 650.92 633.929 653.043C635.255 654.655 636.561 655.622 638.307 656.754C635.098 656.247 631.895 655.686 628.651 655.462C628.251 656.813 627.899 658.14 627.62 659.522L624.634 658.746L627.153 662.945L626.318 664.145C623.901 663.884 621.619 663.561 619.256 662.949C620.666 664.608 622.697 665.878 624.438 667.18L624.336 667.934C617.265 666.775 614.057 663.358 609.017 658.695C614.155 665.857 619.447 672.954 624.04 680.483C627.924 685.713 633.17 693.621 638.895 696.757C640.31 696.732 643.742 696.227 644.925 696.653C656.403 700.789 652.084 709.851 666.43 698.818C668.385 694.798 670.497 690.791 672.075 686.606C670.697 682.876 669.295 679.091 667.236 675.675C663.912 670.161 644.981 645.067 640.249 642.866C639.845 642.678 639.427 642.52 639.01 642.362Z"/>
	<path fill="#231F20" transform="scale(0.25 0.25)" d="M1885.94 494.499L1890.05 494.161C1892.1 495.23 1893.43 497.116 1894.49 499.117C1896.3 502.516 1898.38 509.014 1897.23 512.737C1902.41 511.188 1910.17 507.571 1913.91 503.676C1918.57 507.512 1920.11 514.788 1920.66 520.495C1923.64 520.929 1927.91 520.962 1930.43 522.666C1939.95 529.095 1932.9 558.178 1940.19 566.412C1941.86 568.287 1948.6 567.014 1951.61 569.741C1956.68 588.2 1957.5 607.788 1960.37 626.65C1962.75 642.286 1977.3 714.746 1974.01 723.788C1952.08 729.462 1928.56 730.688 1906.28 735.387L1802.77 757.175C1784.86 760.887 1767.38 765.536 1749.21 768.083C1742.56 770.927 1732.04 771.252 1724.75 772.351C1725.03 771.762 1725.07 771.747 1725.27 771.008C1726.89 765.167 1725.73 755.437 1722.58 750.254C1718.67 743.825 1706.57 741.672 1699.54 740.064C1699.32 736.735 1699.15 732.334 1697.74 729.288C1695.55 724.566 1669.11 716.199 1663.52 714.068C1666.53 704.947 1666 604.079 1663.47 595.833C1678.86 591.441 1735.11 571.522 1745.89 564.5C1748.25 559.937 1745.33 554.904 1747.42 550.151C1750.91 546.565 1775.55 540.47 1782.52 537.53C1803 528.89 1822.67 518.315 1843.15 509.655C1857.2 503.716 1871.54 499.406 1885.94 494.499ZM1939.67 572.499C1919.59 577.562 1898.96 581.049 1878.68 585.306L1784.58 605.68C1770.42 608.723 1723.48 617.369 1713.13 623.649C1711.98 629.569 1716.47 638.396 1717.19 644.634C1718.46 655.709 1718.52 667.11 1719.67 678.272C1720.95 690.744 1723.6 702.934 1725.19 715.351C1727.35 732.096 1728.5 748.846 1730.96 765.608L1732.16 766.64L1733.24 766.367Q1778.08 757.602 1822.79 748.157C1859.61 740.112 1896.63 731.351 1933.88 725.669C1940.79 724.614 1961.83 722.795 1966.93 720.075C1971.35 708.83 1958.55 648.146 1956.27 632.464C1953.5 613.5 1953.06 592.047 1947.24 573.817C1945.49 572.166 1945.52 572.036 1943.04 572.084C1941.89 572.105 1940.8 572.278 1939.67 572.499ZM1883.04 528.5C1839.82 539.212 1794.63 544.53 1750.71 552.057C1753.15 556.771 1758.45 589.477 1758.88 596.218C1759.01 598.417 1758.38 600.707 1757.86 602.83L1758.71 604.928L1759.83 605.262C1783.16 601.626 1806.49 595.809 1829.6 590.854C1843.94 587.777 1860.32 585.605 1874.02 580.589C1873.77 576.485 1868.07 566.412 1864.99 563.725C1864.51 563.304 1864.49 563.303 1864.04 562.973C1864.12 562.768 1864.22 562.565 1864.3 562.359C1868.66 551.751 1866.53 538.288 1879.26 532.855C1881.44 531.924 1885.06 531.262 1886.2 529.227L1883.04 528.5ZM1743.5 570.499C1743.34 570.597 1743.17 570.698 1743 570.794C1731.81 577.164 1671.58 593.725 1669.09 602.757C1666.94 610.57 1669.19 620.775 1669.56 628.849C1670.13 641.157 1672.75 705.006 1668.51 712.371C1674.04 713.537 1682.52 714.737 1686.81 718.491C1689.33 719.296 1693.25 721.187 1695.7 720.448C1697.3 707.305 1687.5 617.217 1681.08 609.481C1680.12 608.325 1678.84 607.333 1677.68 606.398C1698.49 603.103 1730.5 589.686 1749.11 579.112C1749.54 576.864 1749.17 573.548 1747.81 571.618C1747.48 571.14 1747.05 570.732 1746.62 570.344L1743.5 570.499ZM1750.38 598.499Q1731.31 604.146 1711.68 607.346C1707.18 608.088 1689.28 608.659 1686.5 611.056C1693.54 641.058 1698.01 671.453 1701.24 702.108C1702.26 711.822 1700.19 722.568 1702.33 731.919C1702.83 734.141 1703.22 734.757 1705.26 735.987C1707.66 737.439 1711.11 737.981 1713.15 739.816C1715.62 740.297 1719.33 741.551 1721.71 740.713L1721.1 739.268C1722.73 736.794 1721.79 731.543 1721.54 728.525C1720.18 711.876 1716.7 695.593 1714.73 679.032C1712.63 661.406 1712.29 642.822 1708.31 625.552C1707.85 623.559 1706.6 621.498 1705.62 619.708C1722.15 615.587 1738.77 611.682 1755.19 607.122C1755.51 604.916 1755.02 601.26 1753.71 599.367C1753.47 599.02 1753.11 598.719 1752.81 598.44L1750.38 598.499ZM1883.21 499.499C1868.91 505.931 1853.68 509.923 1839.28 516.077C1821.09 523.849 1802.95 535.241 1783.9 540.42C1787.84 540.309 1792.46 540.623 1796.23 539.468C1814.66 537.624 1882.38 529.343 1893.31 515.919C1893.55 515.633 1893.75 515.196 1893.92 514.888C1893.29 509.33 1891.45 504.25 1887.89 499.916C1885.92 499.121 1885.34 499.228 1883.21 499.499ZM1916.42 526.499C1911.88 527.218 1907.24 528.197 1902.66 528.496C1913.14 536.312 1923.48 548.05 1925.29 561.452C1925.55 563.429 1925.29 564.94 1924.45 566.77C1921.93 568.289 1921.13 568.191 1918.29 568.105C1915.76 566.322 1912.94 563.843 1910.04 562.794C1902.92 566.13 1897.1 568.168 1889.26 565.452C1886.26 564.414 1883.53 562.57 1882.3 559.505C1880.84 555.836 1881.91 550.775 1883.69 547.388C1886.11 542.777 1892.2 541.299 1894.84 537.065C1900.23 538.511 1905.89 539.757 1910.74 542.605C1908.56 537.991 1904.26 532.284 1899.14 530.749C1898.16 530.458 1897.49 530.504 1896.51 530.659C1896.28 530.695 1896.06 530.723 1895.83 530.757C1895.27 530.844 1894.72 530.956 1894.16 531.082C1893.94 531.234 1893.72 531.388 1893.5 531.536C1888.99 534.535 1879.06 535.174 1877.75 540.6C1882.11 550.328 1869.49 553.892 1883.52 572.884L1882.78 573.509C1879.43 572.047 1876.13 569.908 1872.6 569.107C1875.65 571.755 1880.21 575.093 1880.89 579.322C1892.22 577.782 1922.47 574.593 1930.74 569.08C1933.84 562.513 1930.07 535.761 1927.46 528.816C1927.13 527.932 1925.64 527.104 1924.88 526.509C1921.89 525.827 1919.42 526.123 1916.42 526.499ZM1746.82 584.499C1742.66 587.881 1712.79 598.513 1712.43 601.678L1715.23 601.641C1727.9 600.014 1740.17 597.086 1752.49 593.786C1753.15 591.691 1752.86 588.185 1751.92 586.203C1751.63 585.592 1751.23 585.028 1750.82 584.489C1749.37 584.324 1748.26 584.283 1746.82 584.499ZM1909.06 511.499C1906.02 517.249 1895.25 517.922 1892.57 523.296C1894.1 524.086 1895.03 524.246 1896.75 524.232C1902.2 524.051 1910.45 524.505 1914.56 520.173C1916.07 518.575 1915.99 517.768 1916.21 515.677C1915.28 513.455 1914.38 512.483 1912.41 511.115L1909.06 511.499ZM1894.99 544.499L1892.05 545.724C1891.21 547.943 1890.56 549.939 1891.5 552.252C1892.34 554.304 1894.18 556.498 1896.43 556.947C1897.57 557.175 1899.05 556.981 1900.19 556.884C1902.88 555.936 1903.73 555.64 1905.64 553.4C1905.94 550.794 1906.16 549.779 1904.53 547.517C1903.43 545.989 1901.08 544.395 1899.24 544.189C1897.85 544.034 1896.36 544.291 1894.99 544.499Z"/>
	<path fill="#FEFEFE" fill-opacity="0.0078431377" transform="scale(0.25 0.25)" d="M1916.42 526.499C1919.42 526.123 1921.89 525.827 1924.88 526.509C1925.64 527.104 1927.13 527.932 1927.46 528.816C1930.07 535.761 1933.84 562.513 1930.74 569.08C1922.47 574.593 1892.22 577.782 1880.89 579.322C1880.21 575.093 1875.65 571.755 1872.6 569.107C1876.13 569.908 1879.43 572.047 1882.78 573.509L1883.52 572.884C1869.49 553.892 1882.11 550.328 1877.75 540.6C1879.06 535.174 1888.99 534.535 1893.5 531.536C1893.72 531.388 1893.94 531.234 1894.16 531.082C1894.72 530.956 1895.27 530.844 1895.83 530.757C1896.06 530.723 1896.28 530.695 1896.51 530.659C1897.49 530.504 1898.16 530.458 1899.14 530.749C1904.26 532.284 1908.56 537.991 1910.74 542.605C1905.89 539.757 1900.23 538.511 1894.84 537.065C1892.2 541.299 1886.11 542.777 1883.69 547.388C1881.91 550.775 1880.84 555.836 1882.3 559.505C1883.53 562.57 1886.26 564.414 1889.26 565.452C1897.1 568.168 1902.92 566.13 1910.04 562.794C1912.94 563.843 1915.76 566.322 1918.29 568.105C1921.13 568.191 1921.93 568.289 1924.45 566.77C1925.29 564.94 1925.55 563.429 1925.29 561.452C1923.48 548.05 1913.14 536.312 1902.66 528.496C1907.24 528.197 1911.88 527.218 1916.42 526.499Z"/>
	<path fill="#231F20" transform="scale(0.25 0.25)" d="M1787 555.499C1788.7 555.257 1791.53 554.89 1793.03 555.773C1796.62 557.875 1798.98 560.974 1800.01 565.023C1801.4 570.465 1800.25 576.911 1797.3 581.658C1792.48 589.428 1784.71 592.023 1776.19 593.86C1774.6 594.569 1774.29 594.449 1772.63 594.213C1764.93 585.129 1769.61 570.944 1764.53 562.285C1771.97 559.685 1779.37 557.451 1787 555.499ZM1786.55 560.499L1785.87 560.863C1781.84 562.98 1773.83 562.911 1771.63 566.081C1771.3 571.351 1772.99 583.107 1776.21 587.098C1781.33 586.979 1786.59 586.721 1790.3 582.689C1793.48 579.236 1795.31 574.306 1795.07 569.625C1794.87 565.665 1793.61 563.177 1790.8 560.457C1789.29 560.298 1788.05 560.274 1786.55 560.499Z"/>
	<path fill="#231F20" transform="scale(0.25 0.25)" d="M1926.91 585.5C1929.18 585.145 1932.7 584.487 1934.67 585.809C1937.8 587.907 1940.86 592.687 1941.4 596.443C1941.77 599.086 1941.13 601.108 1939.47 603.183C1936.72 604.894 1934.2 604.337 1931.14 603.972C1927.95 601.553 1924.49 599.213 1921.52 596.537C1919.36 594.592 1919.13 593.605 1919.02 590.867C1920.66 587.775 1923.87 586.82 1926.91 585.5Z"/>
	<path fill="#231F20" transform="scale(0.25 0.25)" d="M1749.19 626.499C1750.9 626.335 1752.44 626.406 1754.15 626.561L1755.1 628.464C1754.39 635.595 1747.2 643.145 1742.29 648.107C1738.92 651.509 1736.99 653.174 1732.07 653.213C1731.06 647.658 1730.46 637.984 1726.84 633.753Q1729.76 633.295 1732.63 632.608Q1735.5 631.922 1738.3 631.011Q1741.11 630.1 1743.84 628.97Q1746.56 627.84 1749.19 626.499Z"/>
	<path fill="#231F20" transform="scale(0.25 0.25)" d="M1828.58 602.499L1829.29 602.404C1845.42 600.364 1861.92 603.32 1874.94 613.559Q1876.15 614.522 1877.3 615.543Q1878.46 616.565 1879.57 617.642Q1880.67 618.719 1881.72 619.849Q1882.77 620.98 1883.77 622.16Q1884.76 623.341 1885.69 624.57Q1886.63 625.798 1887.5 627.071Q1888.37 628.344 1889.18 629.658Q1889.99 630.972 1890.73 632.325Q1891.48 633.677 1892.15 635.065Q1892.83 636.453 1893.43 637.872Q1894.04 639.291 1894.58 640.739Q1895.11 642.186 1895.57 643.658Q1896.04 645.13 1896.43 646.623Q1896.82 648.116 1897.14 649.627Q1897.45 651.137 1897.69 652.661Q1897.93 654.186 1898.1 655.72Q1898.28 657.306 1898.39 658.9Q1898.49 660.493 1898.52 662.089Q1898.54 663.686 1898.49 665.282Q1898.44 666.878 1898.31 668.469Q1898.18 670.061 1897.97 671.644Q1897.76 673.227 1897.48 674.798Q1897.19 676.369 1896.83 677.924Q1896.47 679.479 1896.03 681.014Q1895.59 682.55 1895.08 684.062Q1894.56 685.574 1893.98 687.059Q1893.39 688.544 1892.73 689.999Q1892.07 691.454 1891.34 692.874Q1890.62 694.295 1889.82 695.678Q1889.02 697.061 1888.16 698.404Q1887.29 699.746 1886.36 701.044Q1885.43 702.343 1884.44 703.594C1874.29 716.219 1861.1 723.218 1845.02 724.953C1844.72 725.1 1844.34 725.308 1844.01 725.411C1835.71 727.982 1822.39 724.585 1814.82 721.221Q1813.41 720.602 1812.04 719.914Q1810.67 719.227 1809.33 718.472Q1808 717.717 1806.7 716.897Q1805.4 716.077 1804.14 715.194Q1802.89 714.31 1801.68 713.366Q1800.47 712.421 1799.31 711.418Q1798.14 710.415 1797.03 709.356Q1795.92 708.296 1794.86 707.183Q1793.81 706.07 1792.8 704.906Q1791.8 703.741 1790.86 702.529Q1789.92 701.317 1789.04 700.059Q1788.16 698.802 1787.34 697.503Q1786.52 696.203 1785.77 694.865Q1785.02 693.526 1784.33 692.152Q1783.65 690.778 1783.03 689.372Q1782.42 687.966 1781.87 686.531C1776.28 671.71 1776.13 652.768 1782.83 638.287C1791.91 618.694 1809.26 609.503 1828.58 602.499ZM1830.34 641.499C1823.95 645.72 1818.34 650.838 1816.64 658.65C1815.62 663.339 1817.02 668.46 1819.67 672.383C1822.71 676.884 1827.67 680.627 1833.07 681.618C1835.27 682.021 1837.07 681.852 1839.23 681.327C1844.9 680.606 1849.5 679.432 1853.18 674.735C1856.49 670.502 1857.44 664.981 1856.72 659.745Q1856.65 659.185 1856.54 658.63Q1856.44 658.075 1856.31 657.525Q1856.18 656.976 1856.03 656.433Q1855.87 655.891 1855.69 655.357Q1855.5 654.823 1855.29 654.299Q1855.08 653.775 1854.85 653.262Q1854.61 652.749 1854.35 652.248Q1854.09 651.747 1853.8 651.26Q1853.52 650.773 1853.21 650.3Q1852.9 649.828 1852.57 649.372Q1852.24 648.915 1851.88 648.476Q1851.53 648.036 1851.15 647.615Q1850.78 647.194 1850.38 646.792Q1849.98 646.39 1849.57 646.009Q1849.15 645.627 1848.72 645.266Q1848.28 644.906 1847.83 644.567C1842.68 640.755 1837.18 640.357 1831.03 641.377C1830.8 641.415 1830.57 641.458 1830.34 641.499Z"/>
	<path fill="#231F20" transform="scale(0.25 0.25)" d="M932.152 371.07C917.446 349.611 904.784 324.713 909.752 297.958C913.881 275.722 926.989 257.586 945.524 244.964C951.546 240.864 958.156 237.269 964.784 234.246C977.48 257.25 984.37 287.101 976.84 312.883C970.116 335.906 955.414 349.462 937.93 364.664C936.969 424.236 941.682 483.801 940.189 543.279C939.313 578.159 933.628 613.172 928.463 647.633C926.311 661.986 925.191 676.129 922.248 690.408C935.861 692.219 960.309 691.903 973.424 688.783C974.504 648.104 987.567 607.562 1002.7 569.97C980.863 544.999 973.229 506.787 975.343 474.435C976.654 454.373 982.642 438.137 992.154 420.6C993.944 417.301 995.831 412.485 998.805 410.147C999.744 409.409 1001.82 408.479 1003.04 408.73C1008.79 409.905 1020.31 423.901 1024 428.926C1039.82 398.853 1061.49 377.269 1094.24 366.666C1095.19 366.359 1096.2 366.315 1097.19 366.329C1101.75 369.838 1102.47 381.247 1103.18 386.7C1104.89 399.765 1101.9 449.057 1094.4 459.404C1093.91 460.08 1093.38 460.665 1092.78 461.236C1108.19 459.251 1137.85 450.846 1151.4 458.219C1153.96 461.068 1154.32 463.81 1154.08 467.491C1152.52 490.84 1134.29 530.988 1116.47 546.077C1093.67 565.385 1052.74 579.952 1022.82 577.35C1017.53 576.891 1012.34 575.444 1007.26 573.976C1002.76 582.563 999.765 591.98 996.68 601.153C992.452 613.728 988.064 626.511 985.291 639.496C981.772 655.97 980.28 672.917 977.817 689.567C994.736 689.41 1011.73 688.902 1028.65 689.189C1044.93 689.466 1061.17 690.589 1077.47 690.242C1091.33 678.337 1106.83 641.222 1108.23 623.079C1108.34 621.746 1108.29 620.42 1108.17 619.091C1108.09 619.207 1108.01 619.325 1107.93 619.439C1104.65 623.922 1096.67 630.977 1091.15 631.92C1090.98 631.95 1090.8 631.968 1090.62 631.992L1089.84 631.158C1092.26 625.394 1105.7 611.143 1111.62 608.792C1113.67 607.982 1114.42 608.402 1116.47 608.951C1120.32 612.202 1128.2 628.958 1128.92 634.129C1128.99 634.596 1128.94 635.31 1128.93 635.744C1122.47 633.641 1121.1 624.242 1115.87 621.15C1113.98 623.125 1114.06 627.517 1113.17 630.289C1108.09 645.997 1097.61 678.473 1084.9 689.197C1107.09 689.17 1144.8 687.001 1164.08 677.147C1164.18 676.997 1164.28 676.851 1164.37 676.697C1171.67 664.086 1157.97 598.77 1169.62 582.598C1171.64 579.793 1174.89 578.574 1178.1 577.643C1191.86 573.649 1277.21 576.659 1299.32 576.578C1342.04 576.42 1385.07 574.582 1427.75 575.431C1428.64 575.448 1429.53 575.351 1430.35 575.775C1430.48 575.844 1430.59 575.95 1430.71 576.038L1433.82 575.065C1437.22 566.086 1433.87 553.745 1437.07 544.239C1437.87 541.853 1438.57 541.015 1440.8 539.997C1447.99 543.69 1439.34 571.852 1444.32 581.007C1446.33 579.787 1446.91 577.156 1449.1 576.432C1455.02 574.472 1463.63 576.305 1469.07 578.992C1472.22 580.546 1475.09 582.727 1476.17 586.194C1480.46 599.908 1480.99 717.782 1475.38 728.845C1479.82 730.838 1484.19 735.409 1488.36 738.247C1498.01 744.832 1523.55 757.321 1527.99 767.757L1526.53 769.926C1521.55 773.096 1514.12 773.498 1508.32 773.629C1474.78 774.388 1441.12 771.489 1407.55 771.966L1227.71 775.181C1196.47 775.874 1165.2 777.309 1133.94 777.356C1129.29 777.363 1124.85 777.83 1121.41 774.398C1121.94 760.529 1160.54 746.041 1164.36 736.048C1164.42 735.901 1164.46 735.749 1164.51 735.6C1164.98 734.835 1165.42 734.016 1165.65 733.143C1167.33 726.819 1166.88 688.401 1163.78 683.427C1135.92 689.774 1109.4 694.069 1080.69 694.22C1080.6 696.096 1079.35 697.538 1078.28 698.998C1046.36 742.522 986.853 761.791 935.288 769.674C884.956 777.368 795.588 771.371 753.127 740.178C767.144 742.765 779.888 749.556 793.356 754.015C815.724 761.421 840.607 765.35 864.061 767.223C922.879 771.922 1008.77 757.536 1054.4 718.447C1059.62 713.969 1073.79 701.541 1074.32 694.567C1019.17 694.047 963.975 695.757 908.851 694.812C882.207 694.356 855.462 692.605 828.864 690.98C816.073 690.199 796.289 690.936 784.672 686.699L784.215 685.714C796.123 681.362 862.668 688.283 879.615 689.268Q898.45 690.297 917.313 690.479C927.991 647.995 919.69 600.282 902.086 560.796C877.166 569.706 844.74 567.988 820.737 556.845C792.092 543.546 770.868 510.916 760.562 482.031C758.988 477.618 756.662 471.645 758.77 467.188C759.455 466.587 760.141 465.996 760.869 465.448C772.778 456.478 802.873 463.013 817.224 464.972C813.257 457.74 810.47 450.278 808.26 442.338C805.328 431.8 797.06 394.235 802.392 384.833C804.395 383.198 806.151 382.805 808.665 382.942C813.83 383.224 819.258 385.96 823.964 387.981C844.729 396.9 859.264 407.664 874.504 424.341C881.551 413.7 888.169 405.639 898.97 398.572C907.714 411.509 914.82 429.552 918.976 444.641C921.313 453.962 923.999 463.431 925.215 472.971C928.683 500.18 923.602 531.61 909.385 555.298Q908.162 557.33 906.876 559.322C918.013 580.488 920.783 602.62 926.345 625.334C928.257 616.609 928.533 607.522 929.71 598.662C931.237 587.167 933.235 575.589 934.071 564.029C936.585 529.276 934.671 494.538 933.962 459.753C933.361 430.293 933.528 400.474 932.152 371.07ZM1436.75 735.5C1377.24 737.252 1317.52 737.339 1257.98 737.815C1228.61 738.05 1198.43 740.835 1169.2 738.038C1165.94 744.084 1127.68 770.674 1120.58 773.047C1146.85 771.532 1173.44 771.437 1199.75 771.058Q1296.32 771.027 1392.85 768.152C1433.58 766.706 1474.31 763.437 1515.08 762.892C1513.2 756.577 1489.11 744.088 1482.08 740.302C1467.63 732.52 1452.62 734.92 1436.75 735.5ZM1125.8 460.522C1104.88 463.009 1084.37 467.682 1065.59 477.361C1057.57 481.493 1049.34 487.049 1041.07 490.381C1041.14 490.708 1041.21 491.033 1041.26 491.362C1042.69 500.615 1023.32 523.758 1025.75 532.425C1034.95 529.757 1044.32 522.116 1052.96 517.674C1059.97 514.072 1100.17 496.632 1107.09 497.296C1107.84 497.368 1109.05 498.024 1109.79 498.301L1110.52 499.527C1107.41 503.504 1098.98 504.885 1094.26 506.157C1080.77 509.783 1069.35 517.485 1056.32 521.765L1055.69 522.156C1026.74 540.177 1022.53 532.266 1008.47 568.655C1029.91 578.059 1057.1 571.307 1077.98 563.175C1109.67 550.833 1125.01 534.731 1138.73 503.45C1143.06 493.577 1150.16 472.732 1147.46 462.248C1145.51 460.23 1142.77 459.886 1140.09 459.79C1135.43 459.623 1130.44 459.985 1125.8 460.522ZM761.061 468.67C776.296 503.771 790.206 539.929 828.68 555.199C851.108 564.101 877.84 565.317 900.327 556.103C896.559 548.24 893.209 539.381 888.392 532.155C865.929 523.956 822.89 511.23 805.316 497.415C833.16 504.088 860.577 516.119 887.02 526.996C881.511 515.82 873.483 502.645 869.399 491.159C868.361 488.798 866.709 485.351 864.511 483.947C858.55 480.138 850.054 478.405 843.267 476.548C817.433 469.48 787.737 462.188 761.061 468.67ZM1002.84 413.743C983.163 443.343 975.387 474.811 982.531 509.912C986.4 528.916 993.952 547.813 1003.61 564.615C1009.06 556.22 1013.78 547.44 1017.19 538.012C1012.64 526.773 1007.86 515.972 1004.29 504.348C1001.75 497.729 997.758 488.954 997.996 481.781C1001.63 483.084 1004.57 490.207 1006.23 493.731C1009.63 500.964 1015.9 526.116 1019.54 529.49C1026.76 515.135 1045.25 482.79 1040.4 467.756C1035.27 451.858 1016.46 423.248 1002.84 413.743ZM871.598 487.011C879.165 498.289 884.971 512.07 891.146 524.243C895.549 512.374 899.019 499.823 899.27 487.111C899.355 482.788 898.134 478.205 898.795 474.001C900.416 473.147 900.379 473.289 902.173 473.769C912.608 486.861 894.999 521.649 895.99 532.399C896.649 539.556 901.168 546.386 904.44 552.69L906.778 549.071C923.072 523.293 923.158 483.628 916.628 454.91C912.903 441.355 906.63 419.951 898.098 408.659C896.797 408.046 896.17 407.423 894.728 407.888C887.979 410.064 880.019 425.878 877.147 432.152C873.485 440.151 863.115 466.573 866.103 474.737C867.629 478.907 869.706 482.992 871.598 487.011ZM961.852 240.779C939.814 252.116 924.57 267.102 916.857 291.144C911.095 309.105 914.406 324.591 921.415 341.438C922.669 344.453 923.997 349.08 925.872 351.677C926.302 352.274 926.396 352.299 926.901 352.684C929.936 346.643 929.473 337.464 930.728 330.739C932.506 321.214 941.342 284.343 948.953 278.958C949.909 279.267 950.887 279.495 951.734 280.043C949.453 288.889 945.661 296.482 942.875 305.026C938.988 316.942 931.306 347.224 934.091 359.398L935.425 360.113C949.921 353.95 963.212 334.401 968.975 320.164C978.301 297.124 974.515 267.367 965.132 244.785C964.375 242.963 963.589 241.742 961.852 240.779ZM1088.12 373.484C1087.95 373.604 1087.77 373.726 1087.59 373.845C1082.22 377.415 1076.04 379.722 1070.48 383.013C1056.41 391.332 1043.64 405.215 1035.18 419.088C1032.03 424.254 1030.6 430.331 1027.42 435.296C1030.7 438.557 1040.15 451.71 1040.28 456.171C1040.29 456.424 1040.27 456.677 1040.27 456.93C1042.87 460.262 1045.65 464.245 1045.97 468.603C1053.83 459.448 1086.67 388.507 1092.27 373.565C1090.83 373.407 1089.57 373.3 1088.12 373.484ZM812.79 389.553Q830.858 416.176 848.319 443.201C852.183 449.234 855.968 459.244 860.981 463.892C861.709 463.548 862.424 463.486 862.713 462.698C863.73 459.922 863.81 456.97 864.031 454.048C866.438 445.486 869.175 437.097 872.085 428.694C856.557 411.712 837.079 392.119 812.79 389.553Z"/>
	<path fill="#FEFEFE" transform="scale(0.25 0.25)" d="M1433.82 575.065C1438.16 579.521 1437.2 589.537 1437.11 595.585C1436.98 604.799 1437.33 615.8 1433 624.103C1433.37 620.251 1433.93 611.284 1431.27 608.266C1429.7 606.496 1427.83 605.544 1425.42 605.748C1421.73 606.061 1418.27 609.247 1416.28 612.146C1413.98 615.491 1412.8 619.522 1413.66 623.558C1414.53 627.673 1417.64 630.816 1421.09 632.998C1424.3 635.024 1427.05 635.386 1430.69 634.459C1434.73 633.433 1439.63 630.441 1441.69 626.704C1446.36 618.198 1439.95 591.135 1443.72 584.365L1443.5 582.951C1444.77 584.37 1447.51 615.116 1447.31 619.092C1447.01 624.835 1445.3 631.33 1440.83 635.272C1437.16 638.516 1432.42 639.121 1427.69 638.714C1422.28 638.248 1416.04 636.725 1412.5 632.275C1409.45 628.447 1407.77 621.377 1408.36 616.581C1408.8 613.076 1410.65 610.215 1413.49 608.159C1420.06 603.413 1430.88 602.771 1432.54 593.532C1433.48 588.363 1433.9 582.881 1432.32 577.815L1430.71 576.038L1433.82 575.065Z"/>
	<path fill="#231F20" transform="scale(0.25 0.25)" d="M1322.46 742.5C1331.35 741.651 1361.54 741.068 1368.95 744.351C1355.42 749.987 1300.66 747.095 1281.75 747.03C1272.71 746.882 1244.63 749.488 1238.49 745.429L1238.8 744.093C1246.14 741.715 1309.56 742.999 1322.46 742.5Z"/>
	<path fill="#231F20" transform="scale(0.25 0.25)" d="M1309.01 752.498Q1310.14 752.413 1311.27 752.358C1320.06 751.912 1340.47 750.102 1346.98 756.042C1347.6 758.839 1347.21 758.937 1345.74 761.455C1341.18 765.032 1332.9 764.971 1327.24 765.317C1326.73 765.413 1326.22 765.44 1325.7 765.475C1315.72 766.138 1297 766.965 1289.1 760.097L1290.97 757.012C1296.66 753.587 1302.56 752.929 1309.01 752.498Z"/>
</svg>
