<svg width="512" height="256" viewBox="0 0 512 256" fill="none" xmlns="http://www.w3.org/2000/svg">
<g clip-path="url(#clip0_18_2)">
<path d="M103.213 117.905C103.529 118.01 103.793 118.167 104.082 118.328C104.152 118.532 104.292 118.781 104.24 118.992C103.971 120.105 102.816 120.832 101.904 121.398C101.73 121.325 101.537 121.255 101.387 121.136C100.852 120.708 100.822 120.523 100.801 119.889C101.323 118.981 102.353 118.458 103.213 117.905Z" fill="#231F20"/>
<path d="M224.12 79.9788C224.837 80.0468 225.465 80.1393 226.038 80.6273C226.488 81.01 226.711 81.5213 226.691 82.1055C226.664 82.8805 226.065 83.3698 225.542 83.8565C224.855 83.827 224.234 83.7818 223.681 83.311C223.206 82.9063 222.99 82.3808 223.005 81.7655C223.024 80.9845 223.602 80.4815 224.12 79.9788Z" fill="#231F20"/>
<path d="M70.4883 101.397C71.123 101.413 71.841 101.444 72.3523 101.876C72.7305 102.196 72.8918 102.559 72.898 103.043C72.9103 103.97 72.2353 104.643 71.64 105.266C70.8618 105.299 70.4448 105.226 69.7518 104.854C69.416 104.396 69.2443 104.233 69.2305 103.643C69.2078 102.659 69.8423 102.043 70.4883 101.397Z" fill="#231F20"/>
<path d="M86.5672 105.382L86.8947 105.708C87.072 106.998 87.2657 114.204 86.8515 115.324L86.4862 115.228L86.4362 115.104C84.915 111.276 84.944 109.164 86.5672 105.382Z" fill="#231F20"/>
<path d="M162.818 105.413C163.586 105.528 164.099 105.649 164.619 106.282C165.065 106.825 165.209 107.438 165.129 108.126C165.03 108.988 164.571 109.377 163.95 109.907C163.066 109.855 162.222 109.746 161.599 109.034C161.271 108.659 161.137 108.22 161.186 107.724C161.295 106.611 162.011 106.061 162.818 105.413Z" fill="#231F20"/>
<path d="M369.517 62.8745C369.97 62.7857 370.42 62.7912 370.877 62.7827C371.53 63.0715 372.02 63.3842 372.442 63.9722C372.762 64.4192 372.937 65.0292 372.82 65.5755C372.66 66.324 372.197 66.5597 371.595 66.9087C371.447 66.9687 371.44 66.9807 371.255 67.003C370.675 67.073 370.035 66.859 369.59 66.491C369.06 66.0525 368.842 65.2895 368.78 64.6257C368.71 63.8692 369.082 63.4355 369.517 62.8745Z" fill="#231F20"/>
<path d="M49.9395 100.32L50.1798 100.368C51.486 100.623 60.6583 105.996 62.2193 107C65.249 108.948 69.7953 113.034 70.5308 116.69C70.6785 117.424 70.6428 117.571 70.2163 118.191C67.3883 113.06 63.135 106.517 56.4988 106.46C54.8298 106.445 52.7688 106.916 51.2345 106.128C50.213 105.081 49.3913 102.787 49.4163 101.304C49.426 100.725 49.538 100.704 49.9395 100.32Z" fill="#231F20"/>
<path d="M220.27 75.2395C223.192 75.2175 226.172 75.1698 229.076 75.4983C229.085 77.605 228.85 79.7443 228.688 81.845C228.6 82.9955 228.552 86.3273 227.682 87.0725C226.861 85.1653 227.89 79.2928 228.05 76.8343C225.871 76.7878 223.611 76.33 221.494 76.9425C220.87 77.54 220.983 77.9703 220.897 78.8128C220.696 81.577 221.02 84.2953 220.917 87.0448C220.863 88.456 220.659 89.6583 219.58 90.6408C218.843 91.3113 217.927 91.7398 216.914 91.655C215.969 91.5758 215.062 91.066 214.48 90.3235C213.96 89.6588 213.671 88.804 213.814 87.9585C213.93 87.275 214.322 86.7163 214.87 86.3055C216.204 85.3058 218.114 85.238 219.673 85.503C219.749 82.0747 219.948 78.6535 220.27 75.2395Z" fill="#231F20"/>
<path d="M197.451 102.106C198.011 102.395 198.057 102.399 198.312 102.969C197.705 106.326 194.938 120.907 193.732 123.179C193.011 124.536 191.934 125.582 190.437 126.02C188.397 126.615 186.375 125.833 184.595 124.869C183.98 124.168 183.551 123.347 183.449 122.408C183.335 121.371 183.631 120.389 184.286 119.578C185.492 118.083 187.532 117.261 189.406 117.089C191.22 116.923 192.382 117.329 193.771 118.481C194.703 114.951 196.08 104.512 197.451 102.106Z" fill="#231F20"/>
<path d="M394.69 96.4975C394.805 96.3308 395.078 96.034 395.133 95.8548C395.495 94.6888 395.122 90.4095 395.155 88.9225C395.24 84.8958 395.343 80.6648 395.848 76.6748C395.93 76.0165 395.98 75.6358 396.508 75.2118L396.793 75.5215C397.123 76.9623 396.485 94.7308 395.967 95.706C396.665 97.1933 396.67 100.561 396.142 102.097C395.852 102.947 395.07 103.711 394.267 104.095C392.942 104.727 391.342 104.297 390.047 103.805C388.72 103.301 387.227 102.498 386.642 101.124C386.202 100.091 386.35 98.8873 386.785 97.8788C387.385 96.4903 388.542 95.4693 389.955 94.954C390.855 94.6255 392.09 94.5485 392.975 94.9733C393.615 95.2813 394.408 95.835 394.69 96.4975Z" fill="#231F20"/>
<path d="M346.443 76.118C346.795 76.0802 347.15 76.123 347.503 76.1477C349.935 79.9352 351.737 84.1292 354.085 87.974C355.202 89.8007 358.485 93.7442 358.777 95.7057C358.91 96.6032 358.317 97.983 357.865 98.734C356.712 100.65 354.933 101.933 352.788 102.467C352.285 102.484 351.705 102.474 351.22 102.326C350.36 102.062 349.61 101.465 349.225 100.645C348.508 99.129 348.865 97.1207 349.408 95.6112C350.533 92.4837 351.128 92.1815 353.845 90.9112L354.033 90.8225C353.463 87.4387 347.883 79.9695 346.443 76.118Z" fill="#231F20"/>
<path d="M160.178 95.6305C161.31 96.3392 170.129 101.367 170.403 101.781C170.466 102.07 170.508 102.285 170.407 102.571C169.863 104.121 169.064 105.608 168.498 107.167C167.525 109.841 166.825 113.129 165.49 115.599L164.963 115.524C164.442 113.512 167.992 105.177 169.014 103.111C165.882 101.912 163.241 100.254 160.438 98.4507C159.14 102.047 157.896 105.68 156.449 109.218C155.928 110.515 155.647 111.853 155.342 113.212C154.626 113.847 153.886 114.425 152.955 114.697C151.353 115.165 149.147 115.041 147.681 114.196C146.974 113.789 146.507 113.196 146.307 112.395C146.055 111.384 146.431 109.973 147 109.125C147.427 108.488 148.05 108.072 148.808 107.937C150.988 107.547 153.112 108.727 154.836 109.925L155.573 108.312C156.757 104.034 158.611 99.7905 160.178 95.6305Z" fill="#231F20"/>
<path d="M367.858 55.8743C368.755 55.9255 368.898 56.1443 369.51 56.7883C371.045 58.4015 379.555 68.4128 379.515 69.7683C377.21 69.1408 371.272 59.084 368.34 57.198C368.29 57.1648 368.237 57.1333 368.185 57.101C368.177 57.1698 368.175 57.239 368.168 57.3078C368.025 58.455 360.275 67.4493 359.12 68.3695C359.48 68.5493 359.782 68.7665 360.09 69.0228C361.392 70.1055 363.44 72.3 363.605 74.0378C363.808 73.7638 363.978 73.4678 364.073 73.1388C364.47 71.7705 364.75 68.701 364.02 67.481C365.607 68.1793 370.515 72.2813 371.158 73.8765C372.583 74.5685 374.71 77.1358 375.397 78.5278C375.955 79.656 376.102 80.914 375.688 82.117C375.195 83.5498 374.025 84.694 372.67 85.33C371.688 85.7923 370.432 86.0015 369.4 85.5675C369.322 85.5337 369.245 85.496 369.17 85.4545C369.093 85.413 369.02 85.3679 368.95 85.3193C368.88 85.2706 368.812 85.2185 368.745 85.163C368.68 85.1077 368.617 85.0492 368.557 84.9875C368.497 84.9259 368.441 84.8614 368.388 84.7943C368.334 84.7271 368.284 84.6574 368.237 84.5853C368.191 84.5131 368.148 84.4389 368.108 84.3625C368.069 84.286 368.034 84.2079 368.003 84.128C367.6 83.137 367.64 81.8218 368.08 80.8495C368.955 78.906 371.013 77.89 372.89 77.1725C372.048 75.7538 366.828 70.7588 365.388 70.0075C365.538 70.2898 365.655 70.5553 365.71 70.8735C365.902 72.0258 365.57 75.3418 364.948 76.2583C364.253 75.8785 363.465 73.8878 362.94 73.1435C361.308 70.831 359.325 68.584 356.922 67.0475L356.758 66.9445C358.13 66.04 367.295 57.155 367.858 55.8743Z" fill="#231F20"/>
<path d="M422.715 63.0765C422.765 63.814 422.535 64.2673 422.22 64.9053C422.525 68.4203 423.277 69.503 420.727 72.601C420.611 72.7412 420.491 72.8784 420.367 73.0128C420.244 73.1471 420.118 73.2783 419.99 73.4063C419.86 73.5344 419.727 73.6593 419.59 73.7808C419.455 73.9023 419.317 74.0204 419.175 74.1353C419.033 74.2499 418.889 74.3611 418.742 74.4688C418.596 74.5764 418.446 74.6803 418.292 74.7805C418.141 74.8808 417.987 74.9773 417.83 75.07C417.673 75.1627 417.514 75.2514 417.352 75.3363C417.191 75.4211 417.027 75.5019 416.862 75.5788C416.697 75.6556 416.531 75.7283 416.362 75.797C416.194 75.8655 416.023 75.9299 415.85 75.9903C415.678 76.0504 415.505 76.1063 415.33 76.158C415.157 76.2097 414.981 76.2571 414.802 76.3003C414.626 76.3433 414.448 76.3819 414.27 76.4163C414.09 76.4504 413.91 76.4803 413.73 76.5058C413.55 76.5313 413.369 76.5523 413.187 76.5688C410.475 76.8063 407.647 75.7938 405.555 74.0535C403.557 72.3918 402.51 70.0893 402.322 67.5255C402.08 64.2258 403.227 60.4755 405.452 57.9953C407.497 55.713 410.352 54.6755 413.357 54.5453C414.627 54.4903 416.08 55.0083 417.095 55.7555L416.98 55.9913C414.79 56.2003 412.717 55.3193 410.575 56.0743C407.937 57.0038 405.742 58.8433 404.5 61.3843C403.047 64.3508 403.922 66.5233 403.487 69.4593C404.532 70.9008 404.945 72.274 406.44 73.4435C408.417 74.9938 411.097 75.6753 413.582 75.352C415.987 75.039 418.267 73.9108 419.752 71.961C420.707 70.7103 421.897 68.3055 421.697 66.6725L421.337 66.4295C418.512 67.2273 417.902 69.337 416.217 71.1995C415.195 72.3273 413.737 73.145 412.197 73.2075C410.62 73.2715 409.207 72.5088 408.067 71.4683C406.592 70.1233 405.662 68.5873 405.615 66.5615C405.612 66.4182 405.612 66.2749 405.617 66.1318C405.621 65.9886 405.628 65.8455 405.64 65.7025C405.65 65.5597 405.664 65.4172 405.682 65.275C405.701 65.133 405.723 64.9914 405.75 64.8503C405.775 64.7093 405.803 64.5689 405.835 64.4293C405.868 64.2898 405.904 64.1511 405.942 64.0133C405.982 63.8754 406.025 63.7387 406.07 63.603C406.117 63.4673 406.167 63.3328 406.22 63.1995C406.272 63.0663 406.327 62.9345 406.387 62.804C406.446 62.6735 406.508 62.5446 406.575 62.4173C406.64 62.2899 406.708 62.1643 406.78 62.0405C406.853 61.9167 406.929 61.7947 407.007 61.6745C407.084 61.5543 407.165 61.4362 407.25 61.32C407.333 61.2038 407.42 61.0898 407.51 60.978C407.6 60.8662 407.692 60.7567 407.787 60.6495C407.882 60.5423 407.98 60.4376 408.08 60.3353C409.397 58.974 411.212 57.9853 413.14 57.995C414.04 57.9995 415.637 58.0615 416.285 58.7873C416.53 59.0608 416.425 59.2755 416.395 59.6198C415.275 60.0698 413.505 59.0113 412.037 59.349C410.232 59.7645 408.712 61.0783 407.782 62.647C406.847 64.2223 406.447 66.1765 406.932 67.966C407.315 69.372 408.21 70.5653 409.497 71.26C410.832 71.9803 412.457 72.1788 413.91 71.7075C414.947 71.3703 415.86 70.6158 416.34 69.629C416.695 68.8983 416.522 68.3313 416.27 67.6183C415.36 67.1385 413.925 68.0428 412.932 67.8195C412.12 67.6368 411.575 66.3735 410.75 66.3905C410.567 68.0468 412.027 68.169 412.322 69.4863C411.74 69.582 411.425 69.4345 410.895 69.1985C410.365 68.6875 410.127 68.2588 410.012 67.5353C409.772 66.0095 410.37 63.614 411.287 62.3748C411.865 61.5948 413.282 61.1685 414.21 61.0848C414.872 61.025 415.17 61.094 415.667 61.515C415.675 61.688 415.675 61.857 415.662 62.0303C415.605 62.7708 415.297 63.5405 414.745 64.0123C413.947 63.7598 413.74 62.8188 412.79 62.5703C412.6 62.6963 412.412 62.8295 412.272 63.0125C411.957 63.4195 411.855 63.9713 411.892 64.462C411.952 65.217 412.215 66.0185 412.802 66.5158C414.415 66.967 415.012 65.634 416.455 65.3455C416.962 65.897 417.447 66.4545 417.912 67.0423L418.49 67.0633C419.187 66.6425 419.735 66.1565 420.282 65.5545C420.915 64.8638 421.667 63.9668 421.63 62.9778C421.672 62.949 421.715 62.9215 421.755 62.8915C422.61 62.2768 423.132 61.3438 423.805 60.552C425.54 58.5095 428.35 56.8325 431.12 57.0168L431.37 57.3233C430.937 57.966 430.622 58.0273 429.87 58.19C426.16 58.9935 426.212 60.2935 423.355 61.8573C424.73 63.1045 425.48 65.4058 425.572 67.2233C425.742 70.5593 424.47 73.7175 422.205 76.148C419.692 78.847 415.992 80.3505 412.325 80.4878C410.505 80.5558 407.075 79.771 405.622 78.6413L405.505 78.2975L405.957 77.916C410.08 79.4053 413.425 80.0628 417.627 78.0725C420.447 76.7375 422.755 74.3688 423.827 71.4168C424.682 69.0648 424.602 66.6183 423.525 64.3493C423.305 63.8853 423.03 63.4798 422.715 63.0765Z" fill="#231F20"/>
<path d="M243.078 115.751C243.668 114.88 244.851 113.419 245.89 113.144C246.39 113.012 246.974 113.057 247.443 112.843C248.344 112.431 248.548 110.836 249.071 110.063C249.719 109.105 251.372 108.718 251.692 107.561C251.745 107.368 251.59 107.205 251.502 107.035C250.924 106.935 250.346 106.828 249.769 106.714C249.461 106.295 249.407 106.251 249.494 105.705C249.749 104.097 252.48 103.688 252.72 102.192C252.882 101.161 251.827 100.851 251.987 99.7399C252.395 99.1877 252.695 98.6569 253.382 98.4507C253.745 98.6744 254.11 98.8864 254.482 99.0939C255.325 98.7582 255.147 97.5482 256.027 97.0424C256.517 97.1932 256.857 97.3492 257.35 97.1522L257.422 96.7279C256.867 96.3677 256.407 96.0297 255.945 95.5497C255.915 95.0507 255.932 94.7714 256.292 94.3629C257.352 93.1529 258.532 94.8672 259.805 94.8439C260.332 94.4782 260.685 94.1637 261.072 93.6482C262.657 95.1362 265.547 100.829 266.417 102.965C266.06 104.656 264.072 103.462 263.027 104.322C262.202 105.837 263.842 105.505 263.772 106.951C263.622 107.123 263.455 107.329 263.26 107.449C262.78 107.747 262.537 107.715 262.042 107.564C260.892 107.213 260.31 107.091 259.222 107.67C259.04 108.237 258.885 108.806 258.735 109.381C258.345 109.862 257.897 110.194 257.25 110.209C255.885 110.241 256.16 109.176 255.522 108.62C255.459 108.727 255.395 108.833 255.33 108.939C254.885 109.664 254.552 110.332 253.695 110.537C253.177 110.243 253 109.906 252.735 109.386C252.972 108.878 253.207 108.324 253.54 107.872C255.01 105.878 255.13 107.831 256.945 107.597C257.655 107.04 257.775 105.384 258.347 104.564C259.03 104.342 259.26 104.532 259.91 104.781L260.177 104.529L260.027 103.718C261.22 103.164 260.96 103.97 261.942 104.152C262.752 103.565 262.137 103.119 262.575 102.439C262.862 101.994 263.83 102.13 264.212 101.306C264.322 100.348 262.997 98.5594 262.565 97.6197C262.145 96.7079 261.775 95.7814 260.767 95.4069C258.992 95.7342 258.757 97.2762 257.522 98.3339C257.002 98.3334 256.63 98.3617 256.152 98.5757C255.4 99.4792 255.527 100.407 255.477 101.519C254.905 102.264 254.465 102.35 253.607 102.705C252.952 103.529 253.195 104.091 253.217 105.112C252.93 105.405 252.632 105.68 252.32 105.949L252.322 106.747L252.542 106.89C254.7 104.673 257.742 102.241 259.42 99.6884C259.455 99.6362 259.487 99.5832 259.52 99.5304L259.642 100.561C259.287 101.821 257.897 103.003 257 103.938C255.317 105.455 253.052 107.107 252.275 109.291C251.627 109.943 250.92 109.709 250.422 110.259C251.067 111.935 255.147 112.52 254.135 115.029C253.975 115.427 253.647 115.775 253.37 116.095L252.825 116.229C252.56 116.293 252.692 116.265 252.457 116.294C250.88 116.483 250.522 118.838 245.519 118.708C238.272 125.231 230.101 131.35 222.086 136.893C221.45 139.356 220.927 141.816 220.447 144.313C223.934 149.579 225.649 155.664 224.389 161.958C223.831 164.742 222.824 167.488 221.791 170.13C222.662 170.199 223.858 170.145 224.669 170.436C226.093 170.449 227.819 170.422 228.991 171.346L229.034 171.722C228.574 171.951 228.266 172.064 227.75 172.086C223.647 172.364 217.337 172.856 213.36 172.084C215.573 171.407 217.545 171.262 219.85 171.35C220.546 170.002 221.017 168.523 221.336 167.041C222.575 161.29 220.757 156.73 217.664 151.947C216.35 157.616 214.475 162.374 211.852 167.543L209.595 171.996C211.228 172.295 216.132 173.102 217.426 173.931C217.777 174.155 217.798 174.192 217.884 174.593C216.407 175.592 205.946 174.397 203.611 174.105C202.972 174.024 202.734 173.966 202.354 173.471L202.682 173.151C204.216 172.905 205.858 173.106 207.405 173.184C208.742 169.539 209.95 165.851 211.027 162.121C211.839 156.662 212.444 151.573 211.954 146.035C210.859 146.971 209.826 147.824 208.556 148.521C207.88 148.723 207.178 148.942 206.474 149.013C204.783 149.184 203.066 148.712 201.769 147.601C199.769 145.888 199.259 143.463 199.035 140.975C194.749 142.329 189.998 144.121 185.524 144.589C184.726 145.946 183.891 147.18 182.897 148.402L180.665 146.33C179.194 148.289 177.534 150.055 175.865 151.844C175.197 148.332 174.32 144.859 173.485 141.384C175.619 142.393 177.973 143.092 180.197 143.889C180.57 142.671 181.147 141.525 181.681 140.372C182.994 141.255 184.161 142.361 185.352 143.399C189.968 142.265 194.521 140.8 199.032 139.306C199.272 137.414 199.675 135.993 200.739 134.393C202.588 131.61 206.55 127.074 209.637 125.794C211.441 125.045 213.624 124.772 215.541 124.387C215.212 122.967 215.016 121.61 214.904 120.158C214.452 119.77 214.019 119.361 213.606 118.93C212.32 117.563 211.014 115.856 211.113 113.876C211.167 112.781 211.696 111.787 212.506 111.06C213.39 110.267 214.587 109.795 215.781 109.868C216.821 109.931 217.735 110.455 218.393 111.25C219.901 113.076 219.789 115.672 219.58 117.89C219.219 118.311 218.826 118.706 218.484 119.143C217.63 120.231 216.915 122.378 217.079 123.78C217.604 123.977 217.679 123.972 218.229 123.848C221.622 122.971 225.06 122.321 228.42 121.312C233.444 119.803 238.24 117.756 243.078 115.751Z" fill="#231F20"/>
<path d="M182.25 141.922C183.057 142.605 183.782 143.462 184.519 144.223L182.967 146.528L182.657 146.666C182.01 146.139 181.514 145.431 180.995 144.783L182.25 141.922Z" fill="#FEFEFE"/>
<path d="M175.115 143.446C176.75 144.019 178.35 144.628 179.941 145.315C179.423 146.024 178.848 146.703 178.303 147.392L176.461 149.493C176.101 147.451 175.626 145.456 175.115 143.446Z" fill="#FEFEFE"/>
<path d="M220.147 138.213C220.281 138.309 220.38 138.508 220.473 138.645C220.197 140.476 219.948 142.679 219.134 144.343C217.611 145.353 215.275 145.033 213.523 145.031C213.383 144.903 213.39 144.774 213.344 144.595C215.418 141.909 217.245 139.996 220.147 138.213Z" fill="#FEFEFE"/>
<path d="M218.551 124.886C220.972 124.238 223.499 124.195 225.94 123.656C229.944 122.77 233.907 121.148 237.75 119.738C233.058 122.8 228.388 125.897 223.742 129.028C223.603 127.886 223.549 126.514 222.531 125.766C222.016 125.387 221.245 125.146 220.625 125.016C219.986 125.131 219.401 125.202 218.749 125.201L218.551 124.886Z" fill="#FEFEFE"/>
<path d="M203.43 138.076L200.934 138.942C200.684 138.717 200.568 138.684 200.531 138.346C200.369 136.858 202.095 134.785 203.021 133.7C204.693 131.739 207.708 128.166 209.838 126.992C211.65 125.993 215.309 125.491 217.377 125.334C214.318 127.537 210.675 128.169 207.162 130.975C205.492 132.309 203.667 134.013 203.418 136.223C203.951 136.987 204.497 137.217 205.399 137.388C206.504 137.597 207.666 137.541 208.786 137.512C209.071 138.094 209.281 138.274 209.075 138.915C208.948 139.008 208.822 139.092 208.677 139.154C207.383 139.712 204.718 138.567 203.43 138.076Z" fill="#FEFEFE"/>
<path d="M214.876 110.738C215.003 110.714 214.988 110.713 215.143 110.704C215.872 110.661 216.408 110.763 216.965 111.277C218.608 112.791 218.738 115.491 218.808 117.581C218.127 118.417 217.502 119.138 216.62 119.765C214.962 119.201 213.835 117.999 212.976 116.488C212.412 115.495 212.043 114.028 212.417 112.911C212.81 111.732 213.849 111.262 214.876 110.738Z" fill="#FEFEFE"/>
<path d="M221.254 126.191C222.047 126.761 222.639 127.558 222.783 128.553C222.834 128.907 222.785 129.255 222.512 129.512C221.621 130.352 218.469 132.576 217.34 132.734L217.237 132.503C216.985 131.946 216.834 131.543 216.289 131.214C215.788 131.17 215.378 131.086 214.939 131.42C212.981 132.909 213.49 134.589 209.95 136.5C208.088 136.53 206.223 136.498 204.426 135.943C204.436 135.905 204.443 135.867 204.454 135.83C205.235 133.141 208.127 132.851 210.104 131.659C210.713 131.291 210.688 130.738 210.841 130.096C212.945 128.302 218.593 126.031 221.254 126.191Z" fill="#FEFEFE"/>
<path d="M243.719 116.816C244.146 116.479 244.665 115.872 245.207 115.913L245.594 116.46C245.291 116.772 244.979 116.905 244.583 117.077C244.585 117.45 244.615 117.738 244.707 118.099C243.069 120.033 240.72 121.411 238.741 122.976C234.426 126.39 230.174 129.801 225.702 133.017C222.809 135.097 219.694 136.95 216.885 139.132C213.198 141.996 211.803 146.382 206.93 147.851C206.055 147.915 204.994 147.873 204.184 147.511C202.663 146.831 201.133 145.266 200.557 143.696C200.193 142.702 200.233 141.743 200.688 140.784C201.119 139.877 202.415 139.618 203.306 139.312C205.285 139.965 207.368 140.58 209.465 140.139C210.66 139.887 211.25 139.497 211.925 138.479C213.216 136.189 214.851 137.006 216.791 135.766C217.652 135.216 217.785 133.971 218.691 133.361L243.719 116.816Z" fill="#FEFEFE"/>
<path d="M124.672 136.843C125.572 132.379 126.42 127.906 127.216 123.422C127.657 120.814 127.893 117.995 128.539 115.441C128.685 114.865 128.83 114.329 129.328 113.958C130.112 113.621 131.038 113.538 131.84 113.885C132.186 114.035 132.396 114.322 132.524 114.679C132.915 115.77 129.449 134.17 129.039 137.228L143.215 138.037C145.251 138.151 147.728 138.01 149.69 138.493C154.874 138.494 160.039 138.976 165.233 138.979C165.471 146.803 165.6 154.629 165.62 162.457C165.651 166.15 166.01 170.144 165.599 173.797C165.49 174.762 165.129 175.553 164.682 176.403C152.298 176.604 139.901 176.381 127.513 176.503L128.738 179.348C130.687 179.289 136.592 178.59 137.973 179.864C137.821 180.408 137.779 180.523 137.26 180.829C134.396 182.519 119.047 183.235 114.987 183.661C111.098 184.1 107.216 184.592 103.341 185.137C95.4533 186.764 85.902 183.641 78.0905 182.262C74.1015 181.591 70.0874 181.148 66.0483 180.932C63.5053 182.85 60.8628 184.049 57.68 184.348C50.718 185.002 46.3365 183.725 40.998 179.313C38.8875 179.234 28.1108 178.804 26.6923 178.117C26.5063 178.027 26.2705 177.768 26.1038 177.63L25.8105 177.698L25.8388 177.907L25.6733 177.79C27.9698 176.616 36.5628 177.927 39.555 178.139C39.3292 177.877 39.1177 177.603 38.9205 177.318C35.8768 172.952 34.2263 168.002 35.2258 162.663C35.2869 162.348 35.3558 162.035 35.4323 161.724C35.5088 161.412 35.5929 161.103 35.6845 160.796C35.776 160.488 35.875 160.183 35.9815 159.88C36.088 159.578 36.2019 159.278 36.323 158.981C36.444 158.684 36.5723 158.39 36.7078 158.1C36.8433 157.809 36.9858 157.521 37.1353 157.238C37.2848 156.954 37.4411 156.674 37.6043 156.398C37.7674 156.122 37.9372 155.849 38.1135 155.581C38.29 155.314 38.4729 155.05 38.662 154.791C38.8514 154.532 39.0469 154.278 39.2485 154.029C39.4502 153.779 39.6579 153.535 39.8715 153.296C40.0852 153.056 40.3045 152.822 40.5295 152.594C40.7545 152.365 40.985 152.143 41.221 151.925C41.4569 151.708 41.6979 151.496 41.944 151.291C42.1904 151.085 42.4415 150.886 42.6975 150.693C42.9534 150.499 43.2139 150.312 43.479 150.132C48.334 146.863 53.656 146.801 59.2113 147.883C60.649 145.593 61.9538 143.275 63.1463 140.847C65.6163 135.819 67.6235 130.207 72.548 127.022C75.709 124.977 79.81 124.139 83.4968 124.972C87.004 125.764 89.9475 127.922 91.8718 130.937C92.899 132.547 94.333 135.777 93.897 137.725L94.365 138.437C95.0745 138.337 95.3788 137.97 95.9338 137.529C97.5435 136.209 99.6395 134.508 101.837 134.705C103.411 134.845 104.809 135.844 106.517 136.031C112.519 136.691 118.641 136.568 124.672 136.843Z" fill="#231F20"/>
<path d="M119.874 176.29C121.968 176.618 124.179 176.496 126.297 176.495C126.707 177.514 127.138 178.482 127.674 179.442C126.685 179.524 125.645 179.546 124.672 179.729C122.82 179.603 120.8 179.874 118.948 180.001C119.242 178.76 119.551 177.523 119.874 176.29Z" fill="#FEFEFE"/>
<path d="M130.015 114.802C130.56 115.018 130.944 115.143 131.273 115.667C131.222 118.202 126.936 142.818 126.25 144.072L125.062 143.644C124.484 142.473 129.163 118.565 130.015 114.802Z" fill="#FEFEFE"/>
<path d="M104.486 172.217C118.331 172.402 132.177 172.48 146.024 172.45C151.98 172.494 158.169 172.885 164.104 172.486C164.295 173.246 164.231 173.768 164.093 174.524C163.531 175.135 162.923 175.045 162.107 175.079C158.149 175.248 154.129 175.113 150.165 175.122C138.736 175.146 127.275 174.916 115.852 175.115C112.067 175.074 108.28 175.157 104.5 174.934L104.566 174.739L104.243 174.861C104.065 174.215 104.3 173.074 104.352 172.379L104.486 172.217Z" fill="#FEFEFE"/>
<path d="M96.3495 138.988C97.8062 139.701 99.213 139.911 100.778 139.377C101.878 139.002 102.744 138.339 103.594 137.566C103.362 147.273 102.559 157.069 102.882 166.773C102.935 168.376 102.818 170.27 103.179 171.831C103.055 171.766 102.929 171.703 102.801 171.643C98.3742 169.516 91.9717 174.021 87.747 175.528C87.7375 165.26 88.0297 155.001 88.6237 144.75C90.906 142.626 94.4277 141.308 96.3495 138.988Z" fill="#FEFEFE"/>
<path d="M101.908 165.586C101.792 166.705 102.066 168.655 101.583 169.605C100.576 170.237 99.3055 170.207 98.1657 170.065C97.6647 169.662 97.7577 169.385 97.6862 168.757C97.2 164.476 96.649 144.305 98.0967 141.411L98.7015 141.136C99.2537 141.379 99.4597 141.551 99.6677 142.164C100.481 144.559 99.656 157.01 99.089 159.917L98.8927 160.122C98.0737 155.162 99.467 149.839 98.9565 144.778L98.5887 144.577L98.7757 143.977L98.885 144.267L98.6557 144.203C97.068 148.105 98.6092 163.133 99.1402 168.249C99.1532 167.147 99.0177 165.798 99.4915 164.787L99.8205 164.669C100.501 165.719 99.871 167.642 100.524 168.417C100.56 161.665 100.553 154.968 100.762 148.218C100.809 146.729 100.606 145.251 100.715 143.764C100.773 142.98 100.865 141.829 101.493 141.291C102.581 142.504 101.968 162.331 101.908 165.586Z" fill="#231F20"/>
<path d="M94.5465 143.72L94.7552 143.788C94.8267 143.889 95.0487 144.132 95.0737 144.237C95.4022 145.615 95.0807 147.958 95.0765 149.445C95.1197 156.246 95.0176 163.045 94.7702 169.842C92.8317 170.563 90.962 171.351 89.0945 172.24L88.6317 172.12C87.8395 170.403 89.1882 150.612 89.2367 146.826C91.0442 145.85 92.7937 144.789 94.5465 143.72Z" fill="#231F20"/>
<path d="M91.9813 146.464L92.2048 146.685C92.3473 147.393 91.594 151.304 91.4813 152.486C90.9658 152.944 90.5405 153.371 90.1575 153.948L90.0563 154.102C90.0105 152.085 89.5785 149.756 90.2353 147.819C90.4865 147.078 91.324 146.786 91.9813 146.464Z" fill="#FEFEFE"/>
<path d="M64.227 141.477C64.6273 141.643 64.904 141.846 65.237 142.121C65.6283 143.838 63.3325 149.654 62.7448 151.696L62.884 151.756C66.3333 153.27 68.585 155.978 69.941 159.454C70.055 159.744 70.1618 160.037 70.2613 160.332C70.3608 160.627 70.453 160.925 70.538 161.225C70.6229 161.524 70.7003 161.826 70.7705 162.13C70.8407 162.433 70.9034 162.739 70.9585 163.045C71.0137 163.352 71.0613 163.66 71.1013 163.969C71.1413 164.278 71.1736 164.588 71.1983 164.898C71.2231 165.209 71.2403 165.52 71.2498 165.832C71.2593 166.143 71.2611 166.455 71.2553 166.766C71.2496 167.078 71.2362 167.389 71.215 167.7C71.194 168.011 71.1653 168.321 71.129 168.63C71.0927 168.94 71.0488 169.248 70.9973 169.556C70.9459 169.863 70.887 170.169 70.8205 170.473C70.754 170.778 70.6801 171.08 70.5988 171.381C70.5173 171.682 70.4285 171.981 70.3325 172.277C70.2365 172.574 70.1334 172.867 70.023 173.159C69.9125 173.45 69.7949 173.739 69.6703 174.024C67.9895 177.805 64.963 180.983 61.0528 182.46C56.431 184.204 50.6303 183.649 46.2185 181.628C42.9005 179.814 39.9 177.268 38.1685 173.859C36.0305 169.649 35.558 165.099 37.0355 160.603C38.4813 156.203 41.735 152.129 45.913 150.045C50.135 147.939 55.1535 147.874 59.5743 149.355C61.2498 146.812 62.7123 144.118 64.227 141.477Z" fill="#FEFEFE"/>
<path d="M51.604 151.093C55.2945 151.014 58.4588 151.491 61.5085 153.766C61.7109 153.918 61.9093 154.075 62.1038 154.236C62.2983 154.398 62.4887 154.564 62.675 154.735C62.8612 154.906 63.0431 155.082 63.2208 155.262C63.3983 155.442 63.5712 155.627 63.7395 155.816C63.9079 156.004 64.0714 156.197 64.2303 156.394C64.3891 156.591 64.5429 156.791 64.6918 156.996C64.8406 157.2 64.9843 157.408 65.1228 157.62C65.2614 157.832 65.3947 158.047 65.5225 158.265C65.6504 158.483 65.7727 158.704 65.8895 158.929C66.0064 159.153 66.1175 159.38 66.223 159.61C66.3287 159.84 66.4285 160.072 66.5225 160.307C66.6165 160.542 66.7047 160.779 66.787 161.018C66.8692 161.257 66.9454 161.498 67.0158 161.741C67.0861 161.984 67.1504 162.228 67.2085 162.475C67.2667 162.721 67.3187 162.968 67.3645 163.217C67.4104 163.466 67.45 163.715 67.4835 163.966C68.0728 168.153 67.2758 172.473 64.675 175.882C62.1098 179.245 58.6163 180.684 54.5613 181.216C51.1078 181.455 47.7053 180.313 44.9195 178.292C41.6803 175.942 39.2955 172.373 38.6925 168.388C38.658 168.143 38.6294 167.899 38.6068 167.653C38.5843 167.408 38.5677 167.162 38.557 166.915C38.5464 166.669 38.5416 166.423 38.5428 166.176C38.5441 165.929 38.5514 165.683 38.5645 165.437C38.5779 165.191 38.5971 164.945 38.6223 164.7C38.6474 164.454 38.6785 164.21 38.7155 163.966C38.7525 163.722 38.7954 163.479 38.8443 163.238C38.8929 162.996 38.9475 162.756 39.008 162.517C39.0685 162.278 39.1348 162.04 39.2068 161.805C39.2788 161.569 39.3564 161.335 39.4398 161.103C39.5231 160.871 39.612 160.641 39.7065 160.413C39.801 160.185 39.9009 159.96 40.0063 159.737C40.1118 159.514 40.2225 159.294 40.3385 159.077C40.4547 158.859 40.576 158.644 40.7025 158.433C40.829 158.221 40.9606 158.013 41.0973 157.808C41.2338 157.602 41.3753 157.4 41.5218 157.202C43.9755 153.876 47.5155 151.697 51.604 151.093Z" fill="#231F20"/>
<path d="M47.5077 158.914C49.4672 159.728 50.6977 161.641 52.508 162.556C53.7802 163.198 55.43 162.541 56.7915 163.345C57.3122 163.652 57.6555 164.041 57.7717 164.646C57.9797 165.731 57.1117 167.648 56.5135 168.512C55.5537 168.942 53.7505 169.287 52.7537 168.872C50.4982 167.934 52.2735 165.3 51.6127 164.004C50.772 162.354 47.9447 162.18 47.2317 160.489C46.987 159.909 47.3007 159.469 47.5077 158.914Z" fill="#FEFEFE"/>
<path d="M54.2825 164.108C54.5468 164.167 54.854 164.225 55.0933 164.354C55.7135 164.686 55.7933 164.988 55.9605 165.612C55.7968 166.469 55.4038 166.883 54.8243 167.499C54.544 167.416 54.156 167.326 53.9065 167.164C53.3233 166.785 53.237 166.514 53.052 165.887C53.1968 165.021 53.655 164.664 54.2825 164.108Z" fill="#231F20"/>
<path d="M64.207 151.153C65.3618 145.982 67.195 140.916 70.036 136.43C72.2918 132.868 75.3778 129.298 79.7013 128.369C82.1038 127.853 84.6645 128.422 86.697 129.784C90.2928 132.192 91.584 136.555 92.365 140.567C90.7145 141.715 89.1548 142.903 87.6278 144.211C87.474 148.694 86.2165 175.413 87.0615 177.536C88.1728 178.356 89.6398 178.113 90.922 177.914C95.0063 177.279 99.2135 176.597 103.344 176.358C108.36 176.067 113.573 176.349 118.602 176.443L117.778 179.955C116.09 180 114.304 179.931 112.667 180.374C112.378 180.714 112.319 180.765 112.249 181.225L112.415 182.73C109.148 183.356 105.595 183.412 102.397 184.234C94.0283 184.761 87.1825 182.801 79.0908 181.323C75.1698 180.607 71.217 180.222 67.2533 179.825C67.6268 179.39 67.9878 178.944 68.3363 178.489C74.167 170.89 71.487 164.264 71.381 155.634C71.329 151.411 71.9025 146.898 71.343 142.72C70.5733 143.868 70.423 155.321 70.3578 157.454C68.6205 154.801 67.0545 152.703 64.207 151.153Z" fill="#FEFEFE"/>
<path d="M70.393 176.55C71.553 176.411 85.621 176.928 85.7118 176.967L85.6993 177.463C82.3718 177.921 78.8725 178.065 75.519 177.93C73.78 177.86 71.6133 177.879 70.393 176.55Z" fill="#231F20"/>
<path d="M105.295 137.213C111.695 137.241 118.145 137.629 124.531 138.029C124.082 140.196 123.662 142.352 123.347 144.544C124.411 144.764 126.083 145.296 127.067 144.617C128.475 143.645 128.594 139.86 128.915 138.199C134.677 138.464 140.427 139.024 146.191 139.27C152.183 140.025 158.253 139.904 164.27 140.318C164.279 146.612 164.32 152.905 164.394 159.199C164.43 163.185 164.604 167.238 164.287 171.213L138.101 171.111C127.942 171.125 117.678 170.579 107.535 171.058C106.823 171.034 106.15 171.094 105.556 170.648C104.224 167.113 104.807 142.175 105.295 137.213Z" fill="#FEFEFE"/>
<path d="M440.705 80.2556L440.847 80.113C442.045 78.894 442.85 77.3296 443.945 76.0156C446.957 72.4058 451.745 69.6953 456.51 69.5818C460.31 69.491 464.31 70.8435 467.09 73.4805C469.88 76.1265 471.122 79.7091 471.607 83.4346C475.575 81.8601 481.545 78.1013 485.735 78.0438L486.25 78.3348C486.142 80.0173 483.537 81.9268 482.295 83.0231C478.862 86.0518 475.165 88.6206 470.942 90.4366C472.005 93.7508 470.432 100.627 470.33 104.311C470.32 104.716 470.22 105.907 470.367 106.238C470.977 107.629 473.425 107.753 472.047 110.39C471.662 111.127 470.935 111.729 470.215 112.128C469.242 122.556 462.5 141.75 454.277 148.506C454.14 148.618 454 148.724 453.857 148.83C454.94 149.711 455.682 150.747 455.807 152.178C455.915 153.426 455.397 154.755 454.59 155.698C453.925 156.475 452.982 157.055 452.03 157.415C452.537 158.098 454.997 174.151 454.832 175.396C454.812 175.555 454.75 175.712 454.697 175.862C454.68 175.912 454.665 175.964 454.645 176.014C454.635 176.044 454.62 176.073 454.607 176.103C458.292 175.725 463.015 174.73 466.18 177.216C466.717 177.637 467.222 178.215 467.312 178.915C467.412 179.693 467.082 180.386 466.6 180.968C463.722 184.428 455.995 185.997 451.747 186.321C449.572 186.487 446.632 186.473 444.915 184.948C444.44 184.528 444.105 184.028 444.077 183.378C444.03 182.265 444.662 181.374 445.422 180.634C448.295 177.835 451.09 178.008 453.71 176.309C454.167 174.654 451.77 159.836 451.08 157.709C449.342 157.65 447.162 157.132 445.902 155.807C444.575 154.414 446.055 151.593 445.247 150.273L445.15 150.164C444.527 149.444 442.135 145.056 442.015 144.973C441.89 144.887 441.727 144.88 441.582 144.833L439.912 145.261C438.87 146.49 433.787 148.207 432.09 148.94C421.01 153.729 409.242 159.92 397.022 160.93C390.582 161.463 383.882 160.792 378.787 156.466C378.144 155.919 377.512 155.359 376.892 154.787C376.542 153.813 372.457 149.555 371.477 148.922C371.462 148.965 371.452 149.01 371.432 149.051C370.947 150.07 365.41 154.733 364.182 155.884C349.335 169.784 335.26 184.489 320.312 198.283C319.675 198.873 319.08 199.329 318.255 199.644C317.11 198.307 311.997 195.727 310.265 194.677C306.262 192.251 277.67 174.883 276.62 173.315C276.392 172.975 276.435 172.973 276.522 172.575L276.957 172.513C284.99 177.908 293.365 183.002 301.595 188.102C304.46 189.878 316.042 196.343 317.477 198.118C317.707 197.857 320.5 190.243 321.26 188.676C324.692 181.594 329.047 174.683 333.38 168.122C336.09 163.93 338.917 159.818 341.86 155.787C344.803 151.756 347.858 147.811 351.025 143.953C352.085 142.671 353.152 141.396 354.327 140.217C355.712 138.823 358.302 137.14 359.217 135.497C358.935 134.178 353.785 129.219 352.675 127.761C352.167 127.093 351.78 126.559 351.892 125.708C353.362 124.469 355.825 124.442 357.555 123.514L357.745 123.41C356.882 121.458 306.715 92.3926 301.73 90.4238C301.542 91.1731 299.507 92.8963 298.917 93.5815C296.622 96.2528 294.667 99.1928 292.75 102.142C290.512 105.582 288.685 109.565 286.98 113.298C285.757 115.97 280.787 129.129 279.312 130.403C281.48 130.646 284.27 130.915 285.985 132.389C286.505 132.838 286.852 133.411 286.877 134.11C286.907 134.898 286.502 135.952 285.95 136.509C286.032 136.736 286.087 136.93 286.08 137.174C285.975 140.239 278.122 166.902 276.772 170.391C276.092 172.145 274.92 174.804 273.512 176.077C270.825 178.509 265.872 177.458 262.6 177.213C262.66 177.377 262.705 177.508 262.707 177.686C262.722 179.314 261.232 183.496 260.07 184.7C259.567 185.221 258.802 185.792 258.04 185.754C257.535 185.729 257.185 185.525 256.862 185.127C254.805 182.584 257.8 179.944 257.32 177.505C257.097 176.372 254.98 175.109 254.677 173.327C253.602 166.982 260.642 145.952 262.687 138.765C263.482 135.974 264.772 132.618 264.897 129.731C264.975 129.662 265.02 129.619 265.107 129.554C266.442 128.554 276.16 130.012 278.322 130.292C279.247 129.554 285.787 113.264 286.997 110.695C290.495 103.263 295.185 94.5736 301.69 89.4626C301.98 89.4553 302.26 89.474 302.54 89.5453C304.682 90.0888 317.522 97.9395 320.695 99.7608C329.84 105.007 339.17 109.948 348.17 115.443C350.05 116.592 358.432 121.426 359.247 122.872C364.587 121.345 369.795 119.305 375.102 117.667L416.472 105.182C421.836 103.531 427.207 101.908 432.585 100.313C435.957 99.3186 440.092 98.5401 443.16 96.8708C443.605 95.7465 443.265 94.0865 443.175 92.893C442.392 92.6808 440.98 92.3346 440.335 91.8453C439.58 91.2731 439.57 90.1386 439.5 89.2826C440.367 88.7186 443.232 85.4181 443.425 84.4711C443.455 84.3293 443.452 84.3256 443.462 84.1986C443.222 83.0236 441.617 81.0348 440.705 80.2556Z" fill="#231F20"/>
<path d="M261.875 169.367C262.665 169.222 263.302 169.035 264.04 169.444C264.377 169.861 264.605 170.018 264.57 170.585C264.527 171.269 263.932 171.946 263.45 172.373C263.63 169.953 262.165 171.249 261.277 170.194L261.875 169.367Z" fill="#FEFEFE"/>
<path d="M278.443 155.618C278.873 155.537 279.173 155.523 279.603 155.598C279.84 156.037 279.935 156.247 279.898 156.766C279.833 157.667 279.323 158.942 278.638 159.547C278.35 159.635 278.21 159.53 277.933 159.436C277.685 158.209 278.56 156.921 278.443 155.618Z" fill="#FEFEFE"/>
<path d="M439.03 104.967C439.62 104.635 440.038 104.386 440.745 104.418C441.433 104.709 442.048 104.972 442.353 105.718C442.458 105.97 442.53 106.233 442.6 106.496C442.478 106.759 442.37 107.046 442.215 107.29L442.233 107.838L442.025 107.979C440.99 107.026 440.3 105.612 439.03 104.967Z" fill="#FEFEFE"/>
<path d="M260.34 171.847C260.935 172.314 260.857 173.457 261.397 174.109C262.11 174.2 262.255 174.023 262.845 173.659C262.855 173.771 262.87 173.898 262.862 174.012C262.78 175.662 260.48 182.814 259.34 183.853C259.205 184.326 259.108 184.374 258.75 184.689C258.2 184.596 258.005 184.538 257.663 184.044C257.365 183.615 257.155 182.744 257.195 182.239C257.403 179.557 259.727 175.127 260.297 172.076L260.34 171.847Z" fill="#FEFEFE"/>
<path d="M433.637 106.509C434.965 106.22 436.912 105.08 438.237 105.284L438.482 105.714C439.275 106.546 441.51 108.714 441.505 109.878C441.802 111.195 441.13 113.225 440.697 114.495C440.77 115.095 440.795 115.497 440.565 116.063C439.225 115.784 435.457 107.949 433.637 106.509Z" fill="#FEFEFE"/>
<path d="M452.612 149.625C452.745 149.621 452.81 149.61 452.932 149.635C453.455 149.744 454.055 150.326 454.34 150.757C454.792 151.439 454.835 152.358 454.658 153.137C454.38 154.345 453.52 155.376 452.465 156C451.01 156.862 449.623 156.637 448.073 156.211L447.913 156.015C446.828 154.665 446.262 153.678 445.938 151.933C446.527 150.706 450.203 151.97 452.483 149.755L452.612 149.625Z" fill="#FEFEFE"/>
<path d="M265.665 130.203C268.86 130.247 283.57 131.091 285.598 133.049C285.895 133.337 285.842 133.441 285.86 133.83C285.555 134.097 285.275 134.377 284.892 134.53C282.215 133.271 269.91 133.021 265.723 132.086C265.403 131.427 265.583 130.915 265.665 130.203Z" fill="#FEFEFE"/>
<path d="M444.42 103.625C445.218 103.666 451.008 107.542 452.668 108.271C456.803 110.085 462.713 111.552 467.113 109.915C468.455 109.415 469.37 108.363 470.658 107.864L471.065 108.044C471.155 108.266 471.238 108.49 471.255 108.73C471.31 109.416 471.015 109.825 470.595 110.315C470.463 110.71 470.183 110.956 469.85 111.191C467.073 113.155 462.395 112.798 459.18 112.279C455.693 111.716 446.203 108.992 444.228 106.05C443.885 105.54 444.298 104.246 444.42 103.625Z" fill="#FEFEFE"/>
<path d="M391.405 119.625C391.79 119.688 392.045 119.651 392.31 119.949C393.772 121.594 394.912 124.174 396.055 126.087C398.382 129.981 401.068 133.92 403.073 137.981C403.218 138.275 403.237 138.554 403.217 138.879C401.617 139.577 399.517 139.858 397.805 140.28C397.79 140.287 397.778 140.298 397.763 140.3C397.043 140.38 394.423 135.405 393.355 134.466C394.23 134.275 395.127 134.129 395.93 133.715C395.925 133.666 395.923 133.616 395.918 133.567C395.67 131.556 389.872 121.828 388.182 120.455C389.292 120.256 390.335 119.972 391.405 119.625Z" fill="#FEFEFE"/>
<path d="M406.508 114.875C406.888 114.794 407.277 114.771 407.662 114.733C407.815 114.826 407.94 114.894 408.052 115.037C409.46 116.849 410.537 119.285 411.745 121.274C414.172 125.272 417.032 129.3 419.125 133.472C419.272 133.765 419.315 134.001 419.295 134.323C417.64 135.053 415.738 135.465 413.983 135.876C413.68 136.083 413.393 136.095 413.043 136.135C411 134.522 410.118 131.03 408.293 129.025C409.503 128.638 410.735 128.349 411.97 128.05C411.567 125.316 405.04 117.571 405.205 115.52L406.508 114.875Z" fill="#FEFEFE"/>
<path d="M443.363 78.1248C444.848 78.7303 446.305 81.5645 447.608 82.7803C451.52 86.426 457.198 88.8705 462.58 88.6748C463.588 88.6334 464.589 88.5241 465.583 88.3468C466.576 88.1694 467.553 87.9258 468.513 87.6158C472.128 86.462 481.368 82.134 483.968 79.3378C483.95 79.5155 483.953 79.5755 483.91 79.7343C483.69 80.5483 482.848 80.9695 482.183 81.3743C482.075 81.7045 481.93 81.858 481.695 82.112C477.435 86.7283 469.655 90.6483 463.333 90.9533C458.088 91.2063 450.27 89.7568 446.488 85.861C444.89 84.215 443.785 82.048 442.068 80.529C442.018 80.4838 441.965 80.4398 441.915 80.3953C442.653 79.7358 442.998 79.031 443.363 78.1248Z" fill="#FEFEFE"/>
<path d="M454.835 177.271C457.347 176.904 463.537 176.113 465.655 177.865C466.187 178.308 466.175 178.596 466.225 179.237C465.515 181.037 463.62 181.964 461.937 182.697C457.455 184.649 451.548 185.947 446.695 184.916C446.245 184.663 445.875 184.351 445.483 184.021C445.235 183.398 445.075 183.095 445.325 182.423C446.058 180.458 450.452 178.804 452.217 178.024C452.84 177.859 453.545 177.496 454.127 177.783C454.332 178.712 454.425 180.297 455.002 181L455.425 180.846C455.715 180.14 455.465 178.572 455.185 177.847C455.105 177.639 454.97 177.446 454.835 177.271Z" fill="#FEFEFE"/>
<path d="M423.545 109.625C423.88 109.602 424.207 109.511 424.51 109.706C425.515 110.359 436.292 126.873 436.662 128.426C435.267 129.517 432.045 130.22 430.297 130.644L429.897 130.849C428.367 129.698 426.597 126.205 425.415 124.491C426.41 124.156 427.457 123.866 428.352 123.308C428.352 123.187 428.357 123.18 428.342 123.042C428.197 121.655 421.59 111.613 420.267 110.575C421.39 110.313 422.467 110.047 423.545 109.625Z" fill="#FEFEFE"/>
<path d="M381.335 122.625C382 122.685 382.168 122.62 382.598 123.169C383.86 124.789 389.557 134.065 389.422 135.508C390.417 135.287 391.372 135.023 392.337 134.699C392.48 134.799 392.602 134.883 392.715 135.019C393.635 136.129 396.105 139.476 396.052 140.793C394.655 141.304 393.257 141.591 391.802 141.878C390.79 142.292 389.63 142.456 388.56 142.686C388.555 142.59 388.558 142.427 388.533 142.325C388.125 140.533 378.143 125.208 376.633 124.189C378.15 123.873 379.997 123.412 381.335 122.625Z" fill="#FEFEFE"/>
<path d="M397.742 117.625L398.527 117.553C400.427 119.595 404.52 128.704 405.81 129.691C406.2 129.99 407.09 129.605 407.603 129.565C407.82 129.818 408.03 130.076 408.223 130.349C408.985 131.441 411.665 135.343 411.455 136.58C409.965 137.247 408.177 137.532 406.59 137.875C405.965 138.233 405.16 138.324 404.462 138.477C404.05 136.926 393.692 119.875 392.932 119.261C394.532 118.887 396.225 118.256 397.742 117.625Z" fill="#FEFEFE"/>
<path d="M432.485 106.875C432.807 106.926 432.992 106.919 433.252 107.131C434.305 107.991 440.017 117.174 440.145 118.314C440.23 118.487 440.295 118.609 440.32 118.803C440.52 120.493 440.347 126.03 439.275 127.378C438.862 127.895 438.657 127.91 438.042 127.994C437.225 127.579 436.662 126.283 435.965 125.6L435.832 125.474C435.825 125.347 435.827 125.346 435.802 125.204C435.63 124.205 426.075 109.896 425.127 109.208C427.555 108.681 430.16 107.761 432.485 106.875Z" fill="#FEFEFE"/>
<path d="M410.415 113.728C411.67 113.353 413.41 113.027 414.513 112.353C415.438 112.985 417.32 115.577 417.478 116.667C417.493 116.774 417.473 116.924 417.465 117.024C419.185 117.959 422.4 125.345 423.373 125.327C423.963 125.317 424.06 125.002 424.753 125.195C425.763 126.378 428.478 129.904 428.535 131.415C427.05 132.47 422.158 133.537 420.218 134.028C420.105 131.989 410.63 118.23 409.103 114.634C409.358 114.08 409.875 113.984 410.415 113.728Z" fill="#FEFEFE"/>
<path d="M256.483 163.786C258.445 163.713 260.788 164.293 262.755 164.566L276.755 166.514C276.82 166.749 276.848 166.899 276.798 167.143C276.263 169.731 274.463 174.156 272.165 175.616C270.27 176.834 267.693 176.567 265.553 176.457C264.835 176.153 263.763 176.135 262.978 176.03C263.815 174.989 265.495 171.833 265.595 170.513C265.645 169.867 265.493 169.182 265.035 168.702C264.583 168.228 263.915 168.011 263.27 168.027C258.76 168.144 259.838 174.143 257.588 176.486C257.543 176.531 257.5 176.574 257.455 176.619C257.04 175.596 256.29 174.821 255.968 173.712C254.805 169.713 257.078 166.669 256.483 163.786Z" fill="#FEFEFE"/>
<path d="M374.587 124.625C374.97 124.602 375.357 124.622 375.74 124.628C377.377 126.474 387.41 141.293 387.505 142.861C385.753 144.074 378.157 145.541 375.837 146.106C375.465 145.467 374.915 145.115 374.325 144.701C374.315 144.641 374.308 144.58 374.295 144.521C374.08 143.45 361.28 129.961 359.93 129.164C363.787 127.979 371.337 126.174 374.587 124.625Z" fill="#FEFEFE"/>
<path d="M444.11 76.9603C449.03 73.6213 450.045 70.839 457.01 70.7778C460.48 70.7473 464.12 71.9493 466.587 74.452C469.38 77.2863 470.715 81.631 470.725 85.5395C469.95 85.9585 469.262 86.126 468.395 86.2693C467.022 87.6155 463.11 87.6623 461.28 87.6355C460.58 87.6253 459.877 87.5523 459.182 87.4675C454.442 86.4958 450.047 83.8315 446.805 80.2733C445.845 79.219 445.06 78.0273 444.11 76.9603Z" fill="#FEFEFE"/>
<path d="M443.965 85.6245C445.635 85.829 447.768 88.3428 449.33 89.2578C450.263 89.8038 451.525 90.1413 452.555 90.4718C457.458 92.0465 465.08 93.1938 469.89 90.7213C470.61 92.267 469.508 104.708 469.015 106.905C468.85 107.639 468.515 108 467.885 108.38C464.833 110.225 459.065 109.145 455.8 108.38C451.773 106.655 448.29 104.851 444.843 102.143C445.558 101.218 445.558 99.751 445.488 98.6453C446.26 98.805 447.098 99.0133 447.888 99.0335C449.2 99.0675 450.998 98.4305 451.948 97.5135C452.029 97.436 452.106 97.3545 452.178 97.269C452.251 97.1837 452.319 97.0949 452.383 97.0025C452.446 96.9102 452.505 96.8149 452.56 96.7168C452.613 96.6184 452.662 96.5177 452.705 96.4145C452.75 96.3112 452.789 96.206 452.823 96.099C452.856 95.9918 452.883 95.8833 452.905 95.7733C452.927 95.6633 452.943 95.5525 452.955 95.441C452.965 95.3294 452.97 95.2174 452.97 95.1053C452.965 94.49 452.96 93.938 452.508 93.51C451.133 94.5018 451.563 96.831 449.648 97.6883C448.743 98.0935 447.108 97.9918 446.198 97.617C443.81 96.6348 445.103 93.726 444.33 91.98C443.225 91.3515 442.015 91.966 441.005 90.854C440.83 88.7053 443.175 87.546 443.923 85.7373C443.938 85.7003 443.95 85.6623 443.965 85.6245Z" fill="#FEFEFE"/>
<path d="M359.425 136.374L360.1 136.371C361.245 137.024 370.415 146.825 370.777 148.014C370.377 149.031 360.61 157.772 358.842 159.441C349.832 167.96 341.272 176.939 332.247 185.431C329.922 187.62 327.307 190.679 324.587 192.313C324.572 192.382 324.547 192.512 324.515 192.584C323.857 193.996 319.472 197.785 318.085 198.374C319.997 195.7 320.735 191.917 322.327 188.974C324.701 184.573 327.185 180.236 329.78 175.962C332.375 171.689 335.077 167.484 337.887 163.349C343.3 155.35 349.122 147.221 355.837 140.255C356.882 139.17 358.825 137.702 359.425 136.374Z" fill="#FEFEFE"/>
<path d="M384.55 149.064C389.08 148.303 393.713 146.81 398.138 145.56C407.553 142.926 416.894 140.057 426.163 136.951C430.073 135.672 436.14 134.206 439.55 132.139C439.625 132.243 439.628 132.241 439.7 132.368C440.088 133.041 440.017 134.52 440.122 135.322C440.435 137.75 441.155 140.236 441.39 142.631C441.42 142.943 441.368 143.245 441.29 143.546C440.815 144.117 439.558 144.438 438.85 144.715C434.883 146.63 430.802 148.336 426.772 150.113C415.442 155.108 397.138 163.226 384.913 158.819C382.02 157.776 379.75 155.004 377.688 154.25C377.68 154.188 377.673 154.128 377.66 154.066C377.443 153.078 376.055 152.112 375.263 151.555C378.008 150.994 380.753 150.057 383.47 149.344C384.315 149.841 385.042 150.628 385.772 151.281C388.297 153.54 390.685 155.084 394.14 155.463C397.505 155.832 403.54 155.252 406.23 153.098L406.182 152.781C404.6 152.641 402.635 153.435 401.098 153.825C396.278 155.044 392.215 154.734 388.09 151.732C386.885 150.853 385.855 149.812 384.55 149.064Z" fill="#FEFEFE"/>
<path d="M443.09 107.535C443.965 107.45 446.675 108.798 447.262 109.532C447.315 109.597 447.345 109.676 447.385 109.748L447.587 109.801C449.275 110.253 450.872 111.04 452.517 111.627C457.512 113.407 463.72 115.028 468.802 112.755C469.865 117.886 462.085 136.169 458.88 141.04C456.875 144.09 453.382 149.211 449.57 150.042C448.435 150.289 447.18 150.098 446.2 149.464C443.505 147.718 442.362 142.802 441.78 139.825C441.398 137.855 441.127 135.87 440.967 133.87C440.835 132.074 441.187 126.799 440.667 125.523C441.075 124.416 441.995 114.853 441.59 113.966C441.61 113.937 441.63 113.908 441.65 113.878C442.352 112.741 442.485 111.811 442.152 110.525C443.32 110.978 444.41 111.837 445.455 112.526C446.63 113.121 447.827 113.666 449.045 114.164C450.263 114.661 451.5 115.107 452.755 115.504C455.345 116.296 462.54 117.892 464.92 116.626L465.012 116.241C464.562 115.684 464.212 115.714 463.54 115.716C459.28 115.733 456.012 115.543 451.917 114.111C450.14 113.489 448.415 112.678 446.585 112.219C445.895 111.25 444.435 110.945 443.635 110.091C442.957 109.367 443.047 108.449 443.09 107.535Z" fill="#FEFEFE"/>
</g>
<defs>
<clipPath id="clip0_18_2">
<rect width="512" height="256" fill="white"/>
</clipPath>
</defs>
</svg>
