<?xml version="1.0" encoding="iso-8859-1"?>
<!-- Uploaded to: SVG Repo, www.svgrepo.com, Generator: SVG Repo Mixer Tools -->
<svg fill="#000000" height="800px" width="800px" version="1.1" id="Layer_1" xmlns="http://www.w3.org/2000/svg" xmlns:xlink="http://www.w3.org/1999/xlink" 
	 viewBox="0 0 512 512" xml:space="preserve">
<g>
	<g>
		<path d="M165.852,398.326c-0.163-0.858-0.436-1.716-0.776-2.546c-0.34-0.817-0.763-1.607-1.253-2.342
			c-0.489-0.749-1.061-1.443-1.689-2.07c-0.626-0.626-1.321-1.2-2.07-1.702c-0.735-0.49-1.525-0.912-2.356-1.253
			c-0.817-0.34-1.674-0.599-2.545-0.776c-1.757-0.354-3.554-0.354-5.311,0c-0.871,0.177-1.729,0.436-2.546,0.776
			c-0.831,0.34-1.619,0.763-2.354,1.253c-0.75,0.502-1.445,1.076-2.071,1.702c-0.626,0.626-1.198,1.321-1.702,2.07
			c-0.49,0.735-0.899,1.525-1.239,2.342c-0.34,0.831-0.613,1.689-0.79,2.546c-0.177,0.885-0.257,1.785-0.257,2.669
			c-0.001,0.884,0.08,1.783,0.257,2.654c0.177,0.872,0.449,1.731,0.79,2.546c0.34,0.831,0.764,1.62,1.253,2.354
			c0.49,0.75,1.062,1.445,1.689,2.071c2.533,2.533,6.046,3.99,9.627,3.99c0.884,0,1.784-0.094,2.655-0.272
			c0.871-0.177,1.729-0.434,2.545-0.775c0.831-0.34,1.62-0.764,2.356-1.253c0.749-0.49,1.443-1.062,2.07-1.688
			c0.628-0.626,1.2-1.321,1.689-2.071c0.49-0.734,0.912-1.524,1.253-2.354c0.34-0.817,0.613-1.675,0.776-2.546
			c0.177-0.872,0.272-1.77,0.272-2.655C166.125,400.112,166.029,399.212,165.852,398.326z"/>
	</g>
</g>
<g>
	<g>
		<path d="M228.491,357.474c-0.163-0.858-0.436-1.716-0.776-2.546c-0.34-0.817-0.763-1.607-1.253-2.342
			c-0.489-0.749-1.061-1.443-1.689-2.07c-0.626-0.626-1.321-1.2-2.07-1.702c-0.735-0.49-1.525-0.912-2.356-1.253
			c-0.817-0.34-1.674-0.599-2.545-0.776c-1.757-0.354-3.568-0.354-5.311,0c-0.871,0.177-1.729,0.436-2.546,0.776
			c-0.831,0.34-1.619,0.763-2.354,1.253c-0.75,0.503-1.445,1.076-2.071,1.702c-2.533,2.531-3.99,6.032-3.99,9.626
			c0,0.885,0.094,1.785,0.272,2.655c0.163,0.872,0.436,1.731,0.776,2.548c0.34,0.831,0.764,1.62,1.253,2.354
			c0.49,0.75,1.062,1.445,1.688,2.071c0.626,0.626,1.321,1.198,2.071,1.688c0.735,0.489,1.524,0.912,2.354,1.253
			c0.818,0.34,1.675,0.598,2.546,0.775c0.872,0.178,1.77,0.272,2.655,0.272c0.884,0,1.784-0.094,2.655-0.272
			c0.871-0.177,1.729-0.434,2.545-0.775c0.831-0.34,1.62-0.764,2.356-1.253c0.749-0.49,1.443-1.062,2.07-1.688
			c0.628-0.626,1.2-1.321,1.689-2.071c0.49-0.734,0.912-1.524,1.253-2.354c0.34-0.817,0.613-1.675,0.776-2.546
			c0.177-0.872,0.272-1.77,0.272-2.655C228.763,359.259,228.668,358.359,228.491,357.474z"/>
	</g>
</g>
<g>
	<g>
		<path d="M291.13,316.622c-0.163-0.858-0.436-1.716-0.776-2.546c-0.34-0.817-0.763-1.607-1.253-2.342
			c-0.489-0.749-1.061-1.443-1.689-2.07c-3.158-3.173-7.869-4.618-12.283-3.731c-0.871,0.177-1.729,0.436-2.56,0.776
			c-0.818,0.34-1.607,0.763-2.342,1.253c-0.75,0.502-1.445,1.061-2.071,1.702c-0.626,0.626-1.198,1.321-1.689,2.07
			c-0.504,0.735-0.912,1.525-1.253,2.342c-0.34,0.831-0.613,1.689-0.775,2.546c-0.178,0.885-0.272,1.785-0.272,2.669
			c0,0.885,0.094,1.785,0.272,2.655c0.163,0.871,0.436,1.731,0.776,2.548c0.34,0.831,0.749,1.62,1.253,2.354
			c0.49,0.75,1.062,1.445,1.688,2.071c0.626,0.626,1.321,1.198,2.071,1.689c0.735,0.489,1.524,0.912,2.342,1.253
			c0.831,0.34,1.689,0.598,2.56,0.775c0.872,0.178,1.77,0.272,2.655,0.272c3.581,0,7.094-1.456,9.626-3.99
			c0.628-0.626,1.2-1.321,1.689-2.071c0.49-0.734,0.912-1.524,1.253-2.354c0.34-0.817,0.599-1.675,0.776-2.546
			c0.177-0.872,0.272-1.77,0.272-2.655C291.403,318.407,291.307,317.507,291.13,316.622z"/>
	</g>
</g>
<g>
	<g>
		<path d="M485.742,187.53c-1.831-30.2-26.955-54.864-57.194-56.15c-13.533-0.58-26.465,3.264-37.428,11.099l-71.126,50.82
			L285.643,82.572c-0.136-0.438-0.294-0.87-0.474-1.291C264.184,31.905,215.959,0,162.313,0H47.93
			C35.917,0,26.143,9.774,26.143,21.787v42.217c0,4.927,1.925,9.552,5.422,13.022c1.966,1.951,4.3,3.382,6.833,4.273v351.225
			c-7.243,3.544-12.255,10.969-12.255,19.561v38.128c0,12.013,9.774,21.787,21.787,21.787h210.634
			c7.066,0,13.711-3.444,17.796-9.219l198.633-277.136c0.033-0.046,0.067-0.093,0.099-0.142
			C482.889,214.326,486.573,201.196,485.742,187.53z M452.801,209.859L255.764,484.766H53.377v-27.234h46.027h135.003
			c4.374,0,8.481-2.101,11.039-5.646l157.733-218.484c3.903-5.409,3.316-12.849-1.39-17.576c-4.706-4.729-12.144-5.35-17.567-1.475
			l-38.695,27.651c-8.354,5.987-18.216,9.153-28.521,9.153c-19.486,0-37.029-11.466-44.879-29.267L235.514,103.88
			c-0.136-0.438-0.294-0.87-0.474-1.291c-12.421-29.234-40.969-48.121-72.802-48.121l-88.98,0.487H53.377V27.234h108.936
			c42.477,0,80.686,25.133,97.529,64.084l36.619,118.036c0.138,0.441,0.295,0.876,0.477,1.299
			c3.433,8.06,11.309,13.267,20.067,13.267c4.579,0,8.956-1.403,12.638-4.043l77.311-55.24c5.977-4.27,13.03-6.382,20.438-6.047
			c16.479,0.701,30.169,14.137,31.168,30.589C459.01,196.631,457.02,203.78,452.801,209.859z M65.632,430.298V82.233l7.786-0.042
			h12.367v348.107H65.632z M152.509,373.757c7.519,0,13.617-6.098,13.617-13.617V81.842C180,82.858,192.67,89.381,201.53,99.667
			v219.624c0,7.519,6.098,13.617,13.617,13.617c7.519,0,13.617-6.098,13.617-13.617V174.035l17.566,56.621
			c0.136,0.44,0.295,0.873,0.475,1.296c4.122,9.687,10.078,18.196,17.363,25.196v21.292c0,7.519,6.098,13.617,13.617,13.617
			c7.519,0,13.617-6.098,13.617-13.617v-4.469c8.071,2.872,16.704,4.419,25.601,4.419c7.739,0,15.318-1.149,22.55-3.382
			L227.442,430.298H113.02V81.973l25.872-0.143v278.31C138.892,367.66,144.99,373.757,152.509,373.757z"/>
	</g>
</g>
</svg>